<svg xmlns="http://www.w3.org/2000/svg" xmlns:xlink="http://www.w3.org/1999/xlink" version="1.1" viewBox="64 0 16 35" width="8" height="18">
<g transform="translate(0,313) scale(1,-1) scale(.01800) translate(2100,27250)" stroke-linejoin="round" color="black" stroke="currentColor" fill="none" stroke-width="26.7067" fill-rule="evenodd">
<path d=" M1618 -11743 L1662 -11743 L1700 -11737 L1756 -11718 L1806 -11693 L1850 -11662 L1868 -11643 L1900 -11606 L1918 -11568 L1925 -11531 L1925 -11506 L1918 -11481 L1912 -11468 L1893 -11443 L1868 -11425 L1856 -11418 L1837 -11412 L1806 -11406 L1762 -11406 L1725 -11412 L1687 -11425 L1668 -11431 L1618 -11456 L1575 -11487 L1556 -11506 L1525 -11543 L1506 -11581 L1500 -11618 L1500 -11643 L1506 -11668 L1512 -11681 L1531 -11706 L1556 -11725 L1568 -11731 L1587 -11737 L1618 -11743 Z" fill="currentColor"/>
<path d=" M1925 -11522 L1925 -9912 "/>
<path stroke-width="20.0300" d=" M2293 -11562 L2300 -11525 L2306 -11437 L2306 -11406 L2300 -11337 L2293 -11300 L2275 -11237 L2256 -11193 L2237 -11156 L2212 -11118 L2181 -11081 L2150 -11050 L2112 -11018 L2056 -10981 L1993 -10950 L1925 -10925 L1925 -10587 L1943 -10662 L1950 -10681 L1962 -10712 L1987 -10762 L2006 -10793 L2025 -10818 L2056 -10856 L2125 -10931 L2150 -10956 L2193 -11006 L2218 -11037 L2243 -11075 L2268 -11118 L2287 -11162 L2300 -11200 L2312 -11250 L2318 -11287 L2325 -11362 L2325 -11431 L2318 -11500 L2312 -11543 L2306 -11575 L2300 -11600 L2293 -11562 Z" fill="currentColor"/>
<path stroke-width="20.0300" d=" M2312 -11543 L2306 -11575 L2300 -11600 L2287 -11643 L2262 -11712 L2275 -11668 L2281 -11637 L2287 -11606 L2293 -11562 L2300 -11525 L2312 -11543 Z" fill="currentColor"/>
<path stroke-width="20.0300" d=" M2293 -11212 L2300 -11175 L2306 -11087 L2306 -11056 L2300 -10987 L2293 -10950 L2275 -10887 L2256 -10843 L2237 -10806 L2212 -10768 L2181 -10731 L2150 -10700 L2112 -10668 L2056 -10631 L1993 -10600 L1925 -10575 L1925 -10237 L1943 -10312 L1950 -10331 L1962 -10362 L1987 -10412 L2006 -10443 L2025 -10468 L2056 -10506 L2125 -10581 L2150 -10606 L2193 -10656 L2218 -10687 L2243 -10725 L2268 -10768 L2287 -10812 L2300 -10850 L2312 -10900 L2318 -10937 L2325 -11012 L2325 -11081 L2318 -11150 L2312 -11193 L2306 -11225 L2300 -11250 L2293 -11212 Z" fill="currentColor"/>
<path stroke-width="20.0300" d=" M2293 -10862 L2300 -10825 L2306 -10737 L2306 -10706 L2300 -10637 L2293 -10600 L2275 -10537 L2256 -10493 L2237 -10456 L2212 -10418 L2181 -10381 L2150 -10350 L2112 -10318 L2056 -10281 L1993 -10250 L1925 -10225 L1925 -9887 L1943 -9962 L1950 -9981 L1962 -10012 L1987 -10062 L2006 -10093 L2025 -10118 L2056 -10156 L2125 -10231 L2150 -10256 L2193 -10306 L2218 -10337 L2243 -10375 L2268 -10418 L2287 -10462 L2300 -10500 L2312 -10550 L2318 -10587 L2325 -10662 L2325 -10731 L2318 -10800 L2312 -10843 L2306 -10875 L2300 -10900 L2293 -10862 Z" fill="currentColor"/>
</g>
</svg>