<?xml version="1.0" encoding="UTF-8" standalone="no"?>
<svg width="1285px" height="545px" version="1.1" xmlns="http://www.w3.org/2000/svg" xmlns:xlink="http://www.w3.org/1999/xlink" overflow="visible">
	<defs>
		<symbol id="E050" viewBox="0 0 1000 1000" overflow="inherit">
			<path transform="scale(1,-1)" d="M470 943c-61 0 -133 -96 -133 -252c0 -32 2 -66 6 -92c2 -13 6 -14 13 -8c23 20 47 43 63 59c78 78 111 142 111 211c0 55 -27 82 -60 82zM430 103l49 -285c2 -12 4 -12 16 -6c56 28 94 79 94 142c0 88 -67 156 -148 163c-12 1 -13 -2 -11 -14zM361 262l-21 128 c-2 11 -4 12 -14 4c-47 -38 -93 -75 -153 -142c-83 -94 -93 -173 -93 -232c0 -139 113 -236 288 -236c20 0 40 2 56 5c15 3 16 3 14 14l-50 298c-2 11 -4 12 -20 8c-61 -17 -100 -60 -100 -117c0 -46 30 -89 72 -107c7 -3 15 -6 15 -13c0 -6 -4 -11 -12 -11 c-7 0 -19 3 -27 6c-68 23 -115 87 -115 177c0 85 57 164 145 194c18 6 18 5 15 24zM376 415l25 -145c3 -18 3 -18 29 -18c147 0 241 -113 241 -241c0 -113 -67 -198 -168 -238c-14 -6 -15 -5 -13 -17c11 -62 29 -157 29 -214c0 -170 -130 -200 -197 -200 c-151 0 -190 98 -190 163c0 62 40 115 107 115c61 0 96 -47 96 -102c0 -58 -36 -85 -67 -94c-23 -7 -32 -10 -32 -17c0 -13 26 -29 80 -29c59 0 159 18 159 166c0 47 -15 134 -27 201c-2 12 -4 11 -15 9c-20 -4 -46 -6 -69 -6c-245 0 -364 165 -364 339 c0 107 43 200 112 286c52 64 121 125 185 178c12 10 11 12 9 24c-7 41 -14 106 -14 164c0 104 24 229 98 311c20 22 51 48 65 48c11 0 37 -28 52 -50c41 -60 65 -146 65 -233c0 -113 -50 -232 -134 -324c-19 -21 -40 -42 -56 -57c-6 -6 -8 -7 -6 -19z" />
		</symbol>
		<symbol id="E260" viewBox="0 0 1000 1000" overflow="inherit">
			<path transform="scale(1,-1)" d="M47 -81c0 -5 2 -15 11 -15c3 0 6 1 10 3c30 19 59 51 72 75c12 21 17 42 17 60c0 19 -6 36 -16 47c-6 7 -15 11 -25 11c-8 0 -17 -2 -26 -7c-14 -8 -40 -30 -44 -42c-1 -4 -2 -16 -2 -32c0 -40 3 -100 3 -100zM12 -170c-8 10 -12 581 -12 581c1 18 17 28 31 28 c10 0 19 -6 19 -17c0 -20 -6 -260 -7 -282c0 -7 4 -14 11 -17c2 -1 3 -1 5 -1c5 0 16 9 22 14c11 7 23 11 34 14c7 2 14 3 21 3c46 -3 90 -39 90 -96c0 -46 -31 -107 -120 -169c-25 -17 -49 -44 -79 -61c0 0 -3 -2 -6 -2s-6 1 -9 5z" />
		</symbol>
		<symbol id="E082" viewBox="0 0 1000 1000" overflow="inherit">
			<path transform="scale(1,-1)" d="M421 -91c-16 -155 -93 -159 -136 -159c-89 0 -104 54 -144 54c-59 0 -71 -61 -93 -61c-2 0 -5 0 -8 2c-11 7 -18 20 -18 31c0 2 1 4 1 6c17 63 56 112 111 147c49 30 77 54 113 102c22 29 34 64 34 102c0 29 -1 96 -90 96c-59 0 -77 -24 -79 -38c0 -20 69 -23 69 -83 c0 -25 -9 -88 -70 -88c-36 0 -67 24 -82 55c-6 15 -9 29 -9 43c0 27 11 52 28 73c24 28 59 49 94 56c26 6 60 7 87 7c22 0 100 -6 151 -49c26 -22 46 -56 46 -103c0 -44 -19 -73 -43 -92c-33 -27 -75 -35 -90 -39c-22 -6 -107 -36 -129 -72c11 4 24 6 37 6 c41 0 88 -16 108 -24c10 -5 17 -6 30 -11c7 -2 12 -3 17 -3c21 0 29 19 39 43c0 1 1 2 1 3c2 6 5 10 13 10c7 0 12 -2 12 -14z" />
		</symbol>
		<symbol id="E084" viewBox="0 0 1000 1000" overflow="inherit">
			<path transform="scale(1,-1)" d="M362 -74h73c11 0 15 -7 15 -19s-5 -19 -15 -19h-73v-59c0 -32 21 -38 31 -38s22 -6 22 -20s-10 -21 -20 -21h-213c-15 0 -19 11 -19 21s7 19 23 19c18 0 40 8 40 35v63h-186c-12 0 -20 7 -20 17c0 3 1 7 3 11c0 1 1 2 1 3l6 8c30 42 128 181 128 305c0 16 14 19 23 19 c8 0 53 -2 71 -2s59 2 68 2c8 0 15 -6 15 -14c0 -2 -1 -3 -1 -5c-3 -11 -163 -238 -243 -306h135v84c0 12 5 18 9 23l95 115c6 7 11 9 20 9c11 0 12 -9 12 -17v-214z" />
		</symbol>
		<symbol id="E0A4" viewBox="0 0 1000 1000" overflow="inherit">
			<path transform="scale(1,-1)" d="M97 -125c-54 0 -97 31 -97 83c0 86 88 167 198 167c57 0 97 -32 97 -83c0 -85 -109 -167 -198 -167z" />
		</symbol>
		<symbol id="E886" viewBox="0 0 1000 1000" overflow="inherit">
			<path transform="scale(1,-1)" d="M165 194c-35 0 -67 -40 -77 -92c-7 -34 -10 -84 37 -84c39 0 77 57 77 127c0 29 -8 49 -37 49zM229 350c-59 -3 -97 -68 -118 -127c-6 -19 3 -20 12 -14c20 15 44 21 71 21c58 0 89 -38 89 -86c0 -102 -82 -152 -155 -152c-124 0 -136 108 -100 217 c36 111 105 166 191 166c59 0 95 -30 95 -71c0 -34 -20 -56 -49 -56c-22 0 -42 14 -42 38c0 21 12 36 27 43c5 2 14 6 14 10c0 6 -16 12 -35 11z" />
		</symbol>
		<symbol id="E062" viewBox="0 0 1000 1000" overflow="inherit">
			<path transform="scale(1,-1)" d="M252 262c173 0 279 -116 279 -290c0 -131 -52 -253 -139 -347c-106 -114 -234 -190 -367 -255c-6 -3 -12 -5 -17 -5c-9 0 -13 6 -13 12c0 8 6 13 15 18c124 71 227 156 287 249c62 96 84 216 84 319c0 157 -46 261 -152 261c-102 0 -162 -73 -162 -113 c0 -10 3 -18 16 -18s23 7 50 7c49 0 96 -40 96 -104c0 -62 -43 -106 -106 -106c-81 0 -123 69 -123 149c0 96 78 223 252 223zM630 -71c31 0 54 -23 54 -54s-23 -54 -54 -54s-54 23 -54 54s23 54 54 54zM629 180c31 0 55 -24 55 -55s-24 -55 -55 -55s-55 24 -55 55 s24 55 55 55z" />
		</symbol>
		<symbol id="E241" viewBox="0 0 1000 1000" overflow="inherit">
			<path transform="scale(1,-1)" d="M240 760c-15 43 30 65 38 33s28 -103 28 -181c0 -125 -61 -244 -124 -343c-51 -79 -125 -166 -142 -261c-2 -16 -10 -22 -29 -22c-6 0 -11 3 -11 15v235c134 45 184 126 221 210c15 34 40 118 40 177c0 45 -7 95 -21 137z" />
		</symbol>
		<symbol id="E4E6" viewBox="0 0 1000 1000" overflow="inherit">
			<path transform="scale(1,-1)" d="M134 107v-10c33 0 83 60 90 66c6 4 9 4 11 4c2 -1 12 -6 12 -16c-1 -5 -6 -21 -10 -39c0 0 -98 -351 -101 -353c-10 -8 -24 -10 -35 -10c-6 0 -29 1 -29 13c18 66 90 265 93 280c1 4 1 8 1 11c0 5 -1 9 -5 9c-1 0 -3 0 -5 -1c-13 -7 -22 -11 -36 -15 c-11 -4 -25 -7 -39 -7c-9 0 -18 2 -26 4c-10 2 -19 7 -28 13c-15 12 -27 30 -27 51c0 37 30 67 67 67s67 -30 67 -67z" />
		</symbol>
		<symbol id="E262" viewBox="0 0 1000 1000" overflow="inherit">
			<path transform="scale(1,-1)" d="M168 -45c2 9 4 37 4 64s-2 52 -4 57c-2 4 -8 6 -15 6c-25 0 -71 -21 -73 -38c-2 -8 -3 -43 -3 -74c0 -24 1 -46 3 -50c1 -3 6 -5 12 -5c23 0 70 20 76 40zM237 118l-26 -10c-8 -3 -13 -22 -13 -29v-93c0 -12 7 -18 13 -18l26 10c2 1 3 1 5 1c4 0 7 -3 7 -8v-71 c0 -6 -5 -14 -12 -17c0 0 -21 -8 -28 -11s-11 -15 -11 -23v-142c0 -6 -6 -11 -17 -11c-7 0 -13 5 -13 11v125c0 6 -5 18 -13 18c-1 0 -3 -1 -4 -1l-61 -25c-5 -2 -10 -9 -10 -22v-139c0 -6 -7 -11 -17 -11c-7 0 -13 5 -13 11v123c0 5 -5 16 -12 16c-1 0 -2 0 -3 -1 c-9 -3 -23 -9 -23 -9c-1 0 -3 -1 -4 -1c-5 0 -8 3 -8 9v71c0 6 5 14 12 16c0 0 21 9 27 11c6 3 11 12 11 23v99c0 8 -6 18 -13 18c-1 0 -2 -1 -3 -1c-7 -4 -22 -10 -22 -10c-1 0 -3 -1 -4 -1c-5 0 -8 3 -8 9v71c0 6 5 14 12 16c0 0 20 8 26 11s12 13 12 27v135 c0 6 6 11 16 11c7 0 14 -5 14 -11v-120c0 -8 3 -20 12 -20c17 4 51 18 63 25c9 6 12 19 13 29v130c0 6 6 11 16 11c8 0 14 -5 14 -11v-122c0 -8 7 -13 14 -13c5 1 25 9 25 9c2 1 3 1 5 1c4 0 7 -3 7 -8v-71c0 -6 -5 -14 -12 -17z" />
		</symbol>
		<symbol id="E567" viewBox="0 0 1000 1000" overflow="inherit">
			<path transform="scale(1,-1)" d="M371 218c43 0 89 -31 89 -103c0 -64 -38 -114 -104 -114c-65 0 -109 38 -158 92c-43 48 -76 75 -108 75c-35 0 -65 -21 -65 -64c0 -26 16 -47 33 -47c21 0 22 23 51 23c21 0 36 -14 36 -36c0 -30 -25 -44 -56 -44c-43 0 -89 31 -89 103c0 64 38 114 104 114 c65 0 109 -38 158 -92c43 -48 76 -75 108 -75c35 0 65 21 65 64c0 26 -16 47 -33 47c-21 0 -22 -23 -51 -23c-21 0 -36 14 -36 36c0 30 25 44 56 44z" />
		</symbol>
		<symbol id="E566" viewBox="0 0 1000 1000" overflow="inherit">
			<path transform="scale(1,-1)" d="M266 390c4 0 6 -2 6 -6c0 -3 -1 -6 -3 -11l-50 -124c-2 -5 -5 -11 -5 -15c0 -2 1 -3 3 -3c5 0 11 4 24 11c21 11 59 31 99 31c22 0 37 -9 44 -22c8 -15 4 -22 9 -22c4 0 5 4 14 14c15 17 36 31 62 31c37 0 52 -24 52 -53c0 -35 -18 -55 -42 -55c-21 0 -36 12 -36 32 c0 28 22 31 22 40c0 4 -4 6 -10 6c-22 0 -54 -37 -67 -70l-65 -162c-4 -10 -7 -12 -16 -12h-49c-8 0 -11 2 -11 6c0 3 1 6 3 11l73 181c3 7 6 19 6 29c0 12 -4 15 -13 15c-19 0 -43 -14 -78 -35l-6 -3c-16 -9 -22 -14 -22 -20c0 -3 1 -5 3 -10c9 -22 13 -44 13 -68 c0 -74 -50 -116 -102 -116c-38 0 -57 22 -57 50c0 21 8 41 19 68l11 27c2 5 3 8 3 10s-1 3 -3 3c-6 0 -19 -2 -31 -2c-45 0 -66 26 -66 57c0 42 35 70 82 70c15 0 28 -3 42 -9c9 -4 15 -9 19 -9c3 0 4 2 8 12l36 88c4 10 8 13 17 16l49 16c3 1 9 3 13 3zM82 250 c-40 0 -55 -23 -55 -41c0 -14 8 -30 41 -30c10 0 22 2 35 5s17 6 22 19l4 10c2 5 4 10 4 13c0 5 -4 9 -13 14c-11 6 -26 10 -38 10zM189 167c-3 0 -4 -2 -6 -7c-38 -95 -39 -95 -39 -96c-4 -10 -8 -23 -8 -31c0 -7 3 -12 11 -12c29 0 56 40 56 84c0 18 -9 37 -9 54 c-2 5 -2 8 -5 8z" />
		</symbol>
		<symbol id="E261" viewBox="0 0 1000 1000" overflow="inherit">
			<path transform="scale(1,-1)" d="M37 39v-103c0 -4 5 -6 12 -6c25 0 82 23 82 41v103c0 4 -3 5 -9 5c-24 0 -85 -26 -85 -40zM141 181l15 5c1 1 3 1 4 1c4 0 8 -3 8 -8v-502c0 -7 -6 -12 -12 -12h-13c-7 0 -12 5 -12 12v149c0 8 -7 11 -17 11c-29 0 -85 -24 -99 -30c-1 -1 -3 -1 -3 -1c-1 0 -3 -1 -4 -1 c-5 0 -8 3 -8 9v515c0 7 5 12 12 12h13c6 0 12 -5 12 -12v-167c0 -4 4 -5 10 -5c26 0 90 23 90 23c1 0 2 1 4 1z" />
		</symbol>
		<symbol id="E56C" viewBox="0 0 1000 1000" overflow="inherit">
			<path transform="scale(1,-1)" d="M309 110l5 6c27 32 56 63 84 95c7 8 14 17 23 25c9 7 15 8 24 8c7 0 15 -6 23 -14c10 -9 76 -90 85 -99c5 -5 10 -10 17 -10c5 0 11 3 19 10c11 11 80 98 91 107c6 4 12 7 18 7c7 0 14 -3 21 -8c4 -3 6 -7 6 -10c0 -4 -8 -15 -14 -23c-13 -15 -177 -193 -184 -199 c-4 -3 -11 -5 -19 -5s-16 2 -20 7c-8 10 -82 87 -87 92c-6 8 -11 12 -16 12c-3 0 -9 -4 -15 -8c-1 0 -1 -1 -3 -2l-3 -3c-13 -11 -26 -22 -38 -34c-7 -6 -14 -14 -23 -19l-41 -40c-4 -3 -11 -5 -19 -5s-16 2 -20 7c-8 10 -82 87 -86 92c-7 8 -11 12 -16 12 c-4 0 -11 -5 -19 -11c-1 0 -2 -1 -3 -2c-13 -11 -26 -22 -38 -34c-11 -10 -26 -24 -41 -24s-20 4 -20 10c0 3 8 17 12 24l121 137c8 8 14 17 23 25c9 7 15 9 22 9c18 -2 24 -10 31 -19z" />
		</symbol>
	</defs>
	<style type="text/css">g.page-margin{font-family:Times;} g.tempo{font-weight:bold;} g.dir, g.dynam {font-style:italic;}</style>
	<svg id="definition-scale" viewBox="0 0 12850 5450">
		<g class="page-margin" transform="translate(500, 500)">
			<g class="system" id="system-000000102023967">
				<path d="M15 1445 L15 4010" stroke="#000000" stroke-width="30" />
				<path d="M-15,3990 C-375,3450 75,2908 -195,2728 C140,2908 -310,3450 -15,3990" stroke="#000000" stroke-linecap="round" stroke-linejoin="round" stroke-width="20" />
				<path d="M-15,1465 C-310,2005 140,2548 -195,2728 C75,2548 -375,2005 -15,1465" stroke="#000000" stroke-linecap="round" stroke-linejoin="round" stroke-width="20" />
				<g class="section boundaryStart" id="m-35" />
				<g class="measure" id="m-36">
					<g class="staff" id="m-37">
						<path d="M0 1445 L4801 1445" stroke="#000000" stroke-width="20" />
						<path d="M0 1625 L4801 1625" stroke="#000000" stroke-width="20" />
						<path d="M0 1805 L4801 1805" stroke="#000000" stroke-width="20" />
						<path d="M0 1985 L4801 1985" stroke="#000000" stroke-width="20" />
						<path d="M0 2165 L4801 2165" stroke="#000000" stroke-width="20" />
						<g class="staffDef" id="staffdef-000000212389147">
							<g class="clef" id="clef-000000091653656">
								<use xlink:href="#E050" x="120" y="1985" height="720px" width="720px" />
							</g>
							<g class="keySig" id="ksig-000000134257800">
								<use xlink:href="#E260" x="793" y="1805" height="720px" width="720px" />
								<use xlink:href="#E260" x="1025" y="1535" height="720px" width="720px" />
							</g>
							<g class="meterSig" id="msig-000000085555364">
								<use xlink:href="#E082" x="1361" y="1625" height="720px" width="720px" />
								<use xlink:href="#E084" x="1353" y="1985" height="720px" width="720px" />
							</g>
						</g>
						<g class="layer" id="m-38">
							<g class="tuplet" id="m-42">
								<use xlink:href="#E886" x="2741" y="2811" height="720px" width="720px" />
								<g class="beam" id="m-41">
									<path d="M1922 1197 L1922 2304" stroke="#000000" stroke-width="20" />
									<path d="M2280 1467 L2280 2340" stroke="#000000" stroke-width="20" />
									<path d="M2582 1557 L2582 2370" stroke="#000000" stroke-width="20" />
									<path d="M2884 1647 L2884 2400" stroke="#000000" stroke-width="20" />
									<path d="M3186 1737 L3186 2430" stroke="#000000" stroke-width="20" />
									<path d="M3488 1827 L3488 2460" stroke="#000000" stroke-width="20" />
									<polygon points="1912,2324 3498,2480 3498,2390 1912,2234 " />
									<polygon points="1912,2189 3498,2345 3498,2255 1912,2099 " />
									<g class="note" id="m-39">
										<path d="M1866 1265 L2170 1265" stroke="#000000" stroke-width="20" />
										<use xlink:href="#E0A4" x="1912" y="1175" height="720px" width="720px" />
									</g>
									<g class="note" id="m-43">
										<use xlink:href="#E0A4" x="2270" y="1445" height="720px" width="720px" />
									</g>
									<g class="note" id="m-44">
										<use xlink:href="#E0A4" x="2572" y="1535" height="720px" width="720px" />
									</g>
									<g class="note" id="m-46">
										<use xlink:href="#E0A4" x="2874" y="1625" height="720px" width="720px" />
									</g>
									<g class="note" id="m-47">
										<use xlink:href="#E0A4" x="3176" y="1715" height="720px" width="720px" />
									</g>
									<g class="note" id="m-48">
										<use xlink:href="#E0A4" x="3478" y="1805" height="720px" width="720px" />
									</g>
								</g>
							</g>
							<g class="beam" id="m-52">
								<path d="M3790 1467 L3790 2640" stroke="#000000" stroke-width="20" />
								<path d="M4240 2097 L4240 2685" stroke="#000000" stroke-width="20" />
								<polygon points="3780,2660 4250,2705 4250,2615 3780,2570 " />
								<g class="note" id="m-51">
									<use xlink:href="#E0A4" x="3780" y="1445" height="720px" width="720px" />
								</g>
								<g class="note" id="m-53">
									<use xlink:href="#E0A4" x="4230" y="2075" height="720px" width="720px" />
								</g>
							</g>
						</g>
					</g>
					<g class="staff" id="m-54">
						<path d="M0 3290 L4801 3290" stroke="#000000" stroke-width="20" />
						<path d="M0 3470 L4801 3470" stroke="#000000" stroke-width="20" />
						<path d="M0 3650 L4801 3650" stroke="#000000" stroke-width="20" />
						<path d="M0 3830 L4801 3830" stroke="#000000" stroke-width="20" />
						<path d="M0 4010 L4801 4010" stroke="#000000" stroke-width="20" />
						<g class="staffDef" id="staffdef-000000030206869">
							<g class="clef" id="clef-000000186615261">
								<use xlink:href="#E062" x="120" y="3470" height="720px" width="720px" />
							</g>
							<g class="keySig" id="ksig-000000126163482">
								<use xlink:href="#E260" x="793" y="3830" height="720px" width="720px" />
								<use xlink:href="#E260" x="1025" y="3560" height="720px" width="720px" />
							</g>
							<g class="meterSig" id="msig-000000028822003">
								<use xlink:href="#E082" x="1361" y="3470" height="720px" width="720px" />
								<use xlink:href="#E084" x="1353" y="3830" height="720px" width="720px" />
							</g>
						</g>
						<g class="layer" id="m-55">
							<g class="chord" id="m-56">
								<rect x="1912" y="2862" height="878" width="20" />
								<use xlink:href="#E241" x="1912" y="3830" height="720px" width="720px" />
								<path d="M1866 3110 L2170 3110" stroke="#000000" stroke-width="20" />
								<path d="M1866 2930 L2170 2930" stroke="#000000" stroke-width="20" />
								<g class="note" id="m-57">
									<use xlink:href="#E0A4" x="1912" y="3200" height="720px" width="720px" />
								</g>
								<g class="note" id="m-59">
									<use xlink:href="#E0A4" x="1912" y="3020" height="720px" width="720px" />
								</g>
								<g class="note" id="m-60">
									<use xlink:href="#E0A4" x="1912" y="2840" height="720px" width="720px" />
								</g>
							</g>
							<g class="rest" id="m-61">
								<use xlink:href="#E4E6" x="2874" y="3650" height="720px" width="720px" />
							</g>
							<g class="chord" id="m-62">
								<rect x="3780" y="2862" height="968" width="20" />
								<use xlink:href="#E241" x="3780" y="3920" height="720px" width="720px" />
								<path d="M3734 3110 L4038 3110" stroke="#000000" stroke-width="20" />
								<path d="M3734 2930 L4038 2930" stroke="#000000" stroke-width="20" />
								<g class="note" id="m-63">
									<use xlink:href="#E0A4" x="3780" y="3290" height="720px" width="720px" />
								</g>
								<g class="note" id="m-64">
									<use xlink:href="#E0A4" x="3780" y="3110" height="720px" width="720px" />
								</g>
								<g class="note" id="m-65">
									<use xlink:href="#E0A4" x="3780" y="2840" height="720px" width="720px" />
								</g>
							</g>
							<g class="rest" id="m-66">
								<use xlink:href="#E4E6" x="4230" y="3650" height="720px" width="720px" />
							</g>
						</g>
					</g>
					<g class="tempo" id="m-67">
						<text x="1353" y="1036" font-size="0px">
							<tspan font-size="405px" class="text" xml:space="preserve">Vivace</tspan>
						</text>
					</g>
					<g class="barLineAttr" id="bline-000000134835036">
						<path d="M4786 1445 L4786 2165" stroke="#000000" stroke-width="30" />
						<path d="M4786 3290 L4786 4010" stroke="#000000" stroke-width="30" />
					</g>
				</g>
				<g class="measure" id="m-69">
					<g class="staff" id="m-70">
						<path d="M4801 1445 L7564 1445" stroke="#000000" stroke-width="20" />
						<path d="M4801 1625 L7564 1625" stroke="#000000" stroke-width="20" />
						<path d="M4801 1805 L7564 1805" stroke="#000000" stroke-width="20" />
						<path d="M4801 1985 L7564 1985" stroke="#000000" stroke-width="20" />
						<path d="M4801 2165 L7564 2165" stroke="#000000" stroke-width="20" />
						<g class="layer" id="m-71">
							<g class="beam" id="m-74">
								<path d="M5029 1827 L5029 2415" stroke="#000000" stroke-width="20" />
								<path d="M5479 1197 L5479 2370" stroke="#000000" stroke-width="20" />
								<polygon points="5019,2435 5489,2390 5489,2300 5019,2345 " />
								<g class="note" id="m-72">
									<use xlink:href="#E0A4" x="5019" y="1805" height="720px" width="720px" />
								</g>
								<g class="note" id="m-75">
									<path d="M5423 1265 L5727 1265" stroke="#000000" stroke-width="20" />
									<use xlink:href="#E0A4" x="5469" y="1175" height="720px" width="720px" />
								</g>
							</g>
							<g class="beam" id="m-79">
								<path d="M6090 1287 L6090 2120" stroke="#000000" stroke-width="20" />
								<path d="M6670 1377 L6670 2178" stroke="#000000" stroke-width="20" />
								<path d="M7242 1467 L7242 2235" stroke="#000000" stroke-width="20" />
								<polygon points="6080,2140 7252,2255 7252,2165 6080,2050 " />
								<polygon points="6670,2063 7252,2120 7252,2030 6670,1973 " />
								<polygon points="6670,1928 7252,1985 7252,1895 6670,1838 " />
								<g class="note" id="m-77">
									<path d="M6034 1265 L6338 1265" stroke="#000000" stroke-width="20" />
									<use xlink:href="#E0A4" x="6080" y="1265" height="720px" width="720px" />
									<ellipse cx="6411" cy="1175" rx="36" ry="36" />
									<g class="accid" id="m-78">
										<use xlink:href="#E260" x="5827" y="1265" height="720px" width="720px" />
									</g>
								</g>
								<g class="note" id="m-80">
									<use xlink:href="#E0A4" x="6660" y="1355" height="720px" width="720px" />
								</g>
								<g class="note" id="m-81">
									<use xlink:href="#E0A4" x="7232" y="1445" height="720px" width="720px" />
									<g class="accid" id="m-82">
										<use xlink:href="#E262" x="6962" y="1445" height="720px" width="720px" />
									</g>
								</g>
							</g>
						</g>
					</g>
					<g class="staff" id="m-85">
						<path d="M4801 3290 L7564 3290" stroke="#000000" stroke-width="20" />
						<path d="M4801 3470 L7564 3470" stroke="#000000" stroke-width="20" />
						<path d="M4801 3650 L7564 3650" stroke="#000000" stroke-width="20" />
						<path d="M4801 3830 L7564 3830" stroke="#000000" stroke-width="20" />
						<path d="M4801 4010 L7564 4010" stroke="#000000" stroke-width="20" />
						<g class="layer" id="m-86">
							<g class="chord" id="m-87">
								<rect x="5019" y="3042" height="878" width="20" />
								<use xlink:href="#E241" x="5019" y="4010" height="720px" width="720px" />
								<path d="M4973 3110 L5277 3110" stroke="#000000" stroke-width="20" />
								<g class="note" id="m-88">
									<use xlink:href="#E0A4" x="5019" y="3380" height="720px" width="720px" />
								</g>
								<g class="note" id="m-89">
									<use xlink:href="#E0A4" x="5019" y="3020" height="720px" width="720px" />
								</g>
							</g>
							<g class="rest" id="m-90">
								<use xlink:href="#E4E6" x="5469" y="3650" height="720px" width="720px" />
							</g>
							<g class="chord" id="m-91">
								<rect x="6080" y="3222" height="1058" width="20" />
								<g class="note" id="m-92">
									<use xlink:href="#E0A4" x="6080" y="3650" height="720px" width="720px" />
								</g>
								<g class="note" id="m-93">
									<use xlink:href="#E0A4" x="6080" y="3200" height="720px" width="720px" />
								</g>
							</g>
						</g>
					</g>
					<g class="turn" id="m-83">
						<use xlink:href="#E567" x="4960" y="1040" height="720px" width="720px" />
					</g>
					<g class="trill" id="m-84">
						<use xlink:href="#E566" x="5999" y="897" height="720px" width="720px" />
					</g>
					<g class="barLineAttr" id="bline-000000074857089">
						<path d="M7549 1445 L7549 2165" stroke="#000000" stroke-width="30" />
						<path d="M7549 3290 L7549 4010" stroke="#000000" stroke-width="30" />
					</g>
				</g>
				<g class="measure" id="m-95">
					<g class="staff" id="m-96">
						<path d="M7564 1445 L10472 1445" stroke="#000000" stroke-width="20" />
						<path d="M7564 1625 L10472 1625" stroke="#000000" stroke-width="20" />
						<path d="M7564 1805 L10472 1805" stroke="#000000" stroke-width="20" />
						<path d="M7564 1985 L10472 1985" stroke="#000000" stroke-width="20" />
						<path d="M7564 2165 L10472 2165" stroke="#000000" stroke-width="20" />
						<g class="layer" id="m-97">
							<g class="beam" id="m-99">
								<path d="M7736 1377 L7736 2550" stroke="#000000" stroke-width="20" />
								<path d="M8038 1557 L8038 2580" stroke="#000000" stroke-width="20" />
								<path d="M8340 1737 L8340 2610" stroke="#000000" stroke-width="20" />
								<path d="M8642 2007 L8642 2640" stroke="#000000" stroke-width="20" />
								<polygon points="7726,2570 8652,2660 8652,2570 7726,2480 " />
								<polygon points="7726,2435 8652,2525 8652,2435 7726,2345 " />
								<g class="note" id="m-98">
									<use xlink:href="#E0A4" x="7726" y="1355" height="720px" width="720px" />
								</g>
								<g class="note" id="m-100">
									<use xlink:href="#E0A4" x="8028" y="1535" height="720px" width="720px" />
								</g>
								<g class="note" id="m-102">
									<use xlink:href="#E0A4" x="8330" y="1715" height="720px" width="720px" />
								</g>
								<g class="note" id="m-103">
									<use xlink:href="#E0A4" x="8632" y="1985" height="720px" width="720px" />
								</g>
							</g>
							<g class="beam" id="m-106">
								<path d="M9136 1783 L9136 979" stroke="#000000" stroke-width="20" />
								<path d="M9649 1873 L9649 1030" stroke="#000000" stroke-width="20" />
								<path d="M9951 1693 L9951 1060" stroke="#000000" stroke-width="20" />
								<path d="M10253 2143 L10253 1091" stroke="#000000" stroke-width="20" />
								<polygon points="9126,959 10263,1071 10263,1161 9126,1049 " />
								<polygon points="9126,1094 10263,1206 10263,1296 9126,1184 " />
								<g class="note" id="m-104">
									<use xlink:href="#E0A4" x="8934" y="1805" height="720px" width="720px" />
								</g>
								<g class="note" id="m-107">
									<use xlink:href="#E0A4" x="9447" y="1895" height="720px" width="720px" />
									<g class="accid" id="m-108">
										<use xlink:href="#E261" x="9236" y="1895" height="720px" width="720px" />
									</g>
								</g>
								<g class="note" id="m-109">
									<use xlink:href="#E0A4" x="9749" y="1715" height="720px" width="720px" />
								</g>
								<g class="note" id="m-110">
									<use xlink:href="#E0A4" x="10051" y="2165" height="720px" width="720px" />
								</g>
							</g>
						</g>
					</g>
					<g class="staff" id="m-112">
						<path d="M7564 3290 L10472 3290" stroke="#000000" stroke-width="20" />
						<path d="M7564 3470 L10472 3470" stroke="#000000" stroke-width="20" />
						<path d="M7564 3650 L10472 3650" stroke="#000000" stroke-width="20" />
						<path d="M7564 3830 L10472 3830" stroke="#000000" stroke-width="20" />
						<path d="M7564 4010 L10472 4010" stroke="#000000" stroke-width="20" />
						<g class="layer" id="m-113">
							<g class="chord" id="m-114">
								<rect x="7726" y="3222" height="968" width="20" />
								<g class="note" id="m-115">
									<use xlink:href="#E0A4" x="7726" y="3560" height="720px" width="720px" />
								</g>
								<g class="note" id="m-117">
									<use xlink:href="#E0A4" x="7726" y="3200" height="720px" width="720px" />
								</g>
							</g>
							<g class="beam" id="m-120">
								<path d="M9136 3448 L9136 2860" stroke="#000000" stroke-width="20" />
								<path d="M9951 4078 L9951 2942" stroke="#000000" stroke-width="20" />
								<polygon points="9126,2840 9961,2922 9961,3012 9126,2930 " />
								<g class="note" id="m-119">
									<use xlink:href="#E0A4" x="8934" y="3470" height="720px" width="720px" />
								</g>
								<g class="note" id="m-121">
									<use xlink:href="#E0A4" x="9749" y="4100" height="720px" width="720px" />
								</g>
							</g>
						</g>
					</g>
					<g class="barLineAttr" id="bline-000000182809133">
						<path d="M10457 1445 L10457 2165" stroke="#000000" stroke-width="30" />
						<path d="M10457 3290 L10457 4010" stroke="#000000" stroke-width="30" />
					</g>
				</g>
				<g class="measure" id="m-122">
					<g class="staff" id="m-123">
						<path d="M10472 1445 L11850 1445" stroke="#000000" stroke-width="20" />
						<path d="M10472 1625 L11850 1625" stroke="#000000" stroke-width="20" />
						<path d="M10472 1805 L11850 1805" stroke="#000000" stroke-width="20" />
						<path d="M10472 1985 L11850 1985" stroke="#000000" stroke-width="20" />
						<path d="M10472 2165 L11850 2165" stroke="#000000" stroke-width="20" />
						<g class="layer" id="m-124">
							<g class="beam" id="m-127">
								<path d="M10644 2187 L10644 2941" stroke="#000000" stroke-width="20" />
								<path d="M10946 2277 L10946 2910" stroke="#000000" stroke-width="20" />
								<path d="M11304 1197 L11304 2875" stroke="#000000" stroke-width="20" />
								<polygon points="10634,2961 11314,2895 11314,2805 10634,2871 " />
								<polygon points="10634,2826 10946,2795 10946,2705 10634,2736 " />
								<g class="note" id="m-125">
									<use xlink:href="#E0A4" x="10634" y="2165" height="720px" width="720px" />
								</g>
								<g class="note" id="m-128">
									<use xlink:href="#E0A4" x="10936" y="2255" height="720px" width="720px" />
								</g>
								<g class="note" id="m-129">
									<path d="M11248 1265 L11552 1265" stroke="#000000" stroke-width="20" />
									<use xlink:href="#E0A4" x="11294" y="1175" height="720px" width="720px" />
								</g>
							</g>
						</g>
					</g>
					<g class="staff" id="m-132">
						<path d="M10472 3290 L11850 3290" stroke="#000000" stroke-width="20" />
						<path d="M10472 3470 L11850 3470" stroke="#000000" stroke-width="20" />
						<path d="M10472 3650 L11850 3650" stroke="#000000" stroke-width="20" />
						<path d="M10472 3830 L11850 3830" stroke="#000000" stroke-width="20" />
						<path d="M10472 4010 L11850 4010" stroke="#000000" stroke-width="20" />
						<g class="layer" id="m-133">
							<g class="note" id="m-134">
								<use xlink:href="#E0A4" x="10634" y="3830" height="720px" width="720px" />
								<rect x="10826" y="3200" height="608" width="20" />
							</g>
						</g>
					</g>
					<g class="mordent" id="m-131">
						<use xlink:href="#E56C" x="10479" y="1040" height="720px" width="720px" />
					</g>
					<g class="barLineAttr" id="bline-000000130492338" />
				</g>
				<g class="boundaryEnd m-35" id="bdend000000045939473" />
			</g>
		</g>
	</svg>
</svg>
