<svg width="698px" height="335px" version="1.1" xmlns="http://www.w3.org/2000/svg" xmlns:xlink="http://www.w3.org/1999/xlink" overflow="visible">
	<defs>
		<symbol id="E003" viewBox="0 0 1000 1000" overflow="inherit">
			<g transform="scale(1,-1)">
				<path d="M0 0c0 11 12 21 24 21c158 0 289 71 379 139c0 0 4 3 6 3c3 0 5 -2 5 -7c0 -31 -171 -233 -414 -233v77z" />
			</g>
		</symbol>
		<symbol id="E004" viewBox="0 0 1000 1000" overflow="inherit">
			<g transform="scale(1,-1)">
				<path d="M0 0v77c243 0 414 -202 414 -233c0 -5 -2 -7 -5 -7c-2 0 -6 3 -6 3c-90 68 -221 139 -379 139c-12 0 -24 10 -24 21z" />
			</g>
		</symbol>
		<symbol id="E050" viewBox="0 0 1000 1000" overflow="inherit">
			<g transform="scale(1,-1)">
				<path d="M0 102c0 177 136 324 260 434c0 0 -43 178 -43 246c0 88 33 172 69 220s66 78 78 78c9 0 22 -8 37 -26c65 -78 98 -183 98 -279c0 -150 -83 -254 -181 -348l37 -174c11 2 22 2 33 2c138 0 238 -114 238 -240c0 -105 -68 -199 -170 -240c0 0 32 -146 32 -191 c0 -121 -82 -217 -204 -217c-73 0 -182 41 -182 151c0 56 45 101 101 101s101 -45 101 -101c0 -53 -40 -97 -92 -101c14 -12 49 -17 72 -17c97 0 171 74 171 184c0 49 -31 180 -31 180c-25 -7 -52 -10 -80 -10c-187 0 -344 162 -344 348zM94 49c0 -157 121 -269 250 -269 c26 0 51 3 74 10l-74 351c-58 -20 -96 -72 -96 -124c0 -41 19 -87 57 -110c5 -3 9 -8 9 -14c0 -8 -7 -15 -15 -15c-3 0 -8 2 -8 2c-66 29 -113 87 -113 173c0 81 55 164 144 192l-33 155c-153 -148 -195 -273 -195 -351zM262 723c0 -44 27 -160 27 -160 c80 78 159 190 159 296c0 43 -8 77 -49 77c-81 0 -137 -123 -137 -213zM377 149l73 -346c63 30 112 105 112 182c0 90 -62 165 -165 165c-7 0 -13 0 -20 -1z" />
			</g>
		</symbol>
		<symbol id="E260" viewBox="0 0 1000 1000" overflow="inherit">
			<g transform="scale(1,-1)">
				<path d="M-15 -153v599s0 14 15 14s15 -14 15 -14v-338c31 25 52 36 87 36c53 0 83 -36 83 -82c0 -87 -76 -150 -153 -208c-12 -9 -26 -19 -32 -19c-8 0 -15 5 -15 12zM15 58v-170c34 30 93 84 93 174c0 21 -11 35 -37 35c-24 0 -43 -20 -56 -39z" />
			</g>
		</symbol>
		<symbol id="E084" viewBox="0 0 1000 1000" overflow="inherit">
			<g transform="scale(1,-1)">
				<path d="M0 -106c0 3 0 9 9 19c72 78 126 214 126 308c0 14 1 22 9 22h174c7 0 9 -6 9 -12c0 -3 -2 -8 -5 -11l-272 -307h149v104c0 12 12 25 36 51l59 66s8 10 16 10c3 0 9 -1 9 -10v-221h39s13 -1 13 -17s-13 -17 -13 -17h-39v-28c0 -35 22 -58 41 -58c8 0 24 -1 24 -18 c0 -14 -11 -18 -24 -18h-202c-13 0 -24 4 -24 18c0 17 16 18 24 18c19 0 41 23 41 58v28h-180c-9 0 -19 6 -19 15z" />
			</g>
		</symbol>
		<symbol id="E0A4" viewBox="0 0 1000 1000" overflow="inherit">
			<g transform="scale(1,-1)">
				<path d="M0 -37c0 92 97 172 201 172c67 0 115 -40 115 -98c0 -92 -97 -172 -201 -172c-67 0 -115 40 -115 98z" />
			</g>
		</symbol>
		<symbol id="E062" viewBox="0 0 1000 1000" overflow="inherit">
			<g transform="scale(1,-1)">
				<path d="M0 -531c0 6 3 10 9 13c236 101 410 282 410 516c0 128 -53 224 -177 224c-67 0 -130 -22 -169 -73c11 4 22 6 34 6c56 0 101 -45 101 -101s-45 -101 -101 -101s-101 45 -101 101c0 110 103 200 236 200c173 0 306 -101 306 -256c0 -297 -274 -491 -525 -543 c0 0 -5 -1 -8 -1c-8 0 -15 7 -15 15zM588 119c0 21 17 38 38 38s38 -17 38 -38s-17 -38 -38 -38s-38 17 -38 38zM588 -119c0 21 17 38 38 38s38 -17 38 -38s-17 -38 -38 -38s-38 17 -38 38z" />
			</g>
		</symbol>
		<symbol id="E4E6" viewBox="0 0 1000 1000" overflow="inherit">
			<g transform="scale(1,-1)">
				<path d="M0 124c0 42 34 76 76 76s76 -34 76 -76c0 -19 -7 -37 -19 -50c43 12 75 42 93 86c3 8 9 11 16 11s14 -6 14 -15c0 0 0 -3 -1 -6l-107 -363c-3 -8 -9 -11 -16 -11s-14 6 -14 15c0 0 0 3 1 6l82 278c-31 -20 -62 -36 -97 -36c-56 0 -104 34 -104 85z" />
			</g>
		</symbol>
		<symbol id="E241" viewBox="0 0 1000 1000" overflow="inherit">
			<g transform="scale(1,-1)">
				<path d="M0 0v224h30c156 0 245 121 245 273c0 98 -58 186 -76 210s-22 30 -22 37s6 12 12 12s13 -6 24 -19c68 -80 101 -176 101 -264c0 -143 -77 -226 -143 -291s-117 -116 -141 -182c0 0 0 -14 -15 -14s-15 14 -15 14z" />
			</g>
		</symbol>
		<symbol id="E240" viewBox="0 0 1000 1000" overflow="inherit">
			<g transform="scale(1,-1)">
				<path d="M0 0c0 0 0 14 15 14s15 -14 15 -14c24 -66 58 -116 119 -191s135 -166 135 -282c0 -88 -33 -184 -101 -264c-11 -13 -18 -19 -24 -19s-12 5 -12 12s4 13 22 37s76 112 76 210c0 159 -91 230 -215 273h-30v224z" />
			</g>
		</symbol>
		<symbol id="E520" viewBox="0 0 1000 1000" overflow="inherit">
			<g transform="scale(1,-1)">
				<path d="M-72 -167c0 8 7 13 31 13c22 0 28 19 28 19l102 338s5 17 5 23c0 7 -3 11 -11 11c-22 0 -47 -37 -57 -59s-13 -24 -18 -24s-8 3 -8 8s1 10 13 35s41 75 99 75s66 -47 66 -47s33 43 88 43c43 0 80 -40 80 -96c0 -104 -63 -192 -146 -192c-37 0 -60 17 -71 47 c0 -1 -50 -166 -50 -166s-1 -3 -1 -5c0 -4 5 -10 23 -10c24 0 31 -5 31 -13s-7 -13 -31 -13h-142c-24 0 -31 5 -31 13zM139 61c0 -21 15 -34 33 -34c71 0 98 90 98 151c0 23 -12 44 -32 44c-15 0 -36 -1 -61 -35z" />
			</g>
		</symbol>
		<symbol id="E52D" viewBox="0 0 1000 1000" overflow="inherit">
			<g transform="scale(1,-1)">
				<path d="M-41 161c0 5 2 15 13 38s48 73 94 73s60 -42 60 -42s29 42 60 42c46 0 60 -42 60 -42s29 42 60 42c38 0 64 -30 64 -66c0 -15 -23 -80 -23 -80s-25 -74 -25 -93c0 -8 2 -15 10 -15c25 0 54 35 62 58s12 26 17 26s8 -3 8 -8c0 -45 -56 -114 -110 -114c-30 0 -58 26 -58 63 c0 19 25 93 25 93s23 65 23 80c0 9 -7 20 -16 20c-21 0 -34 -48 -34 -48l-58 -184c0 -3 -14 -5 -32 -5s-39 2 -39 7c0 0 59 183 59 210c0 9 -7 20 -16 20c-21 0 -34 -48 -34 -48l-58 -184c0 -3 -14 -5 -32 -5s-39 2 -39 7c0 0 59 183 59 210c0 9 -7 20 -16 20 c-30 0 -54 -41 -61 -62s-10 -21 -15 -21s-8 3 -8 8zM250 -77c0 28 22 50 50 50s50 -22 50 -50c0 -15 -7 -29 -17 -38c77 11 112 197 140 349h-59s-20 0 -20 19s20 19 20 19h69c36 97 108 178 196 178c47 0 101 -22 101 -67c0 -28 -22 -50 -50 -50s-50 22 -50 50 c0 13 5 25 13 34c-48 0 -86 -65 -101 -145h59s20 0 20 -19s-20 -19 -20 -19h-69c-27 -137 -88 -381 -260 -381c-38 0 -72 28 -72 70z" />
			</g>
		</symbol>
		<symbol id="E522" viewBox="0 0 1000 1000" overflow="inherit">
			<g transform="scale(1,-1)">
				<path d="M-144 -77c0 28 22 50 50 50s50 -22 50 -50c0 -15 -7 -29 -17 -38c77 11 112 197 140 349h-59s-20 0 -20 19s20 19 20 19h69c36 97 108 178 196 178c47 0 101 -22 101 -67c0 -28 -22 -50 -50 -50s-50 22 -50 50c0 13 5 25 13 34c-48 0 -86 -65 -101 -145h59s20 0 20 -19 s-20 -19 -20 -19h-69c-27 -137 -88 -381 -260 -381c-38 0 -72 28 -72 70z" />
			</g>
		</symbol>
		<symbol id="E4E5" viewBox="0 0 1000 1000" overflow="inherit">
			<g transform="scale(1,-1)">
				<path d="M0 -188c0 58 52 87 110 87c14 0 48 -6 48 -6s-145 124 -145 135c0 4 0 6 7 13c46 50 61 117 61 175c0 50 -15 95 -47 127c-4 4 -6 8 -6 12c0 5 4 10 12 10c12 0 176 -110 176 -155c0 -19 -12 -52 -29 -85s-32 -71 -32 -98c0 -58 20 -115 43 -135s24 -24 24 -29 c0 -7 -5 -13 -13 -13c-5 0 -13 2 -16 3s-11 2 -17 2c-18 0 -32 -5 -46 -14c-31 -21 -45 -52 -45 -85s14 -67 43 -96c6 -6 8 -9 8 -14s-5 -9 -10 -9s-8 1 -14 5c-69 46 -112 106 -112 170z" />
			</g>
		</symbol>
		<symbol id="E52C" viewBox="0 0 1000 1000" overflow="inherit">
			<g transform="scale(1,-1)">
				<path d="M-41 161c0 5 2 15 13 38s48 73 94 73s60 -42 60 -42s29 42 60 42c46 0 60 -42 60 -42s29 42 60 42c38 0 64 -30 64 -66c0 -15 -23 -80 -23 -80s-25 -74 -25 -93c0 -8 2 -15 10 -15c25 0 54 35 62 58s12 26 17 26s8 -3 8 -8c0 -45 -56 -114 -110 -114c-30 0 -58 26 -58 63 c0 19 25 93 25 93s23 65 23 80c0 9 -7 20 -16 20c-21 0 -34 -48 -34 -48l-58 -184c0 -3 -14 -5 -32 -5s-39 2 -39 7c0 0 59 183 59 210c0 9 -7 20 -16 20c-21 0 -34 -48 -34 -48l-58 -184c0 -3 -14 -5 -32 -5s-39 2 -39 7c0 0 59 183 59 210c0 9 -7 20 -16 20 c-30 0 -54 -41 -61 -62s-10 -21 -15 -21s-8 3 -8 8zM322 -167c0 8 7 13 31 13c22 0 28 19 28 19l102 338s5 17 5 23c0 7 -3 11 -11 11c-22 0 -47 -37 -57 -59s-13 -24 -18 -24s-8 3 -8 8s1 10 13 35s41 75 99 75s66 -47 66 -47s33 43 88 43c43 0 80 -40 80 -96 c0 -104 -63 -192 -146 -192c-37 0 -60 17 -71 47c0 -1 -50 -166 -50 -166s-1 -3 -1 -5c0 -4 5 -10 23 -10c24 0 31 -5 31 -13s-7 -13 -31 -13h-142c-24 0 -31 5 -31 13zM533 61c0 -21 15 -34 33 -34c71 0 98 90 98 151c0 23 -12 44 -32 44c-15 0 -36 -1 -61 -35z" />
			</g>
		</symbol>
	</defs>
	<svg id="definition-scale" viewBox="0 0 13970 6710">
		<g class="page-margin" transform="translate(500, 500)" style="stroke: #000; stroke-opacity: 1.0; fill: #000; fill-opacity: 1.0">
			<g class="system" id="system-000000212024167">
				<path d="M1245 815 L1245 5135" style="stroke-width: 30;" />
				<use xlink:href="#E003" x="1080" y="815" height="720px" width="720px" />
				<use xlink:href="#E004" x="1080" y="3335" height="720px" width="720px" />
				<rect x="1080" y="795" width="90" height="2560" rx="0" style="stroke-width: 0;" />
				<text x="960" y="1265" dx="0" dy="0" text-anchor="end" font-size="0px" font-family="Times">
					<tspan font-family="Times" font-size="405px" class="text" xml:space="preserve">upper</tspan>
				</text>
				<text x="960" y="3065" dx="0" dy="0" text-anchor="end" font-size="0px" font-family="Times">
					<tspan font-family="Times" font-size="405px" class="text" xml:space="preserve">lower</tspan>
				</text>
				<text x="960" y="4865" dx="0" dy="0" text-anchor="end" font-size="0px" font-family="Times">
					<tspan font-family="Times" font-size="405px" class="text" xml:space="preserve">pedal</tspan>
				</text>
				<g class="measure" id="d1e71">
					<g class="staff" id="staff-000000175093058">
						<path d="M1230 815 L8700 815" style="stroke-width: 10;" />
						<path d="M1230 995 L8700 995" style="stroke-width: 10;" />
						<path d="M1230 1175 L8700 1175" style="stroke-width: 10;" />
						<path d="M1230 1355 L8700 1355" style="stroke-width: 10;" />
						<path d="M1230 1535 L8700 1535" style="stroke-width: 10;" />
						<g class="layer" id="layer-000000092194406">
							<g class="clef" id="clef-000000203099010">
								<use xlink:href="#E050" x="1347" y="1355" height="720px" width="720px" />
							</g>
							<g class="keySig" id="ksig-000000059807524">
								<use xlink:href="#E260" x="2015" y="1175" height="720px" width="720px" />
								<use xlink:href="#E260" x="2234" y="905" height="720px" width="720px" />
								<use xlink:href="#E260" x="2453" y="1265" height="720px" width="720px" />
							</g>
							<g class="meterSig" id="msig-000000116630655">
								<use xlink:href="#E084" x="2767" y="995" height="720px" width="720px" />
								<use xlink:href="#E084" x="2767" y="1355" height="720px" width="720px" />
							</g>
							<g class="beam" id="beam-000000101932012">
								<g class="note" id="d1e100">
									<use xlink:href="#E0A4" x="3692" y="1355" height="720px" width="720px" />
								</g>
								<g class="note" id="d1e118">
									<use xlink:href="#E0A4" x="4009" y="1265" height="720px" width="720px" />
								</g>
								<g class="note" id="d1e138">
									<use xlink:href="#E0A4" x="4326" y="1355" height="720px" width="720px" />
								</g>
								<g class="note" id="d1e156">
									<use xlink:href="#E0A4" x="4643" y="1265" height="720px" width="720px" />
								</g>
								<path d="M3908 1333 L3908 628" style="stroke-width: 20;" />
								<path d="M4225 1243 L4225 610" style="stroke-width: 20;" />
								<path d="M4542 1333 L4542 592" style="stroke-width: 20;" />
								<path d="M4859 1243 L4859 574" style="stroke-width: 20;" />
								<polygon style="fill-rule:nonzero;" stroke-width="0" points="3898,608 4869,554 4869,644 3898,698 " />
								<polygon style="fill-rule:nonzero;" stroke-width="0" points="3898,743 4869,689 4869,779 3898,833 " />
							</g>
							<g class="beam" id="beam-000000093753830">
								<g class="note" id="d1e176">
									<use xlink:href="#E0A4" x="4960" y="1175" height="720px" width="720px" />
								</g>
								<g class="note" id="d1e196">
									<use xlink:href="#E0A4" x="5277" y="1535" height="720px" width="720px" />
								</g>
								<path d="M5176 1153 L5176 520" style="stroke-width: 20;" />
								<path d="M5493 1513 L5493 552" style="stroke-width: 20;" />
								<polygon style="fill-rule:nonzero;" stroke-width="0" points="5166,500 5503,532 5503,622 5166,590 " />
								<polygon style="fill-rule:nonzero;" stroke-width="0" points="5166,635 5503,667 5503,757 5166,725 " />
							</g>
							<g class="note" id="d1e216">
								<use xlink:href="#E0A4" x="5594" y="905" height="720px" width="720px" />
								<rect x="5594" y="927" width="20" height="608" rx="0" style="stroke-width: 0;" />
							</g>
							<g class="beam" id="beam-000000058312134">
								<g class="note" id="d1e232">
									<use xlink:href="#E0A4" x="6678" y="995" height="720px" width="720px" />
								</g>
								<g class="note" id="d1e250">
									<use xlink:href="#E0A4" x="6995" y="905" height="720px" width="720px" />
								</g>
								<path d="M6688 1017 L6688 1650" style="stroke-width: 20;" />
								<path d="M7005 927 L7005 1619" style="stroke-width: 20;" />
								<polygon style="fill-rule:nonzero;" stroke-width="0" points="6678,1670 7015,1639 7015,1549 6678,1580 " />
								<polygon style="fill-rule:nonzero;" stroke-width="0" points="6678,1535 7015,1504 7015,1414 6678,1445 " />
							</g>
							<g class="beam" id="beam-000000160010045">
								<g class="note" id="d1e271">
									<use xlink:href="#E0A4" x="7312" y="815" height="720px" width="720px" />
								</g>
								<g class="note" id="d1e289">
									<use xlink:href="#E0A4" x="7629" y="995" height="720px" width="720px" />
								</g>
								<g class="note" id="d1e307">
									<use xlink:href="#E0A4" x="7946" y="1175" height="720px" width="720px" />
								</g>
								<g class="note" id="d1e327">
									<use xlink:href="#E0A4" x="8263" y="1265" height="720px" width="720px" />
								</g>
								<path d="M7322 837 L7322 1825" style="stroke-width: 20;" />
								<path d="M7639 1017 L7639 1857" style="stroke-width: 20;" />
								<path d="M7956 1197 L7956 1889" style="stroke-width: 20;" />
								<path d="M8273 1287 L8273 1920" style="stroke-width: 20;" />
								<polygon style="fill-rule:nonzero;" stroke-width="0" points="7312,1845 8283,1940 8283,1850 7312,1755 " />
								<polygon style="fill-rule:nonzero;" stroke-width="0" points="7312,1710 8283,1805 8283,1715 7312,1620 " />
							</g>
						</g>
					</g>
					<g class="staff" id="staff-000000012420931">
						<path d="M1230 2615 L8700 2615" style="stroke-width: 10;" />
						<path d="M1230 2795 L8700 2795" style="stroke-width: 10;" />
						<path d="M1230 2975 L8700 2975" style="stroke-width: 10;" />
						<path d="M1230 3155 L8700 3155" style="stroke-width: 10;" />
						<path d="M1230 3335 L8700 3335" style="stroke-width: 10;" />
						<g class="layer" id="layer-000000023176828">
							<g class="clef" id="clef-000000162724198">
								<use xlink:href="#E050" x="1347" y="3155" height="720px" width="720px" />
							</g>
							<g class="keySig" id="ksig-000000085176373">
								<use xlink:href="#E260" x="2015" y="2975" height="720px" width="720px" />
								<use xlink:href="#E260" x="2234" y="2705" height="720px" width="720px" />
								<use xlink:href="#E260" x="2453" y="3065" height="720px" width="720px" />
							</g>
							<g class="meterSig" id="msig-000000116630655">
								<use xlink:href="#E084" x="2767" y="2795" height="720px" width="720px" />
								<use xlink:href="#E084" x="2767" y="3155" height="720px" width="720px" />
							</g>
							<g class="beam" id="beam-000000194173079">
								<g class="note" id="d1e370">
									<use xlink:href="#E0A4" x="3692" y="3335" height="720px" width="720px" />
								</g>
								<g class="note" id="d1e390">
									<use xlink:href="#E0A4" x="4009" y="3245" height="720px" width="720px" />
								</g>
								<g class="note" id="d1e408">
									<use xlink:href="#E0A4" x="4326" y="3335" height="720px" width="720px" />
								</g>
								<g class="note" id="d1e428">
									<use xlink:href="#E0A4" x="4643" y="3245" height="720px" width="720px" />
								</g>
								<g class="note" id="d1e446">
									<use xlink:href="#E0A4" x="4960" y="3155" height="720px" width="720px" />
								</g>
								<g class="note" id="d1e462">
									<use xlink:href="#E0A4" x="5594" y="3155" height="720px" width="720px" />
								</g>
								<path d="M3908 3313 L3908 2621" style="stroke-width: 20;" />
								<path d="M4225 3223 L4225 2590" style="stroke-width: 20;" />
								<path d="M4542 3313 L4542 2560" style="stroke-width: 20;" />
								<path d="M4859 3223 L4859 2529" style="stroke-width: 20;" />
								<path d="M5176 3133 L5176 2498" style="stroke-width: 20;" />
								<path d="M5810 3133 L5810 2436" style="stroke-width: 20;" />
								<polygon style="fill-rule:nonzero;" stroke-width="0" points="3898,2601 5820,2416 5820,2506 3898,2691 " />
								<polygon style="fill-rule:nonzero;" stroke-width="0" points="3898,2736 4225,2705 4225,2795 3898,2826 " />
								<polygon style="fill-rule:nonzero;" stroke-width="0" points="4225,2705 4542,2675 4542,2765 4225,2795 " />
								<polygon style="fill-rule:nonzero;" stroke-width="0" points="4542,2675 4859,2644 4859,2734 4542,2765 " />
							</g>
							<g class="beam" id="beam-000000183490789">
								<g class="note" id="d1e478">
									<use xlink:href="#E0A4" x="6044" y="3245" height="720px" width="720px" />
								</g>
								<g class="note" id="d1e496">
									<use xlink:href="#E0A4" x="6361" y="3155" height="720px" width="720px" />
								</g>
								<g class="note" id="d1e514">
									<use xlink:href="#E0A4" x="6678" y="3245" height="720px" width="720px" />
								</g>
								<g class="note" id="d1e533">
									<use xlink:href="#E0A4" x="6995" y="3155" height="720px" width="720px" />
								</g>
								<g class="note" id="d1e551">
									<use xlink:href="#E0A4" x="7312" y="3065" height="720px" width="720px" />
								</g>
								<g class="note" id="d1e569">
									<use xlink:href="#E0A4" x="7946" y="2795" height="720px" width="720px" />
									<g class="tie" id="tie-000000199170166">
										<path d="M8194,2840 C8366,2938 8710,2938 8885,2840 C8710,2982 8366,2982 8194,2840" style="fill-opacity:1.0; stroke-linecap:round; stroke-linejoin:round; stroke-opacity:1.0; stroke-width: 10" />
									</g>
								</g>
								<path d="M6260 3223 L6260 2331" style="stroke-width: 20;" />
								<path d="M6577 3133 L6577 2299" style="stroke-width: 20;" />
								<path d="M6894 3223 L6894 2267" style="stroke-width: 20;" />
								<path d="M7211 3133 L7211 2236" style="stroke-width: 20;" />
								<path d="M7528 3043 L7528 2204" style="stroke-width: 20;" />
								<path d="M8162 2773 L8162 2140" style="stroke-width: 20;" />
								<polygon style="fill-rule:nonzero;" stroke-width="0" points="6250,2311 8172,2120 8172,2210 6250,2401 " />
								<polygon style="fill-rule:nonzero;" stroke-width="0" points="6250,2446 6577,2414 6577,2504 6250,2536 " />
								<polygon style="fill-rule:nonzero;" stroke-width="0" points="6577,2414 6894,2382 6894,2472 6577,2504 " />
								<polygon style="fill-rule:nonzero;" stroke-width="0" points="6894,2382 7211,2351 7211,2441 6894,2472 " />
							</g>
						</g>
					</g>
					<g class="staff" id="staff-000000111889726">
						<path d="M1230 4415 L8700 4415" style="stroke-width: 10;" />
						<path d="M1230 4595 L8700 4595" style="stroke-width: 10;" />
						<path d="M1230 4775 L8700 4775" style="stroke-width: 10;" />
						<path d="M1230 4955 L8700 4955" style="stroke-width: 10;" />
						<path d="M1230 5135 L8700 5135" style="stroke-width: 10;" />
						<g class="layer" id="layer-000000193951972">
							<g class="clef" id="clef-000000046712005">
								<use xlink:href="#E062" x="1347" y="4595" height="720px" width="720px" />
							</g>
							<g class="keySig" id="ksig-000000183395056">
								<use xlink:href="#E260" x="2015" y="4955" height="720px" width="720px" />
								<use xlink:href="#E260" x="2234" y="4685" height="720px" width="720px" />
								<use xlink:href="#E260" x="2453" y="5045" height="720px" width="720px" />
							</g>
							<g class="meterSig" id="msig-000000116630655">
								<use xlink:href="#E084" x="2767" y="4595" height="720px" width="720px" />
								<use xlink:href="#E084" x="2767" y="4955" height="720px" width="720px" />
							</g>
							<g class="beam" id="beam-000000085370664">
								<g class="note" id="d1e611">
									<use xlink:href="#E0A4" x="3692" y="4685" height="720px" width="720px" />
								</g>
								<g class="note" id="d1e629">
									<use xlink:href="#E0A4" x="4326" y="5315" height="720px" width="720px" />
									<path d="M4276 5315 L4602 5315" style="stroke-width: 20;" />
								</g>
								<path d="M3908 4663 L3908 4075" style="stroke-width: 20;" />
								<path d="M4542 5293 L4542 4139" style="stroke-width: 20;" />
								<polygon style="fill-rule:nonzero;" stroke-width="0" points="3898,4055 4552,4119 4552,4209 3898,4145 " />
							</g>
							<g class="rest" id="d1e647">
								<use xlink:href="#E4E6" x="5073" y="4775" height="720px" width="720px" />
							</g>
							<g class="note" id="d1e655">
								<use xlink:href="#E0A4" x="5594" y="4685" height="720px" width="720px" />
								<rect x="5594" y="4707" width="20" height="518" rx="0" style="stroke-width: 0;" />
								<use xlink:href="#E241" x="5594" y="5315" height="720px" width="720px" />
							</g>
							<g class="beam" id="beam-000000089198563">
								<g class="note" id="d1e671">
									<use xlink:href="#E0A4" x="6044" y="4325" height="720px" width="720px" />
								</g>
								<g class="note" id="d1e689">
									<use xlink:href="#E0A4" x="6678" y="4955" height="720px" width="720px" />
								</g>
								<path d="M6260 4303 L6260 3715" style="stroke-width: 20;" />
								<path d="M6894 4933 L6894 3779" style="stroke-width: 20;" />
								<polygon style="fill-rule:nonzero;" stroke-width="0" points="6250,3695 6904,3759 6904,3849 6250,3785 " />
							</g>
							<g class="rest" id="d1e707">
								<use xlink:href="#E4E6" x="7425" y="4775" height="720px" width="720px" />
							</g>
							<g class="note" id="d1e715">
								<use xlink:href="#E0A4" x="7946" y="4955" height="720px" width="720px" />
								<rect x="8152" y="4415" width="20" height="518" rx="0" style="stroke-width: 0;" />
								<use xlink:href="#E240" x="8152" y="4325" height="720px" width="720px" />
							</g>
						</g>
					</g>
					<g class="tie" id="tie-000000022131269">
						<path d="M8194,2840 C8366,2938 8710,2938 8885,2840 C8710,2982 8366,2982 8194,2840" style="fill-opacity:1.0; stroke-linecap:round; stroke-linejoin:round; stroke-opacity:1.0; stroke-width: 10" />
					</g>
					<g class="dynam" id="dynam-000000016085548">
						<use xlink:href="#E520" x="3655" y="5780" height="720px" width="720px" />
					</g>
					<g class="dynam" id="dynam-000000050196873">
						<use xlink:href="#E52D" x="5412" y="5780" height="720px" width="720px" />
					</g>
					<g class="dynam" id="dynam-000000053786078">
						<use xlink:href="#E522" x="7869" y="5780" height="720px" width="720px" />
					</g>
					<g class="barLineAttr" id="bline-000000038125154">
						<path d="M8685 815 L8685 3335" style="stroke-width: 30;" />
						<path d="M8685 4415 L8685 5135" style="stroke-width: 30;" />
					</g>
				</g>
				<g class="measure" id="d1e731">
					<g class="staff" id="staff-000000044484530">
						<path d="M8700 815 L12977 815" style="stroke-width: 10;" />
						<path d="M8700 995 L12977 995" style="stroke-width: 10;" />
						<path d="M8700 1175 L12977 1175" style="stroke-width: 10;" />
						<path d="M8700 1355 L12977 1355" style="stroke-width: 10;" />
						<path d="M8700 1535 L12977 1535" style="stroke-width: 10;" />
						<g class="layer" id="layer-000000112441550">
							<g class="beam" id="beam-000000019533254">
								<g class="note" id="d1e733">
									<use xlink:href="#E0A4" x="8907" y="1265" height="720px" width="720px" />
								</g>
								<g class="note" id="d1e751">
									<use xlink:href="#E0A4" x="9357" y="1355" height="720px" width="720px" />
								</g>
								<path d="M9123 1243 L9123 655" style="stroke-width: 20;" />
								<path d="M9573 1333 L9573 701" style="stroke-width: 20;" />
								<polygon style="fill-rule:nonzero;" stroke-width="0" points="9113,635 9583,681 9583,771 9113,725 " />
							</g>
							<g class="rest" id="d1e767">
								<use xlink:href="#E4E5" x="9920" y="1175" height="720px" width="720px" />
							</g>
							<g class="beam" id="beam-000000078983078">
								<g class="note" id="d1e775">
									<use xlink:href="#E0A4" x="10497" y="1355" height="720px" width="720px" />
								</g>
								<g class="note" id="d1e793">
									<use xlink:href="#E0A4" x="10814" y="1265" height="720px" width="720px" />
								</g>
								<g class="note" id="d1e813">
									<use xlink:href="#E0A4" x="11131" y="1355" height="720px" width="720px" />
								</g>
								<g class="note" id="d1e831">
									<use xlink:href="#E0A4" x="11448" y="1265" height="720px" width="720px" />
								</g>
								<path d="M10713 1333 L10713 628" style="stroke-width: 20;" />
								<path d="M11030 1243 L11030 610" style="stroke-width: 20;" />
								<path d="M11347 1333 L11347 592" style="stroke-width: 20;" />
								<path d="M11664 1243 L11664 574" style="stroke-width: 20;" />
								<polygon style="fill-rule:nonzero;" stroke-width="0" points="10703,608 11674,554 11674,644 10703,698 " />
								<polygon style="fill-rule:nonzero;" stroke-width="0" points="10703,743 11674,689 11674,779 10703,833 " />
							</g>
							<g class="beam" id="beam-000000102779412">
								<g class="note" id="d1e851">
									<use xlink:href="#E0A4" x="11765" y="1175" height="720px" width="720px" />
								</g>
								<g class="note" id="d1e871">
									<use xlink:href="#E0A4" x="12082" y="1535" height="720px" width="720px" />
								</g>
								<g class="note" id="d1e891">
									<use xlink:href="#E0A4" x="12399" y="905" height="720px" width="720px" />
								</g>
								<path d="M11775 1197 L11775 2222" style="stroke-width: 20;" />
								<path d="M12092 1557 L12092 2190" style="stroke-width: 20;" />
								<path d="M12409 927 L12409 2159" style="stroke-width: 20;" />
								<polygon style="fill-rule:nonzero;" stroke-width="0" points="11765,2242 12419,2179 12419,2089 11765,2152 " />
								<polygon style="fill-rule:nonzero;" stroke-width="0" points="11765,2107 12092,2075 12092,1985 11765,2017 " />
							</g>
						</g>
					</g>
					<g class="staff" id="staff-000000040114049">
						<path d="M8700 2615 L12977 2615" style="stroke-width: 10;" />
						<path d="M8700 2795 L12977 2795" style="stroke-width: 10;" />
						<path d="M8700 2975 L12977 2975" style="stroke-width: 10;" />
						<path d="M8700 3155 L12977 3155" style="stroke-width: 10;" />
						<path d="M8700 3335 L12977 3335" style="stroke-width: 10;" />
						<g class="layer" id="layer-000000101713153">
							<g class="beam" id="beam-000000095982820">
								<g class="note" id="d1e913">
									<use xlink:href="#E0A4" x="8907" y="2795" height="720px" width="720px" />
								</g>
								<g class="note" id="d1e932">
									<use xlink:href="#E0A4" x="9357" y="2705" height="720px" width="720px" />
								</g>
								<path d="M8917 2817 L8917 3405" style="stroke-width: 20;" />
								<path d="M9367 2727 L9367 3360" style="stroke-width: 20;" />
								<polygon style="fill-rule:nonzero;" stroke-width="0" points="8907,3425 9377,3380 9377,3290 8907,3335 " />
							</g>
							<g class="rest" id="d1e950">
								<use xlink:href="#E4E5" x="9920" y="2975" height="720px" width="720px" />
							</g>
							<g class="beam" id="beam-000000083418442">
								<g class="note" id="d1e958">
									<use xlink:href="#E0A4" x="10497" y="3335" height="720px" width="720px" />
								</g>
								<g class="note" id="d1e978">
									<use xlink:href="#E0A4" x="10814" y="3245" height="720px" width="720px" />
								</g>
								<g class="note" id="d1e996">
									<use xlink:href="#E0A4" x="11131" y="3335" height="720px" width="720px" />
								</g>
								<g class="note" id="d1e1016">
									<use xlink:href="#E0A4" x="11448" y="3245" height="720px" width="720px" />
								</g>
								<g class="note" id="d1e1034">
									<use xlink:href="#E0A4" x="11765" y="3155" height="720px" width="720px" />
								</g>
								<g class="note" id="d1e1050">
									<use xlink:href="#E0A4" x="12399" y="3155" height="720px" width="720px" />
								</g>
								<path d="M10713 3313 L10713 2621" style="stroke-width: 20;" />
								<path d="M11030 3223 L11030 2590" style="stroke-width: 20;" />
								<path d="M11347 3313 L11347 2560" style="stroke-width: 20;" />
								<path d="M11664 3223 L11664 2529" style="stroke-width: 20;" />
								<path d="M11981 3133 L11981 2498" style="stroke-width: 20;" />
								<path d="M12615 3133 L12615 2436" style="stroke-width: 20;" />
								<polygon style="fill-rule:nonzero;" stroke-width="0" points="10703,2601 12625,2416 12625,2506 10703,2691 " />
								<polygon style="fill-rule:nonzero;" stroke-width="0" points="10703,2736 11030,2705 11030,2795 10703,2826 " />
								<polygon style="fill-rule:nonzero;" stroke-width="0" points="11030,2705 11347,2675 11347,2765 11030,2795 " />
								<polygon style="fill-rule:nonzero;" stroke-width="0" points="11347,2675 11664,2644 11664,2734 11347,2765 " />
							</g>
						</g>
					</g>
					<g class="staff" id="staff-000000057415259">
						<path d="M8700 4415 L12977 4415" style="stroke-width: 10;" />
						<path d="M8700 4595 L12977 4595" style="stroke-width: 10;" />
						<path d="M8700 4775 L12977 4775" style="stroke-width: 10;" />
						<path d="M8700 4955 L12977 4955" style="stroke-width: 10;" />
						<path d="M8700 5135 L12977 5135" style="stroke-width: 10;" />
						<g class="layer" id="layer-000000113855415">
							<g class="beam" id="beam-000000160045554">
								<g class="note" id="d1e1067">
									<use xlink:href="#E0A4" x="8907" y="4685" height="720px" width="720px" />
								</g>
								<g class="note" id="d1e1085">
									<use xlink:href="#E0A4" x="9357" y="5315" height="720px" width="720px" />
									<path d="M9307 5315 L9633 5315" style="stroke-width: 20;" />
								</g>
								<path d="M9123 4663 L9123 4075" style="stroke-width: 20;" />
								<path d="M9573 5293 L9573 4121" style="stroke-width: 20;" />
								<polygon style="fill-rule:nonzero;" stroke-width="0" points="9113,4055 9583,4101 9583,4191 9113,4145 " />
							</g>
							<g class="rest" id="d1e1103">
								<use xlink:href="#E4E5" x="9920" y="4775" height="720px" width="720px" />
							</g>
							<g class="beam" id="beam-000000200696447">
								<g class="note" id="d1e1111">
									<use xlink:href="#E0A4" x="10497" y="4685" height="720px" width="720px" />
								</g>
								<g class="note" id="d1e1129">
									<use xlink:href="#E0A4" x="11131" y="5315" height="720px" width="720px" />
									<path d="M11081 5315 L11407 5315" style="stroke-width: 20;" />
								</g>
								<path d="M10713 4663 L10713 4075" style="stroke-width: 20;" />
								<path d="M11347 5293 L11347 4139" style="stroke-width: 20;" />
								<polygon style="fill-rule:nonzero;" stroke-width="0" points="10703,4055 11357,4119 11357,4209 10703,4145 " />
							</g>
							<g class="rest" id="d1e1147">
								<use xlink:href="#E4E6" x="11878" y="4775" height="720px" width="720px" />
							</g>
							<g class="note" id="d1e1155">
								<use xlink:href="#E0A4" x="12399" y="4685" height="720px" width="720px" />
								<rect x="12399" y="4707" width="20" height="518" rx="0" style="stroke-width: 0;" />
								<use xlink:href="#E241" x="12399" y="5315" height="720px" width="720px" />
							</g>
						</g>
					</g>
					<g class="tie" id="tie-000000013139058" />
					<g class="dynam" id="dynam-000000066833936">
						<use xlink:href="#E52C" x="10329" y="5780" height="720px" width="720px" />
					</g>
					<g class="barLineAttr" id="bline-000000180686684">
						<path d="M12962 815 L12962 3335" style="stroke-width: 30;" />
						<path d="M12962 4415 L12962 5135" style="stroke-width: 30;" />
					</g>
				</g>
			</g>
		</g>
	</svg>
</svg>
