<svg width="752px" height="411px" version="1.1" xmlns="http://www.w3.org/2000/svg" xmlns:xlink="http://www.w3.org/1999/xlink" overflow="visible">
	<defs>
		<symbol id="E050" viewBox="0 0 1000 1000" overflow="inherit">
			<g transform="scale(1,-1)">
				<path d="M441 -245c-23 -4 -48 -6 -76 -6c-59 0 -102 7 -130 20c-88 42 -150 93 -187 154c-26 44 -43 103 -48 176c-4 60 11 123 44 189c29 57 65 106 110 148s96 85 153 127c-3 16 -8 46 -13 92c-4 43 -5 73 -5 89c0 117 16 172 69 257c34 54 64 82 89 82c21 0 43 -30 69 -92 s39 -115 41 -159c2 -120 -19 -173 -67 -256c-13 -20 -63 -90 -98 -118c-13 -9 -25 -19 -37 -29l31 -181c8 1 18 2 28 2c58 0 102 -12 133 -35c59 -43 92 -104 98 -184c11 -135 -80 -229 -180 -270c8 -57 17 -110 25 -162c5 -31 6 -58 6 -80c0 -30 -5 -53 -14 -70 c-35 -64 -88 -99 -158 -103c-42 -3 -83 6 -124 26c-50 24 -77 59 -80 105c-2 34 5 63 20 87c18 28 45 42 79 44c51 4 99 -40 103 -87c4 -56 -30 -94 -105 -115c17 -24 51 -36 102 -36c62 0 116 43 140 85c9 16 13 41 13 74c0 20 -1 42 -5 67c-8 53 -18 106 -26 159zM461 939 c-95 0 -135 -175 -135 -286c0 -24 2 -48 5 -71c50 39 92 82 127 128c43 57 63 106 60 148c-4 54 -23 82 -57 81zM406 119l54 -326c80 27 116 88 109 184c-7 99 -62 146 -163 142zM382 117c-74 -2 -132 -50 -128 -127c2 -46 43 -99 75 -115c-3 -2 -7 -5 -10 -10 c-70 33 -116 88 -123 172c-5 73 42 135 88 170c23 17 49 29 78 36l-29 170c-21 -13 -52 -37 -92 -73c-50 -44 -86 -84 -109 -119c-49 -75 -71 -140 -67 -195c5 -68 35 -127 93 -176s125 -73 203 -73c25 0 50 3 75 9c-19 111 -36 221 -54 331z" />
			</g>
		</symbol>
		<symbol id="E260" viewBox="0 0 1000 1000" overflow="inherit">
			<g transform="scale(1,-1)">
				<path d="M20 110c32 16 54 27 93 27c26 0 35 -3 54 -13c13 -7 24 -20 27 -38l4 -25c0 -28 -16 -57 -45 -89c-23 -25 -39 -44 -65 -68l-88 -79v644h20v-359zM90 106c-32 0 -48 -10 -70 -29v-194c31 31 54 59 71 84c21 32 32 59 32 84c0 9 1 16 1 20c0 14 -3 21 -11 30l-8 3z" />
			</g>
		</symbol>
		<symbol id="E0A4" viewBox="0 0 1000 1000" overflow="inherit">
			<g transform="scale(1,-1)">
				<path d="M0 -39c0 68 73 172 200 172c66 0 114 -37 114 -95c0 -84 -106 -171 -218 -171c-64 0 -96 30 -96 94z" />
			</g>
		</symbol>
		<symbol id="E062" viewBox="0 0 1000 1000" overflow="inherit">
			<g transform="scale(1,-1)">
				<path d="M158 96c51 0 73 -14 88 -49l16 -39c0 -17 -2 -30 -7 -40c-3 -11 -10 -21 -19 -31c-17 -18 -49 -43 -84 -43c-55 0 -77 13 -112 44c-24 21 -35 55 -35 100c0 46 14 81 32 112c30 52 71 79 137 93l36 6l26 2c154 0 235 -68 274 -182c11 -32 18 -68 18 -107 c0 -103 -26 -182 -68 -250c-89 -145 -234 -230 -412 -288l-30 -5c-9 0 -14 3 -14 8c3 10 5 11 10 16c35 15 70 30 96 44l78 43c96 57 162 136 197 258c9 33 17 60 22 100c3 22 5 35 6 39c-7 69 -16 115 -23 140s-4 22 -16 40c-8 12 -19 23 -31 34c-24 21 -62 44 -118 44 c-48 0 -84 -8 -113 -28c-28 -19 -42 -44 -42 -73v-16c2 -5 3 -9 4 -11c24 22 52 39 84 39zM585 -118c0 32 23 58 57 58c18 0 33 -6 40 -18c9 -15 16 -18 16 -40c0 -9 -2 -16 -5 -21c-6 -19 -27 -37 -51 -37c-34 0 -57 26 -57 58zM642 177c31 0 56 -27 56 -58 c0 -30 -25 -58 -56 -58l-23 3c-19 7 -34 32 -34 55l3 23c9 20 28 35 54 35z" />
			</g>
		</symbol>
		<symbol id="E4E6" viewBox="0 0 1000 1000" overflow="inherit">
			<g transform="scale(1,-1)">
				<path d="M0 123c7 34 33 56 69 60c29 -3 43 -9 53 -29c4 -8 7 -15 10 -22c0 -21 -1 -25 -11 -35c-5 -8 -18 -14 -40 -20l12 -3l15 -1c44 0 97 26 122 56c10 11 18 26 24 42c7 1 15 2 22 3l-140 -424h-36l111 330c-10 -6 -27 -12 -53 -16l-52 -8h-10l-20 1c-1 0 -8 3 -21 6 c-37 9 -55 28 -55 60z" />
			</g>
		</symbol>
		<symbol id="E241" viewBox="0 0 1000 1000" overflow="inherit">
			<g transform="scale(1,-1)">
				<path d="M253 493c16 -37 23 -74 23 -111c0 -45 -12 -89 -35 -132c-20 -37 -49 -74 -87 -109c-48 -46 -104 -100 -154 -139v176c40 7 69 13 87 18c88 27 168 95 168 200c0 58 -24 118 -49 152c-5 7 -12 16 -15 26c0 3 2 5 5 5s7 -2 13 -7c19 -23 28 -43 44 -79z" />
			</g>
		</symbol>
		<symbol id="E240" viewBox="0 0 1000 1000" overflow="inherit">
			<g transform="scale(1,-1)">
				<path d="M206 -548c24 34 49 94 49 152c0 105 -80 173 -168 200c-18 5 -47 11 -87 18v176c16 -13 34 -28 53 -45c4 -3 38 -35 101 -94c62 -58 122 -137 122 -241c0 -37 -8 -74 -23 -111c-14 -35 -22 -53 -44 -79c-6 -5 -10 -7 -13 -7s-5 2 -5 5l4 10c1 3 5 9 11 16z" />
			</g>
		</symbol>
		<symbol id="E4E5" viewBox="0 0 1000 1000" overflow="inherit">
			<g transform="scale(1,-1)">
				<path d="M107 292c-13 24 -30 49 -52 71c-1 1 0 2 0 3l-2 2c3 3 4 4 6 4c12 0 26 -7 40 -20s44 -40 89 -81c26 -24 28 -29 46 -47c4 -4 8 -9 10 -14c6 -8 8 -16 8 -27c0 -19 -12 -40 -36 -61c-28 -23 -49 -38 -61 -73c-4 -11 -7 -27 -10 -50c13 -43 34 -83 59 -121 c31 -47 59 -79 101 -129c-8 0 -26 7 -54 20l-62 29l-21 6l-23 1c-25 0 -45 -10 -60 -30l-4 -14l-1 -12c0 -33 20 -56 39 -78c8 -9 17 -18 26 -26c17 -15 27 -24 28 -30l-3 -3c-11 5 -19 10 -25 15c-9 3 -37 21 -45 26c-24 14 -45 32 -63 51c-19 21 -37 44 -37 71 c0 63 27 95 80 95c41 0 86 -18 136 -52c-19 26 -37 48 -55 66c-23 23 -48 44 -73 65c-28 23 -47 40 -58 53s-17 26 -18 39c75 64 113 125 113 183c0 27 -7 48 -18 68z" />
			</g>
		</symbol>
		<symbol id="E003" viewBox="0 0 1000 1000" overflow="inherit">
			<g transform="scale(1,-1)">
				<path d="M0 -0c49 0 97.5 -2.26367 135.5 4.73633c206 95 258.5 264.264 263.5 271.264c0 1 -14 7 -15 6c-88 -154 -251 -167 -321 -170c-1 0 -63 -1 -63 -1v-111z" />
			</g>
		</symbol>
		<symbol id="E004" viewBox="0 0 1000 1000" overflow="inherit">
			<g transform="scale(1,-1)">
				<path d="M0 0c49 0 97.5 2.26367 135.5 -4.73633c206 -95 258.5 -264.264 263.5 -271.264c0 -1 -14 -7 -15 -6c-88 154 -251 167 -321 170c-1 0 -63 1 -63 1v111z" />
			</g>
		</symbol>
	</defs>
	<svg id="definition-scale" viewBox="0 0 13690 7490">
		<g class="page-margin" transform="translate(500, 500)">
			<g class="system" id="system-000000114218686" style="stroke: #000000; stroke-opacity: 1.000000; fill: #000000; fill-opacity: 1.000000;">
				<g class="measure" id="d1e71" style="stroke: #000000; stroke-opacity: 1.000000; fill: #000000; fill-opacity: 1.000000;">
					<g class="staff" id="staff-000000085530958" style="stroke: #000000; stroke-opacity: 1.000000; fill: #000000; fill-opacity: 1.000000;">
						<path d="M990 1580 L8092 1580" style="stroke-width: 20;" />
						<path d="M990 1760 L8092 1760" style="stroke-width: 20;" />
						<path d="M990 1940 L8092 1940" style="stroke-width: 20;" />
						<path d="M990 2120 L8092 2120" style="stroke-width: 20;" />
						<path d="M990 2300 L8092 2300" style="stroke-width: 20;" />
						<g class="layer" id="layer-000000208014572" style="stroke: #000000; stroke-opacity: 1.000000; fill: #000000; fill-opacity: 1.000000;">
							<g class="clef" id="clef-000000076641656" style="stroke: #000000; stroke-opacity: 1.000000; fill: #000000; fill-opacity: 1.000000;">
								<use xlink:href="#E050" x="1080" y="2120" height="720px" width="720px" />
							</g>
							<g class="keySig" id="ksig-000000077689480" style="stroke: #000000; stroke-opacity: 1.000000; fill: #000000; fill-opacity: 1.000000;">
								<use xlink:href="#E260" x="1761" y="1940" height="720px" width="720px" />
								<use xlink:href="#E260" x="1931" y="1670" height="720px" width="720px" />
								<use xlink:href="#E260" x="2101" y="2030" height="720px" width="720px" />
							</g>
							<g class="meterSig" id="msig-000000057041387" style="stroke: #000000; stroke-opacity: 1.000000; fill: #000000; fill-opacity: 1.000000;" />
							<g class="beam" id="beam-000000118202902" style="stroke: #000000; stroke-opacity: 1.000000; fill: #000000; fill-opacity: 1.000000;">
								<g class="note" id="d1e100" style="stroke: #000000; stroke-opacity: 1.000000; fill: #000000; fill-opacity: 1.000000;">
									<use xlink:href="#E0A4" x="2513" y="2120" height="720px" width="720px" />
								</g>
								<g class="note" id="d1e118" style="stroke: #000000; stroke-opacity: 1.000000; fill: #000000; fill-opacity: 1.000000;">
									<use xlink:href="#E0A4" x="2874" y="2030" height="720px" width="720px" />
								</g>
								<g class="note" id="d1e138" style="stroke: #000000; stroke-opacity: 1.000000; fill: #000000; fill-opacity: 1.000000;">
									<use xlink:href="#E0A4" x="3235" y="2120" height="720px" width="720px" />
								</g>
								<g class="note" id="d1e156" style="stroke: #000000; stroke-opacity: 1.000000; fill: #000000; fill-opacity: 1.000000;">
									<use xlink:href="#E0A4" x="3596" y="2030" height="720px" width="720px" />
								</g>
								<path d="M2729 2098 L2729 1375" style="stroke-width: 20;" />
								<path d="M3090 2008 L3090 1375" style="stroke-width: 20;" />
								<path d="M3451 2098 L3451 1375" style="stroke-width: 20;" />
								<path d="M3812 2008 L3812 1375" style="stroke-width: 20;" />
								<polygon style="fill-rule:nonzero;" points="2723,1355 3818,1355 3818,1445 2723,1445 " />
								<polygon style="fill-rule:nonzero;" points="2723,1490 3818,1490 3818,1580 2723,1580 " />
							</g>
							<g class="beam" id="beam-000000054929277" style="stroke: #000000; stroke-opacity: 1.000000; fill: #000000; fill-opacity: 1.000000;">
								<g class="note" id="d1e176" style="stroke: #000000; stroke-opacity: 1.000000; fill: #000000; fill-opacity: 1.000000;">
									<use xlink:href="#E0A4" x="3957" y="1940" height="720px" width="720px" />
								</g>
								<g class="note" id="d1e196" style="stroke: #000000; stroke-opacity: 1.000000; fill: #000000; fill-opacity: 1.000000;">
									<use xlink:href="#E0A4" x="4318" y="2300" height="720px" width="720px" />
								</g>
								<path d="M4173 1918 L4173 1285" style="stroke-width: 20;" />
								<path d="M4534 2278 L4534 1394" style="stroke-width: 20;" />
								<polygon style="fill-rule:nonzero;" points="4167,1265 4540,1374 4540,1464 4167,1355 " />
								<polygon style="fill-rule:nonzero;" points="4167,1400 4540,1509 4540,1599 4167,1490 " />
							</g>
							<g class="note" id="d1e216" style="stroke: #000000; stroke-opacity: 1.000000; fill: #000000; fill-opacity: 1.000000;">
								<use xlink:href="#E0A4" x="4679" y="1670" height="720px" width="720px" />
								<rect x="4679" y="1692" width="20" height="608" rx="0" style="stroke-width: 0;" />
							</g>
							<g class="beam" id="beam-000000136504327" style="stroke: #000000; stroke-opacity: 1.000000; fill: #000000; fill-opacity: 1.000000;">
								<g class="note" id="d1e232" style="stroke: #000000; stroke-opacity: 1.000000; fill: #000000; fill-opacity: 1.000000;">
									<use xlink:href="#E0A4" x="5851" y="1760" height="720px" width="720px" />
								</g>
								<g class="note" id="d1e250" style="stroke: #000000; stroke-opacity: 1.000000; fill: #000000; fill-opacity: 1.000000;">
									<use xlink:href="#E0A4" x="6212" y="1670" height="720px" width="720px" />
								</g>
								<path d="M5861 1782 L5861 2416" style="stroke-width: 20;" />
								<path d="M6222 1692 L6222 2325" style="stroke-width: 20;" />
								<polygon style="fill-rule:nonzero;" points="5855,2436 6228,2345 6228,2255 5855,2346 " />
								<polygon style="fill-rule:nonzero;" points="5855,2301 6228,2210 6228,2120 5855,2211 " />
							</g>
							<g class="beam" id="beam-000000189698893" style="stroke: #000000; stroke-opacity: 1.000000; fill: #000000; fill-opacity: 1.000000;">
								<g class="note" id="d1e271" style="stroke: #000000; stroke-opacity: 1.000000; fill: #000000; fill-opacity: 1.000000;">
									<use xlink:href="#E0A4" x="6573" y="1580" height="720px" width="720px" />
								</g>
								<g class="note" id="d1e289" style="stroke: #000000; stroke-opacity: 1.000000; fill: #000000; fill-opacity: 1.000000;">
									<use xlink:href="#E0A4" x="6934" y="1760" height="720px" width="720px" />
								</g>
								<g class="note" id="d1e307" style="stroke: #000000; stroke-opacity: 1.000000; fill: #000000; fill-opacity: 1.000000;">
									<use xlink:href="#E0A4" x="7295" y="1940" height="720px" width="720px" />
								</g>
								<g class="note" id="d1e327" style="stroke: #000000; stroke-opacity: 1.000000; fill: #000000; fill-opacity: 1.000000;">
									<use xlink:href="#E0A4" x="7656" y="2030" height="720px" width="720px" />
								</g>
								<path d="M6583 1602 L6583 2379" style="stroke-width: 20;" />
								<path d="M6944 1782 L6944 2487" style="stroke-width: 20;" />
								<path d="M7305 1962 L7305 2595" style="stroke-width: 20;" />
								<path d="M7666 2052 L7666 2703" style="stroke-width: 20;" />
								<polygon style="fill-rule:nonzero;" points="6577,2399 7672,2723 7672,2633 6577,2309 " />
								<polygon style="fill-rule:nonzero;" points="6577,2264 7672,2588 7672,2498 6577,2174 " />
							</g>
						</g>
					</g>
					<g class="staff" id="staff-000000092872653" style="stroke: #000000; stroke-opacity: 1.000000; fill: #000000; fill-opacity: 1.000000;">
						<path d="M990 3398 L8092 3398" style="stroke-width: 20;" />
						<path d="M990 3578 L8092 3578" style="stroke-width: 20;" />
						<path d="M990 3758 L8092 3758" style="stroke-width: 20;" />
						<path d="M990 3938 L8092 3938" style="stroke-width: 20;" />
						<path d="M990 4118 L8092 4118" style="stroke-width: 20;" />
						<g class="layer" id="layer-000000119577777" style="stroke: #000000; stroke-opacity: 1.000000; fill: #000000; fill-opacity: 1.000000;">
							<g class="clef" id="clef-000000004233959" style="stroke: #000000; stroke-opacity: 1.000000; fill: #000000; fill-opacity: 1.000000;">
								<use xlink:href="#E050" x="1080" y="3938" height="720px" width="720px" />
							</g>
							<g class="keySig" id="ksig-000000201917802" style="stroke: #000000; stroke-opacity: 1.000000; fill: #000000; fill-opacity: 1.000000;">
								<use xlink:href="#E260" x="1761" y="3758" height="720px" width="720px" />
								<use xlink:href="#E260" x="1931" y="3488" height="720px" width="720px" />
								<use xlink:href="#E260" x="2101" y="3848" height="720px" width="720px" />
							</g>
							<g class="meterSig" id="msig-000000178840905" style="stroke: #000000; stroke-opacity: 1.000000; fill: #000000; fill-opacity: 1.000000;" />
							<g class="beam" id="beam-000000209716331" style="stroke: #000000; stroke-opacity: 1.000000; fill: #000000; fill-opacity: 1.000000;">
								<g class="note" id="d1e370" style="stroke: #000000; stroke-opacity: 1.000000; fill: #000000; fill-opacity: 1.000000;">
									<use xlink:href="#E0A4" x="2513" y="4118" height="720px" width="720px" />
								</g>
								<g class="note" id="d1e390" style="stroke: #000000; stroke-opacity: 1.000000; fill: #000000; fill-opacity: 1.000000;">
									<use xlink:href="#E0A4" x="2874" y="4028" height="720px" width="720px" />
								</g>
								<g class="note" id="d1e408" style="stroke: #000000; stroke-opacity: 1.000000; fill: #000000; fill-opacity: 1.000000;">
									<use xlink:href="#E0A4" x="3235" y="4118" height="720px" width="720px" />
								</g>
								<g class="note" id="d1e428" style="stroke: #000000; stroke-opacity: 1.000000; fill: #000000; fill-opacity: 1.000000;">
									<use xlink:href="#E0A4" x="3596" y="4028" height="720px" width="720px" />
								</g>
								<g class="note" id="d1e446" style="stroke: #000000; stroke-opacity: 1.000000; fill: #000000; fill-opacity: 1.000000;">
									<use xlink:href="#E0A4" x="3957" y="3938" height="720px" width="720px" />
								</g>
								<g class="note" id="d1e462" style="stroke: #000000; stroke-opacity: 1.000000; fill: #000000; fill-opacity: 1.000000;">
									<use xlink:href="#E0A4" x="4679" y="3938" height="720px" width="720px" />
								</g>
								<path d="M2729 4096 L2729 3283" style="stroke-width: 20;" />
								<path d="M3090 4006 L3090 3283" style="stroke-width: 20;" />
								<path d="M3451 4096 L3451 3283" style="stroke-width: 20;" />
								<path d="M3812 4006 L3812 3283" style="stroke-width: 20;" />
								<path d="M4173 3916 L4173 3283" style="stroke-width: 20;" />
								<path d="M4895 3916 L4895 3283" style="stroke-width: 20;" />
								<polygon style="fill-rule:nonzero;" points="2723,3263 4901,3263 4901,3353 2723,3353 " />
								<polygon style="fill-rule:nonzero;" points="2723,3398 3812,3398 3812,3488 2723,3488 " />
							</g>
							<g class="beam" id="beam-000000073082968" style="stroke: #000000; stroke-opacity: 1.000000; fill: #000000; fill-opacity: 1.000000;">
								<g class="note" id="d1e478" style="stroke: #000000; stroke-opacity: 1.000000; fill: #000000; fill-opacity: 1.000000;">
									<use xlink:href="#E0A4" x="5129" y="4028" height="720px" width="720px" />
								</g>
								<g class="note" id="d1e496" style="stroke: #000000; stroke-opacity: 1.000000; fill: #000000; fill-opacity: 1.000000;">
									<use xlink:href="#E0A4" x="5490" y="3938" height="720px" width="720px" />
								</g>
								<g class="note" id="d1e514" style="stroke: #000000; stroke-opacity: 1.000000; fill: #000000; fill-opacity: 1.000000;">
									<use xlink:href="#E0A4" x="5851" y="4028" height="720px" width="720px" />
								</g>
								<g class="note" id="d1e533" style="stroke: #000000; stroke-opacity: 1.000000; fill: #000000; fill-opacity: 1.000000;">
									<use xlink:href="#E0A4" x="6212" y="3938" height="720px" width="720px" />
								</g>
								<g class="note" id="d1e551" style="stroke: #000000; stroke-opacity: 1.000000; fill: #000000; fill-opacity: 1.000000;">
									<use xlink:href="#E0A4" x="6573" y="3848" height="720px" width="720px" />
								</g>
								<g class="note" id="d1e569" style="stroke: #000000; stroke-opacity: 1.000000; fill: #000000; fill-opacity: 1.000000;">
									<use xlink:href="#E0A4" x="7295" y="3578" height="720px" width="720px" />
								</g>
								<path d="M5345 4006 L5345 3340" style="stroke-width: 20;" />
								<path d="M5706 3916 L5706 3270" style="stroke-width: 20;" />
								<path d="M6067 4006 L6067 3201" style="stroke-width: 20;" />
								<path d="M6428 3916 L6428 3131" style="stroke-width: 20;" />
								<path d="M6789 3826 L6789 3062" style="stroke-width: 20;" />
								<path d="M7511 3556 L7511 2923" style="stroke-width: 20;" />
								<polygon style="fill-rule:nonzero;" points="5339,3320 7517,2903 7517,2993 5339,3410 " />
								<polygon style="fill-rule:nonzero;" points="5339,3455 6428,3246 6428,3336 5339,3545 " />
							</g>
						</g>
					</g>
					<g class="staff" id="staff-000000177974487" style="stroke: #000000; stroke-opacity: 1.000000; fill: #000000; fill-opacity: 1.000000;">
						<path d="M990 5198 L8092 5198" style="stroke-width: 20;" />
						<path d="M990 5378 L8092 5378" style="stroke-width: 20;" />
						<path d="M990 5558 L8092 5558" style="stroke-width: 20;" />
						<path d="M990 5738 L8092 5738" style="stroke-width: 20;" />
						<path d="M990 5918 L8092 5918" style="stroke-width: 20;" />
						<g class="layer" id="layer-000000201994593" style="stroke: #000000; stroke-opacity: 1.000000; fill: #000000; fill-opacity: 1.000000;">
							<g class="clef" id="clef-000000019658281" style="stroke: #000000; stroke-opacity: 1.000000; fill: #000000; fill-opacity: 1.000000;">
								<use xlink:href="#E062" x="1080" y="5378" height="720px" width="720px" />
							</g>
							<g class="keySig" id="ksig-000000014317403" style="stroke: #000000; stroke-opacity: 1.000000; fill: #000000; fill-opacity: 1.000000;">
								<use xlink:href="#E260" x="1761" y="5738" height="720px" width="720px" />
								<use xlink:href="#E260" x="1931" y="5468" height="720px" width="720px" />
								<use xlink:href="#E260" x="2101" y="5828" height="720px" width="720px" />
							</g>
							<g class="meterSig" id="msig-000000114438883" style="stroke: #000000; stroke-opacity: 1.000000; fill: #000000; fill-opacity: 1.000000;" />
							<g class="beam" id="beam-000000154995797" style="stroke: #000000; stroke-opacity: 1.000000; fill: #000000; fill-opacity: 1.000000;">
								<g class="note" id="d1e611" style="stroke: #000000; stroke-opacity: 1.000000; fill: #000000; fill-opacity: 1.000000;">
									<use xlink:href="#E0A4" x="2513" y="5468" height="720px" width="720px" />
								</g>
								<g class="note" id="d1e629" style="stroke: #000000; stroke-opacity: 1.000000; fill: #000000; fill-opacity: 1.000000;">
									<use xlink:href="#E0A4" x="3235" y="6098" height="720px" width="720px" />
									<path d="M3186 6098 L3510 6098" style="stroke-width: 20;" />
								</g>
								<path d="M2729 5446 L2729 4858" style="stroke-width: 20;" />
								<path d="M3451 6076 L3451 5075" style="stroke-width: 20;" />
								<polygon style="fill-rule:nonzero;" points="2723,4838 3457,5055 3457,5145 2723,4928 " />
							</g>
							<g class="rest" id="d1e647" style="stroke: #000000; stroke-opacity: 1.000000; fill: #000000; fill-opacity: 1.000000;">
								<use xlink:href="#E4E6" x="3957" y="5558" height="720px" width="720px" />
							</g>
							<g class="note" id="d1e655" style="stroke: #000000; stroke-opacity: 1.000000; fill: #000000; fill-opacity: 1.000000;">
								<use xlink:href="#E0A4" x="4679" y="5468" height="720px" width="720px" />
								<rect x="4679" y="5490" width="20" height="518" rx="0" style="stroke-width: 0;" />
								<use xlink:href="#E241" x="4679" y="6098" height="720px" width="720px" />
							</g>
							<g class="beam" id="beam-000000081642082" style="stroke: #000000; stroke-opacity: 1.000000; fill: #000000; fill-opacity: 1.000000;">
								<g class="note" id="d1e671" style="stroke: #000000; stroke-opacity: 1.000000; fill: #000000; fill-opacity: 1.000000;">
									<use xlink:href="#E0A4" x="5129" y="5108" height="720px" width="720px" />
								</g>
								<g class="note" id="d1e689" style="stroke: #000000; stroke-opacity: 1.000000; fill: #000000; fill-opacity: 1.000000;">
									<use xlink:href="#E0A4" x="5851" y="5738" height="720px" width="720px" />
								</g>
								<path d="M5139 5130 L5139 6131" style="stroke-width: 20;" />
								<path d="M5861 5760 L5861 6348" style="stroke-width: 20;" />
								<polygon style="fill-rule:nonzero;" points="5133,6151 5867,6368 5867,6278 5133,6061 " />
							</g>
							<g class="rest" id="d1e707" style="stroke: #000000; stroke-opacity: 1.000000; fill: #000000; fill-opacity: 1.000000;">
								<use xlink:href="#E4E6" x="6573" y="5558" height="720px" width="720px" />
							</g>
							<g class="note" id="d1e715" style="stroke: #000000; stroke-opacity: 1.000000; fill: #000000; fill-opacity: 1.000000;">
								<use xlink:href="#E0A4" x="7295" y="5738" height="720px" width="720px" />
								<rect x="7501" y="5198" width="20" height="518" rx="0" style="stroke-width: 0;" />
								<use xlink:href="#E240" x="7501" y="5108" height="720px" width="720px" />
							</g>
						</g>
					</g>
					<g class="barline" id="bline-000000043690735" style="stroke: #000000; stroke-opacity: 1.000000; fill: #000000; fill-opacity: 1.000000;">
						<path d="M8077 1570 L8077 4128" style="stroke-width: 30;" />
						<path d="M8077 5188 L8077 5928" style="stroke-width: 30;" />
					</g>
				</g>
				<g class="measure" id="d1e731" style="stroke: #000000; stroke-opacity: 1.000000; fill: #000000; fill-opacity: 1.000000;">
					<g class="staff" id="staff-000000076337912" style="stroke: #000000; stroke-opacity: 1.000000; fill: #000000; fill-opacity: 1.000000;">
						<path d="M8092 1580 L12696 1580" style="stroke-width: 20;" />
						<path d="M8092 1760 L12696 1760" style="stroke-width: 20;" />
						<path d="M8092 1940 L12696 1940" style="stroke-width: 20;" />
						<path d="M8092 2120 L12696 2120" style="stroke-width: 20;" />
						<path d="M8092 2300 L12696 2300" style="stroke-width: 20;" />
						<g class="layer" id="layer-000000104556266" style="stroke: #000000; stroke-opacity: 1.000000; fill: #000000; fill-opacity: 1.000000;">
							<g class="beam" id="beam-000000198547948" style="stroke: #000000; stroke-opacity: 1.000000; fill: #000000; fill-opacity: 1.000000;">
								<g class="note" id="d1e733" style="stroke: #000000; stroke-opacity: 1.000000; fill: #000000; fill-opacity: 1.000000;">
									<use xlink:href="#E0A4" x="8362" y="2030" height="720px" width="720px" />
								</g>
								<g class="note" id="d1e751" style="stroke: #000000; stroke-opacity: 1.000000; fill: #000000; fill-opacity: 1.000000;">
									<use xlink:href="#E0A4" x="8812" y="2120" height="720px" width="720px" />
								</g>
								<path d="M8578 2008 L8578 1419" style="stroke-width: 20;" />
								<path d="M9028 2098 L9028 1510" style="stroke-width: 20;" />
								<polygon style="fill-rule:nonzero;" points="8572,1399 9034,1490 9034,1580 8572,1489 " />
							</g>
							<g class="rest" id="d1e767" style="stroke: #000000; stroke-opacity: 1.000000; fill: #000000; fill-opacity: 1.000000;">
								<use xlink:href="#E4E5" x="9262" y="1940" height="720px" width="720px" />
							</g>
							<g class="beam" id="beam-000000156025886" style="stroke: #000000; stroke-opacity: 1.000000; fill: #000000; fill-opacity: 1.000000;">
								<g class="note" id="d1e775" style="stroke: #000000; stroke-opacity: 1.000000; fill: #000000; fill-opacity: 1.000000;">
									<use xlink:href="#E0A4" x="9952" y="2120" height="720px" width="720px" />
								</g>
								<g class="note" id="d1e793" style="stroke: #000000; stroke-opacity: 1.000000; fill: #000000; fill-opacity: 1.000000;">
									<use xlink:href="#E0A4" x="10313" y="2030" height="720px" width="720px" />
								</g>
								<g class="note" id="d1e813" style="stroke: #000000; stroke-opacity: 1.000000; fill: #000000; fill-opacity: 1.000000;">
									<use xlink:href="#E0A4" x="10674" y="2120" height="720px" width="720px" />
								</g>
								<g class="note" id="d1e831" style="stroke: #000000; stroke-opacity: 1.000000; fill: #000000; fill-opacity: 1.000000;">
									<use xlink:href="#E0A4" x="11035" y="2030" height="720px" width="720px" />
								</g>
								<path d="M10168 2098 L10168 1375" style="stroke-width: 20;" />
								<path d="M10529 2008 L10529 1375" style="stroke-width: 20;" />
								<path d="M10890 2098 L10890 1375" style="stroke-width: 20;" />
								<path d="M11251 2008 L11251 1375" style="stroke-width: 20;" />
								<polygon style="fill-rule:nonzero;" points="10162,1355 11257,1355 11257,1445 10162,1445 " />
								<polygon style="fill-rule:nonzero;" points="10162,1490 11257,1490 11257,1580 10162,1580 " />
							</g>
							<g class="beam" id="beam-000000004902218" style="stroke: #000000; stroke-opacity: 1.000000; fill: #000000; fill-opacity: 1.000000;">
								<g class="note" id="d1e851" style="stroke: #000000; stroke-opacity: 1.000000; fill: #000000; fill-opacity: 1.000000;">
									<use xlink:href="#E0A4" x="11396" y="1940" height="720px" width="720px" />
								</g>
								<g class="note" id="d1e871" style="stroke: #000000; stroke-opacity: 1.000000; fill: #000000; fill-opacity: 1.000000;">
									<use xlink:href="#E0A4" x="11757" y="2300" height="720px" width="720px" />
								</g>
								<g class="note" id="d1e891" style="stroke: #000000; stroke-opacity: 1.000000; fill: #000000; fill-opacity: 1.000000;">
									<use xlink:href="#E0A4" x="12118" y="1670" height="720px" width="720px" />
								</g>
								<path d="M11612 1918 L11612 1232" style="stroke-width: 20;" />
								<path d="M11973 2278 L11973 1123" style="stroke-width: 20;" />
								<path d="M12334 1648 L12334 1015" style="stroke-width: 20;" />
								<polygon style="fill-rule:nonzero;" points="11606,1212 12340,995 12340,1085 11606,1302 " />
								<polygon style="fill-rule:nonzero;" points="11606,1347 11973,1238 11973,1328 11606,1437 " />
							</g>
						</g>
					</g>
					<g class="staff" id="staff-000000044115161" style="stroke: #000000; stroke-opacity: 1.000000; fill: #000000; fill-opacity: 1.000000;">
						<path d="M8092 3398 L12696 3398" style="stroke-width: 20;" />
						<path d="M8092 3578 L12696 3578" style="stroke-width: 20;" />
						<path d="M8092 3758 L12696 3758" style="stroke-width: 20;" />
						<path d="M8092 3938 L12696 3938" style="stroke-width: 20;" />
						<path d="M8092 4118 L12696 4118" style="stroke-width: 20;" />
						<g class="layer" id="layer-000000132169428" style="stroke: #000000; stroke-opacity: 1.000000; fill: #000000; fill-opacity: 1.000000;">
							<g class="beam" id="beam-000000097871614" style="stroke: #000000; stroke-opacity: 1.000000; fill: #000000; fill-opacity: 1.000000;">
								<g class="note" id="d1e913" style="stroke: #000000; stroke-opacity: 1.000000; fill: #000000; fill-opacity: 1.000000;">
									<use xlink:href="#E0A4" x="8362" y="3578" height="720px" width="720px" />
								</g>
								<g class="note" id="d1e932" style="stroke: #000000; stroke-opacity: 1.000000; fill: #000000; fill-opacity: 1.000000;">
									<use xlink:href="#E0A4" x="8812" y="3488" height="720px" width="720px" />
								</g>
								<path d="M8372 3600 L8372 4188" style="stroke-width: 20;" />
								<path d="M8822 3510 L8822 4099" style="stroke-width: 20;" />
								<polygon style="fill-rule:nonzero;" points="8366,4208 8828,4119 8828,4029 8366,4118 " />
							</g>
							<g class="rest" id="d1e950" style="stroke: #000000; stroke-opacity: 1.000000; fill: #000000; fill-opacity: 1.000000;">
								<use xlink:href="#E4E5" x="9262" y="3758" height="720px" width="720px" />
							</g>
							<g class="beam" id="beam-000000120518841" style="stroke: #000000; stroke-opacity: 1.000000; fill: #000000; fill-opacity: 1.000000;">
								<g class="note" id="d1e958" style="stroke: #000000; stroke-opacity: 1.000000; fill: #000000; fill-opacity: 1.000000;">
									<use xlink:href="#E0A4" x="9952" y="4118" height="720px" width="720px" />
								</g>
								<g class="note" id="d1e978" style="stroke: #000000; stroke-opacity: 1.000000; fill: #000000; fill-opacity: 1.000000;">
									<use xlink:href="#E0A4" x="10313" y="4028" height="720px" width="720px" />
								</g>
								<g class="note" id="d1e996" style="stroke: #000000; stroke-opacity: 1.000000; fill: #000000; fill-opacity: 1.000000;">
									<use xlink:href="#E0A4" x="10674" y="4118" height="720px" width="720px" />
								</g>
								<g class="note" id="d1e1016" style="stroke: #000000; stroke-opacity: 1.000000; fill: #000000; fill-opacity: 1.000000;">
									<use xlink:href="#E0A4" x="11035" y="4028" height="720px" width="720px" />
								</g>
								<g class="note" id="d1e1034" style="stroke: #000000; stroke-opacity: 1.000000; fill: #000000; fill-opacity: 1.000000;">
									<use xlink:href="#E0A4" x="11396" y="3938" height="720px" width="720px" />
								</g>
								<g class="note" id="d1e1050" style="stroke: #000000; stroke-opacity: 1.000000; fill: #000000; fill-opacity: 1.000000;">
									<use xlink:href="#E0A4" x="12118" y="3938" height="720px" width="720px" />
								</g>
								<path d="M10168 4096 L10168 3283" style="stroke-width: 20;" />
								<path d="M10529 4006 L10529 3283" style="stroke-width: 20;" />
								<path d="M10890 4096 L10890 3283" style="stroke-width: 20;" />
								<path d="M11251 4006 L11251 3283" style="stroke-width: 20;" />
								<path d="M11612 3916 L11612 3283" style="stroke-width: 20;" />
								<path d="M12334 3916 L12334 3283" style="stroke-width: 20;" />
								<polygon style="fill-rule:nonzero;" points="10162,3263 12340,3263 12340,3353 10162,3353 " />
								<polygon style="fill-rule:nonzero;" points="10162,3398 11251,3398 11251,3488 10162,3488 " />
							</g>
							<g class="tie" id="tie-000000205060970" style="stroke: #000000; stroke-opacity: 1.000000; fill: #000000; fill-opacity: 1.000000;">
								<path d="M7408,3722 C7674,3902 8206,3902 8475,3722 C8206,3842 7674,3842 7408,3722" style="fill:#000; fill-opacity:1.0; stroke:#000000; stroke-linecap:round; stroke-linejoin:round; stroke-opacity:1.0; stroke-width: 10" />
							</g>
						</g>
					</g>
					<g class="staff" id="staff-000000106700828" style="stroke: #000000; stroke-opacity: 1.000000; fill: #000000; fill-opacity: 1.000000;">
						<path d="M8092 5198 L12696 5198" style="stroke-width: 20;" />
						<path d="M8092 5378 L12696 5378" style="stroke-width: 20;" />
						<path d="M8092 5558 L12696 5558" style="stroke-width: 20;" />
						<path d="M8092 5738 L12696 5738" style="stroke-width: 20;" />
						<path d="M8092 5918 L12696 5918" style="stroke-width: 20;" />
						<g class="layer" id="layer-000000171974312" style="stroke: #000000; stroke-opacity: 1.000000; fill: #000000; fill-opacity: 1.000000;">
							<g class="beam" id="beam-000000151478959" style="stroke: #000000; stroke-opacity: 1.000000; fill: #000000; fill-opacity: 1.000000;">
								<g class="note" id="d1e1067" style="stroke: #000000; stroke-opacity: 1.000000; fill: #000000; fill-opacity: 1.000000;">
									<use xlink:href="#E0A4" x="8362" y="5468" height="720px" width="720px" />
								</g>
								<g class="note" id="d1e1085" style="stroke: #000000; stroke-opacity: 1.000000; fill: #000000; fill-opacity: 1.000000;">
									<use xlink:href="#E0A4" x="8812" y="6098" height="720px" width="720px" />
									<path d="M8763 6098 L9087 6098" style="stroke-width: 20;" />
								</g>
								<path d="M8578 5446 L8578 4858" style="stroke-width: 20;" />
								<path d="M9028 6076 L9028 4993" style="stroke-width: 20;" />
								<polygon style="fill-rule:nonzero;" points="8572,4838 9034,4973 9034,5063 8572,4928 " />
							</g>
							<g class="rest" id="d1e1103" style="stroke: #000000; stroke-opacity: 1.000000; fill: #000000; fill-opacity: 1.000000;">
								<use xlink:href="#E4E5" x="9262" y="5558" height="720px" width="720px" />
							</g>
							<g class="beam" id="beam-000000026707864" style="stroke: #000000; stroke-opacity: 1.000000; fill: #000000; fill-opacity: 1.000000;">
								<g class="note" id="d1e1111" style="stroke: #000000; stroke-opacity: 1.000000; fill: #000000; fill-opacity: 1.000000;">
									<use xlink:href="#E0A4" x="9952" y="5468" height="720px" width="720px" />
								</g>
								<g class="note" id="d1e1129" style="stroke: #000000; stroke-opacity: 1.000000; fill: #000000; fill-opacity: 1.000000;">
									<use xlink:href="#E0A4" x="10674" y="6098" height="720px" width="720px" />
									<path d="M10625 6098 L10949 6098" style="stroke-width: 20;" />
								</g>
								<path d="M10168 5446 L10168 4858" style="stroke-width: 20;" />
								<path d="M10890 6076 L10890 5075" style="stroke-width: 20;" />
								<polygon style="fill-rule:nonzero;" points="10162,4838 10896,5055 10896,5145 10162,4928 " />
							</g>
							<g class="rest" id="d1e1147" style="stroke: #000000; stroke-opacity: 1.000000; fill: #000000; fill-opacity: 1.000000;">
								<use xlink:href="#E4E6" x="11396" y="5558" height="720px" width="720px" />
							</g>
							<g class="note" id="d1e1155" style="stroke: #000000; stroke-opacity: 1.000000; fill: #000000; fill-opacity: 1.000000;">
								<use xlink:href="#E0A4" x="12118" y="5468" height="720px" width="720px" />
								<rect x="12118" y="5490" width="20" height="518" rx="0" style="stroke-width: 0;" />
								<use xlink:href="#E241" x="12118" y="6098" height="720px" width="720px" />
							</g>
						</g>
					</g>
					<g class="barline" id="bline-000000105992385" style="stroke: #000000; stroke-opacity: 1.000000; fill: #000000; fill-opacity: 1.000000;">
						<path d="M12681 1570 L12681 4128" style="stroke-width: 30;" />
						<path d="M12681 5188 L12681 5928" style="stroke-width: 30;" />
					</g>
				</g>
				<path d="M990 1570 L990 5928" style="stroke-width: 30;" />
				<use xlink:href="#E003" x="810" y="1570" height="720px" width="720px" />
				<use xlink:href="#E004" x="810" y="4128" height="720px" width="720px" />
				<rect x="810" y="1550" width="90" height="2598" rx="0" style="stroke-width: 0;" />
				<text x="720" y="2030" dx="0" dy="0" style="font-family: Garamond, Georgia, serif; font-size: 360px;" text-anchor="end">upper</text>
				<text x="720" y="3848" dx="0" dy="0" style="font-family: Garamond, Georgia, serif; font-size: 360px;" text-anchor="end">lower</text>
				<text x="720" y="5648" dx="0" dy="0" style="font-family: Garamond, Georgia, serif; font-size: 360px;" text-anchor="end">pedal</text>
			</g>
		</g>
	</svg>
</svg>
