<?xml version="1.0" encoding="UTF-8" standalone="no"?>
<svg width="2147px" height="460px" version="1.1" xmlns="http://www.w3.org/2000/svg" xmlns:xlink="http://www.w3.org/1999/xlink" overflow="visible">
	<defs>
		<symbol id="E050" viewBox="0 0 1000 1000" overflow="inherit" horiz-adv-x="646">
			<g transform="scale(1,-1)">
				<path d="M441 -245c-23 -4 -48 -6 -76 -6c-59 0 -102 7 -130 20c-88 42 -150 93 -187 154c-26 44 -43 103 -48 176c-4 60 11 123 44 189c29 57 65 106 110 148s96 85 153 127c-3 16 -8 46 -13 92c-4 43 -5 73 -5 89c0 117 16 172 69 257c34 54 64 82 89 82c21 0 43 -30 69 -92 s39 -115 41 -159c2 -120 -19 -173 -67 -256c-13 -20 -63 -90 -98 -118c-13 -9 -25 -19 -37 -29l31 -181c8 1 18 2 28 2c58 0 102 -12 133 -35c59 -43 92 -104 98 -184c11 -135 -80 -229 -180 -270c8 -57 17 -110 25 -162c5 -31 6 -58 6 -80c0 -30 -5 -53 -14 -70 c-35 -64 -88 -99 -158 -103c-42 -3 -83 6 -124 26c-50 24 -77 59 -80 105c-2 34 5 63 20 87c18 28 45 42 79 44c51 4 99 -40 103 -87c4 -56 -30 -94 -105 -115c17 -24 51 -36 102 -36c62 0 116 43 140 85c9 16 13 41 13 74c0 20 -1 42 -5 67c-8 53 -18 106 -26 159zM461 939 c-95 0 -135 -175 -135 -286c0 -24 2 -48 5 -71c50 39 92 82 127 128c43 57 63 106 60 148c-4 54 -23 82 -57 81zM406 119l54 -326c80 27 116 88 109 184c-7 99 -62 146 -163 142zM382 117c-74 -2 -132 -50 -128 -127c2 -46 43 -99 75 -115c-3 -2 -7 -5 -10 -10 c-70 33 -116 88 -123 172c-5 73 42 135 88 170c23 17 49 29 78 36l-29 170c-21 -13 -52 -37 -92 -73c-50 -44 -86 -84 -109 -119c-49 -75 -71 -140 -67 -195c5 -68 35 -127 93 -176s125 -73 203 -73c25 0 50 3 75 9c-19 111 -36 221 -54 331z" />
			</g>
		</symbol>
		<symbol id="E262" viewBox="0 0 1000 1000" overflow="inherit" horiz-adv-x="280">
			<g transform="scale(1,-1)">
				<path d="M136 186v169h17v-164l44 14v-91l-44 -14v-165l44 12v-91l-44 -13v-155h-17v150l-76 -22v-155h-17v149l-43 -13v90l43 14v167l-43 -14v92l43 13v169h17v-163zM60 73v-167l76 22v168z" />
			</g>
		</symbol>
		<symbol id="E08A" viewBox="0 0 1000 1000" overflow="inherit" horiz-adv-x="422">
			<g transform="scale(1,-1)">
				<path d="M340 179c-9 24 -56 41 -89 41c-46 0 -81 -28 -100 -58c-17 -28 -25 -78 -25 -150c0 -65 2 -111 8 -135c8 -31 18 -49 40 -67c20 -17 43 -25 70 -25c54 0 92 36 115 75c14 25 23 54 28 88h27c0 -63 -24 -105 -58 -141c-35 -38 -82 -56 -140 -56c-45 0 -83 13 -115 39 c-57 45 -101 130 -101 226c0 59 33 127 68 163c36 37 97 72 160 72c36 0 93 -21 121 -40c11 -8 23 -17 33 -30c19 -23 27 -48 27 -76c0 -51 -35 -88 -86 -88c-43 0 -76 27 -76 68c0 26 7 35 21 51c15 17 32 27 58 32c7 2 14 7 14 11z" />
			</g>
		</symbol>
		<symbol id="E4E6" viewBox="0 0 1000 1000" overflow="inherit" horiz-adv-x="290">
			<g transform="scale(1,-1)">
				<path d="M0 123c7 34 33 56 69 60c29 -3 43 -9 53 -29c4 -8 7 -15 10 -22c0 -21 -1 -25 -11 -35c-5 -8 -18 -14 -40 -20l12 -3l15 -1c44 0 97 26 122 56c10 11 18 26 24 42c7 1 15 2 22 3l-140 -424h-36l111 330c-10 -6 -27 -12 -53 -16l-52 -8h-10l-20 1c-1 0 -8 3 -21 6 c-37 9 -55 28 -55 60z" />
			</g>
		</symbol>
		<symbol id="E083" viewBox="0 0 1000 1000" overflow="inherit" horiz-adv-x="383">
			<g transform="scale(1,-1)">
				<path d="M188 250c97 0 177 -52 177 -116c0 -69 -40 -111 -118 -125c56 -5 125 -44 125 -116c0 -31 -10 -57 -31 -78c-19 -21 -45 -38 -78 -49l-50 -11c-15 -3 -36 -7 -55 -7c-50 0 -86 16 -113 38c-16 10 -23 18 -34 34c-7 13 -11 25 -11 38c0 43 27 83 68 83l3 -2 c61 0 75 -42 75 -70c0 -19 -24 -42 -26 -57c7 -17 20 -25 37 -25c44 0 94 29 94 78c0 75 -34 125 -138 125v36c84 0 131 22 131 98c0 54 -37 88 -87 88c-26 0 -43 -7 -51 -22c15 -22 44 -16 44 -70c0 -37 -37 -62 -71 -62c-22 0 -69 15 -69 76c0 79 101 116 178 116z" />
			</g>
		</symbol>
		<symbol id="E0A4" viewBox="0 0 1000 1000" overflow="inherit" horiz-adv-x="320">
			<g transform="scale(1,-1)">
				<path d="M0 -39c0 68 73 172 200 172c66 0 114 -37 114 -95c0 -84 -106 -171 -218 -171c-64 0 -96 30 -96 94z" />
			</g>
		</symbol>
		<symbol id="E261" viewBox="0 0 1000 1000" overflow="inherit" horiz-adv-x="157">
			<g transform="scale(1,-1)">
				<path d="M0 -188v539h18v-191l139 22v-533h-17v186zM18 -100l122 17v176l-122 -19v-174z" />
			</g>
		</symbol>
		<symbol id="E883" viewBox="0 0 1000 1000" overflow="inherit" horiz-adv-x="255">
			<g transform="scale(1,-1)">
				<path d="M161 326c52 0 94 -17 94 -68c0 -50 -40 -76 -82 -94c26 -21 39 -42 39 -64c0 -52 -56 -100 -118 -100h-12c-40 0 -82 23 -82 56c0 30 12 49 37 49c17 0 31 -16 34 -31c0 -5 -4 -12 -11 -21c-7 -5 -13 -10 -13 -21l11 -9l17 -4c21 0 40 12 56 37c13 21 19 45 19 70 c-9 30 -28 35 -66 35l6 23c34 0 60 4 77 13c20 11 30 35 30 70c0 28 -12 38 -39 40l-20 -3c-8 -3 -12 -9 -12 -16c2 -7 4 -11 5 -14l4 -11l3 -10l-3 -12c-5 -6 -11 -11 -20 -13c-18 -4 -36 10 -36 27c0 39 43 71 82 71z" />
			</g>
		</symbol>
		<symbol id="E240" viewBox="0 0 1000 1000" overflow="inherit" horiz-adv-x="">
			<g transform="scale(1,-1)">
				<path d="M206 -548c24 34 49 94 49 152c0 105 -80 173 -168 200c-18 5 -47 11 -87 18v176c16 -13 34 -28 53 -45c4 -3 38 -35 101 -94c62 -58 122 -137 122 -241c0 -37 -8 -74 -23 -111c-14 -35 -22 -53 -44 -79c-6 -5 -10 -7 -13 -7s-5 2 -5 5l4 10c1 3 5 9 11 16z" />
			</g>
		</symbol>
		<symbol id="E086" viewBox="0 0 1000 1000" overflow="inherit" horiz-adv-x="394">
			<g transform="scale(1,-1)">
				<path d="M264 -91c0 37 -28 92 -67 92c-35 0 -65 -54 -65 -111c0 -52 22 -104 68 -104c47 0 64 68 64 123zM210 214c-36 0 -90 -33 -90 -184l2 -36c40 24 81 36 120 36c80 0 140 -48 140 -121c0 -99 -99 -159 -182 -159c-160 0 -200 173 -200 244c0 21 2 43 7 71l10 35 c26 85 73 115 98 126c41 19 74 24 103 24c93 0 142 -63 142 -105c0 -58 -52 -72 -73 -72c-33 0 -59 24 -65 35c-3 5 -6 14 -7 25l11 30c6 15 9 27 9 35c0 11 -9 16 -25 16z" />
			</g>
		</symbol>
		<symbol id="E088" viewBox="0 0 1000 1000" overflow="inherit" horiz-adv-x="386">
			<g transform="scale(1,-1)">
				<path d="M185 -214c76 0 88 58 90 68c0 34 -35 60 -57 73l-52 29c-21 10 -32 17 -34 20c-39 -33 -58 -54 -62 -92c5 -23 23 -98 115 -98zM291 135c0 61 -72 76 -113 76c-40 0 -77 -17 -77 -51c3 -21 15 -38 26 -50c17 -15 33 -26 48 -34l65 -28c34 27 51 56 51 87zM166 -250 c-57 0 -166 26 -166 132c0 47 30 86 89 116c-33 15 -79 60 -79 119c0 79 85 132 178 132h18c5 0 21 1 28 -1c25 0 126 -30 126 -110c0 -37 -23 -76 -69 -116c43 -25 83 -71 83 -119c0 -101 -118 -153 -208 -153z" />
			</g>
		</symbol>
		<symbol id="E4C0" viewBox="0 0 1000 1000" overflow="inherit" horiz-adv-x="605">
			<g transform="scale(1,-1)">
				<path d="M605 21zM0 0c0 3 3 17 4 21c61 306 268 299 300 299c29 0 238 7 300 -299c1 -4 1 -18 1 -21h-32c-1 1 -4 22 -5 25c-10 38 -52 202 -265 202c-208 0 -252 -159 -264 -200c-1 -4 -6 -26 -6 -27h-33zM358 52c0 -30 -25 -55 -55 -55c-29 0 -54 25 -54 55c0 29 25 54 54 54 c30 0 55 -25 55 -54z" />
			</g>
		</symbol>
	</defs>
	<svg id="definition-scale" viewBox="0 0 21470 4600">
		<g class="page-margin" transform="translate(500, 500)" style="stroke: #000; stroke-opacity: 1.0; fill: #000; fill-opacity: 1.0">
			<g class="system" id="system-000000170523550">
				<g class="measure" id="measure-000000089835655">
					<g class="staff" id="staff-000000180602477">
						<path d="M0 1940 L2395 1940" style="stroke-width: 20;" />
						<path d="M0 2120 L2395 2120" style="stroke-width: 20;" />
						<path d="M0 2300 L2395 2300" style="stroke-width: 20;" />
						<path d="M0 2480 L2395 2480" style="stroke-width: 20;" />
						<path d="M0 2660 L2395 2660" style="stroke-width: 20;" />
						<g class="layer" id="layer-000000132449311">
							<g class="clef" id="clef-000000064416931">
								<use xlink:href="#E050" x="90" y="2480" height="720px" width="720px" />
							</g>
							<g class="keySig" id="ksig-000000127485303">
								<use xlink:href="#E262" x="735" y="1940" height="720px" width="720px" />
								<use xlink:href="#E262" x="918" y="2210" height="720px" width="720px" />
							</g>
							<g class="meterSig" id="msig-000000101059631">
								<use xlink:href="#E08A" x="1284" y="2300" height="720px" width="720px" />
							</g>
							<g class="rest" id="rest-000000208774903">
								<use xlink:href="#E4E6" x="1852" y="2300" height="720px" width="720px" />
							</g>
						</g>
					</g>
					<g class="barlineAttr" id="bline-000000097412232">
						<path d="M2380 1930 L2380 2670" style="stroke-width: 30;" />
					</g>
				</g>
				<g class="measure" id="measure-000000106273971">
					<g class="staff" id="staff-000000068642043">
						<path d="M2395 1940 L3905 1940" style="stroke-width: 20;" />
						<path d="M2395 2120 L3905 2120" style="stroke-width: 20;" />
						<path d="M2395 2300 L3905 2300" style="stroke-width: 20;" />
						<path d="M2395 2480 L3905 2480" style="stroke-width: 20;" />
						<path d="M2395 2660 L3905 2660" style="stroke-width: 20;" />
						<g class="layer" id="layer-000000038614978">
							<g class="multiRest" id="multirest-000000032380484">
								<rect x="2685" y="2214" width="900" height="172" rx="0" style="stroke-width: 0;" />
								<path d="M2685 2480 L2685 2120" style="stroke-width: 40;" />
								<path d="M3585 2480 L3585 2120" style="stroke-width: 40;" />
								<use xlink:href="#E083" x="3001" y="1935" height="720px" width="720px" />
							</g>
						</g>
					</g>
					<g class="barlineAttr" id="bline-000000168460229">
						<path d="M3890 1930 L3890 2670" style="stroke-width: 30;" />
					</g>
				</g>
				<g class="measure" id="measure-000000046438438">
					<g class="staff" id="staff-000000014493253">
						<path d="M3905 1940 L9734 1940" style="stroke-width: 20;" />
						<path d="M3905 2120 L9734 2120" style="stroke-width: 20;" />
						<path d="M3905 2300 L9734 2300" style="stroke-width: 20;" />
						<path d="M3905 2480 L9734 2480" style="stroke-width: 20;" />
						<path d="M3905 2660 L9734 2660" style="stroke-width: 20;" />
						<g class="layer" id="layer-000000063457601">
							<g class="tuplet" id="tuplet-000000091524268">
								<g class="beam" id="beam-000000005839291">
									<g class="note" id="note-000000000966211">
										<use xlink:href="#E0A4" x="4265" y="2300" height="720px" width="720px" />
									</g>
									<g class="note" id="note-000000132984285">
										<use xlink:href="#E0A4" x="4671" y="2210" height="720px" width="720px" />
									</g>
									<g class="note" id="note-000000180661688">
										<use xlink:href="#E0A4" x="5077" y="2300" height="720px" width="720px" />
									</g>
									<g class="note" id="note-000000053868445">
										<use xlink:href="#E0A4" x="5483" y="2390" height="720px" width="720px" />
									</g>
									<g class="note" id="note-000000202606308">
										<use xlink:href="#E0A4" x="5889" y="2030" height="720px" width="720px" />
									</g>
									<path d="M4275 2322 L4275 3153" style="stroke-width: 20;" />
									<path d="M4681 2232 L4681 3117" style="stroke-width: 20;" />
									<path d="M5087 2322 L5087 3081" style="stroke-width: 20;" />
									<path d="M5493 2412 L5493 3045" style="stroke-width: 20;" />
									<path d="M5899 2052 L5899 3009" style="stroke-width: 20;" />
									<polygon style="fill-rule:nonzero;" stroke-width="0" points="4265,3173 5909,3029 5909,2939 4265,3083 " />
									<polygon style="fill-rule:nonzero;" stroke-width="0" points="4681,3002 5087,2966 5087,2876 4681,2912 " />
									<polygon style="fill-rule:nonzero;" stroke-width="0" points="5087,2966 5493,2930 5493,2840 5087,2876 " />
								</g>
								<use xlink:href="#E883" x="4996" y="3472" height="720px" width="720px" />
							</g>
							<g class="tuplet" id="tuplet-000000154147872">
								<g class="beam" id="beam-000000039026408">
									<g class="note" id="note-000000075346907">
										<use xlink:href="#E0A4" x="6295" y="1940" height="720px" width="720px" />
										<ellipse cx="6633" cy="1850" rx="36" ry="36" style="stroke-opacity: 1.000000; stroke-width: 1; fill-opacity: 1.000000;" />
									</g>
									<g class="note" id="note-000000199121123">
										<use xlink:href="#E0A4" x="7061" y="1850" height="720px" width="720px" />
										<g class="accid" id="accid-000000101357977">
											<use xlink:href="#E261" x="6849" y="1850" height="720px" width="720px" />
										</g>
									</g>
									<g class="note" id="note-000000204953863">
										<use xlink:href="#E0A4" x="7679" y="1850" height="720px" width="720px" />
										<g class="accid" id="accid-000000139497361">
											<use xlink:href="#E262" x="7467" y="1850" height="720px" width="720px" />
										</g>
									</g>
									<path d="M6305 1962 L6305 2598" style="stroke-width: 20;" />
									<path d="M7071 1872 L7071 2547" style="stroke-width: 20;" />
									<path d="M7689 1872 L7689 2505" style="stroke-width: 20;" />
									<polygon style="fill-rule:nonzero;" stroke-width="0" points="6295,2618 7699,2525 7699,2435 6295,2528 " />
									<polygon style="fill-rule:nonzero;" stroke-width="0" points="6909,2443 7071,2432 7071,2342 6909,2353 " />
								</g>
								<use xlink:href="#E883" x="6906" y="2942" height="720px" width="720px" />
							</g>
							<g class="note" id="note-000000095817417">
								<use xlink:href="#E0A4" x="8085" y="1850" height="720px" width="720px" />
								<rect x="8085" y="1872" width="20" height="608" rx="0" style="stroke-width: 0;" />
								<ellipse cx="8423" cy="1850" rx="36" ry="36" style="stroke-opacity: 1.000000; stroke-width: 1; fill-opacity: 1.000000;" />
							</g>
							<g class="beam" id="beam-000000034693510">
								<g class="chord" id="chord-000000052024174">
									<g class="note" id="note-000000129706447">
										<use xlink:href="#E0A4" x="8698" y="1760" height="720px" width="720px" />
									</g>
									<g class="note" id="note-000000065606340">
										<use xlink:href="#E0A4" x="8698" y="2210" height="720px" width="720px" />
									</g>
									<path d="M8649 1760 L8973 1760" style="stroke-width: 20;" />
								</g>
								<g class="chord" id="chord-000000127652010">
									<g class="note" id="note-000000111172078">
										<use xlink:href="#E0A4" x="9163" y="1850" height="720px" width="720px" />
									</g>
									<g class="note" id="note-000000158348778">
										<use xlink:href="#E0A4" x="9163" y="2300" height="720px" width="720px" />
									</g>
								</g>
								<path d="M8708 1782 L8708 2864" style="stroke-width: 20;" />
								<path d="M9173 1872 L9173 2910" style="stroke-width: 20;" />
								<polygon style="fill-rule:nonzero;" stroke-width="0" points="8698,2884 9183,2930 9183,2840 8698,2794 " />
							</g>
						</g>
					</g>
					<g class="tie" id="tie-000000005355760">
						<path d="M7792,1706 C7893,1506 8095,1506 8198,1706 C8095,1566 7893,1566 7792,1706" style="fill-opacity:1.0; stroke-linecap:round; stroke-linejoin:round; stroke-opacity:1.0; stroke-width: 10" />
					</g>
					<g class="slur" id="slur-000000081136688">
						<path d="M8811,1616 C9355,1316 10443,1316 10987,1706 C10443,1376 9355,1376 8811,1616" style="fill-opacity:1.0; stroke-linecap:round; stroke-linejoin:round; stroke-opacity:1.0; stroke-width: 10" />
					</g>
					<g class="barlineAttr" id="bline-000000125295231">
						<path d="M9719 1930 L9719 2670" style="stroke-width: 30;" />
					</g>
				</g>
				<g class="measure" id="measure-000000206189929">
					<g class="staff" id="staff-000000061990698">
						<path d="M9734 1940 L11719 1940" style="stroke-width: 20;" />
						<path d="M9734 2120 L11719 2120" style="stroke-width: 20;" />
						<path d="M9734 2300 L11719 2300" style="stroke-width: 20;" />
						<path d="M9734 2480 L11719 2480" style="stroke-width: 20;" />
						<path d="M9734 2660 L11719 2660" style="stroke-width: 20;" />
						<g class="layer" id="layer-000000133347487">
							<g class="note" id="note-000000057291764">
								<use xlink:href="#E0A4" x="10004" y="2030" height="514px" width="514px" />
								<rect x="10144" y="1644" width="20" height="364" rx="0" style="stroke-width: 0;" />
								<use xlink:href="#E240" x="10144" y="1580" height="514px" width="514px" />
								<path d="M10058 1902 L10346 1646" style="stroke-width: 20;" />
							</g>
							<g class="chord" id="chord-000000185770362">
								<g class="note" id="note-000000016013206">
									<polygon style="fill-rule:nonzero;" stroke-width="0" points="10871,1760 11103,1760 11103,1805 10871,1805 " />
									<polygon style="fill-rule:nonzero;" stroke-width="0" points="10871,1940 11103,1940 11103,1895 10871,1895 " />
									<path d="M10871 1715 L10871 1985" style="stroke-width: 20;" />
									<path d="M11103 1715 L11103 1985" style="stroke-width: 20;" />
								</g>
								<g class="note" id="note-000000054257315">
									<polygon style="fill-rule:nonzero;" stroke-width="0" points="10871,2030 11103,2030 11103,2075 10871,2075 " />
									<polygon style="fill-rule:nonzero;" stroke-width="0" points="10871,2210 11103,2210 11103,2165 10871,2165 " />
									<path d="M10871 1985 L10871 2255" style="stroke-width: 20;" />
									<path d="M11103 1985 L11103 2255" style="stroke-width: 20;" />
								</g>
								<g class="accid" id="accid-000000124255619">
									<use xlink:href="#E261" x="10626" y="1850" height="720px" width="720px" />
								</g>
								<g class="accid" id="accid-000000151105316">
									<use xlink:href="#E262" x="10446" y="2120" height="720px" width="720px" />
								</g>
							</g>
						</g>
					</g>
					<g class="barlineAttr" id="bline-000000185836985">
						<path d="M11473 1930 L11473 2670" style="stroke-width: 90;" />
						<path d="M11593 1930 L11593 2670" style="stroke-width: 30;" />
						<ellipse cx="11683" cy="2390" rx="36" ry="36" style="stroke-opacity: 1.000000; stroke-width: 1; fill-opacity: 1.000000;" />
						<ellipse cx="11683" cy="2210" rx="36" ry="36" style="stroke-opacity: 1.000000; stroke-width: 1; fill-opacity: 1.000000;" />
					</g>
				</g>
				<g class="measure" id="measure-000000176120307">
					<g class="staff" id="staff-000000131003978">
						<path d="M11719 1940 L15746 1940" style="stroke-width: 20;" />
						<path d="M11719 2120 L15746 2120" style="stroke-width: 20;" />
						<path d="M11719 2300 L15746 2300" style="stroke-width: 20;" />
						<path d="M11719 2480 L15746 2480" style="stroke-width: 20;" />
						<path d="M11719 2660 L15746 2660" style="stroke-width: 20;" />
						<g class="layer" id="layer-000000183631745">
							<g class="keySig" id="ksig-000000108852864">
								<use xlink:href="#E261" x="11989" y="1940" height="720px" width="720px" />
								<use xlink:href="#E261" x="12172" y="2210" height="720px" width="720px" />
							</g>
							<g class="meterSig" id="msig-000000048771410">
								<use xlink:href="#E086" x="12510" y="2120" height="720px" width="720px" />
								<use xlink:href="#E088" x="12513" y="2480" height="720px" width="720px" />
							</g>
							<g class="note" id="note-000000178936295">
								<use xlink:href="#E0A4" x="13145" y="2030" height="720px" width="720px" />
								<rect x="13351" y="1400" width="20" height="608" rx="0" style="stroke-width: 0;" />
								<ellipse cx="13483" cy="2030" rx="36" ry="36" style="stroke-opacity: 1.000000; stroke-width: 1; fill-opacity: 1.000000;" />
							</g>
							<g class="beam" id="beam-000000046217529">
								<g class="note" id="note-000000033174783">
									<use xlink:href="#E0A4" x="14363" y="2120" height="720px" width="720px" />
								</g>
								<g class="note" id="note-000000081824800">
									<use xlink:href="#E0A4" x="14769" y="2210" height="720px" width="720px" />
								</g>
								<g class="note" id="note-000000195642829">
									<use xlink:href="#E0A4" x="15175" y="2300" height="720px" width="720px" />
								</g>
								<path d="M14579 2098 L14579 1510" style="stroke-width: 20;" />
								<path d="M14985 2188 L14985 1551" style="stroke-width: 20;" />
								<path d="M15391 2278 L15391 1592" style="stroke-width: 20;" />
								<polygon style="fill-rule:nonzero;" stroke-width="0" points="14569,1490 15401,1572 15401,1662 14569,1580 " />
							</g>
						</g>
						<g class="layer" id="layer-000000149990792">
							<g class="beam" id="beam-000000156821804">
								<g class="note" id="note-000000097381545">
									<use xlink:href="#E0A4" x="13145" y="2210" height="720px" width="720px" />
								</g>
								<g class="note" id="note-000000094349520">
									<use xlink:href="#E0A4" x="13551" y="2390" height="720px" width="720px" />
								</g>
								<g class="note" id="note-000000030466098">
									<use xlink:href="#E0A4" x="13957" y="2660" height="720px" width="720px" />
								</g>
								<path d="M13155 2232 L13155 3189" style="stroke-width: 20;" />
								<path d="M13561 2412 L13561 3230" style="stroke-width: 20;" />
								<path d="M13967 2682 L13967 3270" style="stroke-width: 20;" />
								<polygon style="fill-rule:nonzero;" stroke-width="0" points="13145,3209 13977,3290 13977,3200 13145,3119 " />
							</g>
							<g class="note" id="note-000000083619406">
								<use xlink:href="#E0A4" x="14363" y="2570" height="720px" width="720px" />
								<rect x="14363" y="2592" width="20" height="608" rx="0" style="stroke-width: 0;" />
								<ellipse cx="14701" cy="2570" rx="36" ry="36" style="stroke-opacity: 1.000000; stroke-width: 1; fill-opacity: 1.000000;" />
							</g>
						</g>
					</g>
					<g class="barlineAttr" id="bline-000000096093217">
						<path d="M15731 1930 L15731 2670" style="stroke-width: 30;" />
					</g>
				</g>
				<g class="measure" id="measure-000000078059725">
					<g class="staff" id="staff-000000175971877">
						<path d="M15746 1940 L19180 1940" style="stroke-width: 20;" />
						<path d="M15746 2120 L19180 2120" style="stroke-width: 20;" />
						<path d="M15746 2300 L19180 2300" style="stroke-width: 20;" />
						<path d="M15746 2480 L19180 2480" style="stroke-width: 20;" />
						<path d="M15746 2660 L19180 2660" style="stroke-width: 20;" />
						<g class="layer" id="layer-000000044869855">
							<g class="note" id="note-000000100445289">
								<use xlink:href="#E0A4" x="16106" y="2210" height="720px" width="720px" />
								<rect x="16312" y="1580" width="20" height="608" rx="0" style="stroke-width: 0;" />
								<ellipse cx="16444" cy="2210" rx="36" ry="36" style="stroke-opacity: 1.000000; stroke-width: 1; fill-opacity: 1.000000;" />
							</g>
							<g class="note" id="note-000000047077316">
								<use xlink:href="#E0A4" x="17324" y="2120" height="720px" width="720px" />
								<rect x="17530" y="1490" width="20" height="608" rx="0" style="stroke-width: 0;" />
								<ellipse cx="17662" cy="2030" rx="36" ry="36" style="stroke-opacity: 1.000000; stroke-width: 1; fill-opacity: 1.000000;" />
							</g>
						</g>
						<g class="layer" id="layer-000000146152926">
							<g class="beam" id="beam-000000095479499">
								<g class="note" id="note-000000124163696">
									<use xlink:href="#E0A4" x="16106" y="2660" height="720px" width="720px" />
								</g>
								<g class="note" id="note-000000109390647">
									<use xlink:href="#E0A4" x="16512" y="2390" height="720px" width="720px" />
								</g>
								<g class="note" id="note-000000067853932">
									<use xlink:href="#E0A4" x="16918" y="2480" height="720px" width="720px" />
								</g>
								<path d="M16116 2682 L16116 3270" style="stroke-width: 20;" />
								<path d="M16522 2412 L16522 3230" style="stroke-width: 20;" />
								<path d="M16928 2502 L16928 3189" style="stroke-width: 20;" />
								<polygon style="fill-rule:nonzero;" stroke-width="0" points="16106,3290 16938,3209 16938,3119 16106,3200 " />
							</g>
							<g class="beam" id="beam-000000107223609">
								<g class="note" id="note-000000153669946">
									<use xlink:href="#E0A4" x="17324" y="2570" height="720px" width="720px" />
								</g>
								<g class="note" id="note-000000166948539">
									<use xlink:href="#E0A4" x="17730" y="2300" height="720px" width="720px" />
								</g>
								<g class="note" id="note-000000001975248">
									<use xlink:href="#E0A4" x="18348" y="2390" height="720px" width="720px" />
									<g class="accid" id="accid-000000012893473">
										<use xlink:href="#E262" x="18136" y="2390" height="720px" width="720px" />
									</g>
								</g>
								<path d="M17334 2592 L17334 3180" style="stroke-width: 20;" />
								<path d="M17740 2322 L17740 3140" style="stroke-width: 20;" />
								<path d="M18358 2412 L18358 3078" style="stroke-width: 20;" />
								<polygon style="fill-rule:nonzero;" stroke-width="0" points="17324,3200 18368,3098 18368,3008 17324,3110 " />
							</g>
						</g>
					</g>
					<g class="barlineAttr" id="bline-000000084021328">
						<path d="M19015 1930 L19015 2670" style="stroke-width: 30;" />
						<path d="M19135 1930 L19135 2670" style="stroke-width: 90;" />
						<ellipse cx="18925" cy="2390" rx="36" ry="36" style="stroke-opacity: 1.000000; stroke-width: 1; fill-opacity: 1.000000;" />
						<ellipse cx="18925" cy="2210" rx="36" ry="36" style="stroke-opacity: 1.000000; stroke-width: 1; fill-opacity: 1.000000;" />
					</g>
				</g>
				<g class="measure" id="measure-000000126751695">
					<g class="staff" id="staff-000000071448514">
						<path d="M19180 1940 L20470 1940" style="stroke-width: 20;" />
						<path d="M19180 2120 L20470 2120" style="stroke-width: 20;" />
						<path d="M19180 2300 L20470 2300" style="stroke-width: 20;" />
						<path d="M19180 2480 L20470 2480" style="stroke-width: 20;" />
						<path d="M19180 2660 L20470 2660" style="stroke-width: 20;" />
						<g class="layer" id="layer-000000177081205">
							<g class="chord" id="chord-000000006241184">
								<rect x="19850" y="1580" width="20" height="1058" rx="0" style="stroke-width: 0;" />
								<g class="note" id="note-000000098377514">
									<use xlink:href="#E0A4" x="19644" y="2210" height="720px" width="720px" />
								</g>
								<g class="note" id="note-000000083224695">
									<use xlink:href="#E0A4" x="19644" y="2660" height="720px" width="720px" />
									<use xlink:href="#E4C0" x="19540" y="1850" height="720px" width="720px" />
								</g>
							</g>
						</g>
					</g>
					<g class="barlineAttr" id="bline-000000084270655">
						<path d="M20305 1930 L20305 2670" style="stroke-width: 30;" />
						<path d="M20425 1930 L20425 2670" style="stroke-width: 90;" />
					</g>
				</g>
			</g>
		</g>
	</svg>
</svg>
