<svg xmlns="http://www.w3.org/2000/svg" version="1.1">
   <path transform="scale(1.0,-1.0)"
         id="E050"
         d="M999 -403q219 94 220 309v22q-7 129 -103 219t-225 91h-8q73 -401 116 -641zM176 33v-17q4 -127 66 -221q102 -156 347 -215q95 -22 184 -22t138 16l-110 655q-242 -41 -242 -233v-21q2 -57 51 -121t83 -80q34 -15 34 -38q0 -32 -71 -8q-71 26 -132 98t-86 174 q-12 43 -12 90q0 137 95 255t235 159l-51 319q-155 -115 -261 -219t-187 -256t-81 -315zM698 1416q0 -81 2 -93t19 -111q334 252 371 510q4 33 4 45q0 78 -40 121q-41 43 -96 43q-76 -4 -138 -97t-92 -215t-30 -203zM279 -1012q0 62 8 62q8 70 61 119t125 53h14 q81 0 141 -56t68 -139v-14q0 -68 -40 -120t-103 -73q-4 -2 -51 -12q-18 -8 -19 -16q0 -10 19 -23q57 -41 170 -41h39q49 0 100 20t85 54t62 102t27 146q0 78 -12 155l-47 287h-11q-59 -8 -167 -8q-245 0 -462 139q-112 72 -193 218t-81 358q0 314 287 622q96 104 167 169 t185 163l-24 129q-14 100 -15 209q0 279 92 489t240 277q8 -2 22 -9q14 -8 56 -56q41 -48 76 -130q88 -205 88 -393q0 -418 -414 -801q17 -74 66 -350q8 4 26 4h23q197 0 342 -136t157 -335v-28q0 -169 -99 -303t-273 -199l51 -305q12 -76 12 -166t-35 -176 q-35 -84 -93 -128q-111 -84 -234 -92l-47 -2q-311 0 -375 225q-14 49 -14 111z"/>
   <path transform="scale(1.0,-1.0)"
         id="E051"
         d="M1202 -76v19q-6 127 -100 216t-221 89h-9q93 -514 113 -633q217 88 217 309zM174 49v-20q4 -125 64 -219t154 -142q181 -92 374 -92q86 0 135 16l-110 646q-242 -39 -242 -234v-16q2 -56 52 -120t87 -79q29 -14 29 -35q1 -16 -21 -16t-47 8q-76 22 -135 94t-82 176 q-10 35 -10 86q0 135 92 251t231 159l-49 311q-215 -155 -369 -345q-153 -191 -153 -429zM950 1919h-10q-106 -6 -179 -183t-73 -354q0 -49 2 -61t19 -111q328 246 368 506q2 14 2 41q0 76 -38 119t-91 43zM422 -1708q0 -33 33 -33q17 0 16 -12q0 -18 -22 -19h-209 q-18 0 -19 13q0 4 2 6q0 12 17 12l43 10q12 0 30 33l74 191q4 6 4 16t-14 10t-21 -12q-31 -25 -43 -25q-25 0 -24 21q0 6 5 11t86 99t87 99q-193 72 -193 291q0 72 9 71q8 70 60 117t124 53h14q81 0 139 -56t68 -136v-8q0 -68 -40 -122t-103 -75q-6 -2 -49 -12 q-18 -8 -19 -17q0 -8 19 -20q57 -43 159 -43q152 0 229 75q34 32 60 100t27 146q0 76 -13 152l-45 285h-8q-356 -47 -625 128q-110 71 -190 216t-80 348q0 113 41 227t92 199t153 193t164 166t181 163l-23 125q-14 121 -14 207q0 276 90 484t238 272q27 -7 71 -59t78 -130 q90 -199 90 -387q0 -418 -407 -797q8 -59 31 -173t32 -171q8 4 27 4h27q195 0 336 -134t151 -331v-32q0 -168 -98 -297t-271 -195l52 -303q12 -76 12 -141q0 -166 -72 -262t-178 -129h107q2 -2 2 -8t-4 -17q-4 -10 -9 -10q-4 -6 -18 -17q-8 -10 -29 -18l-49 -14l-59 -13 q-6 -2 -28 -4t-30 -5t-19 -5q-27 -5 -28 -39q-4 -4 -4 -13t4 -11l19 4h14q14 4 47 4t70 -24t51 -73q2 -10 2 -44t-2 -44q-20 -72 -96 -114q-57 -33 -119 -33q-125 0 -125 113q0 45 31 61q8 0 16 4q23 0 38 -16t15 -34t-6 -30q-6 -10 -11 -14q-15 -12 -15 -29q0 -33 53 -33 q80 10 119 138q14 38 14 68t-30 50t-59 4t-52 -34t-33 -17l-17 4q-4 1 -4 15t7 42q6 28 22 68q16 39 23 62q6 23 9 29t11 26h-49q-170 -377 -170 -391z"/>
   <path transform="scale(1.0,-1.0)"
         id="E052"
         d="M1202 -76v23q-6 127 -100 215t-221 88h-9q23 -119 115 -633q215 92 215 307zM170 51v-20q4 -127 64 -220q100 -156 344 -212q94 -23 183 -23t138 16l-108 650q-242 -39 -242 -230v-20q4 -57 52 -122t81 -79t33 -37q1 -16 -21 -16t-47 6q-72 26 -133 100q-60 74 -78 146 t-18 112q0 137 93 254t232 158l-51 317q-236 -173 -379 -361t-143 -419zM684 1427q0 -68 2 -97t23 -111q326 246 368 505q2 14 2 43q0 78 -38 122t-93 44q-76 -4 -139 -99t-94 -217t-31 -190zM791 -1399q0 35 -19 45q-33 33 -80 33q-57 -8 -63 -49q0 -31 45 -77t69 -46 q36 0 48 80v14zM636 -1749q30 0 52 23t21 44q0 55 -56 99q-4 4 -15 13t-15 14l-29 16q-8 0 -14 -4t-16 -10t-9 -19q-23 -23 -23 -61q12 -61 43 -88t61 -27zM809 -1632q0 -137 -172 -140q-55 0 -117 36t-61 88q-1 50 31 90t56 48t25 13q0 6 -4 10q-33 35 -33 83t46 83 q-94 12 -161 50q-145 82 -149 276q0 68 9 67q10 72 62 120t126 50h14q81 0 139 -56t64 -136v-11q0 -67 -39 -119t-102 -75q-9 -6 -37 -12t-29 -17q0 -8 17 -22q57 -41 170 -41h32q180 0 249 176q28 69 28 147t-12 154l-46 278h-12q-82 -8 -172 -8t-212 33q-291 79 -421 307 q-90 159 -90 371q0 115 40 229t93 199q53 86 151 191q97 104 164 166t181 163l-19 129q-14 100 -14 211q0 276 90 484t238 272q8 -2 22 -9q14 -8 56 -56t73 -126q88 -205 88 -393q0 -412 -407 -794q8 -61 31 -177t32 -170q8 4 29 5h23q195 0 338 -135t153 -332v-33 q0 -168 -99 -299t-270 -199l48 -299q14 -74 14 -147q0 -179 -82 -275t-201 -127q80 -27 80 -98q0 -57 -68 -102q-16 -11 -1 -54q18 -33 18 -67z"/>
   <path transform="scale(1.0,-1.0)"
         id="E053"
         d="M1212 -82v23q-6 129 -101 219t-224 90h-8l114 -639q219 92 219 307zM172 49v-20q2 -101 45 -185t105 -133q180 -141 450 -141q86 0 135 16l-110 654q-244 -41 -244 -232v-20q2 -57 51 -122t83 -80t34 -38q1 -16 -21 -16t-47 8q-76 26 -136 98q-59 72 -77 148t-18 114 q0 137 93 256t235 160l-50 318q-215 -156 -372 -348q-156 -191 -156 -437zM692 1397q0 -51 2 -63t19 -109q332 248 372 508q2 14 2 43q0 80 -39 122t-94 41q-114 -6 -188 -185t-74 -357zM962 2267q30 0 58 30t10 66q-10 35 -49 70q-4 6 -16 14t-17 13l-28 16q-24 0 -43 -31 t-19 -61q8 -58 41 -87q33 -30 63 -30zM1071 2523q35 0 47 90q0 25 -18 53q-25 29 -68 29h-10q-60 0 -66 -45q0 -27 44 -77q43 -50 71 -50zM483 -766q79 0 139 -56t68 -139v-12q0 -68 -40 -122t-103 -70l-49 -17q-18 -4 -19 -14q0 -8 19 -21q57 -43 172 -43h35q46 0 98 22 q53 22 87 53q34 32 60 102q27 70 27 147t-12 156l-45 284h-9q-59 -8 -167 -8q-245 0 -462 139q-112 72 -193 217t-81 357q0 115 41 229t94 202q53 86 151 192t167 168q68 62 184 163l-22 129q-14 100 -15 213q0 260 82 464t217 284q-45 12 -84 44t-39 78t30 85t56 47t25 14 q0 6 -2 8q-33 35 -33 80q0 78 80 111q31 12 65 12q33 0 69 -8t75 -37t39 -75t-18 -65t-44 -36q-18 -15 -18 -29t14 -40t15 -58q0 -94 -93 -131q-37 -8 -63 -8q68 -68 111 -170q88 -197 88 -392q0 -420 -410 -804q8 -59 31 -175t33 -174q8 4 26 5h27q195 0 339 -136t154 -333 v-33q0 -170 -99 -302t-271 -200l49 -301q12 -80 12 -169t-35 -173q-59 -141 -209 -195q-57 -20 -118 -24l-50 -2q-119 0 -201 33t-119 86q-65 90 -66 183t10 93q10 72 62 121t124 51h14z"/>
   <path transform="scale(1.0,-1.0)"
         id="E054"
         d="M1200 -72v19q-6 125 -99 214t-220 89h-11q99 -543 113 -631q217 92 217 309zM170 51v-18q4 -125 64 -219t154 -142q182 -92 372 -92q88 0 137 17l-109 645q-242 -41 -241 -232v-18q2 -55 51 -120t82 -80t33 -38q-1 -16 -21 -16t-45 8q-74 26 -135 98q-94 112 -94 253 q0 142 92 259t231 158l-49 313q-236 -171 -379 -359t-143 -417zM684 1417q0 -80 2 -95t21 -108q324 244 368 506q2 14 2 39q0 78 -39 122t-94 44q-76 -4 -138 -96t-92 -212t-30 -200zM1360 2668q0 -4 -5 -14t-7 -10l-19 -18q-10 -10 -26 -19l-52 -14q-37 -8 -59 -8 q-16 -7 -52 -14t-44 -13t-9 -33q-4 -4 -4 -12t11 -8q2 0 8 2h4q10 0 14 4h35q49 0 92 -31q23 -14 41 -63q2 -12 2 -45t-2 -48q-20 -68 -86 -106t-124 -39q-58 0 -85 19q37 -37 86 -142q88 -195 88 -387q0 -416 -407 -795q10 -54 32 -168t31 -178q10 4 29 4h27 q195 0 336 -134t151 -328v-29q0 -170 -99 -302t-270 -198l50 -301q12 -80 12 -168t-35 -171q-59 -140 -207 -191q-57 -20 -117 -25l-47 -2q-117 0 -199 33t-118 86q-64 92 -65 183q-1 92 8 91q10 70 62 118t124 52h14q80 0 138 -56t65 -136v-15q0 -65 -39 -117t-100 -73 q-4 -2 -51 -12q-16 -7 -16 -17t16 -20q57 -41 167 -41h37q49 0 100 20q52 21 86 53t60 100t27 146q0 78 -13 154l-45 283h-10q-350 -48 -623 130q-110 71 -190 215t-80 353q0 113 40 227t93 198q53 85 151 190q97 106 163 166t182 161l-23 129q-14 98 -14 207q0 236 69 427 t183 284h-174q-18 0 -19 18q0 14 19 14l41 9q14 0 33 32l71 191q4 8 4 17t-14 9t-20 -12q-23 -22 -45 -22t-23 16q0 2 4 10q154 178 170 194q15 16 29 15q14 0 30 -11t35 -11l27 8q10 0 10 -6t-2 -11l-168 -397q0 -29 27 -31h10l31 13q14 0 37 -23q-19 37 -19 75t33 54l18 4 q19 0 35 -16q32 -33 6 -70q-23 -23 -22 -39q0 -31 53 -30q78 10 119 137q14 37 14 65q0 61 -63 62q-29 0 -64 -26q-34 -26 -49 -27l-16 4q-4 2 -4 14t4 24l37 111q10 20 22 68q18 41 33 41l182 2q61 0 72 -2q4 -4 4 -7z"/>
   <path transform="scale(1.0,-1.0)"
         id="E05C"
         d="M262 983v-1966q0 -19 -13 -33t-34 -14h-168q-18 0 -33 14q-14 14 -14 33v1966q0 19 14 33t33 14h168q20 0 34 -14q13 -15 13 -33zM1432 -552q0 -190 -126 -334t-331 -144t-299 73t-94 147t46 129q46 56 110 56q64 1 104 -33q39 -34 39 -94q0 -86 -88 -139q-1 -2 -11 -6 t-15 -9t-5 -9t8 -13q47 -47 131 -47q121 0 181 94t61 209v244q0 129 -36 187q-36 59 -131 59t-143 -49q-49 -49 -73 -123t-49 -74q-33 0 -45 59q-63 276 -195 291v-909q0 -19 -12 -31q-11 -12 -31 -12t-33 12q-12 12 -12 31v1972q0 45 45 45q18 0 30 -12t13 -33v-909 q133 18 195 293q12 59 45 59q25 0 49 -74t73 -122q48 -50 143 -50t131 58t36 186v246q-1 115 -61 209t-181 94q-84 0 -135 -51q-4 -2 -4 -8t7 -12q7 -5 16 -9t12 -6q84 -66 84 -131q0 -66 -39 -100q-40 -34 -104 -34t-110 57q-46 56 -46 130q0 75 94 147t299 72t331 -144 t126 -334t-106 -318t-318 -128q-58 0 -106 16t-58 17q-10 0 -26 -14q-17 -15 -24 -25l-12 -15t-10 -15t-18 -34t-13 -36q1 -12 11 -32l16 -34q47 -78 80 -77q6 0 54 18t106 19q212 0 318 -128t106 -318z"/>
   <path transform="scale(1.0,-1.0)"
         id="E05D"
         d="M969 -1030q-53 0 -97 6q66 -37 66 -102t-70 -111q-20 -15 -20 -33t15 -46t15 -70t-27 -83q-28 -41 -71 -57q-44 -16 -102 -16t-128 41t-71 115q0 47 35 90t80 57q12 4 12 11t-4 9q-37 39 -37 93q0 90 92 125q31 12 78 12q-77 33 -115 85t-38 110t46 113q46 56 110 56 q64 1 104 -33q39 -34 39 -94q0 -86 -88 -139q-1 -2 -11 -6t-15 -9t-5 -9t8 -13q47 -47 131 -47q121 0 181 94t61 209v244q0 129 -36 187q-36 59 -131 59t-143 -49q-49 -49 -73 -123t-49 -74q-33 0 -45 59q-63 276 -195 291v-909q0 -19 -12 -31q-11 -12 -31 -12t-33 12 q-12 12 -12 31v1972q0 45 45 45q18 0 30 -12t13 -33v-909q133 18 195 293q12 59 45 59q25 0 49 -74t73 -122q48 -50 143 -50t131 58t36 186v246q-1 115 -61 209t-181 94q-84 0 -135 -51q-4 -2 -4 -8t7 -12q7 -5 16 -9t12 -6q84 -66 84 -131q0 -66 -39 -100q-40 -34 -104 -34 t-110 57q-46 56 -46 130q0 75 94 147t299 72t331 -144t126 -334t-106 -318t-318 -128q-58 0 -106 16t-58 17q-10 0 -26 -14q-17 -15 -24 -25l-12 -15t-10 -15t-18 -34t-13 -36q1 -12 11 -32l16 -34q47 -78 80 -77q6 0 54 18t106 19q211 0 317 -128q107 -128 107 -318 t-126 -334t-337 -144zM766 -1441q0 59 -61 114q-9 6 -39 31q-25 14 -42 14t-38 -32q-20 -32 -21 -68v-17q12 -51 48 -84t70 -32q35 1 59 26t24 48zM858 -1122q0 35 -20 63q-27 31 -90 29t-70 -57q0 -29 42 -73q60 -63 87 -65q45 1 51 103zM47 1030h168q19 0 33 -14t14 -33 v-1966q0 -19 -13 -33t-34 -14h-168q-18 0 -33 14q-14 14 -14 33v1966q0 18 14 33q15 14 33 14z"/>
   <path transform="scale(1.0,-1.0)"
         id="E071"
         d="M836 1260l401 -322l-401 -303v625zM-8 -4l844 637v-1424z"/>
   <path transform="scale(1.0,-1.0)"
         id="E072"
         d="M1243 14l-844 -786v1423zM-2 956l401 322v-625z"/>
   <path transform="scale(1.0,-1.0)"
         id="E073"
         d="M485 238q-129 0 -225 -90t-102 -220v-22q0 -215 219 -309q43 240 117 641h-9zM1200 33q0 163 -81 315t-187 256t-260 219l-51 -319q139 -41 234 -159t95 -255q0 -47 -12 -90q-25 -102 -86 -175q-84 -101 -178 -106q-25 0 -25 17q0 23 34 38t83 80t51 121v21 q0 193 -242 233l-110 -655q49 -16 138 -16q191 0 375 94q95 49 157 143q61 94 65 221v17zM283 1767q0 -12 4 -45q37 -258 370 -510q17 98 19 111t2 93t-30 203q-30 122 -92 215t-138 97q-55 0 -95 -43t-40 -121zM299 -950q0 90 12 166q25 121 51 305q-174 66 -273 199 t-99 303v28q12 199 157 335t342 136h23q18 0 27 -4l65 350q-414 383 -414 801q0 188 89 393q35 82 73 130q39 48 60 57l20 8q148 -66 240 -277t92 -489q0 -109 -14 -209l-25 -129q115 -98 185 -163t167 -169q95 -104 151 -192t96 -202t40 -228q0 -211 -81 -358 q-81 -146 -192 -218q-216 -139 -491 -139q-80 0 -139 8h-10l-48 -287q-12 -77 -12 -155t28 -147q27 -69 61 -101t86 -54q52 -20 100 -20h39q113 0 169 41q18 12 19 23q0 8 -19 16q-47 10 -51 12q-63 20 -103 72t-40 121v14q8 82 68 138t141 57h14q72 -4 125 -53t62 -119 q8 0 8 -62q0 -116 -67 -215q-38 -55 -121 -88t-201 -33l-47 2q-122 8 -235 92q-58 44 -93 129t-35 175z"/>
   <path transform="scale(1.0,-1.0)"
         id="E074"
         d="M158 1110v-23q6 -129 102 -219t225 -90h9q-74 401 -117 641q-219 -94 -219 -309zM1200 983v16q-4 127 -65 221q-101 156 -348 216q-95 22 -184 22t-138 -16l110 -656q242 41 242 234v20q-2 57 -51 122t-83 80t-34 38q-1 16 21 16t47 -8q74 -26 135 -98t86 -174 q12 -43 12 -90q0 -137 -95 -255t-234 -159l51 -319q154 115 260 219t187 256t81 315zM678 -400q0 80 -2 92t-19 111q-334 -252 -370 -510q-4 -33 -4 -45q0 -78 40 -120t95 -43q76 4 138 97t92 215q30 123 30 203zM889 1794q-82 0 -141 56t-68 139v14q0 68 40 120t103 72 q4 2 51 13q18 8 19 16q0 10 -19 23q-57 41 -169 41h-39q-49 0 -101 -20q-51 -20 -85 -54t-62 -102t-27 -146q0 -78 12 -156l48 -286h10q59 8 167 8q244 0 463 -139q113 -72 193 -219t80 -357q0 -314 -287 -622q-96 -104 -167 -169t-185 -163l25 -129q14 -100 14 -209 q0 -279 -92 -490t-240 -276q-8 2 -22 9t-56 55q-41 48 -75 130q-88 205 -89 394q0 418 414 800q-10 47 -65 351q-8 -4 -27 -4h-23q-197 0 -342 136t-157 335v28q0 170 99 303t273 199l-51 305q-12 76 -12 166t35 176q35 84 93 128q112 85 235 91l47 2q310 0 374 -224 q15 -49 15 -111t-8 -62q-8 -70 -62 -119t-125 -53h-14z"/>
   <path transform="scale(1.0,-1.0)"
         id="E075"
         d="M1169 -983v1966q-1 19 13 33t35 14h167q18 0 32 -14t16 -33v-1966q0 -19 -14 -33t-34 -14h-167q-20 0 -34 14t-14 33zM551 -752q0 60 39 94t103 34q65 0 111 -57q46 -56 46 -130q0 -75 -94 -147t-299 -72t-331 144t-126 334t106 318t318 128q57 0 105 -18t55 -19 q36 0 84 84q2 6 12 26t10 43t-22 52q-22 28 -30 38q-27 39 -54 39q-6 0 -54 -16t-106 -17q-211 0 -318 127q-106 127 -106 317t126 336q126 144 331 144t299 -73t94 -147t-46 -129q-46 -56 -111 -56q-65 -1 -103 33t-39 100q0 66 84 131q3 2 19 9t16 15t-4 11 q-51 51 -136 51q-121 0 -181 -94t-60 -209v-246q0 -127 36 -185q36 -59 130 -59t143 49q50 49 74 123t49 74q33 0 45 -59q61 -274 195 -293v909q0 21 12 33t31 12q45 0 45 -45v-1972q-1 -19 -13 -31t-31 -12t-32 12q-12 12 -12 31v909q-131 -14 -195 -291q-12 -59 -45 -59 q-25 0 -49 74t-74 122q-49 50 -143 50t-130 -58t-36 -188v-244q0 -115 60 -209t181 -94q84 0 132 47q8 8 8 12q0 10 -14 17q-14 6 -17 8q-88 53 -88 139z"/>
   <path transform="scale(1.0,-1.0)"
         id="E080"
         d="M440 451q-63 0 -108 -127q-45 -126 -45 -308t45 -309t108 -127t109 127q45 127 45 307t-46 308t-108 129zM881 0q0 -212 -129 -362q-130 -150 -312 -150t-311 150t-129 362t129 364q129 150 311 150t312 -150q129 -151 129 -364z"/>
   <path transform="scale(1.0,-1.0)"
         id="E081"
         d="M504 -377q0 -25 22 -49t46 -23q26 0 26 -22l2 -8q0 -33 -33 -33h-436q-45 0 -45 32t35 32t63 22q28 23 27 55v529q0 29 -12 28q-8 0 -21 -20l-110 -180q-8 -18 -20 -18q-52 -2 -50 32l8 27l197 448q16 39 37 39l4 -2h6q45 -6 106 -6l107 8q41 -2 41 -47v-844z"/>
   <path transform="scale(1.0,-1.0)"
         id="E082"
         d="M551 272q0 197 -184 197q-80 0 -119 -25t-43 -53q0 -13 35 -31q34 -18 70 -52t36 -78t-8 -80t-43 -72q-35 -37 -90 -37t-101 32q-45 32 -69 81q-18 47 -19 88q0 78 68 160t182 104q61 14 136 14t120 -6t115 -30q211 -72 211 -275q0 -196 -238 -259q-94 -26 -182 -68 t-117 -89q35 12 76 12q98 0 221 -49q9 -5 47 -16q39 -12 59 -12q38 0 70 88l2 2v4q6 20 27 20q25 1 25 -28q-28 -249 -153 -302q-56 -24 -130 -24q-109 0 -223 83q-37 28 -79 28q-71 0 -139 -94q-24 -31 -37 -31t-20 4q-37 23 -37 63q45 195 230 314q137 84 219 192t82 225z "/>
   <path transform="scale(1.0,-1.0)"
         id="E083"
         d="M549 40q0 -11 3 -16t19 -10l68 -18l43 -25q31 -18 49 -43q50 -58 57 -143v-14q0 -129 -124 -207t-287 -78h-19q-344 6 -350 225q0 86 45 125q50 55 107 55q57 1 96 -23q64 -38 66 -124q-2 -31 -25 -73t-23 -62v-10q2 -27 58 -33h8q6 -2 32 -2t62 31q70 59 72 210 q0 40 -38 102q-22 37 -78 61t-122 24t-67 24q0 31 49 35q110 7 180 59t70 158v15q0 49 -24 87q-43 70 -167 70q-20 0 -52 -14t-34 -37v-8q0 -23 27 -27l14 -2l21 -6q40 -13 47 -78v-16q0 -55 -36 -94t-99 -39h-11q-86 6 -126 55t-40 111q0 81 111 153t242 72l30 -2 q89 -4 176 -43q168 -76 167 -207t-125 -186q-4 -2 -64 -19q-8 -2 -8 -13z"/>
   <path transform="scale(1.0,-1.0)"
         id="E084"
         d="M426 -152v172q0 25 18 48l195 235q16 18 41 19q25 0 25 -35v-439h149q31 0 31 -38t-31 -39h-149v-121q0 -42 20 -60t43 -18q45 0 45 -42t-41 -42h-436q-39 0 -39 41t47 41q82 0 82 72v129h-381q-41 0 -41 34q0 17 4 22t4 7l13 16q262 367 262 625q0 39 47 39l145 -4 l139 4q31 0 31 -29q-4 -22 -92 -146t-211 -276t-196 -215h276z"/>
   <path transform="scale(1.0,-1.0)"
         id="E085"
         d="M359 262q-103 0 -195 19h-8q-27 0 -31 -27l-10 -133v-8q0 -14 8 -15q6 0 10 2q101 60 257 60t254 -100q99 -100 99 -240q0 -142 -101 -238q-102 -96 -284 -96t-270 62t-88 192q0 88 44 138t115 50t117 -46t48 -124q0 -78 -78 -127q-47 -26 0 -57q14 -6 57 -6t85 33 q79 62 79 217q0 154 -68 212t-145 58t-151 -83q-7 -9 -12 -17t-19 -8q-41 0 -41 30v4l22 455q4 35 49 35q174 -20 277 -21l252 19q29 0 29 -33q-1 -58 -39 -119q-25 -40 -92 -64t-170 -24z"/>
   <path transform="scale(1.0,-1.0)"
         id="E086"
         d="M412 4q-49 0 -84 -68t-35 -161q0 -94 35 -162t84 -68t85 68t35 162q0 94 -35 162q-36 67 -85 67zM418 -510q-98 0 -164 29q-111 49 -193 196q-59 109 -63 283v8q0 139 80 291q53 103 154 159t210 57t165 -21q138 -55 138 -166q0 -49 -40 -103t-111 -53q-70 0 -113 43 q-31 35 -31 76t10 57q9 16 33 44t23 44q0 31 -67 31q-164 0 -170 -389q0 -49 18 -49q8 0 12 4q83 71 183 71t186 -63q113 -84 125 -205l2 -29q0 -147 -119 -241q-92 -74 -268 -74z"/>
   <path transform="scale(1.0,-1.0)"
         id="E087"
         d="M0 438q0 25 18 25t27 -14q9 -17 25 -33t34 -15t57 42q39 42 79 54q39 13 102 13q64 0 132 -44t112 -87q46 -43 66 -43q36 0 74 96q15 41 20 49t21 13q17 6 19 6q25 0 30 -18t5 -64v-8q0 -84 -60 -226q-59 -142 -121 -308q-62 -167 -62 -312q0 -76 -33 -76l-168 18 l-133 -18q-27 0 -33 13t-6 60t40 129t94 143q54 62 130 136t117 119t41 70q-5 18 -13 18t-20 -8q-57 -43 -111 -43q-53 0 -153 77t-132 77q-59 0 -88 -48l-24 -40q-8 -15 -19 -47t-13 -36l-5 -10q-10 -31 -26 -30q-17 0 -23 24v346z"/>
   <path transform="scale(1.0,-1.0)"
         id="E088"
         d="M633 295q0 67 -49 109q-78 68 -172 67q-94 0 -160 -35t-66 -92t30 -83q55 -49 100 -67q46 -18 70 -26t68 -24t70 -23q109 63 109 174zM362 -463q104 0 154 43q51 43 51 106q-1 63 -27 91q-26 29 -42 43q-31 28 -232 112q-70 -28 -116 -80t-46 -112q0 -96 77 -150t181 -53 zM799 -166q0 -190 -124 -277t-294 -87t-282 66t-111 194q0 158 188 247q-178 100 -178 273q0 129 110 205t289 75q76 0 170 -32q187 -63 187 -205q0 -141 -123 -219q168 -86 168 -240z"/>
   <path transform="scale(1.0,-1.0)"
         id="E089"
         d="M393 -2q49 0 84 68t35 162t-35 161q-35 68 -84 68t-85 -68t-36 -162q0 -93 36 -161t85 -68zM387 512q98 0 164 -29q111 -49 192 -196q59 -109 64 -283v-8q0 -139 -80 -291q-53 -103 -155 -159t-210 -57t-164 21q-138 55 -139 166q0 52 33 94t73 53t56 11q55 0 103 -43 q30 -33 30 -76t-9 -59t-33 -44t-23 -44q0 -31 67 -31q164 0 170 389v11q0 41 -18 40q-8 0 -12 -4q-82 -71 -182 -71t-187 63q-113 84 -125 203l-2 29q0 147 119 241q92 74 268 74z"/>
   <path transform="scale(1.0,-1.0)"
         id="E0A2"
         d="M424 229q-184 0 -184 -143q0 -104 77 -197q18 -25 48 -49q74 -67 163 -67q145 0 166 116q4 25 4 41q0 106 -83 202t-191 97zM454 281q190 0 338 -82t148 -195q0 -283 -481 -283q-233 0 -346 80t-113 200t132 200t322 80z"/>
   <path transform="scale(1.0,-1.0)"
         id="E0A3"
         d="M625 96q0 28 -15 54q-30 49 -98 49t-227 -93q-215 -123 -215 -210q0 -23 14 -48q31 -53 107 -53t219 96q215 141 215 205zM234 -297q-106 0 -170 52t-64 153t98 235q50 66 146 110t210 44t180 -54q64 -54 64 -139t-43 -161t-91 -124t-136 -82t-194 -34z"/>
   <path transform="scale(1.0,-1.0)"
         id="E0A4"
         d="M223 -289q-96 0 -160 52q-63 52 -63 141q0 152 134 268t321 117q100 0 162 -53t63 -140q0 -143 -150 -264t-307 -121z"/>
   <path transform="scale(1.0,-1.0)"
         id="E0FA"
         d="M454 281q190 0 338 -82t148 -195q0 -283 -481 -283q-233 0 -346 80t-113 200t132 200t322 80z"/>
</svg>