<?xml version="1.0" standalone="no"?>
<!DOCTYPE svg PUBLIC "-//W3C//DTD SVG 1.1//EN" "http://www.w3.org/Graphics/SVG/1.1/DTD/svg11.dtd" >
<svg xmlns="http://www.w3.org/2000/svg" xmlns:xlink="http://www.w3.org/1999/xlink" version="1.1">
<metadata>
    Bravura 1.204 - Copyright \251 2016 Steinberg Media Technologies GmbH. This font is licensed under the SIL Open Font License \(http://scripts.sil.org/OFL\).
</metadata>
<defs>
<font id="Bravura" horiz-adv-x="250" >
  <font-face 
    font-family="Bravura"
    font-weight="400"
    font-stretch="normal"
    units-per-em="1000"
    panose-1="5 6 0 0 0 0 0 0 0 0"
    ascent="800"
    descent="-200"
    bbox="-434 -1992 2319 2000"
    underline-thickness="50"
    underline-position="-100"
    stemh="78"
    stemv="90"
    unicode-range="U+0020-1D1DD"
  />
<missing-glyph horiz-adv-x="297" 
 />
    <glyph glyph-name="uniE527" unicode="&#xe520;&#xe520;&#xe520;&#xe520;&#xe520;&#xe520;" horiz-adv-x="2124" 
d="M261 274c56 0 92 -31 92 -89c0 -95 -78 -195 -174 -195c-17 0 -30 2 -44 9c-16 8 -19 18 -24 18s-7 -7 -9 -12l-45 -112c-1 -3 -2 -6 -2 -7c0 -3 3 -3 9 -3h40c8 0 12 -4 12 -12c0 -9 -4 -13 -13 -13h-193c-8 0 -12 4 -12 12c0 9 4 13 13 13h31c10 0 12 2 15 10l123 305
c3 7 6 17 6 25c0 7 -3 12 -11 12c-18 0 -38 -26 -67 -76c-5 -9 -9 -15 -16 -15c-6 0 -11 4 -11 11c0 5 2 10 7 19c31 57 63 99 122 99c26 0 41 -9 48 -21c9 -17 6 -24 11 -24c4 0 7 8 21 20c18 16 40 26 71 26zM616 274c56 0 92 -31 92 -89c0 -95 -78 -195 -174 -195
c-17 0 -30 2 -44 9c-16 8 -19 18 -24 18s-7 -7 -9 -12l-45 -112c-1 -3 -2 -6 -2 -7c0 -3 3 -3 9 -3h40c8 0 12 -4 12 -12c0 -9 -4 -13 -13 -13h-193c-8 0 -12 4 -12 12c0 9 4 13 13 13h31c10 0 12 2 15 10l123 305c3 7 6 17 6 25c0 7 -3 12 -11 12c-15 0 -28 -17 -38 -30
c-2 -2 -4 -6 -4 -6c-5 -7 -9 -12 -16 -12c-6 0 -11 3 -11 10c0 5 2 10 8 19c22 31 48 57 96 57c26 0 41 -9 48 -21c9 -17 6 -24 11 -24c4 0 7 8 21 20c18 16 40 26 71 26zM971 274c56 0 92 -31 92 -89c0 -95 -78 -195 -174 -195c-17 0 -30 2 -44 9c-16 8 -19 18 -24 18
s-7 -7 -9 -12l-45 -112c-1 -3 -2 -6 -2 -7c0 -3 3 -3 9 -3h40c8 0 12 -4 12 -12c0 -9 -4 -13 -13 -13h-193c-8 0 -12 4 -12 12c0 9 4 13 13 13h31c10 0 12 2 15 10l123 305c3 7 6 17 6 25c0 7 -3 12 -11 12c-15 0 -28 -17 -38 -30c-2 -2 -4 -6 -4 -6c-5 -7 -9 -12 -16 -12
c-6 0 -11 3 -11 10c0 5 2 10 8 19c22 31 48 57 96 57c26 0 41 -9 48 -21c9 -17 6 -24 11 -24c4 0 7 8 21 20c18 16 40 26 71 26zM1326 274c56 0 92 -31 92 -89c0 -95 -78 -195 -174 -195c-17 0 -30 2 -44 9c-16 8 -19 18 -24 18s-7 -7 -9 -12l-45 -112c-1 -3 -2 -6 -2 -7
c0 -3 3 -3 9 -3h40c8 0 12 -4 12 -12c0 -9 -4 -13 -13 -13h-193c-8 0 -12 4 -12 12c0 9 4 13 13 13h31c10 0 12 2 15 10l123 305c3 7 6 17 6 25c0 7 -3 12 -11 12c-15 0 -28 -17 -38 -30c-2 -2 -4 -6 -4 -6c-5 -7 -9 -12 -16 -12c-6 0 -11 3 -11 10c0 5 2 10 8 19
c22 31 48 57 96 57c26 0 41 -9 48 -21c9 -17 6 -24 11 -24c4 0 7 8 21 20c18 16 40 26 71 26zM1681 274c56 0 92 -31 92 -89c0 -95 -78 -195 -174 -195c-17 0 -30 2 -44 9c-16 8 -19 18 -24 18s-7 -7 -9 -12l-45 -112c-1 -3 -2 -6 -2 -7c0 -3 3 -3 9 -3h40c8 0 12 -4 12 -12
c0 -9 -4 -13 -13 -13h-193c-8 0 -12 4 -12 12c0 9 4 13 13 13h31c10 0 12 2 15 10l123 305c3 7 6 17 6 25c0 7 -3 12 -11 12c-15 0 -28 -17 -38 -30c-2 -2 -4 -6 -4 -6c-5 -7 -9 -12 -16 -12c-6 0 -11 3 -11 10c0 5 2 10 8 19c22 31 48 57 96 57c26 0 41 -9 48 -21
c9 -17 6 -24 11 -24c4 0 7 8 21 20c18 16 40 26 71 26zM2036 274c56 0 92 -31 92 -89c0 -95 -78 -195 -174 -195c-17 0 -30 2 -44 9c-16 8 -19 18 -24 18s-7 -7 -9 -12l-45 -112c-1 -3 -2 -6 -2 -7c0 -3 3 -3 9 -3h40c8 0 12 -4 12 -12c0 -9 -4 -13 -13 -13h-193
c-8 0 -12 4 -12 12c0 9 4 13 13 13h31c10 0 12 2 15 10l123 305c3 7 6 17 6 25c0 7 -3 12 -11 12c-15 0 -28 -17 -38 -30c-2 -2 -4 -6 -4 -6c-5 -7 -9 -12 -16 -12c-6 0 -11 3 -11 10c0 5 2 10 8 19c22 31 48 57 96 57c26 0 41 -9 48 -21c9 -17 6 -24 11 -24c4 0 7 8 21 20
c18 16 40 26 71 26zM234 237c-24 0 -50 -29 -64 -63l-20 -49c-11 -28 -19 -48 -19 -69s8 -32 25 -32c48 0 101 127 101 176c0 22 -6 37 -23 37zM589 237c-24 0 -50 -29 -64 -63l-20 -49c-11 -28 -19 -48 -19 -69s8 -32 25 -32c48 0 101 127 101 176c0 22 -6 37 -23 37z
M944 237c-24 0 -50 -29 -64 -63l-20 -49c-11 -28 -19 -48 -19 -69s8 -32 25 -32c48 0 101 127 101 176c0 22 -6 37 -23 37zM1299 237c-24 0 -50 -29 -64 -63l-20 -49c-11 -28 -19 -48 -19 -69s8 -32 25 -32c48 0 101 127 101 176c0 22 -6 37 -23 37zM1654 237
c-24 0 -50 -29 -64 -63l-20 -49c-11 -28 -19 -48 -19 -69s8 -32 25 -32c48 0 101 127 101 176c0 22 -6 37 -23 37zM2009 237c-24 0 -50 -29 -64 -63l-20 -49c-11 -28 -19 -48 -19 -69s8 -32 25 -32c48 0 101 127 101 176c0 22 -6 37 -23 37z" />
    <glyph glyph-name="uniE528" unicode="&#xe520;&#xe520;&#xe520;&#xe520;&#xe520;" horiz-adv-x="1776" 
d="M261 274c56 0 92 -31 92 -89c0 -95 -78 -195 -174 -195c-17 0 -30 2 -44 9c-16 8 -19 18 -24 18s-7 -7 -9 -12l-45 -112c-1 -3 -2 -6 -2 -7c0 -3 3 -3 9 -3h40c8 0 12 -4 12 -12c0 -9 -4 -13 -13 -13h-193c-8 0 -12 4 -12 12c0 9 4 13 13 13h31c10 0 12 2 15 10l123 305
c3 7 6 17 6 25c0 7 -3 12 -11 12c-18 0 -38 -26 -67 -76c-5 -9 -9 -15 -16 -15c-6 0 -11 4 -11 11c0 5 2 10 7 19c31 57 63 99 122 99c26 0 41 -9 48 -21c9 -17 6 -24 11 -24c4 0 7 8 21 20c18 16 40 26 71 26zM616 274c56 0 92 -31 92 -89c0 -95 -78 -195 -174 -195
c-17 0 -30 2 -44 9c-16 8 -19 18 -24 18s-7 -7 -9 -12l-45 -112c-1 -3 -2 -6 -2 -7c0 -3 3 -3 9 -3h40c8 0 12 -4 12 -12c0 -9 -4 -13 -13 -13h-193c-8 0 -12 4 -12 12c0 9 4 13 13 13h31c10 0 12 2 15 10l123 305c3 7 6 17 6 25c0 7 -3 12 -11 12c-15 0 -28 -17 -38 -30
c-2 -2 -4 -6 -4 -6c-5 -7 -9 -12 -16 -12c-6 0 -11 3 -11 10c0 5 2 10 8 19c22 31 48 57 96 57c26 0 41 -9 48 -21c9 -17 6 -24 11 -24c4 0 7 8 21 20c18 16 40 26 71 26zM971 274c56 0 92 -31 92 -89c0 -95 -78 -195 -174 -195c-17 0 -30 2 -44 9c-16 8 -19 18 -24 18
s-7 -7 -9 -12l-45 -112c-1 -3 -2 -6 -2 -7c0 -3 3 -3 9 -3h40c8 0 12 -4 12 -12c0 -9 -4 -13 -13 -13h-193c-8 0 -12 4 -12 12c0 9 4 13 13 13h31c10 0 12 2 15 10l123 305c3 7 6 17 6 25c0 7 -3 12 -11 12c-15 0 -28 -17 -38 -30c-2 -2 -4 -6 -4 -6c-5 -7 -9 -12 -16 -12
c-6 0 -11 3 -11 10c0 5 2 10 8 19c22 31 48 57 96 57c26 0 41 -9 48 -21c9 -17 6 -24 11 -24c4 0 7 8 21 20c18 16 40 26 71 26zM1326 274c56 0 92 -31 92 -89c0 -95 -78 -195 -174 -195c-17 0 -30 2 -44 9c-16 8 -19 18 -24 18s-7 -7 -9 -12l-45 -112c-1 -3 -2 -6 -2 -7
c0 -3 3 -3 9 -3h40c8 0 12 -4 12 -12c0 -9 -4 -13 -13 -13h-193c-8 0 -12 4 -12 12c0 9 4 13 13 13h31c10 0 12 2 15 10l123 305c3 7 6 17 6 25c0 7 -3 12 -11 12c-15 0 -28 -17 -38 -30c-2 -2 -4 -6 -4 -6c-5 -7 -9 -12 -16 -12c-6 0 -11 3 -11 10c0 5 2 10 8 19
c22 31 48 57 96 57c26 0 41 -9 48 -21c9 -17 6 -24 11 -24c4 0 7 8 21 20c18 16 40 26 71 26zM1681 274c56 0 92 -31 92 -89c0 -95 -78 -195 -174 -195c-17 0 -30 2 -44 9c-16 8 -19 18 -24 18s-7 -7 -9 -12l-45 -112c-1 -3 -2 -6 -2 -7c0 -3 3 -3 9 -3h40c8 0 12 -4 12 -12
c0 -9 -4 -13 -13 -13h-193c-8 0 -12 4 -12 12c0 9 4 13 13 13h31c10 0 12 2 15 10l123 305c3 7 6 17 6 25c0 7 -3 12 -11 12c-15 0 -28 -17 -38 -30c-2 -2 -4 -6 -4 -6c-5 -7 -9 -12 -16 -12c-6 0 -11 3 -11 10c0 5 2 10 8 19c22 31 48 57 96 57c26 0 41 -9 48 -21
c9 -17 6 -24 11 -24c4 0 7 8 21 20c18 16 40 26 71 26zM234 237c-24 0 -50 -29 -64 -63l-20 -49c-11 -28 -19 -48 -19 -69s8 -32 25 -32c48 0 101 127 101 176c0 22 -6 37 -23 37zM589 237c-24 0 -50 -29 -64 -63l-20 -49c-11 -28 -19 -48 -19 -69s8 -32 25 -32
c48 0 101 127 101 176c0 22 -6 37 -23 37zM944 237c-24 0 -50 -29 -64 -63l-20 -49c-11 -28 -19 -48 -19 -69s8 -32 25 -32c48 0 101 127 101 176c0 22 -6 37 -23 37zM1299 237c-24 0 -50 -29 -64 -63l-20 -49c-11 -28 -19 -48 -19 -69s8 -32 25 -32c48 0 101 127 101 176
c0 22 -6 37 -23 37zM1654 237c-24 0 -50 -29 -64 -63l-20 -49c-11 -28 -19 -48 -19 -69s8 -32 25 -32c48 0 101 127 101 176c0 22 -6 37 -23 37z" />
    <glyph glyph-name="uniE529" unicode="&#xe520;&#xe520;&#xe520;&#xe520;" horiz-adv-x="1417" 
d="M261 274c56 0 92 -31 92 -89c0 -95 -78 -195 -174 -195c-17 0 -30 2 -44 9c-16 8 -19 18 -24 18s-7 -7 -9 -12l-45 -112c-1 -3 -2 -6 -2 -7c0 -3 3 -3 9 -3h40c8 0 12 -4 12 -12c0 -9 -4 -13 -13 -13h-193c-8 0 -12 4 -12 12c0 9 4 13 13 13h31c10 0 12 2 15 10l123 305
c3 7 6 17 6 25c0 7 -3 12 -11 12c-18 0 -38 -26 -67 -76c-5 -9 -9 -15 -16 -15c-6 0 -11 4 -11 11c0 5 2 10 7 19c31 57 63 99 122 99c26 0 41 -9 48 -21c9 -17 6 -24 11 -24c4 0 7 8 21 20c18 16 40 26 71 26zM616 274c56 0 92 -31 92 -89c0 -95 -78 -195 -174 -195
c-17 0 -30 2 -44 9c-16 8 -19 18 -24 18s-7 -7 -9 -12l-45 -112c-1 -3 -2 -6 -2 -7c0 -3 3 -3 9 -3h40c8 0 12 -4 12 -12c0 -9 -4 -13 -13 -13h-193c-8 0 -12 4 -12 12c0 9 4 13 13 13h31c10 0 12 2 15 10l123 305c3 7 6 17 6 25c0 7 -3 12 -11 12c-15 0 -28 -17 -38 -30
c-2 -2 -4 -6 -4 -6c-5 -7 -9 -12 -16 -12c-6 0 -11 3 -11 10c0 5 2 10 8 19c22 31 48 57 96 57c26 0 41 -9 48 -21c9 -17 6 -24 11 -24c4 0 7 8 21 20c18 16 40 26 71 26zM971 274c56 0 92 -31 92 -89c0 -95 -78 -195 -174 -195c-17 0 -30 2 -44 9c-16 8 -19 18 -24 18
s-7 -7 -9 -12l-45 -112c-1 -3 -2 -6 -2 -7c0 -3 3 -3 9 -3h40c8 0 12 -4 12 -12c0 -9 -4 -13 -13 -13h-193c-8 0 -12 4 -12 12c0 9 4 13 13 13h31c10 0 12 2 15 10l123 305c3 7 6 17 6 25c0 7 -3 12 -11 12c-15 0 -28 -17 -38 -30c-2 -2 -4 -6 -4 -6c-5 -7 -9 -12 -16 -12
c-6 0 -11 3 -11 10c0 5 2 10 8 19c22 31 48 57 96 57c26 0 41 -9 48 -21c9 -17 6 -24 11 -24c4 0 7 8 21 20c18 16 40 26 71 26zM1326 274c56 0 92 -31 92 -89c0 -95 -78 -195 -174 -195c-17 0 -30 2 -44 9c-16 8 -19 18 -24 18s-7 -7 -9 -12l-45 -112c-1 -3 -2 -6 -2 -7
c0 -3 3 -3 9 -3h40c8 0 12 -4 12 -12c0 -9 -4 -13 -13 -13h-193c-8 0 -12 4 -12 12c0 9 4 13 13 13h31c10 0 12 2 15 10l123 305c3 7 6 17 6 25c0 7 -3 12 -11 12c-15 0 -28 -17 -38 -30c-2 -2 -4 -6 -4 -6c-5 -7 -9 -12 -16 -12c-6 0 -11 3 -11 10c0 5 2 10 8 19
c22 31 48 57 96 57c26 0 41 -9 48 -21c9 -17 6 -24 11 -24c4 0 7 8 21 20c18 16 40 26 71 26zM234 237c-24 0 -50 -29 -64 -63l-20 -49c-11 -28 -19 -48 -19 -69s8 -32 25 -32c48 0 101 127 101 176c0 22 -6 37 -23 37zM589 237c-24 0 -50 -29 -64 -63l-20 -49
c-11 -28 -19 -48 -19 -69s8 -32 25 -32c48 0 101 127 101 176c0 22 -6 37 -23 37zM944 237c-24 0 -50 -29 -64 -63l-20 -49c-11 -28 -19 -48 -19 -69s8 -32 25 -32c48 0 101 127 101 176c0 22 -6 37 -23 37zM1299 237c-24 0 -50 -29 -64 -63l-20 -49
c-11 -28 -19 -48 -19 -69s8 -32 25 -32c48 0 101 127 101 176c0 22 -6 37 -23 37z" />
    <glyph glyph-name="uniE52A" unicode="&#xe520;&#xe520;&#xe520;" horiz-adv-x="1072" 
d="M271 274c56 0 92 -31 92 -89c0 -95 -78 -195 -174 -195c-17 0 -30 2 -44 9c-16 8 -19 18 -24 18s-7 -7 -9 -12l-45 -112c-1 -3 -2 -6 -2 -7c0 -3 3 -3 9 -3h40c8 0 12 -4 12 -12c0 -9 -4 -13 -13 -13h-193c-8 0 -12 4 -12 12c0 9 4 13 13 13h31c10 0 12 2 15 10l123 305
c3 7 6 17 6 25c0 7 -3 12 -11 12c-18 0 -38 -26 -67 -76c-5 -9 -9 -15 -16 -15c-6 0 -11 4 -11 11c0 5 2 10 7 19c31 57 63 99 122 99c26 0 41 -9 48 -21c9 -17 6 -24 11 -24c4 0 7 8 21 20c18 16 40 26 71 26zM626 274c56 0 92 -31 92 -89c0 -95 -78 -195 -174 -195
c-17 0 -30 2 -44 9c-16 8 -19 18 -24 18s-7 -7 -9 -12l-45 -112c-1 -3 -2 -6 -2 -7c0 -3 3 -3 9 -3h40c8 0 12 -4 12 -12c0 -9 -4 -13 -13 -13h-193c-8 0 -12 4 -12 12c0 9 4 13 13 13h31c10 0 12 2 15 10l123 305c3 7 6 17 6 25c0 7 -3 12 -11 12c-15 0 -28 -17 -38 -30
c-2 -2 -4 -6 -4 -6c-5 -7 -9 -12 -16 -12c-6 0 -11 3 -11 10c0 5 2 10 8 19c22 31 48 57 96 57c26 0 41 -9 48 -21c9 -17 6 -24 11 -24c4 0 7 8 21 20c18 16 40 26 71 26zM981 274c56 0 92 -31 92 -89c0 -95 -78 -195 -174 -195c-17 0 -30 2 -44 9c-16 8 -19 18 -24 18
s-7 -7 -9 -12l-45 -112c-1 -3 -2 -6 -2 -7c0 -3 3 -3 9 -3h40c8 0 12 -4 12 -12c0 -9 -4 -13 -13 -13h-193c-8 0 -12 4 -12 12c0 9 4 13 13 13h31c10 0 12 2 15 10l123 305c3 7 6 17 6 25c0 7 -3 12 -11 12c-15 0 -28 -17 -38 -30c-2 -2 -4 -6 -4 -6c-5 -7 -9 -12 -16 -12
c-6 0 -11 3 -11 10c0 5 2 10 8 19c22 31 48 57 96 57c26 0 41 -9 48 -21c9 -17 6 -24 11 -24c4 0 7 8 21 20c18 16 40 26 71 26zM244 237c-24 0 -50 -29 -64 -63l-20 -49c-11 -28 -19 -48 -19 -69s8 -32 25 -32c48 0 101 127 101 176c0 22 -6 37 -23 37zM599 237
c-24 0 -50 -29 -64 -63l-20 -49c-11 -28 -19 -48 -19 -69s8 -32 25 -32c48 0 101 127 101 176c0 22 -6 37 -23 37zM954 237c-24 0 -50 -29 -64 -63l-20 -49c-11 -28 -19 -48 -19 -69s8 -32 25 -32c48 0 101 127 101 176c0 22 -6 37 -23 37z" />
    <glyph glyph-name="uniE52B" unicode="&#xe520;&#xe520;" horiz-adv-x="727" 
d="M281 274c56 0 92 -31 92 -89c0 -95 -78 -195 -174 -195c-17 0 -30 2 -44 9c-16 8 -19 18 -24 18s-7 -7 -9 -12l-45 -112c-1 -3 -2 -6 -2 -7c0 -3 3 -3 9 -3h40c8 0 12 -4 12 -12c0 -9 -4 -13 -13 -13h-193c-8 0 -12 4 -12 12c0 9 4 13 13 13h31c10 0 12 2 15 10l123 305
c3 7 6 17 6 25c0 7 -3 12 -11 12c-18 0 -38 -26 -67 -76c-5 -9 -9 -15 -16 -15c-6 0 -11 4 -11 11c0 5 2 10 7 19c31 57 63 99 122 99c26 0 41 -9 48 -21c9 -17 6 -24 11 -24c4 0 7 8 21 20c18 16 40 26 71 26zM636 274c56 0 92 -31 92 -89c0 -95 -78 -195 -174 -195
c-17 0 -30 2 -44 9c-16 8 -19 18 -24 18s-7 -7 -9 -12l-45 -112c-1 -3 -2 -6 -2 -7c0 -3 3 -3 9 -3h40c8 0 12 -4 12 -12c0 -9 -4 -13 -13 -13h-193c-8 0 -12 4 -12 12c0 9 4 13 13 13h31c10 0 12 2 15 10l123 305c3 7 6 17 6 25c0 7 -3 12 -11 12c-15 0 -28 -17 -38 -30
c-2 -2 -4 -6 -4 -6c-5 -7 -9 -12 -16 -12c-6 0 -11 3 -11 10c0 5 2 10 8 19c22 31 48 57 96 57c26 0 41 -9 48 -21c9 -17 6 -24 11 -24c4 0 7 8 21 20c18 16 40 26 71 26zM254 237c-24 0 -50 -29 -64 -63l-20 -49c-11 -28 -19 -48 -19 -69s8 -32 25 -32
c48 0 101 127 101 176c0 22 -6 37 -23 37zM609 237c-24 0 -50 -29 -64 -63l-20 -49c-11 -28 -19 -48 -19 -69s8 -32 25 -32c48 0 101 127 101 176c0 22 -6 37 -23 37z" />
    <glyph glyph-name="uniE52C" unicode="&#xe521;&#xe520;" horiz-adv-x="826" 
d="M444 132l7 16c24 54 56 125 131 125c26 0 41 -9 48 -21c9 -17 6 -24 11 -24c4 0 7 8 21 20c18 16 40 26 71 26c56 0 92 -31 92 -89c0 -95 -78 -195 -174 -195c-17 0 -30 2 -44 9c-16 8 -19 18 -24 18s-7 -7 -9 -12l-45 -112c-1 -3 -2 -6 -2 -7c0 -3 3 -3 9 -3h40
c8 0 12 -4 12 -12c0 -9 -4 -13 -13 -13h-193c-8 0 -12 4 -12 12c0 9 4 13 13 13h31c10 0 12 2 15 10l123 305c3 7 6 17 6 25c0 7 -2 12 -10 12c-26 0 -52 -51 -82 -119c-31 -71 -71 -126 -134 -126c-29 0 -45 14 -45 40c0 42 62 145 62 180c0 8 -3 14 -15 14
c-22 0 -43 -21 -55 -50l-65 -162c-4 -10 -7 -12 -16 -12h-49c-8 0 -11 2 -11 6c0 3 1 6 3 11c62 155 63 155 63 156c6 14 10 25 10 37c0 8 -3 14 -15 14c-22 0 -43 -21 -55 -50l-65 -162c-4 -10 -7 -12 -16 -12h-49c-8 0 -11 2 -11 6c0 3 1 6 3 11l73 181c3 7 6 17 6 25
c0 7 -3 12 -11 12c-18 0 -38 -27 -68 -78c-5 -8 -8 -13 -15 -13c-6 0 -11 4 -11 11c0 5 2 10 7 19c31 56 62 99 115 99c19 0 33 -10 39 -23c6 -14 3 -21 8 -21c4 0 5 4 15 14c16 17 39 31 68 31c25 0 38 -11 44 -24s3 -21 8 -21c4 0 5 4 15 14c16 17 39 31 68 31
c41 0 54 -29 54 -54c0 -55 -58 -142 -58 -177c0 -6 2 -9 8 -9c20 0 45 37 73 98zM628 24c48 0 101 127 101 176c0 22 -6 37 -23 37c-24 0 -50 -29 -64 -63l-20 -49c-11 -28 -19 -48 -19 -69s8 -32 25 -32z" />
    <glyph glyph-name="uniE52D" unicode="&#xe521;&#xe522;" horiz-adv-x="797" 
d="M367 274c41 0 54 -29 54 -54c0 -55 -58 -142 -58 -177c0 -6 2 -9 8 -9c13 0 32 24 51 54c5 8 8 13 15 13c5 0 9 -3 9 -9c0 -5 -3 -11 -9 -21c-32 -53 -67 -81 -105 -81c-29 0 -45 14 -45 40c0 42 62 145 62 180c0 8 -3 14 -15 14c-22 0 -43 -21 -55 -50l-65 -162
c-4 -10 -7 -12 -16 -12h-49c-8 0 -11 2 -11 6c0 3 1 6 3 11c62 155 63 155 63 156c6 14 10 25 10 37c0 8 -3 14 -15 14c-22 0 -43 -21 -55 -50l-65 -162c-4 -10 -7 -12 -16 -12h-49c-8 0 -11 2 -11 6c0 3 1 6 3 11l73 181c3 7 6 17 6 25c0 7 -3 12 -11 12
c-18 0 -38 -27 -68 -78c-5 -8 -8 -13 -15 -13c-6 0 -11 4 -11 11c0 5 2 10 7 19c31 56 62 99 115 99c19 0 33 -10 39 -23c6 -14 3 -21 8 -21c4 0 5 4 15 14c16 17 39 31 68 31c25 0 38 -11 44 -24s3 -21 8 -21c4 0 5 4 15 14c16 17 39 31 68 31zM470 251h58c14 0 15 0 20 15
c33 96 87 165 184 165c63 0 86 -30 86 -67s-23 -54 -49 -54c-25 0 -45 14 -45 42c0 18 8 32 21 38c11 5 16 4 16 10s-8 8 -16 8c-50 0 -72 -53 -92 -140c-1 -6 -2 -9 -2 -12c0 -5 3 -5 10 -5h60c10 0 15 -5 15 -15c0 -11 -5 -16 -16 -16h-65c-5 0 -13 -9 -13 -11
c0 -1 -1 -2 -1 -3c-24 -84 -46 -146 -75 -207c-55 -113 -102 -164 -178 -164c-42 0 -75 23 -75 67c0 31 22 55 52 55c27 0 45 -15 45 -41c0 -16 -8 -29 -20 -37c-15 -10 -24 -5 -24 -13c0 -5 5 -9 18 -9c40 0 58 32 86 130l63 219c1 5 2 8 2 10c0 4 -2 4 -8 4h-58
c-10 0 -15 5 -15 15c0 11 5 16 16 16z" />
    <glyph glyph-name="uniE52E" unicode="&#xe520;&#xe522;" horiz-adv-x="770" 
d="M200 174l-20 -49c-11 -28 -19 -48 -19 -69s8 -32 25 -32c48 0 101 127 101 176c0 22 -6 37 -23 37c-24 0 -50 -29 -64 -63zM-13 -107l123 305c3 7 6 17 6 25c0 7 -3 12 -11 12c-18 0 -38 -26 -67 -76c-5 -9 -9 -15 -16 -15c-6 0 -11 4 -11 11c0 5 2 10 7 19
c31 57 63 99 122 99c26 0 41 -9 48 -21c9 -17 6 -24 11 -24c4 0 7 8 21 20c18 16 40 26 71 26c56 0 92 -31 92 -89c0 -95 -78 -195 -174 -195c-17 0 -30 2 -44 9c-16 8 -19 18 -24 18s-7 -7 -9 -12l-45 -112c-1 -3 -2 -6 -2 -7c0 -3 3 -3 9 -3h40c8 0 12 -4 12 -12
c0 -9 -4 -13 -13 -13h-193c-8 0 -12 4 -12 12c0 9 4 13 13 13h31c10 0 12 2 15 10zM422 264h58c14 0 15 0 20 15c33 96 87 165 184 165c63 0 86 -30 86 -67s-23 -54 -49 -54c-25 0 -45 14 -45 42c0 18 8 32 21 38c11 5 16 4 16 10s-8 8 -16 8c-50 0 -72 -53 -92 -140
c-1 -6 -2 -9 -2 -12c0 -5 3 -5 10 -5h60c10 0 15 -5 15 -15c0 -11 -5 -16 -16 -16h-65c-5 0 -13 -9 -13 -11c0 -1 -1 -2 -1 -3c-24 -84 -46 -146 -75 -207c-55 -113 -102 -164 -178 -164c-42 0 -75 23 -75 67c0 31 22 55 52 55c27 0 45 -15 45 -41c0 -16 -8 -29 -20 -37
c-15 -10 -24 -5 -24 -13c0 -5 5 -9 18 -9c40 0 58 32 86 130l63 219c1 5 2 8 2 10c0 4 -2 4 -8 4h-58c-10 0 -15 5 -15 15c0 11 5 16 16 16z" />
    <glyph glyph-name="uniE52F" unicode="&#xe522;&#xe522;" horiz-adv-x="609" 
d="M213 264h107c14 0 15 0 20 15c33 96 87 165 184 165c63 0 86 -30 86 -67s-23 -54 -49 -54c-25 0 -45 14 -45 42c0 18 8 32 21 38c11 5 16 4 16 10s-8 8 -16 8c-50 0 -72 -53 -92 -140c-1 -6 -2 -9 -2 -12c0 -5 3 -5 10 -5h60c10 0 15 -5 15 -15c0 -11 -5 -16 -16 -16h-65
c-5 0 -13 -9 -13 -11c0 -1 -1 -2 -1 -3c-24 -84 -46 -146 -75 -207c-55 -113 -102 -164 -178 -164c-42 0 -72 23 -72 62c0 31 18 52 49 52c24 0 41 -15 41 -39c0 -16 -5 -27 -17 -35c-11 -7 -15 -9 -15 -13c0 -3 2 -5 10 -5c40 0 58 32 86 130l63 219c1 5 2 8 2 10
c0 4 -2 4 -8 4h-112c-5 0 -13 -9 -13 -11c0 -1 -1 -2 -1 -3c-24 -84 -46 -146 -75 -207c-55 -113 -102 -164 -178 -164c-42 0 -75 23 -75 67c0 31 22 55 52 55c27 0 45 -15 45 -41c0 -16 -8 -29 -20 -37c-15 -10 -24 -5 -24 -13c0 -5 5 -9 18 -9c40 0 58 32 86 130l63 219
c1 5 2 8 2 10c0 4 -2 4 -8 4h-58c-10 0 -15 5 -15 15c0 11 5 16 16 16h58c14 0 15 0 20 15c33 97 80 165 178 165c57 0 77 -29 77 -55c0 -33 -17 -51 -44 -51c-24 0 -42 12 -42 41c0 27 18 31 18 38c0 3 -3 4 -8 4c-39 0 -54 -53 -74 -140c-1 -6 -2 -9 -2 -12
c0 -5 3 -5 10 -5z" />
    <glyph glyph-name="uniE530" unicode="&#xe522;&#xe522;&#xe522;" horiz-adv-x="831" 
d="M433 264h107c14 0 15 0 20 15c33 96 87 165 184 165c63 0 86 -30 86 -67s-23 -54 -49 -54c-25 0 -45 14 -45 42c0 18 8 32 21 38c11 5 16 4 16 10s-8 8 -16 8c-50 0 -72 -53 -92 -140c-1 -6 -2 -9 -2 -12c0 -5 3 -5 10 -5h60c10 0 15 -5 15 -15c0 -11 -5 -16 -16 -16h-65
c-5 0 -13 -9 -13 -11c0 -1 -1 -2 -1 -3c-24 -84 -46 -146 -75 -207c-55 -113 -102 -164 -178 -164c-42 0 -72 23 -72 62c0 31 18 52 49 52c24 0 41 -15 41 -39c0 -16 -5 -27 -17 -35c-11 -7 -15 -9 -15 -13c0 -3 2 -5 10 -5c40 0 58 32 86 130l63 219c1 5 2 8 2 10
c0 4 -2 4 -8 4h-112c-5 0 -13 -9 -13 -11c0 -1 -1 -2 -1 -3c-24 -84 -46 -146 -75 -207c-55 -113 -102 -164 -178 -164c-42 0 -72 23 -72 62c0 31 18 52 49 52c24 0 41 -15 41 -39c0 -16 -5 -27 -17 -35c-11 -7 -15 -9 -15 -13c0 -3 2 -5 10 -5c40 0 58 32 86 130l63 219
c1 5 2 8 2 10c0 4 -2 4 -8 4h-112c-5 0 -13 -9 -13 -11c0 -1 -1 -2 -1 -3c-24 -84 -46 -146 -75 -207c-55 -113 -102 -164 -178 -164c-42 0 -75 23 -75 67c0 31 22 55 52 55c27 0 45 -15 45 -41c0 -16 -8 -29 -20 -37c-15 -10 -24 -5 -24 -13c0 -5 5 -9 18 -9
c40 0 58 32 86 130l63 219c1 5 2 8 2 10c0 4 -2 4 -8 4h-58c-10 0 -15 5 -15 15c0 11 5 16 16 16h58c14 0 15 0 20 15c33 97 80 165 178 165c57 0 77 -29 77 -55c0 -33 -17 -51 -44 -51c-24 0 -42 12 -42 41c0 27 18 31 18 38c0 3 -3 4 -8 4c-39 0 -54 -53 -74 -140
c-1 -6 -2 -9 -2 -12c0 -5 3 -5 10 -5h107c14 0 15 0 20 15c33 97 80 165 178 165c57 0 77 -29 77 -55c0 -33 -17 -51 -44 -51c-24 0 -42 12 -42 41c0 27 18 31 18 38c0 3 -3 4 -8 4c-39 0 -54 -53 -74 -140c-1 -6 -2 -9 -2 -12c0 -5 3 -5 10 -5z" />
    <glyph glyph-name="uniE531" unicode="&#xe522;&#xe522;&#xe522;&#xe522;" horiz-adv-x="1070" 
d="M673 264h107c14 0 15 0 20 15c33 96 87 165 184 165c63 0 86 -30 86 -67s-23 -54 -49 -54c-25 0 -45 14 -45 42c0 18 8 32 21 38c11 5 16 4 16 10s-8 8 -16 8c-50 0 -72 -53 -92 -140c-1 -6 -2 -9 -2 -12c0 -5 3 -5 10 -5h60c10 0 15 -5 15 -15c0 -11 -5 -16 -16 -16h-65
c-5 0 -13 -9 -13 -11c0 -1 -1 -2 -1 -3c-24 -84 -46 -146 -75 -207c-55 -113 -102 -164 -178 -164c-42 0 -72 23 -72 62c0 31 18 52 49 52c24 0 41 -15 41 -39c0 -16 -5 -27 -17 -35c-11 -7 -15 -9 -15 -13c0 -3 2 -5 10 -5c40 0 58 32 86 130l63 219c1 5 2 8 2 10
c0 4 -2 4 -8 4h-112c-5 0 -13 -9 -13 -11c0 -1 -1 -2 -1 -3c-24 -84 -46 -146 -75 -207c-55 -113 -102 -164 -178 -164c-42 0 -72 23 -72 62c0 31 18 52 49 52c24 0 41 -15 41 -39c0 -16 -5 -27 -17 -35c-11 -7 -15 -9 -15 -13c0 -3 2 -5 10 -5c40 0 58 32 86 130l63 219
c1 5 2 8 2 10c0 4 -2 4 -8 4h-112c-5 0 -13 -9 -13 -11c0 -1 -1 -2 -1 -3c-24 -84 -46 -146 -75 -207c-55 -113 -102 -164 -178 -164c-42 0 -72 23 -72 62c0 31 18 52 49 52c24 0 41 -15 41 -39c0 -16 -5 -27 -17 -35c-11 -7 -15 -9 -15 -13c0 -3 2 -5 10 -5
c40 0 58 32 86 130l63 219c1 5 2 8 2 10c0 4 -2 4 -8 4h-112c-5 0 -13 -9 -13 -11c0 -1 -1 -2 -1 -3c-24 -84 -46 -146 -75 -207c-55 -113 -102 -164 -178 -164c-42 0 -75 23 -75 67c0 31 22 55 52 55c27 0 45 -15 45 -41c0 -16 -8 -29 -20 -37c-15 -10 -24 -5 -24 -13
c0 -5 5 -9 18 -9c40 0 58 32 86 130l63 219c1 5 2 8 2 10c0 4 -2 4 -8 4h-58c-10 0 -15 5 -15 15c0 11 5 16 16 16h58c14 0 15 0 20 15c33 97 80 165 178 165c57 0 77 -29 77 -55c0 -33 -17 -51 -44 -51c-24 0 -42 12 -42 41c0 27 18 31 18 38c0 3 -3 4 -8 4
c-39 0 -54 -53 -74 -140c-1 -6 -2 -9 -2 -12c0 -5 3 -5 10 -5h107c14 0 15 0 20 15c33 97 80 165 178 165c57 0 77 -29 77 -55c0 -33 -17 -51 -44 -51c-24 0 -42 12 -42 41c0 27 18 31 18 38c0 3 -3 4 -8 4c-39 0 -54 -53 -74 -140c-1 -6 -2 -9 -2 -12c0 -5 3 -5 10 -5h107
c14 0 15 0 20 15c33 97 80 165 178 165c57 0 77 -29 77 -55c0 -33 -17 -51 -44 -51c-24 0 -42 12 -42 41c0 27 18 31 18 38c0 3 -3 4 -8 4c-39 0 -54 -53 -74 -140c-1 -6 -2 -9 -2 -12c0 -5 3 -5 10 -5z" />
    <glyph glyph-name="uniE532" unicode="&#xe522;&#xe522;&#xe522;&#xe522;&#xe522;" horiz-adv-x="1310" 
d="M913 264h107c14 0 15 0 20 15c33 96 87 165 184 165c63 0 86 -30 86 -67s-23 -54 -49 -54c-25 0 -45 14 -45 42c0 18 8 32 21 38c11 5 16 4 16 10s-8 8 -16 8c-50 0 -72 -53 -92 -140c-1 -6 -2 -9 -2 -12c0 -5 3 -5 10 -5h60c10 0 15 -5 15 -15c0 -11 -5 -16 -16 -16h-65
c-5 0 -13 -9 -13 -11c0 -1 -1 -2 -1 -3c-24 -84 -46 -146 -75 -207c-55 -113 -102 -164 -178 -164c-42 0 -72 23 -72 62c0 31 18 52 49 52c24 0 41 -15 41 -39c0 -16 -5 -27 -17 -35c-11 -7 -15 -9 -15 -13c0 -3 2 -5 10 -5c40 0 58 32 86 130l63 219c1 5 2 8 2 10
c0 4 -2 4 -8 4h-112c-5 0 -13 -9 -13 -11c0 -1 -1 -2 -1 -3c-24 -84 -46 -146 -75 -207c-55 -113 -102 -164 -178 -164c-42 0 -72 23 -72 62c0 31 18 52 49 52c24 0 41 -15 41 -39c0 -16 -5 -27 -17 -35c-11 -7 -15 -9 -15 -13c0 -3 2 -5 10 -5c40 0 58 32 86 130l63 219
c1 5 2 8 2 10c0 4 -2 4 -8 4h-112c-5 0 -13 -9 -13 -11c0 -1 -1 -2 -1 -3c-24 -84 -46 -146 -75 -207c-55 -113 -102 -164 -178 -164c-42 0 -72 23 -72 62c0 31 18 52 49 52c24 0 41 -15 41 -39c0 -16 -5 -27 -17 -35c-11 -7 -15 -9 -15 -13c0 -3 2 -5 10 -5
c40 0 58 32 86 130l63 219c1 5 2 8 2 10c0 4 -2 4 -8 4h-112c-5 0 -13 -9 -13 -11c0 -1 -1 -2 -1 -3c-24 -84 -46 -146 -75 -207c-55 -113 -102 -164 -178 -164c-42 0 -72 23 -72 62c0 31 18 52 49 52c24 0 41 -15 41 -39c0 -16 -5 -27 -17 -35c-11 -7 -15 -9 -15 -13
c0 -3 2 -5 10 -5c40 0 58 32 86 130l63 219c1 5 2 8 2 10c0 4 -2 4 -8 4h-112c-5 0 -13 -9 -13 -11c0 -1 -1 -2 -1 -3c-24 -84 -46 -146 -75 -207c-55 -113 -102 -164 -178 -164c-42 0 -75 23 -75 67c0 31 22 55 52 55c27 0 45 -15 45 -41c0 -16 -8 -29 -20 -37
c-15 -10 -24 -5 -24 -13c0 -5 5 -9 18 -9c40 0 58 32 86 130l63 219c1 5 2 8 2 10c0 4 -2 4 -8 4h-58c-10 0 -15 5 -15 15c0 11 5 16 16 16h58c14 0 15 0 20 15c33 97 80 165 178 165c57 0 77 -29 77 -55c0 -33 -17 -51 -44 -51c-24 0 -42 12 -42 41c0 27 18 31 18 38
c0 3 -3 4 -8 4c-39 0 -54 -53 -74 -140c-1 -6 -2 -9 -2 -12c0 -5 3 -5 10 -5h107c14 0 15 0 20 15c33 97 80 165 178 165c57 0 77 -29 77 -55c0 -33 -17 -51 -44 -51c-24 0 -42 12 -42 41c0 27 18 31 18 38c0 3 -3 4 -8 4c-39 0 -54 -53 -74 -140c-1 -6 -2 -9 -2 -12
c0 -5 3 -5 10 -5h107c14 0 15 0 20 15c33 97 80 165 178 165c57 0 77 -29 77 -55c0 -33 -17 -51 -44 -51c-24 0 -42 12 -42 41c0 27 18 31 18 38c0 3 -3 4 -8 4c-39 0 -54 -53 -74 -140c-1 -6 -2 -9 -2 -12c0 -5 3 -5 10 -5h107c14 0 15 0 20 15c33 97 80 165 178 165
c57 0 77 -29 77 -55c0 -33 -17 -51 -44 -51c-24 0 -42 12 -42 41c0 27 18 31 18 38c0 3 -3 4 -8 4c-39 0 -54 -53 -74 -140c-1 -6 -2 -9 -2 -12c0 -5 3 -5 10 -5z" />
    <glyph glyph-name="uniE533" unicode="&#xe522;&#xe522;&#xe522;&#xe522;&#xe522;&#xe522;" horiz-adv-x="1550" 
d="M1153 264h107c14 0 15 0 20 15c33 96 87 165 184 165c63 0 86 -30 86 -67s-23 -54 -49 -54c-25 0 -45 14 -45 42c0 18 8 32 21 38c11 5 16 4 16 10s-8 8 -16 8c-50 0 -72 -53 -92 -140c-1 -6 -2 -9 -2 -12c0 -5 3 -5 10 -5h60c10 0 15 -5 15 -15c0 -11 -5 -16 -16 -16
h-65c-5 0 -13 -9 -13 -11c0 -1 -1 -2 -1 -3c-24 -84 -46 -146 -75 -207c-55 -113 -102 -164 -178 -164c-42 0 -72 23 -72 62c0 31 18 52 49 52c24 0 41 -15 41 -39c0 -16 -5 -27 -17 -35c-11 -7 -15 -9 -15 -13c0 -3 2 -5 10 -5c40 0 58 32 86 130l63 219c1 5 2 8 2 10
c0 4 -2 4 -8 4h-112c-5 0 -13 -9 -13 -11c0 -1 -1 -2 -1 -3c-24 -84 -46 -146 -75 -207c-55 -113 -102 -164 -178 -164c-42 0 -72 23 -72 62c0 31 18 52 49 52c24 0 41 -15 41 -39c0 -16 -5 -27 -17 -35c-11 -7 -15 -9 -15 -13c0 -3 2 -5 10 -5c40 0 58 32 86 130l63 219
c1 5 2 8 2 10c0 4 -2 4 -8 4h-112c-5 0 -13 -9 -13 -11c0 -1 -1 -2 -1 -3c-24 -84 -46 -146 -75 -207c-55 -113 -102 -164 -178 -164c-42 0 -72 23 -72 62c0 31 18 52 49 52c24 0 41 -15 41 -39c0 -16 -5 -27 -17 -35c-11 -7 -15 -9 -15 -13c0 -3 2 -5 10 -5
c40 0 58 32 86 130l63 219c1 5 2 8 2 10c0 4 -2 4 -8 4h-112c-5 0 -13 -9 -13 -11c0 -1 -1 -2 -1 -3c-24 -84 -46 -146 -75 -207c-55 -113 -102 -164 -178 -164c-42 0 -72 23 -72 62c0 31 18 52 49 52c24 0 41 -15 41 -39c0 -16 -5 -27 -17 -35c-11 -7 -15 -9 -15 -13
c0 -3 2 -5 10 -5c40 0 58 32 86 130l63 219c1 5 2 8 2 10c0 4 -2 4 -8 4h-112c-5 0 -13 -9 -13 -11c0 -1 -1 -2 -1 -3c-24 -84 -46 -146 -75 -207c-55 -113 -102 -164 -178 -164c-42 0 -72 23 -72 62c0 31 18 52 49 52c24 0 41 -15 41 -39c0 -16 -5 -27 -17 -35
c-11 -7 -15 -9 -15 -13c0 -3 2 -5 10 -5c40 0 58 32 86 130l63 219c1 5 2 8 2 10c0 4 -2 4 -8 4h-112c-5 0 -13 -9 -13 -11c0 -1 -1 -2 -1 -3c-24 -84 -46 -146 -75 -207c-55 -113 -102 -164 -178 -164c-42 0 -75 23 -75 67c0 31 22 55 52 55c27 0 45 -15 45 -41
c0 -16 -8 -29 -20 -37c-15 -10 -24 -5 -24 -13c0 -5 5 -9 18 -9c40 0 58 32 86 130l63 219c1 5 2 8 2 10c0 4 -2 4 -8 4h-58c-10 0 -15 5 -15 15c0 11 5 16 16 16h58c14 0 15 0 20 15c33 97 80 165 178 165c57 0 77 -29 77 -55c0 -33 -17 -51 -44 -51c-24 0 -42 12 -42 41
c0 27 18 31 18 38c0 3 -3 4 -8 4c-39 0 -54 -53 -74 -140c-1 -6 -2 -9 -2 -12c0 -5 3 -5 10 -5h107c14 0 15 0 20 15c33 97 80 165 178 165c57 0 77 -29 77 -55c0 -33 -17 -51 -44 -51c-24 0 -42 12 -42 41c0 27 18 31 18 38c0 3 -3 4 -8 4c-39 0 -54 -53 -74 -140
c-1 -6 -2 -9 -2 -12c0 -5 3 -5 10 -5h107c14 0 15 0 20 15c33 97 80 165 178 165c57 0 77 -29 77 -55c0 -33 -17 -51 -44 -51c-24 0 -42 12 -42 41c0 27 18 31 18 38c0 3 -3 4 -8 4c-39 0 -54 -53 -74 -140c-1 -6 -2 -9 -2 -12c0 -5 3 -5 10 -5h107c14 0 15 0 20 15
c33 97 80 165 178 165c57 0 77 -29 77 -55c0 -33 -17 -51 -44 -51c-24 0 -42 12 -42 41c0 27 18 31 18 38c0 3 -3 4 -8 4c-39 0 -54 -53 -74 -140c-1 -6 -2 -9 -2 -12c0 -5 3 -5 10 -5h107c14 0 15 0 20 15c33 97 80 165 178 165c57 0 77 -29 77 -55c0 -33 -17 -51 -44 -51
c-24 0 -42 12 -42 41c0 27 18 31 18 38c0 3 -3 4 -8 4c-39 0 -54 -53 -74 -140c-1 -6 -2 -9 -2 -12c0 -5 3 -5 10 -5z" />
    <glyph glyph-name="uniE534" unicode="&#xe522;&#xe520;" horiz-adv-x="619" 
d="M16 264h58c14 0 15 0 20 15c33 96 87 165 184 165c63 0 86 -30 86 -67s-23 -54 -49 -54c-25 0 -45 14 -45 42c0 18 8 32 21 38c11 5 16 4 16 10s-8 8 -16 8c-50 0 -72 -53 -92 -140c-1 -6 -2 -9 -2 -12c0 -5 3 -5 10 -5h60c10 0 15 -5 15 -15c0 -11 -5 -16 -16 -16h-65
c-5 0 -13 -9 -13 -11c0 -1 -1 -2 -1 -3c-24 -84 -46 -146 -75 -207c-55 -113 -102 -164 -178 -164c-42 0 -75 23 -75 67c0 31 22 55 52 55c27 0 45 -15 45 -41c0 -16 -8 -29 -20 -37c-15 -10 -24 -5 -24 -13c0 -5 5 -9 18 -9c40 0 58 32 86 130l63 219c1 5 2 8 2 10
c0 4 -2 4 -8 4h-58c-10 0 -15 5 -15 15c0 11 5 16 16 16zM527 274c56 0 92 -31 92 -89c0 -95 -78 -195 -174 -195c-17 0 -30 2 -44 9c-16 8 -19 18 -24 18s-7 -7 -9 -12l-45 -112c-1 -3 -2 -6 -2 -7c0 -3 3 -3 9 -3h40c8 0 12 -4 12 -12c0 -9 -4 -13 -13 -13h-193
c-8 0 -12 4 -12 12c0 9 4 13 13 13h31c10 0 12 2 15 10l123 305c3 7 6 17 6 25c0 7 -3 12 -11 12c-18 0 -38 -26 -67 -76c-5 -9 -9 -15 -16 -15c-6 0 -11 4 -11 11c0 5 2 10 7 19c31 57 63 99 122 99c26 0 41 -9 48 -21c9 -17 6 -24 11 -24c4 0 7 8 21 20c18 16 40 26 71 26
zM500 237c-24 0 -50 -29 -64 -63l-20 -49c-11 -28 -19 -48 -19 -69s8 -32 25 -32c48 0 101 127 101 176c0 22 -6 37 -23 37z" />
    <glyph glyph-name="uniE535" unicode="&#xe522;&#xe525;" horiz-adv-x="497" 
d="M16 264h58c14 0 15 0 20 15c33 96 87 165 184 165c63 0 86 -30 86 -67s-23 -54 -49 -54c-25 0 -45 14 -45 42c0 18 8 32 21 38c11 5 16 4 16 10s-8 8 -16 8c-50 0 -72 -53 -92 -140c-1 -6 -2 -9 -2 -12c0 -5 3 -5 10 -5h60c10 0 15 -5 15 -15c0 -11 -5 -16 -16 -16h-65
c-5 0 -13 -9 -13 -11c0 -1 -1 -2 -1 -3c-24 -84 -46 -146 -75 -207c-55 -113 -102 -164 -178 -164c-42 0 -75 23 -75 67c0 31 22 55 52 55c27 0 45 -15 45 -41c0 -16 -8 -29 -20 -37c-15 -10 -24 -5 -24 -13c0 -5 5 -9 18 -9c40 0 58 32 86 130l63 219c1 5 2 8 2 10
c0 4 -2 4 -8 4h-58c-10 0 -15 5 -15 15c0 11 5 16 16 16zM484 268c7 0 13 -4 13 -11c0 -8 -5 -14 -13 -22l-160 -158c-5 -5 -12 -17 -12 -17c3 0 9 6 22 6c39 0 48 -35 78 -35c9 0 16 4 20 11c2 4 4 8 4 10s-1 3 -3 3c-3 0 -6 -5 -16 -5c-14 0 -27 11 -27 30
c0 21 15 35 33 35s36 -13 36 -44c0 -41 -26 -81 -82 -81c-49 0 -69 31 -97 31c-8 0 -16 -4 -24 -10c-5 -4 -11 -12 -20 -12c-8 0 -13 5 -13 12c0 8 4 12 12 20l154 156c1 1 23 23 19 23c-6 0 -20 -7 -38 -7c-29 0 -46 3 -50 3c-6 0 -8 -6 -11 -12l-10 -21
c-4 -9 -8 -15 -15 -15c-6 0 -11 3 -11 10c0 4 1 9 3 15l24 70c3 9 8 13 18 13c12 0 41 -9 101 -9c14 0 30 2 41 5s16 6 24 6z" />
    <glyph glyph-name="uniE536" unicode="&#xe524;&#xe522;" horiz-adv-x="604" 
d="M147 273c51 0 82 -23 82 -60c0 -19 -13 -38 -37 -38c-20 0 -35 12 -35 32c0 11 4 19 10 24c7 5 12 5 12 9c0 7 -14 11 -31 11c-31 0 -43 -17 -43 -33c0 -19 12 -30 48 -57c39 -29 49 -50 49 -78c0 -58 -50 -93 -115 -93c-53 0 -87 31 -87 64c0 27 17 47 41 47
c19 0 36 -13 36 -33c0 -13 -5 -23 -14 -29c-11 -7 -17 -5 -17 -10c0 -7 17 -15 42 -15c32 0 51 23 51 45c0 20 -9 33 -38 53c-35 24 -54 43 -54 78c0 53 41 83 100 83zM256 264h58c14 0 15 0 20 15c33 96 87 165 184 165c63 0 86 -30 86 -67s-23 -54 -49 -54
c-25 0 -45 14 -45 42c0 18 8 32 21 38c11 5 16 4 16 10s-8 8 -16 8c-50 0 -72 -53 -92 -140c-1 -6 -2 -9 -2 -12c0 -5 3 -5 10 -5h60c10 0 15 -5 15 -15c0 -11 -5 -16 -16 -16h-65c-5 0 -13 -9 -13 -11c0 -1 -1 -2 -1 -3c-24 -84 -46 -146 -75 -207
c-55 -113 -102 -164 -178 -164c-42 0 -75 23 -75 67c0 31 22 55 52 55c27 0 45 -15 45 -41c0 -16 -8 -29 -20 -37c-15 -10 -24 -5 -24 -13c0 -5 5 -9 18 -9c40 0 58 32 86 130l63 219c1 5 2 8 2 10c0 4 -2 4 -8 4h-58c-10 0 -15 5 -15 15c0 11 5 16 16 16z" />
    <glyph glyph-name="uniE537" unicode="&#xe524;&#xe522;&#xe520;" horiz-adv-x="846" 
d="M147 273c51 0 82 -23 82 -60c0 -19 -13 -38 -37 -38c-20 0 -35 12 -35 32c0 11 4 19 10 24c7 5 12 5 12 9c0 7 -14 11 -31 11c-31 0 -43 -17 -43 -33c0 -19 12 -30 48 -57c39 -29 49 -50 49 -78c0 -58 -50 -93 -115 -93c-53 0 -87 31 -87 64c0 27 17 47 41 47
c19 0 36 -13 36 -33c0 -13 -5 -23 -14 -29c-11 -7 -17 -5 -17 -10c0 -7 17 -15 42 -15c32 0 51 23 51 45c0 20 -9 33 -38 53c-35 24 -54 43 -54 78c0 53 41 83 100 83zM246 264h58c14 0 15 0 20 15c33 96 87 165 184 165c63 0 86 -30 86 -67s-23 -54 -49 -54
c-25 0 -45 14 -45 42c0 18 8 32 21 38c11 5 16 4 16 10s-8 8 -16 8c-50 0 -72 -53 -92 -140c-1 -6 -2 -9 -2 -12c0 -5 3 -5 10 -5h60c10 0 15 -5 15 -15c0 -11 -5 -16 -16 -16h-65c-5 0 -13 -9 -13 -11c0 -1 -1 -2 -1 -3c-24 -84 -46 -146 -75 -207
c-55 -113 -102 -164 -178 -164c-42 0 -75 23 -75 67c0 31 22 55 52 55c27 0 45 -15 45 -41c0 -16 -8 -29 -20 -37c-15 -10 -24 -5 -24 -13c0 -5 5 -9 18 -9c40 0 58 32 86 130l63 219c1 5 2 8 2 10c0 4 -2 4 -8 4h-58c-10 0 -15 5 -15 15c0 11 5 16 16 16zM753 274
c56 0 92 -31 92 -89c0 -95 -78 -195 -174 -195c-17 0 -30 2 -44 9c-16 8 -19 18 -24 18s-7 -7 -9 -12l-45 -112c-1 -3 -2 -6 -2 -7c0 -3 3 -3 9 -3h40c8 0 12 -4 12 -12c0 -9 -4 -13 -13 -13h-193c-8 0 -12 4 -12 12c0 9 4 13 13 13h31c10 0 12 2 15 10l123 305
c3 7 6 17 6 25c0 7 -3 12 -11 12c-18 0 -38 -26 -67 -76c-5 -9 -9 -15 -16 -15c-6 0 -11 4 -11 11c0 5 2 10 7 19c31 57 63 99 122 99c26 0 41 -9 48 -21c9 -17 6 -24 11 -24c4 0 7 8 21 20c18 16 40 26 71 26zM726 237c-24 0 -50 -29 -64 -63l-20 -49
c-11 -28 -19 -48 -19 -69s8 -32 25 -32c48 0 101 127 101 176c0 22 -6 37 -23 37z" />
    <glyph glyph-name="uniE538" unicode="&#xe524;&#xe522;&#xe520;&#xe520;" horiz-adv-x="1198" 
d="M1016 174l-20 -49c-11 -28 -19 -48 -19 -69s8 -32 25 -32c48 0 101 127 101 176c0 22 -6 37 -23 37c-24 0 -50 -29 -64 -63zM661 174l-20 -49c-11 -28 -19 -48 -19 -69s8 -32 25 -32c48 0 101 127 101 176c0 22 -6 37 -23 37c-24 0 -50 -29 -64 -63zM202 83
c0 -58 -50 -93 -115 -93c-53 0 -87 31 -87 64c0 27 17 47 41 47c19 0 36 -13 36 -33c0 -13 -5 -23 -14 -29c-11 -7 -17 -5 -17 -10c0 -7 17 -15 42 -15c32 0 51 23 51 45c0 20 -9 33 -38 53c-35 24 -54 43 -54 78c0 53 41 83 100 83c51 0 82 -23 82 -60
c0 -19 -13 -38 -37 -38c-20 0 -35 12 -35 32c0 11 4 19 10 24c7 5 12 5 12 9c0 7 -14 11 -31 11c-31 0 -43 -17 -43 -33c0 -19 12 -30 48 -57c39 -29 49 -50 49 -78zM803 -107l123 305c3 7 6 17 6 25c0 7 -3 12 -11 12c-15 0 -28 -17 -38 -30c-3 -5 -4 -6 -4 -6
c-5 -7 -9 -12 -16 -12c-6 0 -11 3 -11 10c0 5 2 10 8 19c22 31 48 57 96 57c26 0 41 -9 48 -21c9 -17 6 -24 11 -24c4 0 7 8 21 20c18 16 40 26 71 26c56 0 92 -31 92 -89c0 -95 -78 -195 -174 -195c-17 0 -30 2 -44 9c-16 8 -19 18 -24 18s-7 -7 -9 -12l-45 -112
c-1 -3 -2 -6 -2 -7c0 -3 3 -3 9 -3h40c8 0 12 -4 12 -12c0 -9 -4 -13 -13 -13h-193c-8 0 -12 4 -12 12c0 9 4 13 13 13h31c10 0 12 2 15 10zM448 -107l123 305c3 7 6 17 6 25c0 7 -3 12 -11 12c-18 0 -38 -26 -67 -76c-5 -9 -9 -15 -16 -15c-6 0 -11 4 -11 11c0 5 2 10 7 19
c31 57 63 99 122 99c26 0 41 -9 48 -21c9 -17 6 -24 11 -24c4 0 7 8 21 20c18 16 40 26 71 26c56 0 92 -31 92 -89c0 -95 -78 -195 -174 -195c-17 0 -30 2 -44 9c-16 8 -19 18 -24 18s-7 -7 -9 -12l-45 -112c-1 -3 -2 -6 -2 -7c0 -3 3 -3 9 -3h40c8 0 12 -4 12 -12
c0 -9 -4 -13 -13 -13h-193c-8 0 -12 4 -12 12c0 9 4 13 13 13h31c10 0 12 2 15 10zM491 233h-49c-5 0 -13 -9 -13 -11c0 -1 -1 -2 -1 -3c-24 -84 -46 -146 -75 -207c-55 -113 -102 -164 -178 -164c-42 0 -75 23 -75 67c0 31 22 55 52 55c27 0 45 -15 45 -41
c0 -16 -8 -29 -20 -37c-15 -10 -24 -5 -24 -13c0 -5 5 -9 18 -9c40 0 58 32 86 130l63 219c1 5 2 8 2 10c0 4 -2 4 -8 4h-58c-10 0 -15 5 -15 15c0 11 5 16 16 16h58c14 0 15 0 20 15c33 96 87 165 186 165c61 0 84 -30 84 -67s-23 -54 -49 -54c-25 0 -45 14 -45 42
c0 18 8 32 21 38c11 5 16 4 16 10s-8 8 -16 8c-50 0 -72 -53 -92 -140c-1 -6 -2 -9 -2 -12c0 -5 3 -5 10 -5h44c10 0 15 -5 15 -15c0 -11 -5 -16 -16 -16z" />
    <glyph glyph-name="uniE539" unicode="&#xe524;&#xe522;&#xe525;" horiz-adv-x="732" 
d="M147 273c51 0 82 -23 82 -60c0 -19 -13 -38 -37 -38c-20 0 -35 12 -35 32c0 11 4 19 10 24c7 5 12 5 12 9c0 7 -14 11 -31 11c-31 0 -43 -17 -43 -33c0 -19 12 -30 48 -57c39 -29 49 -50 49 -78c0 -58 -50 -93 -115 -93c-53 0 -87 31 -87 64c0 27 17 47 41 47
c19 0 36 -13 36 -33c0 -13 -5 -23 -14 -29c-11 -7 -17 -5 -17 -10c0 -7 17 -15 42 -15c32 0 51 23 51 45c0 20 -9 33 -38 53c-35 24 -54 43 -54 78c0 53 41 83 100 83zM251 264h58c14 0 15 0 20 15c33 96 87 165 184 165c63 0 86 -30 86 -67s-23 -54 -49 -54
c-25 0 -45 14 -45 42c0 18 8 32 21 38c11 5 16 4 16 10s-8 8 -16 8c-50 0 -72 -53 -92 -140c-1 -6 -2 -9 -2 -12c0 -5 3 -5 10 -5h60c10 0 15 -5 15 -15c0 -11 -5 -16 -16 -16h-65c-5 0 -13 -9 -13 -11c0 -1 -1 -2 -1 -3c-24 -84 -46 -146 -75 -207
c-55 -113 -102 -164 -178 -164c-42 0 -75 23 -75 67c0 31 22 55 52 55c27 0 45 -15 45 -41c0 -16 -8 -29 -20 -37c-15 -10 -24 -5 -24 -13c0 -5 5 -9 18 -9c40 0 58 32 86 130l63 219c1 5 2 8 2 10c0 4 -2 4 -8 4h-58c-10 0 -15 5 -15 15c0 11 5 16 16 16zM720 268
c7 0 13 -4 13 -11c0 -8 -5 -14 -13 -22l-160 -158c-5 -5 -12 -17 -12 -17c3 0 9 6 22 6c39 0 48 -35 78 -35c9 0 16 4 20 11c2 4 4 8 4 10s-1 3 -3 3c-3 0 -6 -5 -16 -5c-14 0 -27 11 -27 30c0 21 15 35 33 35s36 -13 36 -44c0 -41 -26 -81 -82 -81c-49 0 -69 31 -97 31
c-8 0 -16 -4 -24 -10c-5 -4 -11 -12 -20 -12c-8 0 -13 5 -13 12c0 8 4 12 12 20l154 156c1 1 23 23 19 23c-6 0 -20 -7 -38 -7c-29 0 -46 3 -50 3c-6 0 -8 -6 -11 -12l-10 -21c-4 -9 -8 -15 -15 -15c-6 0 -11 3 -11 10c0 4 1 9 3 15l24 70c3 9 8 13 18 13c12 0 41 -9 101 -9
c14 0 30 2 41 5s16 6 24 6z" />
    <glyph glyph-name="uniE53A" unicode="&#xe524;&#xe522;&#xe525;&#xe520;" horiz-adv-x="1075" 
d="M147 273c51 0 82 -23 82 -60c0 -19 -13 -38 -37 -38c-20 0 -35 12 -35 32c0 11 4 19 10 24c7 5 12 5 12 9c0 7 -14 11 -31 11c-31 0 -43 -17 -43 -33c0 -19 12 -30 48 -57c39 -29 49 -50 49 -78c0 -58 -50 -93 -115 -93c-53 0 -87 31 -87 64c0 27 17 47 41 47
c19 0 36 -13 36 -33c0 -13 -5 -23 -14 -29c-11 -7 -17 -5 -17 -10c0 -7 17 -15 42 -15c32 0 51 23 51 45c0 20 -9 33 -38 53c-35 24 -54 43 -54 78c0 53 41 83 100 83zM256 264h58c14 0 15 0 20 15c33 96 87 165 184 165c63 0 86 -30 86 -67s-23 -54 -49 -54
c-25 0 -45 14 -45 42c0 18 8 32 21 38c11 5 16 4 16 10s-8 8 -16 8c-50 0 -72 -53 -92 -140c-1 -6 -2 -9 -2 -12c0 -5 3 -5 10 -5h60c10 0 15 -5 15 -15c0 -11 -5 -16 -16 -16h-65c-5 0 -13 -9 -13 -11c0 -1 -1 -2 -1 -3c-24 -84 -46 -146 -75 -207
c-55 -113 -102 -164 -178 -164c-42 0 -75 23 -75 67c0 31 22 55 52 55c27 0 45 -15 45 -41c0 -16 -8 -29 -20 -37c-15 -10 -24 -5 -24 -13c0 -5 5 -9 18 -9c40 0 58 32 86 130l63 219c1 5 2 8 2 10c0 4 -2 4 -8 4h-58c-10 0 -15 5 -15 15c0 11 5 16 16 16zM726 268
c7 0 13 -4 13 -11c0 -8 -5 -14 -13 -22l-160 -158c-5 -5 -12 -17 -12 -17c3 0 9 6 22 6c39 0 48 -35 78 -35c9 0 16 4 20 11c2 4 4 8 4 10s-1 3 -3 3c-3 0 -6 -5 -16 -5c-14 0 -27 11 -27 30c0 21 15 35 33 35s36 -13 36 -44c0 -41 -26 -81 -82 -81c-49 0 -69 31 -97 31
c-8 0 -16 -4 -24 -10c-5 -4 -11 -12 -20 -12c-8 0 -13 5 -13 12c0 8 4 12 12 20l154 156c1 1 23 23 19 23c-6 0 -20 -7 -38 -7c-29 0 -46 3 -50 3c-6 0 -8 -6 -11 -12l-10 -21c-4 -9 -8 -15 -15 -15c-6 0 -11 3 -11 10c0 4 1 9 3 15l24 70c3 9 8 13 18 13c12 0 41 -9 101 -9
c14 0 30 2 41 5s16 6 24 6zM984 274c56 0 92 -31 92 -89c0 -95 -78 -195 -174 -195c-17 0 -30 2 -44 9c-16 8 -19 18 -24 18s-7 -7 -9 -12l-45 -112c-1 -3 -2 -6 -2 -7c0 -3 3 -3 9 -3h40c8 0 12 -4 12 -12c0 -9 -4 -13 -13 -13h-193c-8 0 -12 4 -12 12c0 9 4 13 13 13h31
c10 0 12 2 15 10l123 305c3 7 6 17 6 25c0 7 -3 12 -11 12c-18 0 -38 -26 -67 -76c-5 -9 -9 -15 -16 -15c-6 0 -11 4 -11 11c0 5 2 10 7 19c31 57 63 99 122 99c26 0 41 -9 48 -21c9 -17 6 -24 11 -24c4 0 7 8 21 20c18 16 40 26 71 26zM957 237c-24 0 -50 -29 -64 -63
l-20 -49c-11 -28 -19 -48 -19 -69s8 -32 25 -32c48 0 101 127 101 176c0 22 -6 37 -23 37z" />
    <glyph glyph-name="uniE53B" unicode="&#xe524;&#xe522;&#xe522;&#xe525;" horiz-adv-x="964" 
d="M951 235l-160 -158c-5 -5 -12 -17 -12 -17c3 0 9 6 22 6c39 0 48 -35 78 -35c9 0 16 4 20 11c2 4 4 8 4 10s-1 3 -3 3c-3 0 -6 -5 -16 -5c-14 0 -27 11 -27 30c0 21 15 35 33 35s36 -13 36 -44c0 -41 -26 -81 -82 -81c-49 0 -69 31 -97 31c-8 0 -16 -4 -24 -10
c-5 -4 -11 -12 -20 -12c-8 0 -13 5 -13 12c0 8 4 12 12 20l154 156c1 1 23 23 19 23c-6 0 -20 -7 -38 -7c-29 0 -46 3 -50 3c-6 0 -8 -6 -11 -12l-10 -21c-4 -9 -8 -15 -15 -15c-6 0 -11 3 -11 10c0 4 1 9 3 15l24 70c3 9 8 13 18 13c12 0 41 -9 101 -9c14 0 30 2 41 5
s16 6 24 6c7 0 13 -4 13 -11c0 -8 -5 -14 -13 -22zM202 83c0 -58 -50 -93 -115 -93c-53 0 -87 31 -87 64c0 27 17 47 41 47c19 0 36 -13 36 -33c0 -13 -5 -23 -14 -29c-11 -7 -17 -5 -17 -10c0 -7 17 -15 42 -15c32 0 51 23 51 45c0 20 -9 33 -38 53c-35 24 -54 43 -54 78
c0 53 41 83 100 83c51 0 82 -23 82 -60c0 -19 -13 -38 -37 -38c-20 0 -35 12 -35 32c0 11 4 19 10 24c7 5 12 5 12 9c0 7 -14 11 -31 11c-31 0 -43 -17 -43 -33c0 -19 12 -30 48 -57c39 -29 49 -50 49 -78zM688 264h44c10 0 15 -5 15 -15c0 -11 -5 -16 -16 -16h-49
c-5 0 -13 -9 -13 -11c0 -1 -1 -2 -1 -3c-24 -84 -46 -146 -75 -207c-55 -113 -102 -164 -178 -164c-42 0 -72 23 -72 62c0 31 18 52 49 52c24 0 41 -15 41 -39c0 -16 -5 -27 -17 -35c-11 -7 -15 -9 -15 -13c0 -3 2 -5 10 -5c40 0 58 32 86 130l63 219c1 5 2 8 2 10
c0 4 -2 4 -8 4h-112c-5 0 -13 -9 -13 -11c0 -1 -1 -2 -1 -3c-24 -84 -46 -146 -75 -207c-55 -113 -102 -164 -178 -164c-42 0 -75 23 -75 67c0 31 22 55 52 55c27 0 45 -15 45 -41c0 -16 -8 -29 -20 -37c-15 -10 -24 -5 -24 -13c0 -5 5 -9 18 -9c40 0 58 32 86 130l63 219
c1 5 2 8 2 10c0 4 -2 4 -8 4h-58c-10 0 -15 5 -15 15c0 11 5 16 16 16h58c14 0 15 0 20 15c33 97 80 165 178 165c57 0 77 -29 77 -55c0 -33 -17 -51 -44 -51c-24 0 -42 12 -42 41c0 27 18 31 18 38c0 3 -3 4 -8 4c-39 0 -54 -53 -74 -140c-1 -6 -2 -9 -2 -12
c0 -5 3 -5 10 -5h107c14 0 15 0 20 15c33 96 87 165 186 165c61 0 84 -30 84 -67s-23 -54 -49 -54c-25 0 -45 14 -45 42c0 18 8 32 21 38c11 5 16 4 16 10s-8 8 -16 8c-50 0 -72 -53 -92 -140c-1 -6 -2 -9 -2 -12c0 -5 3 -5 10 -5z" />
    <glyph glyph-name="uniE53C" unicode="&#xe523;&#xe522;" horiz-adv-x="625" 
d="M6 17l73 181c3 7 6 17 6 25c0 7 -3 12 -11 12c-18 0 -38 -26 -68 -78c-4 -8 -8 -13 -15 -13c-6 0 -11 4 -11 11c0 5 2 10 7 19c32 60 65 99 114 99c20 0 34 -10 40 -23c7 -16 3 -21 8 -21c4 0 5 4 14 14c15 17 36 31 62 31c37 0 52 -24 52 -53c0 -35 -18 -55 -42 -55
c-21 0 -36 12 -36 32c0 28 22 31 22 40c0 4 -4 6 -10 6c-22 0 -54 -37 -67 -70l-65 -162c-4 -10 -7 -12 -16 -12h-49c-8 0 -11 2 -11 6c0 3 1 6 3 11zM303 264h32c14 0 15 0 20 15c33 96 87 165 184 165c63 0 86 -30 86 -67s-23 -54 -49 -54c-25 0 -45 14 -45 42
c0 18 8 32 21 38c11 5 16 4 16 10s-8 8 -16 8c-50 0 -72 -53 -92 -140c-1 -6 -2 -9 -2 -12c0 -5 3 -5 10 -5h60c10 0 15 -5 15 -15c0 -11 -5 -16 -16 -16h-65c-5 0 -13 -9 -13 -11c0 -1 -1 -2 -1 -3c-24 -84 -46 -146 -75 -207c-55 -113 -102 -164 -178 -164
c-42 0 -75 23 -75 67c0 31 22 55 52 55c27 0 45 -15 45 -41c0 -16 -8 -29 -20 -37c-15 -10 -24 -5 -24 -13c0 -5 5 -9 18 -9c40 0 58 32 86 130l63 219c1 5 2 8 2 10c0 4 -2 4 -8 4h-32c-10 0 -15 5 -15 15c0 11 5 16 16 16z" />
    <glyph glyph-name="uniE53D" unicode="&#xe523;&#xe522;&#xe525;" horiz-adv-x="744" 
d="M731 235l-160 -158c-5 -5 -12 -17 -12 -17c3 0 9 6 22 6c39 0 48 -35 78 -35c9 0 16 4 20 11c2 4 4 8 4 10s-1 3 -3 3c-3 0 -6 -5 -16 -5c-14 0 -27 11 -27 30c0 21 15 35 33 35s36 -13 36 -44c0 -41 -26 -81 -82 -81c-49 0 -69 31 -97 31c-8 0 -16 -4 -24 -10
c-5 -4 -11 -12 -20 -12c-8 0 -13 5 -13 12c0 8 4 12 12 20l154 156c1 1 23 23 19 23c-6 0 -20 -7 -38 -7c-29 0 -46 3 -50 3c-6 0 -8 -6 -11 -12l-10 -21c-4 -9 -8 -15 -15 -15c-6 0 -11 3 -11 10c0 4 1 9 3 15l24 70c3 9 8 13 18 13c12 0 41 -9 101 -9c14 0 30 2 41 5
s16 6 24 6c7 0 13 -4 13 -11c0 -8 -5 -14 -13 -22zM6 17l73 181c3 7 6 17 6 25c0 7 -3 12 -11 12c-18 0 -38 -26 -68 -78c-4 -8 -8 -13 -15 -13c-6 0 -11 4 -11 11c0 5 2 10 7 19c32 60 65 99 114 99c20 0 34 -10 40 -23c7 -16 3 -21 8 -21c4 0 5 4 14 14c15 17 36 31 62 31
c37 0 52 -24 52 -53c0 -35 -18 -55 -42 -55c-21 0 -36 12 -36 32c0 28 22 31 22 40c0 4 -4 6 -10 6c-22 0 -54 -37 -67 -70l-65 -162c-4 -10 -7 -12 -16 -12h-49c-8 0 -11 2 -11 6c0 3 1 6 3 11zM468 264h44c10 0 15 -5 15 -15c0 -11 -5 -16 -16 -16h-49
c-5 0 -13 -9 -13 -11c0 -1 -1 -2 -1 -3c-24 -84 -46 -146 -75 -207c-55 -113 -102 -164 -178 -164c-42 0 -75 23 -75 67c0 31 22 55 52 55c27 0 45 -15 45 -41c0 -16 -8 -29 -20 -37c-15 -10 -24 -5 -24 -13c0 -5 5 -9 18 -9c40 0 58 32 86 130l63 219c1 5 2 8 2 10
c0 4 -2 4 -8 4h-32c-10 0 -15 5 -15 15c0 11 5 16 16 16h32c14 0 15 0 20 15c33 96 87 165 186 165c61 0 84 -30 84 -67s-23 -54 -49 -54c-25 0 -45 14 -45 42c0 18 8 32 21 38c11 5 16 4 16 10s-8 8 -16 8c-50 0 -72 -53 -92 -140c-1 -6 -2 -9 -2 -12c0 -5 3 -5 10 -5z" />
    <glyph glyph-name="uniE062_uniE885" unicode="&#xe062;&#xe885;" horiz-adv-x="684" 
d="M401 -541c5 0 8 -4 8 -9c0 -6 -3 -11 -12 -19c-28 -26 -68 -51 -121 -51c-12 0 -25 2 -35 3c-9 2 -13 2 -16 -7l-14 -41c-3 -9 -1 -14 13 -10c11 4 26 7 42 7c57 0 95 -22 95 -75c0 -84 -62 -141 -145 -141c-63 0 -92 29 -92 65c0 29 17 45 42 45c21 0 34 -11 34 -32
c0 -17 -9 -26 -22 -31c-5 -2 -10 -4 -10 -10c0 -10 14 -14 32 -14c59 0 88 73 88 117c0 25 -11 46 -42 46c-18 0 -35 -11 -43 -17c-6 -4 -12 -7 -21 -7c-10 0 -16 7 -16 16c0 4 0 6 3 15l45 132c3 10 10 15 20 15c6 0 11 -1 24 -5c11 -3 29 -7 54 -7c26 0 49 3 67 9
c12 3 17 6 22 6zM252 262c173 0 279 -116 279 -290c0 -131 -52 -253 -139 -347c-106 -114 -234 -190 -367 -255c-6 -3 -12 -5 -17 -5c-9 0 -13 6 -13 12c0 8 6 13 15 18c124 71 227 156 287 249c62 96 84 216 84 319c0 157 -46 261 -152 261c-102 0 -162 -73 -162 -113
c0 -10 3 -18 16 -18s23 7 50 7c49 0 96 -40 96 -104c0 -62 -43 -106 -106 -106c-81 0 -123 69 -123 149c0 96 78 223 252 223zM630 -71c31 0 54 -23 54 -54s-23 -54 -54 -54s-54 23 -54 54s23 54 54 54zM629 180c31 0 55 -24 55 -55s-24 -55 -55 -55s-55 24 -55 55
s24 55 55 55z" />
    <glyph glyph-name="uniE058_uniE880" unicode="&#xe058;&#xe880;" horiz-adv-x="671" 
d="M311 -341c-40 0 -75 -78 -98 -149c-20 -61 -34 -149 9 -149c41 0 76 78 99 149c20 62 34 149 -10 149zM430 103l49 -285c2 -12 4 -12 16 -6c56 28 94 79 94 142c0 88 -67 156 -148 163c-12 1 -13 -2 -11 -14zM419 650c78 78 111 142 111 211c0 55 -27 82 -60 82
c-61 0 -133 -96 -133 -252c0 -32 2 -66 6 -92c2 -13 6 -14 13 -8c23 20 47 43 63 59zM361 262l-21 128c-2 11 -4 12 -14 4c-47 -38 -93 -75 -153 -142c-83 -94 -93 -173 -93 -232c0 -139 113 -236 288 -236c20 0 40 2 56 5c15 3 16 3 14 14l-50 298c-2 11 -4 12 -20 8
c-61 -17 -100 -60 -100 -117c0 -46 30 -89 72 -107c7 -3 15 -6 15 -13c0 -6 -4 -11 -12 -11c-7 0 -19 3 -27 6c-68 23 -115 87 -115 177c0 85 57 164 145 194c18 6 18 5 15 24zM376 415l25 -145c3 -18 3 -18 29 -18c147 0 241 -113 241 -241c0 -113 -67 -198 -168 -238
c-14 -6 -15 -5 -13 -17c11 -62 29 -157 29 -214c0 -162 -119 -209 -244 -209c-37 0 -69 2 -95 12c-62 24 -67 103 -44 176c32 102 98 162 175 162c102 0 114 -97 86 -184c-19 -61 -51 -107 -89 -134c-2 -1 -2 -3 -2 -5c0 -6 16 -5 40 3c27 9 129 33 129 181
c0 47 -15 134 -27 201c-2 12 -4 11 -15 9c-20 -4 -46 -6 -69 -6c-245 0 -364 165 -364 339c0 107 43 200 112 286c52 64 121 125 185 178c12 10 11 12 9 24c-7 41 -14 106 -14 164c0 104 24 229 98 311c20 22 51 48 65 48c11 0 37 -28 52 -50c41 -60 65 -146 65 -233
c0 -113 -50 -232 -134 -324c-19 -21 -40 -42 -56 -57c-6 -6 -8 -7 -6 -19z" />
    <glyph glyph-name="uniE058_uniE881_uniE880" unicode="&#xe058;&#xe881;&#xe880;" horiz-adv-x="756" 
d="M394 -341c-40 0 -75 -78 -98 -149c-20 -61 -34 -149 9 -149c41 0 76 78 99 149c20 62 34 149 -10 149zM513 103l49 -285c2 -12 4 -12 16 -6c56 28 94 79 94 142c0 88 -67 156 -148 163c-12 1 -13 -2 -11 -14zM45 -436l96 108c4 5 8 8 14 8c10 0 16 -8 27 -8
c10 0 21 8 31 8c6 0 9 -4 9 -9c0 -3 -1 -6 -3 -10l-86 -276c-3 -7 -4 -12 3 -12l30 -3c8 -1 13 -5 13 -13c0 -7 -5 -12 -14 -12h-151c-10 0 -14 5 -14 12c0 8 4 12 12 13l32 3c7 0 8 3 11 9l61 192c1 4 2 7 2 10c0 4 -2 6 -5 6c-4 0 -7 -2 -12 -8l-32 -37
c-6 -5 -10 -9 -17 -9c-8 0 -14 7 -14 13c0 5 2 10 7 15zM502 650c78 78 111 142 111 211c0 55 -27 82 -60 82c-61 0 -133 -96 -133 -252c0 -32 2 -66 6 -92c2 -13 6 -14 13 -8c23 20 47 43 63 59zM444 262l-21 128c-2 11 -4 12 -14 4c-47 -38 -93 -75 -153 -142
c-83 -94 -93 -173 -93 -232c0 -139 113 -236 288 -236c20 0 40 2 56 5c15 3 16 3 14 14l-50 298c-2 11 -4 12 -20 8c-61 -17 -100 -60 -100 -117c0 -46 30 -89 72 -107c7 -3 15 -6 15 -13c0 -6 -4 -11 -12 -11c-7 0 -19 3 -27 6c-68 23 -115 87 -115 177
c0 85 57 164 145 194c18 6 18 5 15 24zM459 415l25 -145c3 -18 3 -18 29 -18c147 0 241 -113 241 -241c0 -113 -67 -198 -168 -238c-14 -6 -15 -5 -13 -17c11 -62 29 -157 29 -214c0 -162 -119 -209 -244 -209c-37 0 -69 2 -95 12c-62 24 -67 103 -44 176
c32 102 98 162 175 162c102 0 114 -97 86 -184c-19 -61 -51 -107 -89 -134c-2 -1 -2 -3 -2 -5c0 -6 16 -5 40 3c27 9 129 33 129 181c0 47 -15 134 -27 201c-2 12 -4 11 -15 9c-20 -4 -46 -6 -69 -6c-245 0 -364 165 -364 339c0 107 43 200 112 286c52 64 121 125 185 178
c12 10 11 12 9 24c-7 41 -14 106 -14 164c0 104 24 229 98 311c20 22 51 48 65 48c11 0 37 -28 52 -50c41 -60 65 -146 65 -233c0 -113 -50 -232 -134 -324c-19 -21 -40 -42 -56 -57c-6 -6 -8 -7 -6 -19z" />
    <glyph glyph-name="uniE058_uniE881_uniE881" unicode="&#xe058;&#xe881;&#xe881;" horiz-adv-x="692" 
d="M136 -627l30 -3c8 -1 13 -5 13 -13c0 -7 -5 -12 -14 -12h-151c-10 0 -14 5 -14 12c0 8 4 12 12 13l32 3c7 0 8 3 11 9l61 192c1 4 2 7 2 10c0 4 -2 6 -5 6c-4 0 -7 -2 -12 -8l-32 -37c-6 -5 -10 -9 -17 -9c-8 0 -14 7 -14 13c0 5 2 10 7 15l96 108c4 5 8 8 14 8
c10 0 16 -8 27 -8c10 0 21 8 31 8c6 0 9 -4 9 -9c0 -3 -1 -6 -3 -10l-86 -276c-3 -7 -4 -12 3 -12zM450 103l49 -285c2 -12 4 -12 16 -6c56 28 94 79 94 142c0 88 -67 156 -148 163c-12 1 -13 -2 -11 -14zM381 262l-21 128c-2 11 -4 12 -14 4c-47 -38 -93 -75 -153 -142
c-83 -94 -93 -173 -93 -232c0 -139 113 -236 288 -236c20 0 40 2 56 5c15 3 16 3 14 14l-50 298c-2 11 -4 12 -20 8c-61 -17 -100 -60 -100 -117c0 -46 30 -89 72 -107c7 -3 15 -6 15 -13c0 -6 -4 -11 -12 -11c-7 0 -19 3 -27 6c-68 23 -115 87 -115 177
c0 85 57 164 145 194c18 6 18 5 15 24zM490 943c-61 0 -133 -96 -133 -252c0 -32 2 -66 6 -92c2 -13 6 -14 13 -8c23 20 47 43 63 59c78 78 111 142 111 211c0 55 -27 82 -60 82zM396 415l25 -145c3 -18 3 -18 29 -18c147 0 241 -113 241 -241c0 -113 -67 -198 -168 -238
c-14 -6 -15 -5 -13 -17c11 -62 29 -157 29 -214c0 -170 -90 -198 -168 -198c-84 0 -142 1 -158 1c-9 1 -13 6 -13 12c0 8 4 12 12 13l32 3c7 0 8 3 11 9l61 192c1 4 2 7 2 10c0 4 -2 6 -5 6c-4 0 -7 -2 -12 -8l-32 -37c-6 -5 -10 -9 -17 -9c-8 0 -14 7 -14 13c0 5 2 10 7 15
l96 108c4 5 8 8 14 8c10 0 16 -8 27 -8c10 0 21 8 31 8c6 0 9 -4 9 -9c0 -3 -1 -6 -3 -10l-86 -276c-3 -7 -4 -12 3 -12l20 -2c30 -1 63 4 84 22c27 23 55 63 55 151c0 47 -15 134 -27 201c-2 12 -4 11 -15 9c-20 -4 -46 -6 -69 -6c-245 0 -364 165 -364 339
c0 107 43 200 112 286c52 64 121 125 185 178c12 10 11 12 9 24c-7 41 -14 106 -14 164c0 104 24 229 98 311c20 22 51 48 65 48c11 0 37 -28 52 -50c41 -60 65 -146 65 -233c0 -113 -50 -232 -134 -324c-19 -21 -40 -42 -56 -57c-6 -6 -8 -7 -6 -19z" />
    <glyph glyph-name="uniE058_uniE881_uniE882" unicode="&#xe058;&#xe881;&#xe882;" horiz-adv-x="716" 
d="M136 -627l30 -3c8 -1 13 -5 13 -13c0 -7 -5 -12 -14 -12h-151c-10 0 -14 5 -14 12c0 8 4 12 12 13l32 3c7 0 8 3 11 9l61 192c1 4 2 7 2 10c0 4 -2 6 -5 6c-4 0 -7 -2 -12 -8l-32 -37c-6 -5 -10 -9 -17 -9c-8 0 -14 7 -14 13c0 5 2 10 7 15l96 108c4 5 8 8 14 8
c10 0 16 -8 27 -8c10 0 21 8 31 8c6 0 9 -4 9 -9c0 -3 -1 -6 -3 -10l-86 -276c-3 -7 -4 -12 3 -12zM475 103l49 -285c2 -12 4 -12 16 -6c56 28 94 79 94 142c0 88 -67 156 -148 163c-12 1 -13 -2 -11 -14zM406 262l-21 128c-2 11 -4 12 -14 4c-47 -38 -93 -75 -153 -142
c-83 -94 -93 -173 -93 -232c0 -139 113 -236 288 -236c20 0 40 2 56 5c15 3 16 3 14 14l-50 298c-2 11 -4 12 -20 8c-61 -17 -100 -60 -100 -117c0 -46 30 -89 72 -107c7 -3 15 -6 15 -13c0 -6 -4 -11 -12 -11c-7 0 -19 3 -27 6c-68 23 -115 87 -115 177
c0 85 57 164 145 194c18 6 18 5 15 24zM515 943c-61 0 -133 -96 -133 -252c0 -32 2 -66 6 -92c2 -13 6 -14 13 -8c23 20 47 43 63 59c78 78 111 142 111 211c0 55 -27 82 -60 82zM421 415l25 -145c3 -18 3 -18 29 -18c147 0 241 -113 241 -241c0 -113 -67 -198 -168 -238
c-14 -6 -15 -5 -13 -17c11 -62 29 -157 29 -214c0 -174 -132 -204 -190 -204c-30 0 -55 5 -80 19c-19 11 -38 22 -51 22s-19 -8 -23 -20s-9 -17 -18 -17s-14 6 -14 14c0 4 1 7 2 14c15 58 47 103 123 133c70 29 90 73 90 115c0 32 -23 39 -47 39c-31 0 -48 -14 -48 -25
c0 -5 5 -11 10 -17c6 -5 11 -13 11 -27c0 -24 -18 -45 -43 -45c-27 0 -38 19 -38 39c0 51 47 101 119 101c68 0 108 -30 108 -78c0 -79 -63 -113 -135 -129c-34 -8 -65 -22 -85 -44c-7 -8 -9 -15 -4 -15c4 0 8 2 15 5c11 5 23 7 36 7c29 0 51 -17 77 -17c16 0 28 6 38 20
c5 8 9 10 14 10c6 0 13 -4 13 -10c0 -4 -1 -7 -3 -13c-6 -16 -11 -29 -17 -40c-1 -2 -1 -3 -1 -5c0 -8 14 -1 22 4c36 22 75 66 75 166c0 47 -15 134 -27 201c-2 12 -4 11 -15 9c-20 -4 -46 -6 -69 -6c-245 0 -364 165 -364 339c0 107 43 200 112 286c52 64 121 125 185 178
c12 10 11 12 9 24c-7 41 -14 106 -14 164c0 104 24 229 98 311c20 22 51 48 65 48c11 0 37 -28 52 -50c41 -60 65 -146 65 -233c0 -113 -50 -232 -134 -324c-19 -21 -40 -42 -56 -57c-6 -6 -8 -7 -6 -19z" />
    <glyph glyph-name="uniE058_uniE881_uniE883" unicode="&#xe058;&#xe881;&#xe883;" horiz-adv-x="696" 
d="M136 -627l30 -3c8 -1 13 -5 13 -13c0 -7 -5 -12 -14 -12h-151c-10 0 -14 5 -14 12c0 8 4 12 12 13l32 3c7 0 8 3 11 9l61 192c1 4 2 7 2 10c0 4 -2 6 -5 6c-4 0 -7 -2 -12 -8l-32 -37c-6 -5 -10 -9 -17 -9c-8 0 -14 7 -14 13c0 5 2 10 7 15l96 108c4 5 8 8 14 8
c10 0 16 -8 27 -8c10 0 21 8 31 8c6 0 9 -4 9 -9c0 -3 -1 -6 -3 -10l-86 -276c-3 -7 -4 -12 3 -12zM455 103l49 -285c2 -12 4 -12 16 -6c56 28 94 79 94 142c0 88 -67 156 -148 163c-12 1 -13 -2 -11 -14zM386 262l-21 128c-2 11 -4 12 -14 4c-47 -38 -93 -75 -153 -142
c-83 -94 -93 -173 -93 -232c0 -139 113 -236 288 -236c20 0 40 2 56 5c15 3 16 3 14 14l-50 298c-2 11 -4 12 -20 8c-61 -17 -100 -60 -100 -117c0 -46 30 -89 72 -107c7 -3 15 -6 15 -13c0 -6 -4 -11 -12 -11c-7 0 -19 3 -27 6c-68 23 -115 87 -115 177
c0 85 57 164 145 194c18 6 18 5 15 24zM495 943c-61 0 -133 -96 -133 -252c0 -32 2 -66 6 -92c2 -13 6 -14 13 -8c23 20 47 43 63 59c78 78 111 142 111 211c0 55 -27 82 -60 82zM401 415l25 -145c3 -18 3 -18 29 -18c147 0 241 -113 241 -241c0 -113 -67 -198 -168 -238
c-14 -6 -15 -5 -13 -17c11 -62 29 -157 29 -214c0 -162 -119 -208 -238 -208c-25 0 -47 3 -69 10c-36 11 -52 36 -52 63c0 30 19 52 44 52c19 0 35 -10 35 -32c0 -24 -13 -35 -23 -39c-7 -4 -12 -7 -12 -11c0 -9 14 -16 33 -16c54 0 82 55 82 95c0 28 -16 49 -50 49h-8
c-12 0 -18 5 -18 13s6 14 18 14h10c52 0 82 33 82 81c0 20 -11 42 -46 42c-19 0 -30 -7 -30 -13c0 -1 5 -6 11 -12c5 -5 8 -12 8 -22c0 -25 -18 -42 -41 -42c-20 0 -34 15 -34 38c2 49 48 79 105 79c56 0 100 -30 100 -76c0 -36 -30 -65 -68 -80c-7 -3 -11 -4 -11 -8
c0 -5 4 -6 10 -9c24 -11 35 -32 35 -56c0 -28 -11 -53 -28 -72c-3 -4 -5 -7 -5 -10c0 -5 6 -6 29 7c16 9 87 42 87 165c0 47 -15 134 -27 201c-2 12 -4 11 -15 9c-20 -4 -46 -6 -69 -6c-245 0 -364 165 -364 339c0 107 43 200 112 286c52 64 121 125 185 178
c12 10 11 12 9 24c-7 41 -14 106 -14 164c0 104 24 229 98 311c20 22 51 48 65 48c11 0 37 -28 52 -50c41 -60 65 -146 65 -233c0 -113 -50 -232 -134 -324c-19 -21 -40 -42 -56 -57c-6 -6 -8 -7 -6 -19z" />
    <glyph glyph-name="uniE058_uniE881_uniE884" unicode="&#xe058;&#xe881;&#xe884;" horiz-adv-x="731" 
d="M489 103l49 -285c2 -12 4 -12 16 -6c56 28 94 79 94 142c0 88 -67 156 -148 163c-12 1 -13 -2 -11 -14zM45 -436l96 108c4 5 8 8 14 8c10 0 16 -8 27 -8c10 0 21 8 31 8c6 0 9 -4 9 -9c0 -3 -1 -6 -3 -10l-86 -276c-3 -7 -4 -12 3 -12l30 -3c8 -1 13 -5 13 -13
c0 -7 -5 -12 -14 -12h-151c-10 0 -14 5 -14 12c0 8 4 12 12 13l32 3c7 0 8 3 11 9l61 192c1 4 2 7 2 10c0 4 -2 6 -5 6c-4 0 -7 -2 -12 -8l-32 -37c-6 -5 -10 -9 -17 -9c-8 0 -14 7 -14 13c0 5 2 10 7 15zM478 650c78 78 111 142 111 211c0 55 -27 82 -60 82
c-61 0 -133 -96 -133 -252c0 -32 2 -66 6 -92c2 -13 6 -14 13 -8c23 20 47 43 63 59zM420 262l-21 128c-2 11 -4 12 -14 4c-47 -38 -93 -75 -153 -142c-83 -94 -93 -173 -93 -232c0 -139 113 -236 288 -236c20 0 40 2 56 5c15 3 16 3 14 14l-50 298c-2 11 -4 12 -20 8
c-61 -17 -100 -60 -100 -117c0 -46 30 -89 72 -107c7 -3 15 -6 15 -13c0 -6 -4 -11 -12 -11c-7 0 -19 3 -27 6c-68 23 -115 87 -115 177c0 85 57 164 145 194c18 6 18 5 15 24zM413 -537h26c8 0 13 -5 13 -12c0 -8 -5 -13 -13 -13h-31c-7 0 -8 -3 -10 -8l-13 -45
c-3 -7 -4 -12 2 -12l15 -1c26 -1 59 5 78 20c28 22 54 64 54 152c0 47 -15 134 -27 201c-2 12 -4 11 -15 9c-20 -4 -46 -6 -69 -6c-245 0 -364 165 -364 339c0 107 43 200 112 286c52 64 121 125 185 178c12 10 11 12 9 24c-7 41 -14 106 -14 164c0 104 24 229 98 311
c20 22 51 48 65 48c11 0 37 -28 52 -50c41 -60 65 -146 65 -233c0 -113 -50 -232 -134 -324c-19 -21 -40 -42 -56 -57c-6 -6 -8 -7 -6 -19l25 -145c3 -18 3 -18 29 -18c147 0 241 -113 241 -241c0 -113 -67 -198 -168 -238c-14 -6 -15 -5 -13 -17c11 -62 29 -157 29 -214
c0 -170 -90 -198 -168 -198c-57 0 -95 1 -119 1h-25c-10 0 -14 5 -14 12c0 8 4 12 12 13l32 3c7 0 8 3 11 9l15 49c1 5 -1 7 -4 7h-123c-10 0 -16 4 -16 11c0 5 4 10 9 16c35 35 64 66 90 104c23 33 42 73 50 101c1 5 4 10 11 10c12 0 26 -8 43 -8c16 0 30 8 43 8
c7 0 10 -3 10 -8c0 -2 -1 -5 -4 -10c-44 -57 -122 -133 -191 -188c-4 -3 -5 -5 -5 -7s1 -4 7 -4h81c6 0 8 2 9 7l16 51c2 7 4 10 10 17l58 63c7 8 12 12 20 12s13 -3 13 -9c0 -3 -2 -10 -4 -17l-36 -117c-2 -5 0 -7 4 -7z" />
    <glyph glyph-name="uniE058_uniE881_uniE885" unicode="&#xe058;&#xe881;&#xe885;" horiz-adv-x="713" 
d="M473 103l49 -285c2 -12 4 -12 16 -6c56 28 94 79 94 142c0 88 -67 156 -148 163c-12 1 -13 -2 -11 -14zM45 -436l96 108c4 5 8 8 14 8c10 0 16 -8 27 -8c10 0 21 8 31 8c6 0 9 -4 9 -9c0 -3 -1 -6 -3 -10l-86 -276c-3 -7 -4 -12 3 -12l30 -3c8 -1 13 -5 13 -13
c0 -7 -5 -12 -14 -12h-151c-10 0 -14 5 -14 12c0 8 4 12 12 13l32 3c7 0 8 3 11 9l61 192c1 4 2 7 2 10c0 4 -2 6 -5 6c-4 0 -7 -2 -12 -8l-32 -37c-6 -5 -10 -9 -17 -9c-8 0 -14 7 -14 13c0 5 2 10 7 15zM462 650c78 78 111 142 111 211c0 55 -27 82 -60 82
c-61 0 -133 -96 -133 -252c0 -32 2 -66 6 -92c2 -13 6 -14 13 -8c23 20 47 43 63 59zM404 262l-21 128c-2 11 -4 12 -14 4c-47 -38 -93 -75 -153 -142c-83 -94 -93 -173 -93 -232c0 -139 113 -236 288 -236c20 0 40 2 56 5c15 3 16 3 14 14l-50 298c-2 11 -4 12 -20 8
c-61 -17 -100 -60 -100 -117c0 -46 30 -89 72 -107c7 -3 15 -6 15 -13c0 -6 -4 -11 -12 -11c-7 0 -19 3 -27 6c-68 23 -115 87 -115 177c0 85 57 164 145 194c18 6 18 5 15 24zM233 -482l49 145c4 10 10 15 20 15c6 0 11 -1 24 -5c11 -3 29 -7 54 -7c26 0 49 3 67 9
c12 3 17 6 22 6s8 -4 8 -9c0 -6 -3 -11 -12 -19c-28 -26 -68 -51 -121 -51c-12 0 -25 2 -35 3c-9 2 -13 2 -16 -7l-14 -41c-3 -9 -1 -14 13 -10c11 4 24 6 42 6c58 0 95 -21 95 -74c0 -45 -18 -82 -48 -107h1c-4 -4 -7 -6 -7 -9c0 -6 9 -5 33 5c18 8 110 36 110 176
c0 47 -15 134 -27 201c-2 12 -4 11 -15 9c-20 -4 -46 -6 -69 -6c-245 0 -364 165 -364 339c0 107 43 200 112 286c52 64 121 125 185 178c12 10 11 12 9 24c-7 41 -14 106 -14 164c0 104 24 229 98 311c20 22 51 48 65 48c11 0 37 -28 52 -50c41 -60 65 -146 65 -233
c0 -113 -50 -232 -134 -324c-19 -21 -40 -42 -56 -57c-6 -6 -8 -7 -6 -19l25 -145c3 -18 3 -18 29 -18c147 0 241 -113 241 -241c0 -113 -67 -198 -168 -238c-14 -6 -15 -5 -13 -17c11 -62 29 -157 29 -214c0 -162 -119 -208 -238 -208c-35 0 -65 3 -85 11
c-32 12 -47 36 -47 62c0 30 19 52 43 52c19 0 35 -10 35 -32c0 -24 -13 -35 -22 -39c-7 -4 -12 -7 -12 -11c0 -9 14 -16 32 -16c59 0 88 73 88 117c0 25 -11 46 -42 46c-28 0 -46 -19 -54 -27c-6 -7 -11 -10 -17 -10c-8 0 -14 5 -14 14c0 5 1 8 4 17z" />
    <glyph glyph-name="uniE058_uniE881_uniE886" unicode="&#xe058;&#xe881;&#xe886;" horiz-adv-x="737" 
d="M136 -627l30 -3c8 -1 13 -5 13 -13c0 -7 -5 -12 -14 -12h-151c-10 0 -14 5 -14 12c0 8 4 12 12 13l32 3c7 0 8 3 11 9l61 192c1 4 2 7 2 10c0 4 -2 6 -5 6c-4 0 -7 -2 -12 -8l-32 -37c-6 -5 -10 -9 -17 -9c-8 0 -14 7 -14 13c0 5 2 10 7 15l96 108c4 5 8 8 14 8
c10 0 16 -8 27 -8c10 0 21 8 31 8c6 0 9 -4 9 -9c0 -3 -1 -6 -3 -10l-86 -276c-3 -7 -4 -12 3 -12zM498 103l49 -285c2 -12 4 -12 16 -6c56 28 94 79 94 142c0 88 -67 156 -148 163c-12 1 -13 -2 -11 -14zM429 262l-21 128c-2 11 -4 12 -14 4c-47 -38 -93 -75 -153 -142
c-83 -94 -93 -173 -93 -232c0 -139 113 -236 288 -236c20 0 40 2 56 5c15 3 16 3 14 14l-50 298c-2 11 -4 12 -20 8c-61 -17 -100 -60 -100 -117c0 -46 30 -89 72 -107c7 -3 15 -6 15 -13c0 -6 -4 -11 -12 -11c-7 0 -19 3 -27 6c-68 23 -115 87 -115 177
c0 85 57 164 145 194c18 6 18 5 15 24zM538 943c-61 0 -133 -96 -133 -252c0 -32 2 -66 6 -92c2 -13 6 -14 13 -8c23 20 47 43 63 59c78 78 111 142 111 211c0 55 -27 82 -60 82zM311 -639c35 0 69 51 69 114c0 27 -7 44 -33 44c-32 0 -61 -35 -70 -82c-6 -31 -8 -76 34 -76
zM444 415l25 -145c3 -18 3 -18 29 -18c147 0 241 -113 241 -241c0 -113 -67 -198 -168 -238c-14 -6 -15 -5 -13 -17c11 -62 29 -157 29 -214c0 -162 -119 -208 -238 -208c-33 0 -61 3 -85 12c-66 25 -68 106 -41 187c32 100 94 150 172 150c54 0 86 -27 86 -65
c0 -30 -19 -50 -44 -50c-21 0 -38 13 -38 34c0 19 11 33 24 39c4 2 12 6 12 9c0 6 -13 11 -31 10c-53 -2 -87 -61 -106 -115c-5 -16 3 -18 11 -12c18 13 39 19 64 19c52 0 80 -34 80 -77c0 -46 -19 -80 -45 -103c-3 -2 -4 -4 -4 -7c0 -6 5 -6 29 4c18 8 110 35 110 175
c0 47 -15 134 -27 201c-2 12 -4 11 -15 9c-20 -4 -46 -6 -69 -6c-245 0 -364 165 -364 339c0 107 43 200 112 286c52 64 121 125 185 178c12 10 11 12 9 24c-7 41 -14 106 -14 164c0 104 24 229 98 311c20 22 51 48 65 48c11 0 37 -28 52 -50c41 -60 65 -146 65 -233
c0 -113 -50 -232 -134 -324c-19 -21 -40 -42 -56 -57c-6 -6 -8 -7 -6 -19z" />
    <glyph glyph-name="uniE058_uniE881_uniE887" unicode="&#xe058;&#xe881;&#xe887;" horiz-adv-x="725" 
d="M485 103l49 -285c2 -12 4 -12 16 -6c56 28 94 79 94 142c0 88 -67 156 -148 163c-12 1 -13 -2 -11 -14zM45 -436l96 108c4 5 8 8 14 8c10 0 16 -8 27 -8c10 0 21 8 31 8c6 0 9 -4 9 -9c0 -3 -1 -6 -3 -10l-86 -276c-3 -7 -4 -12 3 -12l30 -3c8 -1 13 -5 13 -13
c0 -7 -5 -12 -14 -12h-151c-10 0 -14 5 -14 12c0 8 4 12 12 13l32 3c7 0 8 3 11 9l61 192c1 4 2 7 2 10c0 4 -2 6 -5 6c-4 0 -7 -2 -12 -8l-32 -37c-6 -5 -10 -9 -17 -9c-8 0 -14 7 -14 13c0 5 2 10 7 15zM474 650c78 78 111 142 111 211c0 55 -27 82 -60 82
c-61 0 -133 -96 -133 -252c0 -32 2 -66 6 -92c2 -13 6 -14 13 -8c23 20 47 43 63 59zM416 262l-21 128c-2 11 -4 12 -14 4c-47 -38 -93 -75 -153 -142c-83 -94 -93 -173 -93 -232c0 -139 113 -236 288 -236c20 0 40 2 56 5c15 3 16 3 14 14l-50 298c-2 11 -4 12 -20 8
c-61 -17 -100 -60 -100 -117c0 -46 30 -89 72 -107c7 -3 15 -6 15 -13c0 -6 -4 -11 -12 -11c-7 0 -19 3 -27 6c-68 23 -115 87 -115 177c0 85 57 164 145 194c18 6 18 5 15 24zM431 415l25 -145c3 -18 3 -18 29 -18c147 0 241 -113 241 -241c0 -113 -67 -198 -168 -238
c-14 -6 -15 -5 -13 -17c11 -62 29 -157 29 -214c0 -178 -138 -204 -210 -204c-14 0 -28 1 -39 3c-12 1 -22 8 -35 8c-14 0 -28 -8 -41 -8c-6 0 -8 3 -8 8c0 3 1 5 1 8c19 57 52 111 107 155c38 30 70 51 97 90c4 6 0 11 -8 7c-18 -12 -37 -18 -55 -18c-34 0 -63 16 -89 16
c-21 0 -32 -19 -40 -43c-3 -9 -8 -11 -16 -11c-7 0 -11 3 -11 9c0 2 1 5 1 7l32 97c3 9 8 11 16 11c6 0 12 -2 12 -8c0 -8 -4 -13 -4 -18c0 -3 1 -3 3 -3c3 0 5 3 11 9c14 13 32 23 51 23c45 0 62 -37 91 -37c14 0 22 7 28 22c4 10 8 12 18 12c8 0 14 -2 14 -10
c0 -4 -1 -9 -3 -14c-18 -62 -50 -102 -80 -137c-41 -47 -57 -89 -69 -134c-1 -3 -1 -6 -1 -9c0 -9 7 -10 20 -10c79 0 163 37 163 181c0 47 -15 134 -27 201c-2 12 -4 11 -15 9c-20 -4 -46 -6 -69 -6c-245 0 -364 165 -364 339c0 107 43 200 112 286c52 64 121 125 185 178
c12 10 11 12 9 24c-7 41 -14 106 -14 164c0 104 24 229 98 311c20 22 51 48 65 48c11 0 37 -28 52 -50c41 -60 65 -146 65 -233c0 -113 -50 -232 -134 -324c-19 -21 -40 -42 -56 -57c-6 -6 -8 -7 -6 -19z" />
    <glyph glyph-name="uniE059_uniE882" unicode="&#xe059;&#xe882;" horiz-adv-x="674" 
d="M430 103l49 -285c2 -12 4 -12 16 -6c56 28 94 79 94 142c0 88 -67 156 -148 163c-12 1 -13 -2 -11 -14zM361 262l-21 128c-2 11 -4 12 -14 4c-47 -38 -93 -75 -153 -142c-83 -94 -93 -173 -93 -232c0 -139 113 -236 288 -236c20 0 40 2 56 5c15 3 16 3 14 14l-50 298
c-2 11 -4 12 -20 8c-61 -17 -100 -60 -100 -117c0 -46 30 -89 72 -107c7 -3 15 -6 15 -13c0 -6 -4 -11 -12 -11c-7 0 -19 3 -27 6c-68 23 -115 87 -115 177c0 85 57 164 145 194c18 6 18 5 15 24zM376 415l25 -145c3 -18 3 -18 29 -18c147 0 241 -113 241 -241
c0 -113 -67 -198 -168 -238c-14 -6 -15 -5 -13 -17c11 -62 29 -157 29 -214c0 -170 -130 -200 -197 -200c-151 0 -190 98 -190 163c0 62 40 115 107 115c61 0 96 -47 96 -102c0 -58 -36 -85 -67 -94c-23 -7 -32 -10 -32 -17c0 -13 26 -29 80 -29c59 0 159 18 159 166
c0 47 -15 134 -27 201c-2 12 -4 11 -15 9c-20 -4 -46 -6 -69 -6c-245 0 -364 165 -364 339c0 107 43 200 112 286c52 64 121 125 185 178c12 10 11 12 9 24c-7 41 -14 106 -14 164c0 104 25 230 98 311c26 29 54 50 77 50c15 0 25 -22 27 -28c4 -10 2 -20 -1 -33
c-7 -27 -15 -53 -23 -79c-4 -14 -17 -19 -27 -23c-49 -20 -106 -106 -106 -246c0 -32 2 -66 6 -92c2 -13 6 -14 13 -8c23 20 47 43 63 59c65 65 98 120 108 176c4 23 5 31 23 31c20 0 22 -5 22 -42c0 -113 -50 -232 -134 -324c-19 -21 -40 -42 -56 -57c-6 -6 -8 -7 -6 -19z
M726 987c6 0 13 -4 13 -10c0 -4 -1 -7 -3 -13c-17 -51 -37 -79 -83 -79c-60 0 -83 39 -115 39c-13 0 -19 -8 -23 -20s-9 -17 -18 -17s-14 6 -14 14c0 4 1 7 2 14c15 58 47 103 123 133c70 29 90 73 90 115c0 32 -23 39 -47 39c-31 0 -48 -14 -48 -25c0 -5 5 -11 10 -17
c6 -5 11 -13 11 -27c0 -24 -18 -45 -43 -45c-27 0 -38 19 -38 39c0 51 47 101 119 101c68 0 108 -30 108 -78c0 -79 -63 -113 -135 -129c-34 -8 -65 -22 -85 -44c-7 -8 -9 -15 -4 -15c4 0 8 2 15 5c11 5 23 7 36 7c29 0 51 -17 77 -17c16 0 28 6 38 20c5 8 9 10 14 10z" />
    <glyph glyph-name="uniE058_uniE882" unicode="&#xe058;&#xe882;" horiz-adv-x="674" 
d="M430 103l49 -285c2 -12 4 -12 16 -6c56 28 94 79 94 142c0 88 -67 156 -148 163c-12 1 -13 -2 -11 -14zM361 262l-21 128c-2 11 -4 12 -14 4c-47 -38 -93 -75 -153 -142c-83 -94 -93 -173 -93 -232c0 -139 113 -236 288 -236c20 0 40 2 56 5c15 3 16 3 14 14l-50 298
c-2 11 -4 12 -20 8c-61 -17 -100 -60 -100 -117c0 -46 30 -89 72 -107c7 -3 15 -6 15 -13c0 -6 -4 -11 -12 -11c-7 0 -19 3 -27 6c-68 23 -115 87 -115 177c0 85 57 164 145 194c18 6 18 5 15 24zM470 943c-61 0 -133 -96 -133 -252c0 -32 2 -66 6 -92c2 -13 6 -14 13 -8
c23 20 47 43 63 59c78 78 111 142 111 211c0 55 -27 82 -60 82zM376 415l25 -145c3 -18 3 -18 29 -18c147 0 241 -113 241 -241c0 -113 -67 -198 -168 -238c-14 -6 -15 -5 -13 -17c11 -62 29 -157 29 -214c0 -174 -132 -204 -190 -204c-30 0 -55 5 -80 19
c-19 11 -38 22 -51 22s-19 -8 -23 -20s-9 -17 -18 -17s-14 6 -14 14c0 4 1 7 2 14c15 58 47 103 123 133c70 29 90 73 90 115c0 32 -23 39 -47 39c-31 0 -48 -14 -48 -25c0 -5 5 -11 10 -17c6 -5 11 -13 11 -27c0 -24 -18 -45 -43 -45c-27 0 -38 19 -38 39
c0 51 47 101 119 101c68 0 108 -30 108 -78c0 -79 -63 -113 -135 -129c-34 -8 -65 -22 -85 -44c-7 -8 -9 -15 -4 -15c4 0 8 2 15 5c11 5 23 7 36 7c24 0 52 -9 77 -17c33 -10 141 -73 141 132c0 47 -15 134 -27 201c-2 12 -4 11 -15 9c-20 -4 -46 -6 -69 -6
c-245 0 -364 165 -364 339c0 107 43 200 112 286c52 64 121 125 185 178c12 10 11 12 9 24c-7 41 -14 106 -14 164c0 104 24 229 98 311c20 22 51 48 65 48c11 0 37 -28 52 -50c41 -60 65 -146 65 -233c0 -113 -50 -232 -134 -324c-19 -21 -40 -42 -56 -57
c-6 -6 -8 -7 -6 -19z" />
    <glyph glyph-name="uniE059_uniE883" unicode="&#xe059;&#xe883;" horiz-adv-x="674" 
d="M430 103l49 -285c2 -12 4 -12 16 -6c56 28 94 79 94 142c0 88 -67 156 -148 163c-12 1 -13 -2 -11 -14zM593 1077h10c52 0 82 33 82 81c0 20 -11 42 -46 42c-19 0 -30 -7 -30 -13c0 -1 5 -6 11 -12c5 -5 8 -12 8 -22c0 -25 -18 -42 -41 -42c-20 0 -34 15 -34 38
c2 49 48 79 105 79c56 0 100 -30 100 -76c0 -36 -30 -65 -68 -80c-7 -3 -11 -4 -11 -8c0 -5 4 -6 10 -9c24 -11 35 -32 35 -56c0 -70 -63 -116 -139 -116c-64 0 -93 33 -93 69c0 30 19 52 44 52c19 0 35 -10 35 -32c0 -24 -13 -35 -23 -39c-7 -4 -12 -7 -12 -11
c0 -9 14 -16 33 -16c54 0 82 55 82 95c0 28 -16 49 -50 49h-8c-12 0 -18 5 -18 13s6 14 18 14zM361 262l-21 128c-2 11 -4 12 -14 4c-47 -38 -93 -75 -153 -142c-83 -94 -93 -173 -93 -232c0 -139 113 -236 288 -236c20 0 40 2 56 5c15 3 16 3 14 14l-50 298
c-2 11 -4 12 -20 8c-61 -17 -100 -60 -100 -117c0 -46 30 -89 72 -107c7 -3 15 -6 15 -13c0 -6 -4 -11 -12 -11c-7 0 -19 3 -27 6c-68 23 -115 87 -115 177c0 85 57 164 145 194c18 6 18 5 15 24zM376 415l25 -145c3 -18 3 -18 29 -18c147 0 241 -113 241 -241
c0 -113 -67 -198 -168 -238c-14 -6 -15 -5 -13 -17c11 -62 29 -157 29 -214c0 -170 -130 -200 -197 -200c-151 0 -190 98 -190 163c0 62 40 115 107 115c61 0 96 -47 96 -102c0 -58 -36 -85 -67 -94c-23 -7 -32 -10 -32 -17c0 -13 26 -29 80 -29c59 0 159 18 159 166
c0 47 -15 134 -27 201c-2 12 -4 11 -15 9c-20 -4 -46 -6 -69 -6c-245 0 -364 165 -364 339c0 107 43 200 112 286c52 64 121 125 185 178c12 10 11 12 9 24c-7 41 -14 106 -14 164c0 104 25 230 98 311c26 29 54 50 77 50c15 0 25 -22 27 -28c4 -10 2 -20 -1 -33
c-7 -27 -15 -53 -23 -79c-4 -14 -17 -19 -27 -23c-49 -20 -106 -106 -106 -246c0 -32 2 -66 6 -92c2 -13 6 -14 13 -8c23 20 47 43 63 59c65 65 98 120 108 176c4 23 5 31 23 31c20 0 22 -5 22 -42c0 -113 -50 -232 -134 -324c-19 -21 -40 -42 -56 -57c-6 -6 -8 -7 -6 -19z
" />
    <glyph glyph-name="uniE058_uniE883" unicode="&#xe058;&#xe883;" horiz-adv-x="674" 
d="M430 103l49 -285c2 -12 4 -12 16 -6c56 28 94 79 94 142c0 88 -67 156 -148 163c-12 1 -13 -2 -11 -14zM419 650c78 78 111 142 111 211c0 55 -27 82 -60 82c-61 0 -133 -96 -133 -252c0 -32 2 -66 6 -92c2 -13 6 -14 13 -8c23 20 47 43 63 59zM361 262l-21 128
c-2 11 -4 12 -14 4c-47 -38 -93 -75 -153 -142c-83 -94 -93 -173 -93 -232c0 -139 113 -236 288 -236c20 0 40 2 56 5c15 3 16 3 14 14l-50 298c-2 11 -4 12 -20 8c-61 -17 -100 -60 -100 -117c0 -46 30 -89 72 -107c7 -3 15 -6 15 -13c0 -6 -4 -11 -12 -11
c-7 0 -19 3 -27 6c-68 23 -115 87 -115 177c0 85 57 164 145 194c18 6 18 5 15 24zM261 -468h10c52 0 82 33 82 81c0 20 -11 42 -46 42c-19 0 -30 -7 -30 -13c0 -1 5 -6 11 -12c5 -5 8 -12 8 -22c0 -25 -18 -42 -41 -42c-20 0 -34 15 -34 38c2 49 48 79 105 79
c56 0 100 -30 100 -76c0 -36 -30 -65 -68 -80c-7 -3 -11 -4 -11 -8c0 -5 4 -6 10 -9c24 -11 35 -32 35 -56c0 -28 -11 -53 -28 -72c-3 -4 -5 -7 -5 -10c0 -5 6 -6 29 7c16 9 87 42 87 165c0 47 -15 134 -27 201c-2 12 -4 11 -15 9c-20 -4 -46 -6 -69 -6
c-245 0 -364 165 -364 339c0 107 43 200 112 286c52 64 121 125 185 178c12 10 11 12 9 24c-7 41 -14 106 -14 164c0 104 24 229 98 311c20 22 51 48 65 48c11 0 37 -28 52 -50c41 -60 65 -146 65 -233c0 -113 -50 -232 -134 -324c-19 -21 -40 -42 -56 -57
c-6 -6 -8 -7 -6 -19l25 -145c3 -18 3 -18 29 -18c147 0 241 -113 241 -241c0 -113 -67 -198 -168 -238c-14 -6 -15 -5 -13 -17c11 -62 29 -157 29 -214c0 -162 -119 -208 -238 -208c-25 0 -47 3 -69 10c-36 11 -52 36 -52 63c0 30 19 52 44 52c19 0 35 -10 35 -32
c0 -24 -13 -35 -23 -39c-7 -4 -12 -7 -12 -11c0 -9 14 -16 33 -16c54 0 82 55 82 95c0 28 -16 49 -50 49h-8c-12 0 -18 5 -18 13s6 14 18 14z" />
    <glyph glyph-name="uniE059_uniE884" unicode="&#xe059;&#xe884;" horiz-adv-x="674" 
d="M430 103l49 -285c2 -12 4 -12 16 -6c56 28 94 79 94 142c0 88 -67 156 -148 163c-12 1 -13 -2 -11 -14zM361 262l-21 128c-2 11 -4 12 -14 4c-47 -38 -93 -75 -153 -142c-83 -94 -93 -173 -93 -232c0 -139 113 -236 288 -236c20 0 40 2 56 5c15 3 16 3 14 14l-50 298
c-2 11 -4 12 -20 8c-61 -17 -100 -60 -100 -117c0 -46 30 -89 72 -107c7 -3 15 -6 15 -13c0 -6 -4 -11 -12 -11c-7 0 -19 3 -27 6c-68 23 -115 87 -115 177c0 85 57 164 145 194c18 6 18 5 15 24zM376 415l25 -145c3 -18 3 -18 29 -18c147 0 241 -113 241 -241
c0 -113 -67 -198 -168 -238c-14 -6 -15 -5 -13 -17c11 -62 29 -157 29 -214c0 -170 -130 -200 -197 -200c-151 0 -190 98 -190 163c0 62 40 115 107 115c61 0 96 -47 96 -102c0 -58 -36 -85 -67 -94c-23 -7 -32 -10 -32 -17c0 -13 26 -29 80 -29c59 0 159 18 159 166
c0 47 -15 134 -27 201c-2 12 -4 11 -15 9c-20 -4 -46 -6 -69 -6c-245 0 -364 165 -364 339c0 107 43 200 112 286c52 64 121 125 185 178c12 10 11 12 9 24c-7 41 -14 106 -14 164c0 104 25 230 98 311c26 29 54 50 77 50c15 0 25 -22 27 -28c4 -10 2 -20 -1 -33
c-7 -27 -15 -53 -23 -79c-4 -14 -17 -19 -27 -23c-49 -20 -106 -106 -106 -246c0 -32 2 -66 6 -92c2 -13 6 -14 13 -8c23 20 47 43 63 59c65 65 98 120 108 176c4 23 5 31 23 31c20 0 22 -5 22 -42c0 -113 -50 -232 -134 -324c-19 -21 -40 -42 -56 -57c-6 -6 -8 -7 -6 -19z
M744 1008h26c8 0 13 -5 13 -12c0 -8 -5 -13 -13 -13h-31c-7 0 -8 -3 -10 -8l-13 -45c-3 -7 -4 -12 2 -12l31 -3c8 -1 13 -5 13 -13c0 -7 -5 -12 -14 -12h-151c-10 0 -14 5 -14 12c0 8 4 12 12 13l32 3c7 0 8 3 11 9l15 49c1 5 -1 7 -4 7h-123c-10 0 -16 4 -16 11
c0 5 4 10 9 16c35 35 64 66 90 104c23 33 42 73 50 101c1 5 4 10 11 10c12 0 26 -8 43 -8c16 0 30 8 43 8c7 0 10 -3 10 -8c0 -2 -1 -5 -4 -10c-44 -57 -122 -133 -191 -188c-4 -3 -5 -5 -5 -7s1 -4 7 -4h81c6 0 8 2 9 7l16 51c2 7 4 10 10 17l58 63c7 8 12 12 20 12
s13 -3 13 -9c0 -3 -2 -10 -4 -17l-36 -117c-2 -5 0 -7 4 -7z" />
    <glyph glyph-name="uniE058_uniE884" unicode="&#xe058;&#xe884;" horiz-adv-x="674" 
d="M430 103l49 -285c2 -12 4 -12 16 -6c56 28 94 79 94 142c0 88 -67 156 -148 163c-12 1 -13 -2 -11 -14zM419 650c78 78 111 142 111 211c0 55 -27 82 -60 82c-61 0 -133 -96 -133 -252c0 -32 2 -66 6 -92c2 -13 6 -14 13 -8c23 20 47 43 63 59zM361 262l-21 128
c-2 11 -4 12 -14 4c-47 -38 -93 -75 -153 -142c-83 -94 -93 -173 -93 -232c0 -139 113 -236 288 -236c20 0 40 2 56 5c15 3 16 3 14 14l-50 298c-2 11 -4 12 -20 8c-61 -17 -100 -60 -100 -117c0 -46 30 -89 72 -107c7 -3 15 -6 15 -13c0 -6 -4 -11 -12 -11
c-7 0 -19 3 -27 6c-68 23 -115 87 -115 177c0 85 57 164 145 194c18 6 18 5 15 24zM328 -627l15 -1c26 -1 59 5 78 20c28 22 54 64 54 152c0 47 -15 134 -27 201c-2 12 -4 11 -15 9c-20 -4 -46 -6 -69 -6c-245 0 -364 165 -364 339c0 107 43 200 112 286
c52 64 121 125 185 178c12 10 11 12 9 24c-7 41 -14 106 -14 164c0 104 24 229 98 311c20 22 51 48 65 48c11 0 37 -28 52 -50c41 -60 65 -146 65 -233c0 -113 -50 -232 -134 -324c-19 -21 -40 -42 -56 -57c-6 -6 -8 -7 -6 -19l25 -145c3 -18 3 -18 29 -18
c147 0 241 -113 241 -241c0 -113 -67 -198 -168 -238c-14 -6 -15 -5 -13 -17c11 -62 29 -157 29 -214c0 -170 -90 -198 -168 -198c-84 0 -128 1 -144 1c-10 0 -14 5 -14 12c0 8 4 12 12 13l32 3c7 0 8 3 11 9l15 49c1 5 -1 7 -4 7h-123c-10 0 -16 4 -16 11c0 5 4 10 9 16
c35 35 64 66 90 104c23 33 42 73 50 101c1 5 4 10 11 10c12 0 26 -8 43 -8c16 0 30 8 43 8c7 0 10 -3 10 -8c0 -2 -1 -5 -4 -10c-44 -57 -122 -133 -191 -188c-4 -3 -5 -5 -5 -7s1 -4 7 -4h81c6 0 8 2 9 7l16 51c2 7 4 10 10 17l58 63c7 8 12 12 20 12s13 -3 13 -9
c0 -3 -2 -10 -4 -17l-36 -117c-2 -5 0 -7 4 -7h26c8 0 13 -5 13 -12c0 -8 -5 -13 -13 -13h-31c-7 0 -8 -3 -10 -8l-13 -45c-3 -7 -4 -12 2 -12z" />
    <glyph glyph-name="uniE059_uniE885" unicode="&#xe059;&#xe885;" horiz-adv-x="674" 
d="M430 103l49 -285c2 -12 4 -12 16 -6c56 28 94 79 94 142c0 88 -67 156 -148 163c-12 1 -13 -2 -11 -14zM543 1063l49 145c4 10 10 15 20 15c6 0 11 -1 24 -5c11 -3 29 -7 54 -7c26 0 49 3 67 9c12 3 17 6 22 6s8 -4 8 -9c0 -6 -3 -11 -12 -19c-28 -26 -68 -51 -121 -51
c-12 0 -25 2 -35 3c-9 2 -13 2 -16 -7l-14 -41c-3 -9 -1 -14 13 -10c11 4 24 6 42 6c58 0 95 -21 95 -74c0 -84 -62 -141 -145 -141c-63 0 -92 33 -92 69c0 30 19 52 43 52c19 0 35 -10 35 -32c0 -24 -13 -35 -22 -39c-7 -4 -12 -7 -12 -11c0 -9 14 -16 32 -16
c59 0 88 73 88 117c0 25 -11 46 -42 46c-28 0 -46 -19 -54 -27c-6 -7 -11 -10 -17 -10c-8 0 -14 5 -14 14c0 5 1 8 4 17zM361 262l-21 128c-2 11 -4 12 -14 4c-47 -38 -93 -75 -153 -142c-83 -94 -93 -173 -93 -232c0 -139 113 -236 288 -236c20 0 40 2 56 5
c15 3 16 3 14 14l-50 298c-2 11 -4 12 -20 8c-61 -17 -100 -60 -100 -117c0 -46 30 -89 72 -107c7 -3 15 -6 15 -13c0 -6 -4 -11 -12 -11c-7 0 -19 3 -27 6c-68 23 -115 87 -115 177c0 85 57 164 145 194c18 6 18 5 15 24zM376 415l25 -145c3 -18 3 -18 29 -18
c147 0 241 -113 241 -241c0 -113 -67 -198 -168 -238c-14 -6 -15 -5 -13 -17c11 -62 29 -157 29 -214c0 -170 -130 -200 -197 -200c-151 0 -190 98 -190 163c0 62 40 115 107 115c61 0 96 -47 96 -102c0 -58 -36 -85 -67 -94c-23 -7 -32 -10 -32 -17c0 -13 26 -29 80 -29
c59 0 159 18 159 166c0 47 -15 134 -27 201c-2 12 -4 11 -15 9c-20 -4 -46 -6 -69 -6c-245 0 -364 165 -364 339c0 107 43 200 112 286c52 64 121 125 185 178c12 10 11 12 9 24c-7 41 -14 106 -14 164c0 104 25 230 98 311c26 29 54 50 77 50c15 0 25 -22 27 -28
c4 -10 2 -20 -1 -33c-7 -27 -15 -53 -23 -79c-4 -14 -17 -19 -27 -23c-49 -20 -106 -106 -106 -246c0 -32 2 -66 6 -92c2 -13 6 -14 13 -8c23 20 47 43 63 59c65 65 98 120 108 176c4 23 5 31 23 31c20 0 22 -5 22 -42c0 -113 -50 -232 -134 -324c-19 -21 -40 -42 -56 -57
c-6 -6 -8 -7 -6 -19z" />
    <glyph glyph-name="uniE058_uniE885" unicode="&#xe058;&#xe885;" horiz-adv-x="674" 
d="M430 103l49 -285c2 -12 4 -12 16 -6c56 28 94 79 94 142c0 88 -67 156 -148 163c-12 1 -13 -2 -11 -14zM419 650c78 78 111 142 111 211c0 55 -27 82 -60 82c-61 0 -133 -96 -133 -252c0 -32 2 -66 6 -92c2 -13 6 -14 13 -8c23 20 47 43 63 59zM361 262l-21 128
c-2 11 -4 12 -14 4c-47 -38 -93 -75 -153 -142c-83 -94 -93 -173 -93 -232c0 -139 113 -236 288 -236c20 0 40 2 56 5c15 3 16 3 14 14l-50 298c-2 11 -4 12 -20 8c-61 -17 -100 -60 -100 -117c0 -46 30 -89 72 -107c7 -3 15 -6 15 -13c0 -6 -4 -11 -12 -11
c-7 0 -19 3 -27 6c-68 23 -115 87 -115 177c0 85 57 164 145 194c18 6 18 5 15 24zM338 -628h1c-4 -4 -7 -6 -7 -9c0 -6 9 -5 33 5c18 8 110 36 110 176c0 47 -15 134 -27 201c-2 12 -4 11 -15 9c-20 -4 -46 -6 -69 -6c-245 0 -364 165 -364 339c0 107 43 200 112 286
c52 64 121 125 185 178c12 10 11 12 9 24c-7 41 -14 106 -14 164c0 104 24 229 98 311c20 22 51 48 65 48c11 0 37 -28 52 -50c41 -60 65 -146 65 -233c0 -113 -50 -232 -134 -324c-19 -21 -40 -42 -56 -57c-6 -6 -8 -7 -6 -19l25 -145c3 -18 3 -18 29 -18
c147 0 241 -113 241 -241c0 -113 -67 -198 -168 -238c-14 -6 -15 -5 -13 -17c11 -62 29 -157 29 -214c0 -162 -119 -208 -238 -208c-35 0 -65 3 -85 11c-32 12 -47 36 -47 62c0 30 19 52 43 52c19 0 35 -10 35 -32c0 -24 -13 -35 -22 -39c-7 -4 -12 -7 -12 -11
c0 -9 14 -16 32 -16c59 0 88 73 88 117c0 25 -11 46 -42 46c-28 0 -46 -19 -54 -27c-6 -7 -11 -10 -17 -10c-8 0 -14 5 -14 14c0 5 1 8 4 17l49 145c4 10 10 15 20 15c6 0 11 -1 24 -5c11 -3 29 -7 54 -7c26 0 49 3 67 9c12 3 17 6 22 6s8 -4 8 -9c0 -6 -3 -11 -12 -19
c-28 -26 -68 -51 -121 -51c-12 0 -25 2 -35 3c-9 2 -13 2 -16 -7l-14 -41c-3 -9 -1 -14 13 -10c11 4 24 6 42 6c58 0 95 -21 95 -74c0 -45 -18 -82 -48 -107z" />
    <glyph glyph-name="uniE059_uniE886" unicode="&#xe059;&#xe886;" horiz-adv-x="674" 
d="M430 103l49 -285c2 -12 4 -12 16 -6c56 28 94 79 94 142c0 88 -67 156 -148 163c-12 1 -13 -2 -11 -14zM361 262l-21 128c-2 11 -4 12 -14 4c-47 -38 -93 -75 -153 -142c-83 -94 -93 -173 -93 -232c0 -139 113 -236 288 -236c20 0 40 2 56 5c15 3 16 3 14 14l-50 298
c-2 11 -4 12 -20 8c-61 -17 -100 -60 -100 -117c0 -46 30 -89 72 -107c7 -3 15 -6 15 -13c0 -6 -4 -11 -12 -11c-7 0 -19 3 -27 6c-68 23 -115 87 -115 177c0 85 57 164 145 194c18 6 18 5 15 24zM376 415l25 -145c3 -18 3 -18 29 -18c147 0 241 -113 241 -241
c0 -113 -67 -198 -168 -238c-14 -6 -15 -5 -13 -17c11 -62 29 -157 29 -214c0 -170 -130 -200 -197 -200c-151 0 -190 98 -190 163c0 62 40 115 107 115c61 0 96 -47 96 -102c0 -58 -36 -85 -67 -94c-23 -7 -32 -10 -32 -17c0 -13 26 -29 80 -29c59 0 159 18 159 166
c0 47 -15 134 -27 201c-2 12 -4 11 -15 9c-20 -4 -46 -6 -69 -6c-245 0 -364 165 -364 339c0 107 43 200 112 286c52 64 121 125 185 178c12 10 11 12 9 24c-7 41 -14 106 -14 164c0 104 25 230 98 311c26 29 54 50 77 50c15 0 25 -22 27 -28c4 -10 2 -20 -1 -33
c-7 -27 -15 -53 -23 -79c-4 -14 -17 -19 -27 -23c-49 -20 -106 -106 -106 -246c0 -32 2 -66 6 -92c2 -13 6 -14 13 -8c23 20 47 43 63 59c65 65 98 120 108 176c4 23 5 31 23 31c20 0 22 -5 22 -42c0 -113 -50 -232 -134 -324c-19 -21 -40 -42 -56 -57c-6 -6 -8 -7 -6 -19z
M658 1064c-32 0 -61 -35 -70 -82c-6 -31 -8 -76 34 -76c35 0 69 51 69 114c0 27 -7 44 -33 44zM734 1186c4 2 12 6 12 9c0 6 -13 11 -31 10c-53 -2 -87 -61 -106 -115c-5 -16 3 -18 11 -12c18 13 39 19 64 19c52 0 80 -34 80 -77c0 -92 -74 -137 -140 -137
c-112 0 -122 97 -90 195c32 100 94 150 172 150c54 0 86 -27 86 -65c0 -30 -19 -50 -44 -50c-21 0 -38 13 -38 34c0 19 11 33 24 39z" />
    <glyph glyph-name="uniE058_uniE886" unicode="&#xe058;&#xe886;" horiz-adv-x="674" 
d="M279 -481c-32 0 -61 -35 -70 -82c-6 -31 -8 -76 34 -76c35 0 69 51 69 114c0 27 -7 44 -33 44zM430 103l49 -285c2 -12 4 -12 16 -6c56 28 94 79 94 142c0 88 -67 156 -148 163c-12 1 -13 -2 -11 -14zM419 650c78 78 111 142 111 211c0 55 -27 82 -60 82
c-61 0 -133 -96 -133 -252c0 -32 2 -66 6 -92c2 -13 6 -14 13 -8c23 20 47 43 63 59zM361 262l-21 128c-2 11 -4 12 -14 4c-47 -38 -93 -75 -153 -142c-83 -94 -93 -173 -93 -232c0 -139 113 -236 288 -236c20 0 40 2 56 5c15 3 16 3 14 14l-50 298c-2 11 -4 12 -20 8
c-61 -17 -100 -60 -100 -117c0 -46 30 -89 72 -107c7 -3 15 -6 15 -13c0 -6 -4 -11 -12 -11c-7 0 -19 3 -27 6c-68 23 -115 87 -115 177c0 85 57 164 145 194c18 6 18 5 15 24zM376 415l25 -145c3 -18 3 -18 29 -18c147 0 241 -113 241 -241c0 -113 -67 -198 -168 -238
c-14 -6 -15 -5 -13 -17c11 -62 29 -157 29 -214c0 -162 -119 -208 -238 -208c-33 0 -61 3 -85 12c-66 25 -68 106 -41 187c32 100 94 150 172 150c54 0 86 -27 86 -65c0 -30 -19 -50 -44 -50c-21 0 -38 13 -38 34c0 19 11 33 24 39c4 2 12 6 12 9c0 6 -13 11 -31 10
c-53 -2 -87 -61 -106 -115c-5 -16 3 -18 11 -12c18 13 39 19 64 19c52 0 80 -34 80 -77c0 -46 -19 -80 -45 -103c-3 -2 -4 -4 -4 -7c0 -6 5 -6 29 4c18 8 110 35 110 175c0 47 -15 134 -27 201c-2 12 -4 11 -15 9c-20 -4 -46 -6 -69 -6c-245 0 -364 165 -364 339
c0 107 43 200 112 286c52 64 121 125 185 178c12 10 11 12 9 24c-7 41 -14 106 -14 164c0 104 24 229 98 311c20 22 51 48 65 48c11 0 37 -28 52 -50c41 -60 65 -146 65 -233c0 -113 -50 -232 -134 -324c-19 -21 -40 -42 -56 -57c-6 -6 -8 -7 -6 -19z" />
    <glyph glyph-name="uniE059_uniE887" unicode="&#xe059;&#xe887;" horiz-adv-x="674" 
d="M430 103l49 -285c2 -12 4 -12 16 -6c56 28 94 79 94 142c0 88 -67 156 -148 163c-12 1 -13 -2 -11 -14zM487 1114l32 97c3 9 8 11 16 11c6 0 12 -2 12 -8c0 -8 -4 -13 -4 -18c0 -3 1 -3 3 -3c3 0 5 3 11 9c14 13 32 23 51 23c45 0 62 -37 91 -37c14 0 22 7 28 22
c4 10 8 12 18 12c8 0 14 -2 14 -10c0 -4 -1 -9 -3 -14c-18 -62 -50 -102 -80 -137c-49 -57 -63 -108 -76 -164c-2 -7 -4 -11 -13 -11c-13 0 -24 8 -38 8s-28 -8 -41 -8c-6 0 -8 3 -8 8c0 3 1 5 1 8c19 57 52 111 107 155c38 30 70 51 97 90c4 6 0 11 -8 7
c-18 -12 -37 -18 -55 -18c-34 0 -63 16 -89 16c-21 0 -32 -19 -40 -43c-3 -9 -8 -11 -16 -11c-7 0 -11 3 -11 9c0 2 1 5 1 7zM361 262l-21 128c-2 11 -4 12 -14 4c-47 -38 -93 -75 -153 -142c-83 -94 -93 -173 -93 -232c0 -139 113 -236 288 -236c20 0 40 2 56 5
c15 3 16 3 14 14l-50 298c-2 11 -4 12 -20 8c-61 -17 -100 -60 -100 -117c0 -46 30 -89 72 -107c7 -3 15 -6 15 -13c0 -6 -4 -11 -12 -11c-7 0 -19 3 -27 6c-68 23 -115 87 -115 177c0 85 57 164 145 194c18 6 18 5 15 24zM376 415l25 -145c3 -18 3 -18 29 -18
c147 0 241 -113 241 -241c0 -113 -67 -198 -168 -238c-14 -6 -15 -5 -13 -17c11 -62 29 -157 29 -214c0 -170 -130 -200 -197 -200c-151 0 -190 98 -190 163c0 62 40 115 107 115c61 0 96 -47 96 -102c0 -58 -36 -85 -67 -94c-23 -7 -32 -10 -32 -17c0 -13 26 -29 80 -29
c59 0 159 18 159 166c0 47 -15 134 -27 201c-2 12 -4 11 -15 9c-20 -4 -46 -6 -69 -6c-245 0 -364 165 -364 339c0 107 43 200 112 286c52 64 121 125 185 178c12 10 11 12 9 24c-7 41 -14 106 -14 164c0 104 25 230 98 311c26 29 54 50 77 50c15 0 25 -22 27 -28
c4 -10 2 -20 -1 -33c-7 -27 -15 -53 -23 -79c-4 -14 -17 -19 -27 -23c-49 -20 -106 -106 -106 -246c0 -32 2 -66 6 -92c2 -13 6 -14 13 -8c23 20 47 43 63 59c65 65 98 120 108 176c4 23 5 31 23 31c20 0 22 -5 22 -42c0 -113 -50 -232 -134 -324c-19 -21 -40 -42 -56 -57
c-6 -6 -8 -7 -6 -19z" />
    <glyph glyph-name="uniE058_uniE887" unicode="&#xe058;&#xe887;" horiz-adv-x="674" 
d="M430 103l49 -285c2 -12 4 -12 16 -6c56 28 94 79 94 142c0 88 -67 156 -148 163c-12 1 -13 -2 -11 -14zM419 650c78 78 111 142 111 211c0 55 -27 82 -60 82c-61 0 -133 -96 -133 -252c0 -32 2 -66 6 -92c2 -13 6 -14 13 -8c23 20 47 43 63 59zM361 262l-21 128
c-2 11 -4 12 -14 4c-47 -38 -93 -75 -153 -142c-83 -94 -93 -173 -93 -232c0 -139 113 -236 288 -236c20 0 40 2 56 5c15 3 16 3 14 14l-50 298c-2 11 -4 12 -20 8c-61 -17 -100 -60 -100 -117c0 -46 30 -89 72 -107c7 -3 15 -6 15 -13c0 -6 -4 -11 -12 -11
c-7 0 -19 3 -27 6c-68 23 -115 87 -115 177c0 85 57 164 145 194c18 6 18 5 15 24zM173 -431l32 97c3 9 8 11 16 11c6 0 12 -2 12 -8c0 -8 -4 -13 -4 -18c0 -3 1 -3 3 -3c3 0 5 3 11 9c14 13 32 23 51 23c45 0 62 -37 91 -37c14 0 22 7 28 22c4 10 8 12 18 12
c8 0 14 -2 14 -10c0 -4 -1 -9 -3 -14c-18 -62 -50 -102 -80 -137c-41 -47 -57 -89 -69 -134c-1 -3 -1 -6 -1 -9c0 -9 7 -10 20 -10c79 0 163 37 163 181c0 47 -15 134 -27 201c-2 12 -4 11 -15 9c-20 -4 -46 -6 -69 -6c-245 0 -364 165 -364 339c0 107 43 200 112 286
c52 64 121 125 185 178c12 10 11 12 9 24c-7 41 -14 106 -14 164c0 104 24 229 98 311c20 22 51 48 65 48c11 0 37 -28 52 -50c41 -60 65 -146 65 -233c0 -113 -50 -232 -134 -324c-19 -21 -40 -42 -56 -57c-6 -6 -8 -7 -6 -19l25 -145c3 -18 3 -18 29 -18
c147 0 241 -113 241 -241c0 -113 -67 -198 -168 -238c-14 -6 -15 -5 -13 -17c11 -62 29 -157 29 -214c0 -178 -138 -204 -210 -204c-14 0 -28 1 -39 3c-12 1 -22 8 -35 8c-14 0 -28 -8 -41 -8c-6 0 -8 3 -8 8c0 3 1 5 1 8c19 57 52 111 107 155c38 30 70 51 97 90
c4 6 0 11 -8 7c-18 -12 -37 -18 -55 -18c-34 0 -63 16 -89 16c-21 0 -32 -19 -40 -43c-3 -9 -8 -11 -16 -11c-7 0 -11 3 -11 9c0 2 1 5 1 7z" />
    <glyph glyph-name="uniE059_uniE888" unicode="&#xe059;&#xe888;" horiz-adv-x="670" 
d="M430 103l49 -285c2 -12 4 -12 16 -6c56 28 94 79 94 142c0 88 -67 156 -148 163c-12 1 -13 -2 -11 -14zM361 262l-21 128c-2 11 -4 12 -14 4c-47 -38 -93 -75 -153 -142c-83 -94 -93 -173 -93 -232c0 -139 113 -236 288 -236c20 0 40 2 56 5c15 3 16 3 14 14l-50 298
c-2 11 -4 12 -20 8c-61 -17 -100 -60 -100 -117c0 -46 30 -89 72 -107c7 -3 15 -6 15 -13c0 -6 -4 -11 -12 -11c-7 0 -19 3 -27 6c-68 23 -115 87 -115 177c0 85 57 164 145 194c18 6 18 5 15 24zM376 415l25 -145c3 -18 3 -18 29 -18c147 0 241 -113 241 -241
c0 -113 -67 -198 -168 -238c-14 -6 -15 -5 -13 -17c11 -62 29 -157 29 -214c0 -170 -130 -200 -197 -200c-151 0 -190 98 -190 163c0 62 40 115 107 115c61 0 96 -47 96 -102c0 -58 -36 -85 -67 -94c-23 -7 -32 -10 -32 -17c0 -13 26 -29 80 -29c59 0 159 18 159 166
c0 47 -15 134 -27 201c-2 12 -4 11 -15 9c-20 -4 -46 -6 -69 -6c-245 0 -364 165 -364 339c0 107 43 200 112 286c52 64 121 125 185 178c12 10 11 12 9 24c-7 41 -14 106 -14 164c0 104 25 230 98 311c26 29 54 50 77 50c15 0 25 -22 27 -28c4 -10 2 -20 -1 -33
c-7 -27 -15 -53 -23 -79c-4 -14 -17 -19 -27 -23c-49 -20 -106 -106 -106 -246c0 -32 2 -66 6 -92c2 -13 6 -14 13 -8c23 20 47 43 63 59c65 65 98 120 108 176c4 23 5 31 23 31c20 0 22 -5 22 -42c0 -113 -50 -232 -134 -324c-19 -21 -40 -42 -56 -57c-6 -6 -8 -7 -6 -19z
M708 1092c24 17 35 42 35 66s-12 48 -47 48c-32 0 -55 -19 -55 -51c0 -22 11 -35 45 -60c11 -8 15 -7 22 -3zM632 905c34 0 62 21 62 58c0 22 -12 32 -58 68c-10 8 -14 9 -21 5c-31 -19 -41 -53 -41 -75c0 -27 14 -56 58 -56zM744 1074c-17 -8 -15 -12 -4 -24
c17 -18 23 -37 23 -64c0 -66 -62 -103 -132 -103c-79 0 -114 38 -114 86c0 35 18 67 65 86c17 7 15 11 7 21c-11 14 -17 32 -17 53c0 62 51 99 126 99c71 0 100 -35 100 -76c0 -27 -15 -57 -54 -78z" />
    <glyph glyph-name="uniE058_uniE888" unicode="&#xe058;&#xe888;" horiz-adv-x="674" 
d="M430 103l49 -285c2 -12 4 -12 16 -6c56 28 94 79 94 142c0 88 -67 156 -148 163c-12 1 -13 -2 -11 -14zM361 262l-21 128c-2 11 -4 12 -14 4c-47 -38 -93 -75 -153 -142c-83 -94 -93 -173 -93 -232c0 -139 113 -236 288 -236c20 0 40 2 56 5c15 3 16 3 14 14l-50 298
c-2 11 -4 12 -20 8c-61 -17 -100 -60 -100 -117c0 -46 30 -89 72 -107c7 -3 15 -6 15 -13c0 -6 -4 -11 -12 -11c-7 0 -19 3 -27 6c-68 23 -115 87 -115 177c0 85 57 164 145 194c18 6 18 5 15 24zM470 943c-61 0 -133 -96 -133 -252c0 -32 2 -66 6 -92c2 -13 6 -14 13 -8
c23 20 47 43 63 59c78 78 111 142 111 211c0 55 -27 82 -60 82zM331 -453c24 17 35 42 35 66s-12 48 -47 48c-32 0 -55 -19 -55 -51c0 -22 11 -35 45 -60c11 -8 15 -7 22 -3zM255 -640c34 0 62 21 62 58c0 22 -12 32 -58 68c-10 8 -14 9 -21 5c-31 -19 -41 -53 -41 -75
c0 -27 14 -56 58 -56zM376 415l25 -145c3 -18 3 -18 29 -18c147 0 241 -113 241 -241c0 -113 -67 -198 -168 -238c-14 -6 -15 -5 -13 -17c11 -62 29 -157 29 -214c0 -162 -119 -208 -238 -208c-30 0 -59 4 -83 12c-40 14 -58 43 -58 78s18 67 65 86c17 7 15 11 7 21
c-11 14 -17 32 -17 53c0 62 51 99 126 99c71 0 100 -35 100 -76c0 -27 -15 -57 -54 -78c-17 -8 -15 -12 -4 -24c17 -18 23 -37 23 -64c0 -22 -8 -41 -20 -57h1v1c-1 0 -1 -2 -2 -2v-1c-3 -4 -5 -6 -5 -10c0 -5 5 -6 28 7c16 9 87 42 87 165c0 47 -15 134 -27 201
c-2 12 -4 11 -15 9c-20 -4 -46 -6 -69 -6c-245 0 -364 165 -364 339c0 107 43 200 112 286c52 64 121 125 185 178c12 10 11 12 9 24c-7 41 -14 106 -14 164c0 104 24 229 98 311c20 22 51 48 65 48c11 0 37 -28 52 -50c41 -60 65 -146 65 -233c0 -113 -50 -232 -134 -324
c-19 -21 -40 -42 -56 -57c-6 -6 -8 -7 -6 -19z" />
    <glyph glyph-name="uniE059_uniE889" unicode="&#xe059;&#xe889;" horiz-adv-x="674" 
d="M430 103l49 -285c2 -12 4 -12 16 -6c56 28 94 79 94 142c0 88 -67 156 -148 163c-12 1 -13 -2 -11 -14zM361 262l-21 128c-2 11 -4 12 -14 4c-47 -38 -93 -75 -153 -142c-83 -94 -93 -173 -93 -232c0 -139 113 -236 288 -236c20 0 40 2 56 5c15 3 16 3 14 14l-50 298
c-2 11 -4 12 -20 8c-61 -17 -100 -60 -100 -117c0 -46 30 -89 72 -107c7 -3 15 -6 15 -13c0 -6 -4 -11 -12 -11c-7 0 -19 3 -27 6c-68 23 -115 87 -115 177c0 85 57 164 145 194c18 6 18 5 15 24zM376 415l25 -145c3 -18 3 -18 29 -18c147 0 241 -113 241 -241
c0 -113 -67 -198 -168 -238c-14 -6 -15 -5 -13 -17c11 -62 29 -157 29 -214c0 -170 -130 -200 -197 -200c-151 0 -190 98 -190 163c0 62 40 115 107 115c61 0 96 -47 96 -102c0 -58 -36 -85 -67 -94c-23 -7 -32 -10 -32 -17c0 -13 26 -29 80 -29c59 0 159 18 159 166
c0 47 -15 134 -27 201c-2 12 -4 11 -15 9c-20 -4 -46 -6 -69 -6c-245 0 -364 165 -364 339c0 107 43 200 112 286c52 64 121 125 185 178c12 10 11 12 9 24c-7 41 -14 106 -14 164c0 104 25 230 98 311c26 29 54 50 77 50c15 0 25 -22 27 -28c4 -10 2 -20 -1 -33
c-7 -27 -15 -53 -23 -79c-4 -14 -17 -19 -27 -23c-49 -20 -106 -106 -106 -246c0 -32 2 -66 6 -92c2 -13 6 -14 13 -8c23 20 47 43 63 59c65 65 98 120 108 176c4 23 5 31 23 31c20 0 22 -5 22 -42c0 -113 -50 -232 -134 -324c-19 -21 -40 -42 -56 -57c-6 -6 -8 -7 -6 -19z
M713 1128c6 31 8 76 -34 76c-35 0 -69 -51 -69 -114c0 -27 7 -44 33 -44c32 0 61 35 70 82zM677 1227c112 0 122 -97 90 -195c-32 -100 -94 -150 -172 -150c-54 0 -86 27 -86 65c0 30 19 50 44 50c21 0 38 -13 38 -34c0 -19 -11 -33 -24 -39c-4 -2 -12 -6 -12 -9
c0 -6 13 -11 31 -10c53 2 87 61 106 115c5 16 -3 18 -11 12c-18 -13 -39 -19 -64 -19c-52 0 -80 34 -80 77c0 92 74 137 140 137z" />
    <glyph glyph-name="uniE058_uniE889" unicode="&#xe058;&#xe889;" horiz-adv-x="674" 
d="M271 -499c32 0 61 35 70 82c6 31 8 76 -34 76c-35 0 -69 -51 -69 -114c0 -27 7 -44 33 -44zM430 103l49 -285c2 -12 4 -12 16 -6c56 28 94 79 94 142c0 88 -67 156 -148 163c-12 1 -13 -2 -11 -14zM419 650c78 78 111 142 111 211c0 55 -27 82 -60 82
c-61 0 -133 -96 -133 -252c0 -32 2 -66 6 -92c2 -13 6 -14 13 -8c23 20 47 43 63 59zM361 262l-21 128c-2 11 -4 12 -14 4c-47 -38 -93 -75 -153 -142c-83 -94 -93 -173 -93 -232c0 -139 113 -236 288 -236c20 0 40 2 56 5c15 3 16 3 14 14l-50 298c-2 11 -4 12 -20 8
c-61 -17 -100 -60 -100 -117c0 -46 30 -89 72 -107c7 -3 15 -6 15 -13c0 -6 -4 -11 -12 -11c-7 0 -19 3 -27 6c-68 23 -115 87 -115 177c0 85 57 164 145 194c18 6 18 5 15 24zM376 415l25 -145c3 -18 3 -18 29 -18c147 0 241 -113 241 -241c0 -113 -67 -198 -168 -238
c-14 -6 -15 -5 -13 -17c11 -62 29 -157 29 -214c0 -162 -119 -209 -244 -209c-26 0 -47 1 -67 5c-45 4 -71 30 -71 64c0 30 19 50 44 50c21 0 38 -13 38 -34c0 -19 -11 -33 -24 -39c-4 -2 -12 -6 -12 -9c0 -6 13 -11 31 -10c53 2 87 61 106 115c5 16 -3 18 -11 12
c-18 -13 -39 -19 -64 -19c-52 0 -80 34 -80 77c0 92 74 137 140 137c112 0 122 -97 90 -195c-18 -57 -46 -97 -81 -122c-3 -2 -4 -4 -4 -6c0 -6 12 -4 36 4c27 9 129 33 129 181c0 47 -15 134 -27 201c-2 12 -4 11 -15 9c-20 -4 -46 -6 -69 -6c-245 0 -364 165 -364 339
c0 107 43 200 112 286c52 64 121 125 185 178c12 10 11 12 9 24c-7 41 -14 106 -14 164c0 104 24 229 98 311c20 22 51 48 65 48c11 0 37 -28 52 -50c41 -60 65 -146 65 -233c0 -113 -50 -232 -134 -324c-19 -21 -40 -42 -56 -57c-6 -6 -8 -7 -6 -19z" />
    <glyph glyph-name="uniE058_uniE881_uniE880_uniE260" unicode="&#xe058;&#xe881;&#xe880;&#xe260;" horiz-adv-x="756" 
d="M136 -627l30 -3c8 -1 13 -5 13 -13c0 -7 -5 -12 -14 -12h-151c-10 0 -14 5 -14 12c0 8 4 12 12 13l32 3c7 0 8 3 11 9l61 192c1 4 2 7 2 10c0 4 -2 6 -5 6c-4 0 -7 -2 -12 -8l-32 -37c-6 -5 -10 -9 -17 -9c-8 0 -14 7 -14 13c0 5 2 10 7 15l96 108c4 5 8 8 14 8
c10 0 16 -8 27 -8c10 0 21 8 31 8c6 0 9 -4 9 -9c0 -3 -1 -6 -3 -10l-86 -276c-3 -7 -4 -12 3 -12zM305 -639c41 0 76 78 99 149c20 62 34 149 -10 149c-40 0 -75 -78 -98 -149c-20 -61 -34 -149 9 -149zM513 103l49 -285c2 -12 4 -12 16 -6c56 28 94 79 94 142
c0 88 -67 156 -148 163c-12 1 -13 -2 -11 -14zM444 262l-21 128c-2 11 -4 12 -14 4c-47 -38 -93 -75 -153 -142c-83 -94 -93 -173 -93 -232c0 -139 113 -236 288 -236c20 0 40 2 56 5c15 3 16 3 14 14l-50 298c-2 11 -4 12 -20 8c-61 -17 -100 -60 -100 -117
c0 -46 30 -89 72 -107c7 -3 15 -6 15 -13c0 -6 -4 -11 -12 -11c-7 0 -19 3 -27 6c-68 23 -115 87 -115 177c0 85 57 164 145 194c18 6 18 5 15 24zM553 943c-61 0 -133 -96 -133 -252c0 -32 2 -66 6 -92c2 -13 6 -14 13 -8c23 20 47 43 63 59c78 78 111 142 111 211
c0 55 -27 82 -60 82zM459 415l25 -145c3 -18 3 -18 29 -18c147 0 241 -113 241 -241c0 -113 -67 -198 -168 -238c-14 -6 -15 -5 -13 -17c11 -62 29 -157 29 -214c0 -162 -119 -209 -244 -209c-37 0 -69 2 -95 12c-62 24 -67 103 -44 176c32 102 98 162 175 162
c102 0 114 -97 86 -184c-19 -61 -51 -107 -89 -134c-2 -1 -2 -3 -2 -5c0 -6 16 -5 40 3c27 9 129 33 129 181c0 47 -15 134 -27 201c-2 12 -4 11 -15 9c-20 -4 -46 -6 -69 -6c-245 0 -364 165 -364 339c0 107 43 200 112 286c52 64 121 125 185 178c12 10 11 12 9 24
c-7 41 -14 106 -14 164c0 104 24 229 98 311c20 22 51 48 65 48c11 0 37 -28 52 -50c41 -60 65 -146 65 -233c0 -113 -50 -232 -134 -324c-19 -21 -40 -42 -56 -57c-6 -6 -8 -7 -6 -19zM673 -552v-43c0 -12 0 -16 6 -16c7 0 23 15 38 38c11 17 15 34 15 49s-5 32 -22 32
c-9 0 -18 -4 -24 -11c-7 -8 -13 -21 -13 -49zM734 -458c28 0 52 -17 52 -50c0 -40 -23 -75 -88 -118c-18 -12 -23 -23 -37 -23c-10 0 -13 6 -14 15c-2 19 -2 279 -2 315c0 11 7 16 19 16c7 0 13 -3 13 -10c0 -40 -4 -127 -4 -154c0 -7 1 -10 6 -10c4 0 11 4 17 8
c11 7 23 11 38 11z" />
    <glyph glyph-name="uniE058_uniE881_uniE881_uniE260" unicode="&#xe058;&#xe881;&#xe881;&#xe260;" horiz-adv-x="688" 
d="M136 -627l30 -3c8 -1 13 -5 13 -13c0 -7 -5 -12 -14 -12h-151c-10 0 -14 5 -14 12c0 8 4 12 12 13l32 3c7 0 8 3 11 9l61 192c1 4 2 7 2 10c0 4 -2 6 -5 6c-4 0 -7 -2 -12 -8l-32 -37c-6 -5 -10 -9 -17 -9c-8 0 -14 7 -14 13c0 5 2 10 7 15l96 108c4 5 8 8 14 8
c10 0 16 -8 27 -8c10 0 21 8 31 8c6 0 9 -4 9 -9c0 -3 -1 -6 -3 -10l-86 -276c-3 -7 -4 -12 3 -12zM450 103l49 -285c2 -12 4 -12 16 -6c56 28 94 79 94 142c0 88 -67 156 -148 163c-12 1 -13 -2 -11 -14zM381 262l-21 128c-2 11 -4 12 -14 4c-47 -38 -93 -75 -153 -142
c-83 -94 -93 -173 -93 -232c0 -139 113 -236 288 -236c20 0 40 2 56 5c15 3 16 3 14 14l-50 298c-2 11 -4 12 -20 8c-61 -17 -100 -60 -100 -117c0 -46 30 -89 72 -107c7 -3 15 -6 15 -13c0 -6 -4 -11 -12 -11c-7 0 -19 3 -27 6c-68 23 -115 87 -115 177
c0 85 57 164 145 194c18 6 18 5 15 24zM490 943c-61 0 -133 -96 -133 -252c0 -32 2 -66 6 -92c2 -13 6 -14 13 -8c23 20 47 43 63 59c78 78 111 142 111 211c0 55 -27 82 -60 82zM396 415l25 -145c3 -18 3 -18 29 -18c147 0 241 -113 241 -241c0 -113 -67 -198 -168 -238
c-14 -6 -15 -5 -13 -17c11 -62 29 -157 29 -214c0 -170 -90 -198 -168 -198c-57 0 -102 1 -130 1h-28c-9 1 -13 6 -13 12c0 8 4 12 12 13l32 3c7 0 8 3 11 9l61 192c1 4 2 7 2 10c0 4 -2 6 -5 6c-4 0 -7 -2 -12 -8l-32 -37c-6 -5 -10 -9 -17 -9c-8 0 -14 7 -14 13
c0 5 2 10 7 15l96 108c4 5 8 8 14 8c10 0 16 -8 27 -8c10 0 21 8 31 8c6 0 9 -4 9 -9c0 -3 -1 -6 -3 -10l-86 -276c-3 -7 -4 -12 3 -12l20 -2c30 -1 63 4 84 22c27 23 55 63 55 151c0 47 -15 134 -27 201c-2 12 -4 11 -15 9c-20 -4 -46 -6 -69 -6c-245 0 -364 165 -364 339
c0 107 43 200 112 286c52 64 121 125 185 178c12 10 11 12 9 24c-7 41 -14 106 -14 164c0 104 24 229 98 311c20 22 51 48 65 48c11 0 37 -28 52 -50c41 -60 65 -146 65 -233c0 -113 -50 -232 -134 -324c-19 -21 -40 -42 -56 -57c-6 -6 -8 -7 -6 -19zM617 -552v-43
c0 -12 0 -16 6 -16c7 0 23 15 38 38c11 17 15 34 15 49s-5 32 -22 32c-9 0 -18 -4 -24 -11c-7 -8 -13 -21 -13 -49zM678 -458c28 0 52 -17 52 -50c0 -40 -23 -75 -88 -118c-18 -12 -23 -23 -37 -23c-10 0 -13 6 -14 15c-2 19 -2 279 -2 315c0 11 7 16 19 16
c7 0 13 -3 13 -10c0 -40 -4 -127 -4 -154c0 -7 1 -10 6 -10c4 0 11 4 17 8c11 7 23 11 38 11z" />
    <glyph glyph-name="uniE058_uniE881_uniE883_uniE260" unicode="&#xe058;&#xe881;&#xe883;&#xe260;" horiz-adv-x="694" 
d="M136 -627l30 -3c8 -1 13 -5 13 -13c0 -7 -5 -12 -14 -12h-151c-10 0 -14 5 -14 12c0 8 4 12 12 13l32 3c7 0 8 3 11 9l61 192c1 4 2 7 2 10c0 4 -2 6 -5 6c-4 0 -7 -2 -12 -8l-32 -37c-6 -5 -10 -9 -17 -9c-8 0 -14 7 -14 13c0 5 2 10 7 15l96 108c4 5 8 8 14 8
c10 0 16 -8 27 -8c10 0 21 8 31 8c6 0 9 -4 9 -9c0 -3 -1 -6 -3 -10l-86 -276c-3 -7 -4 -12 3 -12zM455 103l49 -285c2 -12 4 -12 16 -6c56 28 94 79 94 142c0 88 -67 156 -148 163c-12 1 -13 -2 -11 -14zM386 262l-21 128c-2 11 -4 12 -14 4c-47 -38 -93 -75 -153 -142
c-83 -94 -93 -173 -93 -232c0 -139 113 -236 288 -236c20 0 40 2 56 5c15 3 16 3 14 14l-50 298c-2 11 -4 12 -20 8c-61 -17 -100 -60 -100 -117c0 -46 30 -89 72 -107c7 -3 15 -6 15 -13c0 -6 -4 -11 -12 -11c-7 0 -19 3 -27 6c-68 23 -115 87 -115 177
c0 85 57 164 145 194c18 6 18 5 15 24zM495 943c-61 0 -133 -96 -133 -252c0 -32 2 -66 6 -92c2 -13 6 -14 13 -8c23 20 47 43 63 59c78 78 111 142 111 211c0 55 -27 82 -60 82zM401 415l25 -145c3 -18 3 -18 29 -18c147 0 241 -113 241 -241c0 -113 -67 -198 -168 -238
c-14 -6 -15 -5 -13 -17c11 -62 29 -157 29 -214c0 -162 -119 -208 -238 -208c-25 0 -47 3 -69 10c-36 11 -52 36 -52 63c0 30 19 52 44 52c19 0 35 -10 35 -32c0 -24 -13 -35 -23 -39c-7 -4 -12 -7 -12 -11c0 -9 14 -16 33 -16c54 0 82 55 82 95c0 28 -16 49 -50 49h-8
c-12 0 -18 5 -18 13s6 14 18 14h10c52 0 82 33 82 81c0 20 -11 42 -46 42c-19 0 -30 -7 -30 -13c0 -1 5 -6 11 -12c5 -5 8 -12 8 -22c0 -25 -18 -42 -41 -42c-20 0 -34 15 -34 38c2 49 48 79 105 79c56 0 100 -30 100 -76c0 -36 -30 -65 -68 -80c-7 -3 -11 -4 -11 -8
c0 -5 4 -6 10 -9c24 -11 35 -32 35 -56c0 -28 -11 -53 -28 -72c-3 -4 -5 -7 -5 -10c0 -5 6 -6 29 7c16 9 87 42 87 165c0 47 -15 134 -27 201c-2 12 -4 11 -15 9c-20 -4 -46 -6 -69 -6c-245 0 -364 165 -364 339c0 107 43 200 112 286c52 64 121 125 185 178
c12 10 11 12 9 24c-7 41 -14 106 -14 164c0 104 24 229 98 311c20 22 51 48 65 48c11 0 37 -28 52 -50c41 -60 65 -146 65 -233c0 -113 -50 -232 -134 -324c-19 -21 -40 -42 -56 -57c-6 -6 -8 -7 -6 -19zM623 -552v-43c0 -12 0 -16 6 -16c7 0 23 15 38 38c11 17 15 34 15 49
s-5 32 -22 32c-9 0 -18 -4 -24 -11c-7 -8 -13 -21 -13 -49zM684 -458c28 0 52 -17 52 -50c0 -40 -23 -75 -88 -118c-18 -12 -23 -23 -37 -23c-10 0 -13 6 -14 15c-2 19 -2 279 -2 315c0 11 7 16 19 16c7 0 13 -3 13 -10c0 -40 -4 -127 -4 -154c0 -7 1 -10 6 -10
c4 0 11 4 17 8c11 7 23 11 38 11z" />
    <glyph glyph-name="uniE058_uniE881_uniE884_uniE260" unicode="&#xe058;&#xe881;&#xe884;&#xe260;" horiz-adv-x="731" 
d="M657 -552v-43c0 -12 0 -16 6 -16c7 0 23 15 38 38c11 17 15 34 15 49s-5 32 -22 32c-9 0 -18 -4 -24 -11c-7 -8 -13 -21 -13 -49zM631 -634c-2 19 -2 279 -2 315c0 11 7 16 19 16c7 0 13 -3 13 -10c0 -40 -4 -127 -4 -154c0 -7 1 -10 6 -10c4 0 11 4 17 8
c11 7 23 11 38 11c28 0 52 -17 52 -50c0 -40 -23 -75 -88 -118c-18 -12 -23 -23 -37 -23c-10 0 -13 6 -14 15zM489 103l49 -285c2 -12 4 -12 16 -6c56 28 94 79 94 142c0 88 -67 156 -148 163c-12 1 -13 -2 -11 -14zM45 -436l96 108c4 5 8 8 14 8c10 0 16 -8 27 -8
c10 0 21 8 31 8c6 0 9 -4 9 -9c0 -3 -1 -6 -3 -10l-86 -276c-3 -7 -4 -12 3 -12l30 -3c8 -1 13 -5 13 -13c0 -7 -5 -12 -14 -12h-151c-10 0 -14 5 -14 12c0 8 4 12 12 13l32 3c7 0 8 3 11 9l61 192c1 4 2 7 2 10c0 4 -2 6 -5 6c-4 0 -7 -2 -12 -8l-32 -37
c-6 -5 -10 -9 -17 -9c-8 0 -14 7 -14 13c0 5 2 10 7 15zM478 650c78 78 111 142 111 211c0 55 -27 82 -60 82c-61 0 -133 -96 -133 -252c0 -32 2 -66 6 -92c2 -13 6 -14 13 -8c23 20 47 43 63 59zM420 262l-21 128c-2 11 -4 12 -14 4c-47 -38 -93 -75 -153 -142
c-83 -94 -93 -173 -93 -232c0 -139 113 -236 288 -236c20 0 40 2 56 5c15 3 16 3 14 14l-50 298c-2 11 -4 12 -20 8c-61 -17 -100 -60 -100 -117c0 -46 30 -89 72 -107c7 -3 15 -6 15 -13c0 -6 -4 -11 -12 -11c-7 0 -19 3 -27 6c-68 23 -115 87 -115 177
c0 85 57 164 145 194c18 6 18 5 15 24zM413 -537h26c8 0 13 -5 13 -12c0 -8 -5 -13 -13 -13h-31c-7 0 -8 -3 -10 -8l-13 -45c-3 -7 -4 -12 2 -12l15 -1c26 -1 59 5 78 20c28 22 54 64 54 152c0 47 -15 134 -27 201c-2 12 -4 11 -15 9c-20 -4 -46 -6 -69 -6
c-245 0 -364 165 -364 339c0 107 43 200 112 286c52 64 121 125 185 178c12 10 11 12 9 24c-7 41 -14 106 -14 164c0 104 24 229 98 311c20 22 51 48 65 48c11 0 37 -28 52 -50c41 -60 65 -146 65 -233c0 -113 -50 -232 -134 -324c-19 -21 -40 -42 -56 -57
c-6 -6 -8 -7 -6 -19l25 -145c3 -18 3 -18 29 -18c147 0 241 -113 241 -241c0 -113 -67 -198 -168 -238c-14 -6 -15 -5 -13 -17c11 -62 29 -157 29 -214c0 -170 -90 -198 -168 -198c-57 0 -95 1 -119 1h-25c-10 0 -14 5 -14 12c0 8 4 12 12 13l32 3c7 0 8 3 11 9l15 49
c1 5 -1 7 -4 7h-123c-10 0 -16 4 -16 11c0 5 4 10 9 16c35 35 64 66 90 104c23 33 42 73 50 101c1 5 4 10 11 10c12 0 26 -8 43 -8c16 0 30 8 43 8c7 0 10 -3 10 -8c0 -2 -1 -5 -4 -10c-44 -57 -122 -133 -191 -188c-4 -3 -5 -5 -5 -7s1 -4 7 -4h81c6 0 8 2 9 7l16 51
c2 7 4 10 10 17l58 63c7 8 12 12 20 12s13 -3 13 -9c0 -3 -2 -10 -4 -17l-36 -117c-2 -5 0 -7 4 -7z" />
    <glyph glyph-name="uniE058_uniE881_uniE885_uniE260" unicode="&#xe058;&#xe881;&#xe885;&#xe260;" horiz-adv-x="713" 
d="M136 -627l30 -3c8 -1 13 -5 13 -13c0 -7 -5 -12 -14 -12h-151c-10 0 -14 5 -14 12c0 8 4 12 12 13l32 3c7 0 8 3 11 9l61 192c1 4 2 7 2 10c0 4 -2 6 -5 6c-4 0 -7 -2 -12 -8l-32 -37c-6 -5 -10 -9 -17 -9c-8 0 -14 7 -14 13c0 5 2 10 7 15l96 108c4 5 8 8 14 8
c10 0 16 -8 27 -8c10 0 21 8 31 8c6 0 9 -4 9 -9c0 -3 -1 -6 -3 -10l-86 -276c-3 -7 -4 -12 3 -12zM473 103l49 -285c2 -12 4 -12 16 -6c56 28 94 79 94 142c0 88 -67 156 -148 163c-12 1 -13 -2 -11 -14zM404 262l-21 128c-2 11 -4 12 -14 4c-47 -38 -93 -75 -153 -142
c-83 -94 -93 -173 -93 -232c0 -139 113 -236 288 -236c20 0 40 2 56 5c15 3 16 3 14 14l-50 298c-2 11 -4 12 -20 8c-61 -17 -100 -60 -100 -117c0 -46 30 -89 72 -107c7 -3 15 -6 15 -13c0 -6 -4 -11 -12 -11c-7 0 -19 3 -27 6c-68 23 -115 87 -115 177
c0 85 57 164 145 194c18 6 18 5 15 24zM513 943c-61 0 -133 -96 -133 -252c0 -32 2 -66 6 -92c2 -13 6 -14 13 -8c23 20 47 43 63 59c78 78 111 142 111 211c0 55 -27 82 -60 82zM419 415l25 -145c3 -18 3 -18 29 -18c147 0 241 -113 241 -241c0 -113 -67 -198 -168 -238
c-14 -6 -15 -5 -13 -17c11 -62 29 -157 29 -214c0 -162 -119 -208 -238 -208c-35 0 -65 3 -85 11c-32 12 -47 36 -47 62c0 30 19 52 43 52c19 0 35 -10 35 -32c0 -24 -13 -35 -22 -39c-7 -4 -12 -7 -12 -11c0 -9 14 -16 32 -16c59 0 88 73 88 117c0 25 -11 46 -42 46
c-28 0 -46 -19 -54 -27c-6 -7 -11 -10 -17 -10c-8 0 -14 5 -14 14c0 5 1 8 4 17l49 145c4 10 10 15 20 15c6 0 11 -1 24 -5c11 -3 29 -7 54 -7c26 0 49 3 67 9c12 3 17 6 22 6s8 -4 8 -9c0 -6 -3 -11 -12 -19c-28 -26 -68 -51 -121 -51c-12 0 -25 2 -35 3c-9 2 -13 2 -16 -7
l-14 -41c-3 -9 -1 -14 13 -10c11 4 24 6 42 6c58 0 95 -21 95 -74c0 -45 -18 -82 -48 -107h1c-4 -4 -7 -6 -7 -9c0 -6 9 -5 33 5c18 8 110 36 110 176c0 47 -15 134 -27 201c-2 12 -4 11 -15 9c-20 -4 -46 -6 -69 -6c-245 0 -364 165 -364 339c0 107 43 200 112 286
c52 64 121 125 185 178c12 10 11 12 9 24c-7 41 -14 106 -14 164c0 104 24 229 98 311c20 22 51 48 65 48c11 0 37 -28 52 -50c41 -60 65 -146 65 -233c0 -113 -50 -232 -134 -324c-19 -21 -40 -42 -56 -57c-6 -6 -8 -7 -6 -19zM639 -552v-43c0 -12 0 -16 6 -16
c7 0 23 15 38 38c11 17 15 34 15 49s-5 32 -22 32c-9 0 -18 -4 -24 -11c-7 -8 -13 -21 -13 -49zM700 -458c28 0 52 -17 52 -50c0 -40 -23 -75 -88 -118c-18 -12 -23 -23 -37 -23c-10 0 -13 6 -14 15c-2 19 -2 279 -2 315c0 11 7 16 19 16c7 0 13 -3 13 -10
c0 -40 -4 -127 -4 -154c0 -7 1 -10 6 -10c4 0 11 4 17 8c11 7 23 11 38 11z" />
    </font>
</defs>
</svg>
