<?xml version="1.0" standalone="no"?>
<!DOCTYPE svg PUBLIC "-//W3C//DTD SVG 1.1//EN" "http://www.w3.org/Graphics/SVG/1.1/DTD/svg11.dtd" >
<svg xmlns="http://www.w3.org/2000/svg" xmlns:xlink="http://www.w3.org/1999/xlink" version="1.1">
<metadata>
Created by FontForge 20220308 at Thu Jun  9 11:39:13 2022
 By Klaus Rettinghaus
Copyright \(c\) 2021, MuseScore BVBA \(http://www.musescore.org/\)
</metadata>
<defs>
<font id="Leland" horiz-adv-x="325" >
  <font-face 
    font-family="Leland"
    font-weight="400"
    font-stretch="normal"
    units-per-em="1000"
    panose-1="0 0 0 0 0 0 0 0 0 0"
    ascent="800"
    descent="-200"
    bbox="-273 -2009 2276 2002"
    underline-thickness="50"
    underline-position="-125"
    stemh="32"
    stemv="28"
    unicode-range="U+000D-F630"
  />
<missing-glyph horiz-adv-x="500" 
 />
    <glyph glyph-name="uniE527" unicode="&#xe520;&#xe520;&#xe520;&#xe520;&#xe520;&#xe520;" horiz-adv-x="1970" 
d="M1880 259c15 -4 57 -21 57 -88c0 -16 -2 -34 -8 -56c-21 -81 -77 -137 -132 -137c-6 0 -13 0 -19 2c-34 9 -44 31 -44 31l-3 7l-58 -161h76v-20h-225v20h62l99 276c12 32 23 58 23 75c0 11 -5 18 -15 21c-3 1 -5 1 -8 1c-16 0 -35 -13 -43 -26c-10 -17 -23 -40 -38 -90
c-21 -80 -76 -136 -131 -136c-6 0 -13 0 -19 2c-34 9 -44 31 -44 31l-2 7l-59 -161h76v-20h-225v20h62l99 276c12 32 23 58 23 75c0 11 -5 18 -15 21c-3 1 -5 1 -8 1c-16 0 -35 -13 -43 -26c-10 -17 -22 -40 -37 -90c-21 -80 -77 -136 -132 -136c-6 0 -13 0 -19 2
c-34 9 -44 31 -44 31l-2 7l-59 -161h76v-20h-225v20h62l99 276c12 32 23 58 23 75c0 11 -5 18 -15 21c-3 1 -5 1 -8 1c-16 0 -35 -13 -43 -26c-10 -17 -22 -40 -37 -90c-21 -80 -77 -136 -132 -136c-6 0 -13 0 -19 2c-34 9 -43 31 -43 31l-3 7l-59 -161h76v-20h-225v20h62
l99 276c12 32 23 58 23 75c0 10 -4 18 -14 21c-3 1 -5 1 -8 1c-16 0 -35 -13 -43 -26c-10 -17 -23 -40 -38 -90c-21 -80 -77 -136 -132 -136c-6 0 -13 0 -19 2c-34 9 -43 31 -43 31l-3 7l-59 -161h76v-20h-225v20h62l99 276c12 32 23 58 23 75c0 10 -4 18 -14 21
c-3 1 -5 1 -8 1c-16 0 -35 -13 -43 -26c-10 -17 -23 -40 -38 -90c-21 -80 -76 -136 -131 -136c-6 0 -13 0 -19 2c-34 9 -44 31 -44 31l-3 7l-58 -161h75v-20h-224v20h61l99 276c5 10 23 53 23 77c0 7 -1 12 -5 15c-2 1 -5 2 -8 2h-4c-9 -2 -21 -10 -27 -19
c-12 -16 -22 -47 -26 -60l-18 9c29 83 63 106 96 106c4 0 7 -1 11 -1c35 -5 56 -43 56 -43l2 -4l3 3c17 17 48 43 79 43c4 0 9 -1 13 -2c13 -3 46 -16 55 -63c23 54 67 67 101 67c5 0 10 0 15 -1c35 -5 56 -43 56 -43l2 -4l3 3c17 17 48 43 79 43c4 0 9 -1 13 -2
c13 -3 46 -16 55 -63c23 54 67 67 101 67c5 0 10 0 15 -1c35 -5 56 -43 56 -43l2 -4l3 3c17 17 48 43 79 43c4 0 9 -1 13 -2c13 -3 46 -16 55 -63c23 53 66 66 100 66c6 0 11 0 16 -1c35 -5 56 -43 56 -43l2 -3l3 3c17 17 48 43 79 43c4 0 9 -1 13 -2c13 -3 46 -16 55 -63
c23 53 66 66 100 66c6 0 11 0 16 -1c35 -5 56 -43 56 -43l2 -3l2 3c17 17 49 43 80 43c4 0 9 -1 13 -2c13 -3 46 -16 55 -63c23 53 66 66 100 66c6 0 11 0 16 -1c35 -5 56 -43 56 -43l2 -3l2 3c17 17 49 43 80 43c4 0 9 -1 13 -2zM231 112c6 18 16 54 16 81c0 9 -1 17 -4 23
c-2 4 -6 8 -10 9c-2 1 -5 1 -8 1c-6 0 -12 -2 -19 -6c-26 -15 -55 -57 -64 -95c-1 -2 -12 -38 -12 -69c0 -19 4 -37 19 -43c2 -1 6 -2 8 -2c3 0 8 1 11 3c25 12 50 59 63 98zM554 112h1c6 18 16 54 16 81c0 9 -1 17 -4 23c-2 4 -6 8 -10 9c-2 1 -5 1 -8 1
c-6 0 -12 -2 -19 -6c-26 -15 -55 -57 -64 -95c-1 -2 -12 -38 -12 -69c0 -19 4 -37 19 -43c2 -1 5 -2 7 -2h1c3 0 8 1 11 3c25 12 49 59 62 98zM878 112c6 18 17 55 17 82c0 9 -1 17 -4 22c-2 4 -6 8 -10 9c-2 1 -5 1 -8 1c-6 0 -12 -2 -19 -6c-26 -15 -55 -57 -64 -95
c-1 -2 -12 -38 -12 -69c0 -19 4 -37 19 -43c2 -1 5 -2 7 -2c3 0 9 1 12 3c25 12 49 59 62 98zM1202 112c6 18 17 55 17 82c0 9 -1 17 -4 22c-2 4 -6 8 -10 9c-2 1 -5 1 -8 1c-6 0 -13 -2 -20 -6c-26 -15 -54 -57 -63 -95c-1 -2 -12 -38 -12 -69c0 -19 4 -37 19 -43
c2 -1 5 -2 7 -2c3 0 9 1 12 3c25 12 49 59 62 98zM1526 112c6 18 17 55 17 82c0 9 -1 17 -4 22c-2 4 -6 8 -10 9c-2 1 -5 1 -8 1c-6 0 -13 -2 -20 -6c-26 -15 -54 -57 -63 -95c-1 -2 -12 -38 -12 -69c0 -19 4 -37 19 -43c2 -1 5 -2 7 -2c3 0 9 1 12 3c25 12 49 59 62 98z
M1850 112c6 18 17 55 17 82c0 9 -1 17 -4 22c-2 4 -6 8 -10 9c-2 1 -5 1 -8 1c-6 0 -13 -2 -20 -6c-26 -15 -54 -57 -63 -95c-1 -2 -12 -38 -12 -69c0 -19 4 -37 19 -43c2 -1 5 -2 7 -2c3 0 9 1 12 3c25 12 49 59 62 98z" />
    <glyph glyph-name="uniE528" unicode="&#xe520;&#xe520;&#xe520;&#xe520;&#xe520;" horiz-adv-x="1646" 
d="M1556 259c15 -4 57 -21 57 -88c0 -16 -2 -34 -8 -56c-21 -81 -77 -137 -132 -137c-6 0 -13 0 -19 2c-34 9 -44 31 -44 31l-2 7l-59 -161h76v-20h-225v20h62l99 276c12 32 23 58 23 75c0 10 -4 18 -14 21c-3 1 -5 1 -8 1c-17 0 -36 -13 -44 -26c-10 -17 -22 -40 -37 -90
c-21 -80 -77 -136 -132 -136c-6 0 -13 0 -19 2c-34 9 -43 31 -43 31l-3 7l-59 -161h76v-20h-225v20h62l99 276c12 32 23 58 23 75c0 10 -4 18 -14 21c-3 1 -5 1 -8 1c-17 0 -36 -13 -44 -26c-10 -17 -22 -40 -37 -90c-21 -80 -77 -136 -132 -136c-6 0 -13 0 -19 2
c-34 9 -43 31 -43 31l-3 7l-58 -161h75v-20h-225v20h62l99 276c12 32 23 58 23 75c0 10 -4 18 -14 21c-3 1 -5 1 -8 1c-16 0 -35 -13 -43 -26c-10 -17 -23 -40 -38 -90c-21 -80 -77 -136 -132 -136c-6 0 -13 0 -19 2c-34 9 -43 31 -43 31l-3 7l-58 -161h75v-20h-225v20h62
l99 276c12 32 23 58 23 75c0 10 -4 18 -14 21c-3 1 -5 1 -8 1c-16 0 -35 -13 -43 -26c-10 -17 -23 -40 -38 -90c-21 -80 -76 -136 -131 -136c-6 0 -13 0 -19 2c-34 9 -44 31 -44 31l-3 7l-58 -161h75v-20h-224v20h61l99 276c5 10 23 53 23 77c0 7 -1 12 -5 15
c-2 1 -5 2 -8 2h-4c-9 -2 -21 -10 -27 -19c-12 -16 -22 -47 -26 -60l-18 9c29 83 63 105 96 105c4 0 7 0 11 -1c35 -5 56 -43 56 -43l2 -3l3 3c17 17 48 43 79 43c4 0 9 -1 13 -2c13 -3 46 -16 55 -63c23 53 66 66 100 66c6 0 11 0 16 -1c35 -5 56 -43 56 -43l2 -3l3 3
c17 17 48 43 79 43c4 0 9 -1 13 -2c13 -3 46 -17 55 -64c23 54 67 67 101 67c5 0 10 0 15 -1c35 -5 56 -43 56 -43l2 -3l3 3c17 17 48 43 79 43c4 0 9 -1 13 -2c13 -3 46 -17 55 -64c23 54 67 67 101 67c5 0 10 0 15 -1c35 -5 56 -43 56 -43l2 -3l3 3c17 17 48 43 79 43
c4 0 9 -1 13 -2c13 -3 46 -17 55 -64c23 54 67 67 101 67c5 0 10 0 15 -1c35 -5 56 -43 56 -43l2 -3l3 3c17 17 48 43 79 43c4 0 9 -1 13 -2zM231 112c6 18 16 54 16 81c0 9 -1 17 -4 23c-2 4 -6 8 -10 9c-2 1 -5 1 -8 1c-6 0 -12 -2 -19 -6c-26 -15 -55 -57 -64 -95
c-1 -2 -12 -38 -12 -69c0 -19 4 -37 19 -43c2 -1 6 -2 8 -2c3 0 8 1 11 3c25 12 50 59 63 98zM555 112c6 18 16 54 16 81c0 9 -1 17 -4 23c-2 4 -6 8 -10 9c-2 1 -5 1 -8 1c-6 0 -12 -2 -19 -6c-26 -15 -55 -57 -64 -95c-1 -2 -12 -38 -12 -69c0 -19 4 -37 19 -43
c2 -1 6 -2 8 -2c3 0 8 1 11 3c25 12 50 59 63 98zM879 112h-1c6 18 17 55 17 82c0 9 -1 17 -4 22c-2 4 -6 8 -10 9c-2 1 -5 1 -8 1c-6 0 -12 -2 -19 -6c-26 -15 -55 -57 -64 -95c-1 -2 -12 -38 -12 -69c0 -19 4 -37 19 -43c2 -1 6 -2 8 -2c3 0 8 1 11 3c25 12 50 59 63 98z
M1202 112c6 18 17 55 17 82c0 9 -1 17 -4 22c-2 4 -6 8 -10 9c-2 1 -5 1 -8 1c-6 0 -12 -2 -19 -6c-26 -15 -55 -57 -64 -95c-1 -2 -12 -38 -12 -69c0 -19 4 -37 19 -43c2 -1 5 -2 7 -2c3 0 9 1 12 3c25 12 49 59 62 98zM1526 112c6 18 17 55 17 82c0 9 -1 17 -4 22
c-2 4 -6 8 -10 9c-2 1 -5 1 -8 1c-6 0 -12 -2 -19 -6c-26 -15 -55 -57 -64 -95c-1 -2 -12 -38 -12 -69c0 -19 4 -37 19 -43c2 -1 5 -2 7 -2c3 0 9 1 12 3c25 12 49 59 62 98z" />
    <glyph glyph-name="uniE529" unicode="&#xe520;&#xe520;&#xe520;&#xe520;" horiz-adv-x="1322" 
d="M1232 259c15 -4 57 -21 57 -88c0 -16 -2 -34 -8 -56c-21 -81 -77 -137 -132 -137c-6 0 -13 0 -19 2c-34 9 -44 31 -44 31l-2 7l-59 -161h76v-20h-225v20h62l99 276c12 32 23 58 23 75c0 10 -4 18 -14 21c-3 1 -5 1 -8 1c-17 0 -36 -13 -44 -26c-10 -17 -22 -40 -37 -90
c-21 -80 -77 -136 -132 -136c-6 0 -13 0 -19 2c-34 9 -43 31 -43 31l-3 7l-59 -161h76v-20h-225v20h62l99 276c12 32 23 58 23 75c0 10 -4 18 -14 21c-3 1 -5 1 -8 1c-17 0 -36 -13 -44 -26c-10 -17 -22 -40 -37 -90c-21 -80 -77 -136 -132 -136c-6 0 -13 0 -19 2
c-34 9 -43 31 -43 31l-3 7l-58 -161h75v-20h-225v20h62l99 276c12 32 23 58 23 75c0 10 -4 18 -14 21c-3 1 -5 1 -8 1c-16 0 -35 -13 -43 -26c-10 -17 -23 -40 -38 -90c-21 -80 -76 -136 -131 -136c-6 0 -13 0 -19 2c-34 9 -44 31 -44 31l-3 7l-58 -161h75v-20h-224v20h61
l99 276c5 10 23 53 23 77c0 7 -1 12 -5 15c-2 1 -5 2 -8 2h-4c-9 -2 -21 -10 -27 -19c-12 -16 -22 -47 -26 -60l-18 9c29 83 63 106 96 106c4 0 7 -1 11 -1c35 -5 56 -43 56 -43l2 -4l3 3c17 17 48 43 79 43c4 0 9 -1 13 -2c13 -3 46 -16 55 -63c23 53 66 66 100 66
c6 0 11 0 16 -1c35 -5 56 -43 56 -43l2 -3l3 3c17 17 48 43 79 43c4 0 9 -1 13 -2c13 -3 46 -16 55 -63c23 53 66 66 100 66c6 0 11 0 16 -1c35 -5 56 -43 56 -43l2 -3l3 3c17 17 48 43 79 43c4 0 9 -1 13 -2c13 -3 46 -16 55 -63c23 53 66 66 100 66c6 0 11 0 16 -1
c35 -5 56 -43 56 -43l2 -3l3 3c17 17 48 43 79 43c4 0 9 -1 13 -2zM231 112c6 18 16 54 16 81c0 9 -1 17 -4 23c-2 4 -6 8 -10 9c-2 1 -5 1 -8 1c-6 0 -12 -2 -19 -6c-26 -15 -55 -57 -64 -95c-1 -2 -12 -38 -12 -69c0 -19 4 -37 19 -43c2 -1 6 -2 8 -2c3 0 8 1 11 3
c25 12 50 59 63 98zM555 112c6 18 16 54 16 81c0 9 -1 17 -4 23c-2 4 -6 8 -10 9c-2 1 -5 1 -8 1c-6 0 -12 -2 -19 -6c-26 -15 -55 -57 -64 -95c-1 -2 -12 -38 -12 -69c0 -19 4 -37 19 -43c2 -1 5 -2 7 -2h1c3 0 8 1 11 3c25 12 50 59 63 98zM878 112c6 18 17 55 17 82
c0 9 -1 17 -4 22c-2 4 -6 8 -10 9c-2 1 -5 1 -8 1c-6 0 -12 -2 -19 -6c-26 -15 -55 -57 -64 -95c-1 -2 -12 -38 -12 -69c0 -19 4 -37 19 -43c2 -1 5 -2 7 -2c3 0 9 1 12 3c25 12 49 59 62 98zM1202 112c6 18 17 55 17 82c0 9 -1 17 -4 22c-2 4 -6 8 -10 9c-2 1 -5 1 -8 1
c-6 0 -12 -2 -19 -6c-26 -15 -55 -57 -64 -95c-1 -2 -12 -38 -12 -69c0 -19 4 -37 19 -43c2 -1 5 -2 7 -2c3 0 9 1 12 3c25 12 49 59 62 98z" />
    <glyph glyph-name="uniE52A" unicode="&#xe520;&#xe520;&#xe520;" horiz-adv-x="998" 
d="M908 259c15 -4 57 -21 57 -88c0 -16 -2 -34 -8 -56c-21 -81 -77 -137 -132 -137c-6 0 -13 0 -19 2c-34 9 -43 31 -43 31l-3 7l-59 -161h76v-20h-225v20h62l99 276c12 32 23 58 23 75c0 10 -4 18 -14 21c-3 1 -5 1 -8 1c-16 0 -35 -13 -43 -26c-10 -17 -23 -40 -38 -90
c-21 -80 -77 -136 -132 -136c-6 0 -13 0 -19 2c-34 9 -43 31 -43 31l-3 7l-58 -161h75v-20h-225v20h62l99 276c12 32 23 58 23 75c0 10 -4 18 -14 21c-3 1 -5 1 -8 1c-16 0 -35 -13 -43 -26c-10 -17 -23 -40 -38 -90c-21 -80 -76 -136 -131 -136c-6 0 -13 0 -19 2
c-34 9 -44 31 -44 31l-3 7l-58 -161h75v-20h-224v20h61l99 276c5 10 23 54 23 78c0 7 -1 12 -5 15c-2 1 -5 2 -8 2h-4c-9 -2 -20 -10 -26 -19c-12 -16 -23 -48 -27 -61l-18 9c29 83 63 106 96 106c4 0 7 -1 11 -1c35 -5 56 -43 56 -43l2 -4l3 3c17 17 48 43 79 43
c4 0 9 -1 13 -2c13 -3 46 -16 55 -63c23 54 67 67 101 67c5 0 10 0 15 -1c35 -5 56 -43 56 -43l2 -4l3 3c17 17 48 43 79 43c4 0 9 -1 13 -2c13 -3 46 -16 55 -63c23 54 67 67 101 67c5 0 10 0 15 -1c35 -5 56 -43 56 -43l2 -4l3 3c17 17 48 43 79 43c4 0 9 -1 13 -2z
M231 112c6 18 16 54 16 81c0 9 -1 17 -4 23c-2 4 -6 8 -10 9c-2 1 -5 1 -8 1c-6 0 -12 -2 -19 -6c-26 -15 -55 -57 -64 -95c-1 -2 -12 -38 -12 -69c0 -19 4 -37 19 -43c2 -1 6 -1 8 -1c3 0 8 0 11 2c25 12 50 59 63 98zM555 112c6 18 16 54 16 81c0 9 -1 17 -4 23
c-2 4 -6 8 -10 9c-2 1 -5 1 -8 1c-6 0 -12 -2 -19 -6c-26 -15 -55 -57 -64 -95c-1 -2 -12 -38 -12 -69c0 -19 4 -37 19 -43c2 -1 6 -1 8 -1c3 0 8 0 11 2c25 12 50 59 63 98zM879 112h-1c6 18 17 55 17 82c0 9 -1 17 -4 22c-2 4 -6 8 -10 9c-2 1 -5 1 -8 1
c-6 0 -12 -2 -19 -6c-26 -15 -55 -57 -64 -95c-1 -2 -12 -38 -12 -69c0 -19 4 -37 19 -43c2 -1 5 -1 7 -1c3 0 9 0 12 2c25 12 50 59 63 98z" />
    <glyph glyph-name="uniE52B" unicode="&#xe520;&#xe520;" horiz-adv-x="674" 
d="M584 259c15 -4 57 -21 57 -88c0 -16 -2 -34 -8 -56c-21 -81 -77 -137 -132 -137c-6 0 -13 0 -19 2c-34 9 -43 31 -43 31l-3 7l-58 -161h75v-20h-225v20h62l99 276c12 32 23 58 23 75c0 10 -4 18 -14 21c-3 1 -5 1 -8 1c-16 0 -35 -13 -43 -26c-10 -17 -23 -40 -38 -90
c-21 -80 -76 -136 -131 -136c-6 0 -13 0 -19 2c-34 9 -44 31 -44 31l-3 7l-58 -161h75v-20h-224v20h61l99 276c5 10 23 54 23 78c0 7 -1 12 -5 15c-2 1 -5 2 -8 2h-4c-9 -2 -20 -10 -26 -19c-12 -16 -23 -48 -27 -61l-18 9c29 83 63 106 96 106c4 0 7 -1 11 -1
c35 -5 56 -43 56 -43l2 -4l3 3c17 17 48 43 79 43c4 0 9 -1 13 -2c13 -3 46 -16 55 -63c23 54 67 67 101 67c5 0 10 0 15 -1c35 -5 56 -43 56 -43l2 -4l3 3c17 17 48 43 79 43c4 0 9 -1 13 -2zM231 112c6 18 16 54 16 81c0 9 -1 17 -4 23c-2 4 -6 8 -10 9c-2 1 -5 1 -8 1
c-6 0 -12 -2 -19 -6c-26 -15 -55 -57 -64 -95c-1 -2 -12 -38 -12 -69c0 -19 4 -37 19 -43c2 -1 6 -1 8 -1c3 0 8 0 11 2c25 12 50 59 63 98zM555 112c6 18 16 54 16 81c0 9 -1 17 -4 23c-2 4 -6 8 -10 9c-2 1 -5 1 -8 1c-6 0 -12 -2 -19 -6c-26 -15 -55 -57 -64 -95
c-1 -2 -12 -38 -12 -69c0 -19 4 -37 19 -43c2 -1 6 -1 8 -1c3 0 8 0 11 2c25 12 50 59 63 98z" />
    <glyph glyph-name="uniE52C" unicode="&#xe521;&#xe520;" horiz-adv-x="729" 
d="M508 -163h-224v20h61l99 276c5 10 23 54 23 78c0 7 -1 12 -5 15c-2 2 -5 2 -8 2h-4c-9 -2 -21 -10 -27 -19c-12 -16 -22 -48 -26 -61l-18 9c16 46 42 106 99 106l5 -1h3c35 -5 56 -43 56 -43l2 -4l3 3c17 17 48 43 79 43c46 0 70 -49 70 -90c0 -76 -54 -193 -139 -193
c-6 0 -13 0 -19 2c-34 9 -44 31 -44 31l-3 7l-58 -161h75v-20zM339 44c7 12 18 39 18 39l17 -8s0 -1 -1 -1v-3c-14 -37 -31 -73 -76 -73c-34 0 -50 23 -50 54c0 14 3 29 9 45c21 54 27 94 27 104c0 5 -3 8 -5 9c0 0 -1 0 -2 1h-1h-1l-1 -1c-24 -10 -56 -52 -76 -192
c0 -3 -1 -6 -1 -7c-2 -11 -7 -12 -11 -12h-55c-8 0 -10 5 -10 12v4c0 0 15 47 30 96c12 41 22 73 22 90c0 5 -1 9 -3 11c-1 2 -4 3 -6 3c-37 0 -79 -154 -89 -200c-4 -16 -9 -16 -11 -16h-53c-4 0 -6 2 -8 4c-1 2 -2 4 -2 7l1 3c3 10 40 121 40 122c11 32 19 56 19 70
c0 8 -2 13 -8 15c-2 1 -3 1 -5 1c-22 0 -39 -54 -39 -54l-15 8c11 34 33 76 74 76c4 0 9 0 14 -1c25 -5 38 -34 38 -34l1 -5l3 4c17 23 38 34 66 34c27 0 43 -35 43 -35l2 -5l2 4c13 17 41 36 67 36c21 0 33 -13 38 -40c1 -4 1 -9 1 -14c0 -27 -7 -68 -13 -86
c-4 -9 -17 -56 -17 -64c0 -5 2 -9 7 -11c2 -1 3 -1 5 -1c5 0 10 2 15 11zM536 12c3 0 8 0 11 2c44 21 79 131 79 179c0 10 -2 29 -14 32c-2 1 -5 1 -7 1c-39 0 -77 -70 -84 -101c-1 -2 -12 -38 -12 -69c0 -19 4 -37 19 -43c2 -1 6 -1 8 -1z" />
    <glyph glyph-name="uniE52D" unicode="&#xe521;&#xe522;" horiz-adv-x="741" 
d="M289 -60c36 0 45 -26 45 -40c0 -16 -6 -34 -25 -42c-5 -2 -7 -6 -8 -10c0 -5 1 -8 5 -11s9 -5 14 -5c6 0 12 2 17 5c24 16 30 45 51 127l3 12c12 46 21 84 29 121c7 33 15 67 25 107v4h-62c-6 0 -10 4 -10 10v22c0 6 4 10 10 10h76v2c25 74 66 169 159 169
c45 0 90 -26 90 -76c0 -6 0 -12 -2 -17c-5 -20 -26 -36 -47 -36c-7 0 -14 2 -18 4c-10 4 -18 13 -21 22c-1 5 -2 9 -2 14c0 14 5 27 15 35c4 2 6 7 6 12c0 6 -5 12 -11 13c-1 0 -3 1 -5 1c-5 0 -12 -2 -20 -8c-15 -12 -23 -30 -51 -132v-3h59c6 0 10 -4 10 -10v-22
c0 -6 -4 -10 -10 -10h-72v-2c-7 -23 -16 -54 -25 -86c-24 -85 -72 -234 -116 -278c-25 -25 -48 -35 -80 -35c-46 0 -81 29 -81 81c0 27 25 52 52 52zM339 44c7 12 18 39 18 39l17 -8s0 -1 -1 -1v-3c-14 -37 -31 -73 -76 -73c-34 0 -50 23 -50 54c0 14 3 29 9 45
c21 54 27 94 27 104c0 5 -3 8 -5 9c0 0 -1 0 -2 1h-1h-1l-1 -1c-24 -10 -56 -52 -76 -192c0 -3 -1 -6 -1 -7c-2 -11 -7 -12 -11 -12h-55c-8 0 -10 5 -10 12v4c0 0 15 47 30 96c12 41 22 73 22 90c0 5 -1 9 -3 11c-1 2 -4 3 -6 3c-37 0 -79 -154 -89 -200
c-4 -16 -9 -16 -11 -16h-53c-4 0 -6 2 -8 4c-1 2 -2 4 -2 7l1 3c3 10 40 121 40 122c11 32 19 56 19 70c0 8 -2 13 -8 15c-2 1 -3 1 -5 1c-22 0 -39 -54 -39 -54l-15 8c11 34 33 76 74 76c4 0 9 0 14 -1c25 -5 38 -34 38 -34l1 -5l3 4c17 23 38 34 66 34c27 0 43 -35 43 -35
l2 -5l2 4c13 17 41 36 67 36c21 0 33 -13 38 -40c1 -4 1 -9 1 -14c0 -27 -7 -68 -13 -86c-4 -9 -17 -56 -17 -64c0 -5 2 -9 7 -11c2 -1 3 -1 5 -1c5 0 10 2 15 11z" />
    <glyph glyph-name="uniE52E" unicode="&#xe520;&#xe522;" horiz-adv-x="719" 
d="M277 -60c36 0 45 -26 45 -40c0 -16 -6 -34 -25 -42c-5 -2 -7 -6 -8 -10c0 -5 1 -8 5 -11s9 -5 14 -5c6 0 12 2 17 5c24 16 30 45 51 127l3 12c12 46 21 84 29 121c7 33 15 67 25 107v4h-62c-6 0 -10 4 -10 10v22c0 6 4 10 10 10h76v2c25 74 66 169 159 169
c45 0 90 -26 90 -76c0 -6 0 -12 -2 -17c-5 -20 -26 -36 -47 -36c-7 0 -14 2 -18 4c-10 4 -18 13 -21 22c-1 5 -2 9 -2 14c0 14 5 27 15 35c4 2 6 7 6 12c0 6 -5 12 -11 13c-1 0 -3 1 -5 1c-5 0 -12 -2 -20 -8c-15 -12 -23 -30 -51 -132v-3h59c6 0 10 -4 10 -10v-22
c0 -6 -4 -10 -10 -10h-72v-2c-7 -23 -16 -54 -25 -86c-24 -85 -72 -234 -116 -278c-25 -25 -48 -35 -80 -35c-46 0 -81 29 -81 81c0 27 25 52 52 52zM129 -163h-224v20h61l99 276c5 10 23 54 23 78c0 7 -1 12 -5 15c-2 2 -5 2 -8 2h-4c-9 -2 -21 -10 -27 -19
c-12 -16 -22 -48 -26 -61l-18 9c16 46 42 106 99 106l5 -1h3c35 -5 56 -43 56 -43l2 -4l3 3c17 17 48 43 79 43c46 0 70 -49 70 -90c0 -76 -54 -193 -139 -193c-6 0 -13 0 -19 2c-34 9 -44 31 -44 31l-3 7l-58 -161h75v-20zM157 12c3 0 8 0 11 2c44 21 79 131 79 179
c0 10 -2 29 -14 32c-2 1 -5 1 -7 1c-39 0 -77 -70 -84 -101c-1 -2 -12 -38 -12 -69c0 -19 4 -37 19 -43c2 -1 6 -1 8 -1z" />
    <glyph glyph-name="uniE52F" unicode="&#xe522;&#xe522;" horiz-adv-x="621" 
d="M181 253l-1 -3h156l1 2c22 66 45 109 71 133c32 30 63 37 87 37c7 0 13 0 18 -1c32 -5 57 -23 65 -38c7 -11 10 -23 10 -35c0 -6 -1 -13 -3 -19c-3 -11 -13 -24 -23 -29s-19 -7 -26 -7c-6 0 -12 1 -16 3c-10 4 -18 14 -21 23c-1 5 -2 10 -2 15c0 13 5 26 15 34
c4 2 6 7 6 12c0 2 0 3 -1 5c-2 4 -5 7 -10 8c-1 0 -3 1 -5 1c-5 0 -12 -2 -20 -8c-15 -12 -23 -30 -51 -133l-1 -3h60c6 0 10 -4 10 -10v-22c0 -6 -4 -10 -10 -10h-73v-2c-7 -23 -16 -55 -25 -87c-25 -85 -73 -235 -117 -279c-25 -25 -48 -36 -80 -36c-46 0 -82 29 -82 82
c0 27 25 52 52 52c36 0 46 -26 46 -40c0 -16 -6 -35 -25 -43c-5 -2 -8 -5 -9 -9c-1 -5 3 -10 6 -12c4 -3 8 -4 13 -4c6 0 12 2 17 5c24 16 31 45 52 127l3 12c12 46 21 85 29 122c7 33 15 68 25 108l1 4h-156v-2c-7 -23 -16 -55 -25 -87c-25 -85 -73 -235 -117 -279
c-25 -25 -48 -36 -80 -36c-46 0 -82 28 -82 81c0 27 25 53 52 53c36 0 46 -26 46 -40c0 -16 -6 -35 -25 -43c-5 -2 -8 -6 -9 -10c-1 -5 3 -9 6 -11c4 -3 8 -4 13 -4c6 0 12 2 17 5c24 16 31 45 52 127l3 12c12 46 21 85 29 122c7 33 15 68 25 108l1 4h-63c-6 0 -10 4 -10 10
v22c0 6 4 10 10 10h76l1 2c22 66 45 109 71 133c32 30 63 37 87 37c7 0 13 0 18 -1c32 -5 57 -23 65 -38c7 -11 10 -23 10 -35c0 -6 -1 -13 -3 -19c-3 -11 -13 -24 -23 -29s-19 -7 -26 -7c-6 0 -12 1 -16 3c-10 4 -18 14 -21 23c-1 5 -2 10 -2 15c0 13 5 26 15 34
c4 2 6 7 6 12c0 2 0 3 -1 5c-2 4 -5 7 -10 8c-1 0 -3 1 -5 1c-5 0 -12 -2 -20 -8c-15 -12 -23 -30 -51 -133z" />
    <glyph glyph-name="uniE530" unicode="&#xe522;&#xe522;&#xe522;" horiz-adv-x="871" 
d="M837 357v-1c0 -3 1 -7 1 -10c0 -5 -1 -12 -2 -17c-3 -11 -14 -24 -24 -29c-9 -5 -17 -6 -24 -6h-5c-4 0 -10 2 -13 3c-6 2 -13 9 -17 14c-2 2 -3 5 -4 8c-2 5 -2 11 -2 16c0 13 5 25 15 33c5 4 6 7 6 13c0 4 -2 13 -16 13c-11 0 -16 -4 -20 -7c-2 -2 -7 -7 -9 -10
c-10 -14 -20 -43 -42 -123l-1 -3h60c6 0 10 -5 10 -11v-22c0 -6 -4 -10 -10 -10h-72l-1 -1v-1c-7 -23 -16 -55 -25 -87c-25 -85 -73 -235 -117 -279c-25 -25 -48 -35 -80 -35c-5 0 -13 0 -18 1c-37 6 -64 34 -64 80c0 27 25 52 52 52c36 0 46 -26 46 -40
c0 -16 -6 -35 -25 -43c-1 0 -9 -2 -9 -9s5 -16 19 -16c4 0 5 0 8 1s7 2 9 4c9 6 16 14 22 26c10 20 17 51 30 102l3 12c9 37 16 69 24 99l34 134h-159v-2c-7 -23 -16 -55 -25 -87c-25 -85 -73 -235 -117 -279c-25 -25 -48 -36 -80 -36c-46 0 -82 29 -82 82c0 27 25 52 52 52
c36 0 46 -26 46 -40c0 -16 -6 -35 -25 -43c-5 -2 -8 -5 -9 -9c-1 -5 3 -10 6 -12c4 -3 8 -4 13 -4c6 0 12 2 17 5c24 16 31 45 52 127l3 12c12 46 21 85 29 122c7 33 15 68 25 108l1 4h-156v-2c-7 -23 -16 -55 -25 -87c-25 -85 -73 -235 -117 -279c-25 -25 -48 -36 -80 -36
c-46 0 -82 28 -82 81c0 27 25 53 52 53c36 0 46 -26 46 -40c0 -16 -6 -35 -25 -43c-5 -2 -8 -5 -9 -9c-1 -5 3 -10 6 -12c4 -3 8 -4 13 -4c6 0 12 2 17 5c24 16 31 45 52 127l3 12c12 46 21 85 29 122c7 33 15 68 25 108l1 4h-63c-6 0 -10 4 -10 10v22c0 6 4 10 10 10h76
l1 2c22 66 45 109 71 133c32 30 63 37 87 37c7 0 13 0 18 -1c32 -5 57 -23 65 -38c7 -11 10 -23 10 -35c0 -6 -1 -13 -3 -19c-3 -11 -13 -24 -23 -29s-19 -7 -26 -7c-6 0 -12 1 -16 3c-10 4 -18 14 -21 23c-1 5 -2 10 -2 15c0 13 5 26 15 34c4 2 6 7 6 12c0 2 0 3 -1 5
c-2 4 -5 7 -10 8c-1 0 -3 1 -5 1c-5 0 -12 -2 -20 -8c-15 -12 -23 -29 -51 -132l-1 -4h156l1 2c22 66 45 109 71 133c32 30 63 37 87 37c7 0 13 0 18 -1c32 -5 57 -23 65 -38c7 -12 10 -25 10 -37c0 -6 0 -12 -2 -17c-3 -11 -14 -24 -24 -29s-19 -7 -26 -7c-6 0 -12 1 -16 3
c-10 4 -18 14 -21 23c-1 5 -2 10 -2 15c0 13 5 26 15 34c4 2 6 7 6 12c0 2 0 3 -1 5c-2 4 -5 7 -10 8c-1 0 -3 1 -5 1c-5 0 -12 -2 -20 -8c-15 -12 -23 -29 -51 -132l-1 -4h156l1 2c22 66 45 109 71 133c21 20 42 30 61 35c8 2 20 3 28 3c5 0 12 0 17 -1
c32 -5 56 -23 64 -38c4 -7 8 -19 9 -27z" />
    <glyph glyph-name="uniE531" unicode="&#xe522;&#xe522;&#xe522;&#xe522;" horiz-adv-x="1121" 
d="M1018 381c0 1 -1 13 -16 13c-11 0 -16 -4 -20 -7c-2 -2 -7 -7 -9 -10c-10 -14 -20 -43 -42 -123l-1 -3h60c6 0 10 -5 10 -11v-22c0 -6 -4 -10 -10 -10h-72l-1 -1v-1c-7 -23 -16 -55 -25 -87c-25 -85 -73 -235 -117 -279c-25 -25 -48 -35 -80 -35c-5 0 -13 0 -18 1
c-37 6 -64 34 -64 80c0 27 25 52 52 52c36 0 46 -26 46 -40c0 -16 -6 -35 -25 -43c-1 0 -9 -2 -9 -9s5 -16 19 -16c4 0 5 0 8 1s7 2 9 4c9 6 16 14 22 26c10 20 17 51 30 102l3 12c9 37 17 69 24 99c2 8 3 16 5 23c1 6 3 13 4 19c6 28 13 57 21 89l1 3h-156v-2
c-7 -23 -16 -55 -25 -87c-25 -85 -73 -235 -117 -279c-25 -25 -48 -36 -80 -36c-46 0 -82 28 -82 81c0 27 25 53 52 53c36 0 46 -26 46 -40c0 -16 -6 -35 -25 -43c-5 -2 -8 -5 -9 -9c-1 -5 3 -10 6 -12c4 -3 8 -4 13 -4c6 0 12 2 17 5c24 16 31 45 52 127l3 12
c12 46 21 85 29 122c7 33 15 68 25 108l1 4h-156v-2c-7 -23 -16 -55 -25 -87c-25 -85 -73 -235 -117 -279c-25 -25 -48 -36 -80 -36c-46 0 -82 28 -82 81c0 27 25 53 52 53c36 0 46 -26 46 -40c0 -16 -6 -35 -25 -43c-5 -2 -8 -5 -9 -9c-1 -5 3 -10 6 -12c4 -3 8 -4 13 -4
c6 0 12 2 17 5c24 16 31 45 52 127l3 12c12 46 21 85 29 122c7 33 15 68 25 108l1 4h-156v-2c-7 -23 -16 -55 -25 -87c-25 -85 -73 -235 -117 -279c-25 -25 -48 -36 -80 -36c-46 0 -82 28 -82 81c0 27 25 53 52 53c36 0 46 -26 46 -40c0 -16 -6 -35 -25 -43
c-5 -2 -8 -5 -9 -9c-1 -5 3 -10 6 -12c4 -3 8 -4 13 -4c6 0 12 2 17 5c24 16 31 45 52 127l3 12c12 46 21 85 29 122c7 33 15 68 25 108l1 4h-63c-6 0 -10 4 -10 10v22c0 6 4 10 10 10h76l1 2c22 66 45 109 71 133c32 30 63 37 87 37c7 0 13 0 18 -1c32 -5 57 -23 65 -38
c7 -11 10 -23 10 -35c0 -6 -1 -13 -3 -19c-3 -11 -13 -24 -23 -29s-19 -7 -26 -7c-6 0 -12 1 -16 3c-10 4 -18 14 -21 23c-1 5 -2 10 -2 15c0 13 5 26 15 34c4 2 6 7 6 12c0 2 0 3 -1 5c-2 4 -5 7 -10 8c-1 0 -3 1 -5 1c-5 0 -12 -2 -20 -8c-15 -12 -23 -30 -51 -133l-1 -3
h156l1 2c22 66 45 109 71 133c32 30 63 37 87 37c7 0 13 0 18 -1c32 -5 57 -23 65 -38c7 -11 10 -23 10 -35c0 -6 -1 -13 -3 -19c-3 -11 -13 -24 -23 -29s-19 -7 -26 -7c-6 0 -12 1 -16 3c-10 4 -18 14 -21 23c-1 5 -2 10 -2 15c0 13 5 26 15 34c4 2 6 7 6 12c0 2 0 3 -1 5
c-2 4 -5 7 -10 8c-1 0 -3 1 -5 1c-5 0 -12 -2 -20 -8c-15 -12 -23 -30 -51 -133l-1 -3h156l1 2c22 66 45 109 71 133c32 30 63 37 87 37c7 0 13 0 18 -1c32 -5 57 -23 65 -38c7 -12 10 -25 10 -37c0 -6 0 -12 -2 -17c-3 -11 -14 -24 -24 -29s-19 -7 -26 -7c-6 0 -12 1 -16 3
c-10 4 -18 14 -21 23c-1 5 -2 10 -2 15c0 13 5 26 15 34c4 2 6 7 6 12c0 2 0 3 -1 5c-2 4 -5 7 -10 8c-1 0 -3 1 -5 1c-5 0 -12 -2 -20 -8c-15 -12 -23 -30 -51 -133l-1 -3h156l1 2c21 66 45 109 71 133c21 20 42 30 61 35c8 2 20 3 28 3c5 0 12 0 17 -1
c32 -5 56 -23 64 -38c4 -7 8 -19 9 -27v-1c0 -3 1 -7 1 -10c0 -5 -1 -12 -2 -17c-3 -11 -14 -24 -24 -29c-9 -5 -17 -6 -24 -6h-5c-4 0 -10 2 -13 3c-6 2 -13 9 -17 14c-2 2 -3 5 -4 8c-2 5 -2 11 -2 16c0 13 5 25 15 33c4 2 6 7 6 13z" />
    <glyph glyph-name="uniE532" unicode="&#xe522;&#xe522;&#xe522;&#xe522;&#xe522;" horiz-adv-x="1371" 
d="M946 -174c4 0 5 0 8 1s7 2 9 4c9 6 16 14 22 26c10 20 17 51 30 102l3 12c9 37 17 69 24 99c2 8 3 16 5 23c1 6 3 13 4 19c6 28 13 57 21 89l1 3h-156v-2c-7 -23 -16 -55 -25 -87c-25 -85 -73 -235 -117 -279c-25 -25 -48 -35 -80 -35c-46 0 -82 28 -82 81
c0 27 25 53 52 53c36 0 46 -27 46 -41c0 -16 -6 -34 -25 -42c-5 -2 -8 -6 -9 -10c-1 -5 3 -9 6 -11c4 -3 9 -5 14 -5c6 0 11 2 16 5c24 16 31 46 52 128l3 12c12 46 21 85 29 122c7 33 15 68 25 108l1 3h-156v-2c-7 -23 -16 -55 -25 -87c-25 -85 -73 -235 -117 -279
c-25 -25 -48 -35 -80 -35c-46 0 -82 28 -82 81c0 27 25 52 52 52c36 0 46 -26 46 -40c0 -16 -6 -34 -25 -42c-5 -2 -8 -6 -9 -10c-1 -5 3 -9 6 -11c4 -3 9 -5 14 -5c6 0 11 2 16 5c24 16 31 46 52 128l3 12c12 46 21 85 29 122c7 33 15 68 25 108l1 3h-156v-2
c-7 -23 -16 -55 -25 -87c-25 -85 -73 -235 -117 -279c-25 -25 -48 -35 -80 -35c-46 0 -82 28 -82 81c0 27 25 52 52 52c36 0 46 -26 46 -40c0 -16 -6 -34 -25 -42c-5 -2 -8 -6 -9 -10c-1 -5 3 -9 6 -11c4 -3 9 -5 14 -5c6 0 11 2 16 5c24 16 31 46 52 128l3 12
c12 46 21 85 29 122c7 33 15 68 25 108l1 3h-156v-2c-7 -23 -16 -55 -25 -87c-25 -85 -73 -235 -117 -279c-25 -25 -48 -35 -80 -35c-46 0 -82 28 -82 81c0 27 25 52 52 52c36 0 46 -26 46 -40c0 -16 -6 -34 -25 -42c-5 -2 -8 -6 -9 -10c-1 -5 3 -9 6 -11c4 -3 9 -5 14 -5
c6 0 11 2 16 5c24 16 31 46 52 128l3 12c12 46 21 85 29 122c7 33 15 68 25 108l1 3h-63c-6 0 -10 4 -10 10v22c0 6 4 11 10 11h76l1 1c22 66 45 110 71 133c33 30 64 38 88 38c6 0 12 0 17 -1c32 -5 57 -23 65 -38c7 -11 10 -24 10 -36c0 -7 -1 -13 -3 -19
c-3 -11 -13 -24 -23 -29s-18 -7 -25 -7s-13 2 -17 4c-10 4 -18 13 -21 22c-1 5 -2 10 -2 15c0 13 5 26 15 34c4 2 6 7 6 13c0 1 0 3 -1 5c-2 4 -5 7 -10 8c-1 0 -3 1 -5 1c-5 0 -12 -2 -20 -8c-15 -12 -23 -30 -51 -133l-1 -3h156l1 1c22 66 45 109 71 133
c33 30 64 38 88 38c6 0 12 0 17 -1c32 -5 57 -23 65 -38c7 -11 10 -24 10 -36c0 -7 -1 -13 -3 -19c-3 -11 -13 -24 -23 -29s-18 -7 -25 -7s-13 2 -17 4c-10 4 -18 13 -21 22c-1 5 -2 10 -2 15c0 13 5 26 15 34c4 2 6 7 6 13c0 1 0 3 -1 5c-2 4 -5 7 -10 8c-1 0 -3 1 -5 1
c-5 0 -12 -2 -20 -8c-15 -12 -23 -30 -51 -133l-1 -3h156l1 1c22 66 45 109 71 133c33 30 64 38 88 38c6 0 12 0 17 -1c32 -5 57 -23 65 -38c7 -11 10 -24 10 -36c0 -7 -1 -13 -3 -19c-3 -11 -13 -24 -23 -29s-18 -7 -25 -7s-13 2 -17 4c-10 4 -18 13 -21 22
c-1 5 -2 10 -2 15c0 13 5 26 15 34c4 2 6 7 6 13c0 1 0 3 -1 5c-2 4 -5 7 -10 8c-1 0 -3 1 -5 1c-5 0 -12 -2 -20 -8c-15 -12 -23 -30 -51 -133l-1 -3h156l1 1c22 66 45 109 71 133c33 30 64 38 88 38c6 0 12 0 17 -1c32 -5 57 -23 65 -38c7 -12 10 -25 10 -38
c0 -6 0 -12 -2 -17c-3 -11 -14 -24 -24 -29s-18 -7 -25 -7s-13 2 -17 4c-10 4 -18 13 -21 22c-1 5 -2 10 -2 15c0 13 5 26 15 34c4 2 6 7 6 13c0 1 0 3 -1 5c-2 4 -5 7 -10 8c-1 0 -3 1 -5 1c-5 0 -12 -2 -20 -8c-15 -12 -23 -30 -51 -133l-1 -3h156l1 1
c22 66 45 109 71 133c21 20 42 30 61 35c8 2 20 3 28 3c5 0 12 0 17 -1c32 -5 56 -23 64 -38c4 -7 8 -19 9 -27v-1c0 -3 1 -7 1 -10c0 -5 -1 -12 -2 -17c-3 -11 -14 -24 -24 -29c-9 -5 -17 -6 -24 -6h-5c-4 0 -10 2 -13 3c-6 2 -13 9 -17 14c-2 2 -3 5 -4 8
c-2 5 -2 11 -2 16c0 13 5 25 15 33c4 2 6 7 6 13c0 1 0 3 -1 5c-1 3 -5 6 -8 7c-1 0 -1 1 -2 1h-6c-3 0 -7 0 -9 -1c-3 -1 -7 -4 -10 -6s-7 -7 -9 -10c-10 -14 -20 -43 -42 -123l-1 -3h60c6 0 10 -5 10 -11v-22c0 -6 -4 -10 -10 -10h-72l-1 -1v-1c-7 -23 -16 -55 -25 -87
c-25 -85 -73 -235 -117 -279c-25 -25 -48 -35 -80 -35c-5 0 -13 0 -18 1c-37 6 -64 34 -64 80c0 27 25 52 52 52c36 0 46 -26 46 -40c0 -16 -6 -35 -25 -43c-1 0 -9 -2 -9 -9s5 -16 19 -16z" />
    <glyph glyph-name="uniE533" unicode="&#xe522;&#xe522;&#xe522;&#xe522;&#xe522;&#xe522;" horiz-adv-x="1621" 
d="M1182 -166c3 -3 8 -4 13 -4c3 0 6 0 9 1s7 2 9 4c9 6 16 14 22 26c10 20 17 50 30 101l3 12c9 37 17 70 24 100c2 8 3 15 5 22c1 6 3 13 4 19c6 28 13 57 21 89l1 4h-156v-2c-7 -23 -16 -55 -25 -87c-25 -85 -73 -235 -117 -279c-25 -25 -48 -36 -80 -36
c-46 0 -82 28 -82 81c0 27 25 53 52 53c36 0 46 -26 46 -40c0 -16 -6 -35 -25 -43c-5 -2 -8 -6 -9 -10c-1 -5 3 -9 6 -11c4 -3 8 -4 13 -4c6 0 12 2 17 5c24 16 31 45 52 127l3 12c12 46 21 85 29 122c7 33 15 68 25 108l1 4h-156v-2c-7 -23 -16 -55 -25 -87
c-25 -85 -73 -235 -117 -279c-25 -25 -48 -36 -80 -36c-46 0 -82 29 -82 82c0 27 25 52 52 52c36 0 46 -26 46 -40c0 -16 -6 -35 -25 -43c-5 -2 -8 -5 -9 -9c-1 -5 3 -10 6 -12c4 -3 8 -4 13 -4c6 0 12 2 17 5c24 16 31 45 52 127l3 12c12 46 21 85 29 122
c7 33 15 68 25 108l1 4h-156v-2c-7 -23 -16 -55 -25 -87c-25 -85 -73 -235 -117 -279c-25 -25 -48 -36 -80 -36c-46 0 -82 28 -82 81c0 27 25 53 52 53c36 0 46 -26 46 -40c0 -16 -6 -35 -25 -43c-5 -2 -8 -5 -9 -9c-1 -5 3 -10 6 -12c4 -3 8 -4 13 -4c6 0 12 2 17 5
c24 16 31 45 52 127l3 12c12 46 21 85 29 122c7 33 15 68 25 108l1 4h-156v-2c-7 -23 -16 -55 -25 -87c-25 -85 -73 -235 -117 -279c-25 -25 -48 -36 -80 -36c-46 0 -82 29 -82 82c0 27 25 52 52 52c36 0 46 -26 46 -40c0 -16 -6 -35 -25 -43c-5 -2 -8 -5 -9 -9
c-1 -5 3 -10 6 -12c4 -3 8 -4 13 -4c6 0 12 2 17 5c24 16 31 45 52 127l3 12c12 46 21 85 29 122c7 33 15 68 25 108l1 4h-156v-2c-7 -23 -16 -55 -25 -87c-25 -85 -73 -235 -117 -279c-25 -25 -48 -36 -80 -36c-46 0 -82 28 -82 81c0 27 25 53 52 53c36 0 46 -26 46 -40
c0 -16 -6 -35 -25 -43c-5 -2 -8 -5 -9 -9c-1 -5 3 -10 6 -12c4 -3 8 -4 13 -4c6 0 12 2 17 5c24 16 31 45 52 127l3 12c12 46 21 85 29 122c7 33 15 68 25 108l1 4h-63c-6 0 -10 4 -10 10v22c0 6 4 10 10 10h76l1 2c22 66 45 109 71 133c32 30 63 37 87 37c7 0 13 0 18 -1
c32 -5 57 -23 65 -38c7 -11 10 -23 10 -35c0 -6 -1 -13 -3 -19c-3 -11 -13 -24 -23 -29s-19 -7 -26 -7c-6 0 -12 1 -16 3c-10 4 -18 14 -21 23c-1 5 -2 10 -2 15c0 13 5 26 15 34c4 2 6 7 6 12c0 2 0 3 -1 5c-2 4 -5 7 -10 8c-1 0 -3 1 -5 1c-5 0 -12 -2 -20 -8
c-15 -12 -23 -30 -51 -133l-1 -3h156l1 2c22 66 45 109 71 133c32 30 63 37 87 37c7 0 13 0 18 -1c32 -5 57 -23 65 -38c7 -11 10 -23 10 -35c0 -6 -1 -13 -3 -19c-3 -11 -13 -24 -23 -29s-19 -7 -26 -7c-6 0 -12 1 -16 3c-10 4 -18 14 -21 23c-1 5 -2 10 -2 15
c0 13 5 26 15 34c4 2 6 7 6 12c0 2 0 3 -1 5c-2 4 -5 7 -10 8c-1 0 -3 1 -5 1c-5 0 -12 -2 -20 -8c-15 -12 -23 -30 -51 -133l-1 -3h156l1 2c22 66 45 109 71 133c32 30 63 37 87 37c7 0 13 0 18 -1c32 -5 57 -23 65 -38c7 -12 10 -25 10 -37c0 -6 0 -12 -2 -17
c-3 -11 -14 -24 -24 -29s-19 -7 -26 -7c-6 0 -12 1 -16 3c-10 4 -18 14 -21 23c-1 5 -2 10 -2 15c0 13 5 26 15 34c4 2 6 7 6 12c0 2 0 3 -1 5c-2 4 -5 7 -10 8c-1 0 -3 1 -5 1c-5 0 -12 -2 -20 -8c-15 -12 -23 -30 -51 -133l-1 -3h156l1 2c22 66 45 109 71 133
c32 30 63 37 87 37c7 0 13 0 18 -1c32 -5 57 -23 65 -38c7 -11 10 -23 10 -35c0 -6 -1 -13 -3 -19c-3 -11 -13 -24 -23 -29s-19 -7 -26 -7c-6 0 -12 1 -16 3c-10 4 -18 14 -21 23c-1 5 -2 10 -2 15c0 13 5 26 15 34c4 2 6 7 6 12c0 2 0 3 -1 5c-2 4 -5 7 -10 8
c-1 0 -3 1 -5 1c-5 0 -12 -2 -20 -8c-15 -12 -23 -30 -51 -133l-1 -3h156l1 2c22 66 45 109 71 133c32 30 64 37 88 37c7 0 13 0 18 -1c32 -5 56 -23 64 -38c7 -12 10 -25 10 -37c0 -6 0 -12 -2 -17c-3 -11 -14 -24 -24 -29s-19 -7 -26 -7c-6 0 -12 1 -16 3
c-10 4 -18 14 -21 23c-1 5 -2 10 -2 15c0 13 5 26 15 34c4 2 6 7 6 12c0 2 0 3 -1 5c-2 4 -5 7 -10 8c-1 0 -3 1 -5 1c-5 0 -12 -2 -20 -8c-15 -12 -23 -30 -51 -133l-1 -3h156l1 1v1c22 66 45 109 71 133c21 20 41 29 60 34c8 2 21 4 29 4c5 0 12 -1 17 -2
c32 -5 56 -23 64 -38c4 -7 8 -19 9 -27c0 -3 1 -8 1 -11c0 -5 -1 -11 -2 -16c-3 -11 -14 -24 -24 -29c-9 -5 -18 -7 -25 -7h-4c-4 0 -10 2 -13 3c-6 2 -13 9 -17 14c-2 2 -3 6 -4 9c-2 5 -2 11 -2 16c0 13 5 25 15 33c4 2 6 7 6 12c0 2 0 3 -1 5c-1 3 -5 6 -8 7
c-1 0 -1 1 -2 1c-2 0 -4 1 -6 1c-3 0 -7 -1 -9 -2c-3 -1 -7 -4 -10 -6s-7 -7 -9 -10c-10 -14 -20 -43 -42 -123l-1 -3h60c6 0 10 -4 10 -10v-22c0 -6 -4 -10 -10 -10h-72l-1 -1v-1c-7 -23 -16 -55 -25 -87c-25 -85 -73 -235 -117 -279c-25 -25 -48 -36 -80 -36
c-5 0 -13 1 -18 2c-37 6 -64 33 -64 79c0 27 25 53 52 53c36 0 46 -26 46 -40c0 -16 -6 -35 -25 -43c-1 0 -9 -3 -9 -10c0 -4 2 -8 5 -11z" />
    <glyph glyph-name="uniE534" unicode="&#xe522;&#xe520;" horiz-adv-x="614" 
d="M-84 -60c36 0 45 -26 45 -40c0 -16 -6 -34 -25 -42c-5 -2 -7 -6 -8 -10c0 -5 1 -8 5 -11s9 -5 14 -5c6 0 12 2 17 5c24 16 30 45 51 127l3 12c12 46 21 84 29 121c7 33 15 67 25 107v4h-62c-6 0 -10 4 -10 10v22c0 6 4 10 10 10h76v2c25 74 66 169 159 169
c45 0 90 -26 90 -76c0 -6 0 -12 -2 -17c-5 -20 -26 -36 -47 -36c-7 0 -14 2 -18 4c-10 4 -18 13 -21 22c-1 5 -2 9 -2 14c0 14 5 27 15 35c4 2 6 7 6 12c0 6 -5 12 -11 13c-1 0 -3 1 -5 1c-5 0 -12 -2 -20 -8c-15 -12 -23 -30 -51 -132v-3h59c6 0 10 -4 10 -10v-22
c0 -6 -4 -10 -10 -10h-72v-2c-7 -23 -16 -54 -25 -86c-24 -85 -72 -234 -116 -278c-25 -25 -48 -35 -80 -35c-46 0 -81 29 -81 81c0 27 25 52 52 52zM393 -163h-224v20h61l99 276c5 10 23 54 23 78c0 7 -1 12 -5 15c-2 2 -5 2 -8 2h-4c-9 -2 -21 -10 -27 -19
c-12 -16 -22 -48 -26 -61l-18 9c16 46 42 106 99 106l5 -1h3c35 -5 56 -43 56 -43l2 -4l3 3c17 17 48 43 79 43c46 0 70 -49 70 -90c0 -76 -54 -193 -139 -193c-6 0 -13 0 -19 2c-34 9 -44 31 -44 31l-3 7l-58 -161h75v-20zM421 12c3 0 8 0 11 2c44 21 79 131 79 179
c0 10 -2 29 -14 32c-2 1 -5 1 -7 1c-39 0 -77 -70 -84 -101c-1 -2 -12 -38 -12 -69c0 -19 4 -37 19 -43c2 -1 6 -1 8 -1z" />
    <glyph glyph-name="uniE535" unicode="&#xe522;&#xe525;" horiz-adv-x="480" 
d="M-85 -60c36 0 45 -26 45 -40c0 -16 -6 -34 -25 -42c-5 -2 -7 -6 -8 -10c0 -5 1 -8 5 -11s9 -5 14 -5c6 0 12 2 17 5c24 16 30 45 51 127l3 12c12 46 21 84 29 121c7 33 15 67 25 107v4h-62c-6 0 -10 4 -10 10v22c0 6 4 10 10 10h76v2c25 74 66 169 159 169
c45 0 90 -26 90 -76c0 -6 0 -12 -2 -17c-5 -20 -26 -36 -47 -36c-7 0 -14 2 -18 4c-10 4 -18 13 -21 22c-1 5 -2 9 -2 14c0 14 5 27 15 35c4 2 6 7 6 12c0 6 -5 12 -11 13c-1 0 -3 1 -5 1c-5 0 -12 -2 -20 -8c-15 -12 -23 -30 -51 -132v-3h59c6 0 10 -4 10 -10v-22
c0 -6 -4 -10 -10 -10h-72v-2c-7 -23 -16 -54 -25 -86c-24 -85 -72 -234 -116 -278c-25 -25 -48 -35 -80 -35c-46 0 -81 29 -81 81c0 27 25 52 52 52zM383 203c-5 -1 -19 -2 -33 -2h-10c-16 1 -29 4 -34 5c-4 0 -5 0 -7 -4s-16 -39 -19 -46s-4 -12 -10 -12h-11
c-6 0 -9 4 -9 10c3 7 24 30 34 85c2 11 8 16 14 18c12 0 22 -1 34 -3c13 -2 26 -3 43 -3c9 0 19 0 31 1l48 4h1c2 0 7 -1 8 -9v-6c0 -1 -1 -4 -2 -5c-4 -9 -12 -17 -20 -25c-7 -7 -143 -122 -143 -122s-1 -1 -1 -2s0 -1 2 -2c4 -2 22 -9 38 -21s22 -20 27 -23
c2 -2 5 -2 7 -2c17 0 27 22 27 36v6c-1 4 -17 8 -17 27c0 13 9 28 26 28c21 0 28 -14 28 -34c0 -53 -38 -103 -93 -103c-23 0 -46 8 -56 25c-6 11 -10 24 -27 24s-23 -18 -29 -28c-5 -7 -16 -20 -30 -20c-4 0 -7 1 -11 3c0 0 -7 5 -7 14c0 6 3 13 13 21
c26 21 190 154 191 155s2 2 2 4c0 3 -2 6 -5 6z" />
    <glyph glyph-name="uniE536" unicode="&#xe524;&#xe522;" horiz-adv-x="600" 
d="M148 -60c36 0 45 -26 45 -40c0 -16 -6 -34 -25 -42c-5 -2 -7 -6 -8 -10c0 -5 1 -8 5 -11s9 -5 14 -5c6 0 12 2 17 5c24 16 30 45 51 127l3 12c12 46 21 84 29 121c7 33 15 67 25 107v4h-62c-6 0 -10 4 -10 10v22c0 6 4 10 10 10h76v2c25 74 66 169 159 169
c45 0 90 -26 90 -76c0 -6 0 -12 -2 -17c-5 -20 -26 -36 -47 -36c-7 0 -14 2 -18 4c-10 4 -18 13 -21 22c-1 5 -2 9 -2 14c0 14 5 27 15 35c4 2 6 7 6 12c0 6 -5 12 -11 13c-1 0 -3 1 -5 1c-5 0 -12 -2 -20 -8c-15 -12 -23 -30 -51 -132v-3h59c6 0 10 -4 10 -10v-22
c0 -6 -4 -10 -10 -10h-72v-2c-7 -23 -16 -54 -25 -86c-24 -85 -72 -234 -116 -278c-25 -25 -48 -35 -80 -35c-46 0 -81 29 -81 81c0 27 25 52 52 52zM168 228c0 0 -8 13 -34 13s-45 -21 -45 -38s5 -23 30 -37s77 -29 77 -89s-58 -82 -110 -82s-86 23 -86 68
c0 30 20 41 35 41s32 -11 32 -37c0 -24 -13 -31 -16 -33c-1 0 -1 -1 -1 -2c0 -5 7 -15 36 -15c37 0 49 34 49 44s-4 24 -21 34s-33 18 -45 25c-28 16 -35 39 -35 60c0 39 30 83 97 83c58 0 77 -35 77 -58c0 -3 0 -6 -1 -8c-2 -10 -9 -24 -28 -24s-28 17 -28 28
c0 7 3 19 17 27z" />
    <glyph glyph-name="uniE537" unicode="&#xe524;&#xe522;&#xe520;" horiz-adv-x="840" 
d="M148 -60c36 0 45 -26 45 -40c0 -16 -6 -34 -25 -42c-5 -2 -7 -6 -8 -10c0 -5 1 -8 5 -11s9 -5 14 -5c6 0 12 2 17 5c24 16 30 45 51 127l3 12c12 46 21 84 29 121c7 33 15 67 25 107v4h-62c-6 0 -10 4 -10 10v22c0 6 4 10 10 10h76v2c25 74 66 169 159 169
c45 0 90 -26 90 -76c0 -6 0 -12 -2 -17c-5 -20 -26 -36 -47 -36c-7 0 -14 2 -18 4c-10 4 -18 13 -21 22c-1 5 -2 9 -2 14c0 14 5 27 15 35c4 2 6 7 6 12c0 6 -5 12 -11 13c-1 0 -3 1 -5 1c-5 0 -12 -2 -20 -8c-15 -12 -23 -30 -51 -132v-3h59c6 0 10 -4 10 -10v-22
c0 -6 -4 -10 -10 -10h-72v-2c-7 -23 -16 -54 -25 -86c-24 -85 -72 -234 -116 -278c-25 -25 -48 -35 -80 -35c-46 0 -81 29 -81 81c0 27 25 52 52 52zM619 -159h-225v21h62l99 275c5 10 22 52 22 77c0 7 -1 13 -5 16c-2 2 -4 2 -7 2h-4c-9 -2 -21 -10 -27 -19
c-12 -16 -22 -48 -26 -61l-18 9c16 46 42 106 99 106l5 -1h3c35 -5 56 -43 56 -43l2 -4l3 3c17 17 48 43 79 43c46 0 70 -49 70 -90c0 -76 -55 -193 -140 -193c-6 0 -13 0 -19 2c-34 9 -44 32 -44 32l-2 6l-59 -160h76v-21zM168 228c0 0 -8 13 -34 13s-45 -21 -45 -38
s5 -23 30 -37s77 -29 77 -89s-58 -82 -110 -82s-86 23 -86 68c0 30 20 41 35 41s32 -11 32 -37c0 -24 -13 -31 -16 -33c-1 0 -1 -1 -1 -2c0 -5 7 -15 36 -15c37 0 49 34 49 44s-4 24 -21 34s-33 18 -45 25c-28 16 -35 39 -35 60c0 39 30 83 97 83c58 0 77 -35 77 -58
c0 -3 0 -6 -1 -8c-2 -10 -9 -24 -28 -24s-28 17 -28 28c0 7 3 19 17 27zM646 16c3 0 9 0 12 2c42 20 79 133 79 180c0 9 -1 17 -4 22c-2 4 -6 8 -10 9c-2 1 -5 1 -7 1c-39 0 -77 -70 -84 -101c-1 -2 -12 -38 -12 -69c0 -19 4 -37 19 -43c2 -1 5 -1 7 -1z" />
    <glyph glyph-name="uniE538" unicode="&#xe524;&#xe522;&#xe520;&#xe520;" horiz-adv-x="1164" 
d="M148 -60c36 0 45 -26 45 -40c0 -16 -6 -34 -25 -42c-5 -2 -7 -6 -8 -10c0 -5 1 -8 5 -11s9 -5 14 -5c6 0 12 2 17 5c24 16 30 45 51 127l3 12c12 46 21 84 29 121c7 33 15 67 25 107v4h-62c-6 0 -10 4 -10 10v22c0 6 4 10 10 10h76v2c25 74 66 169 159 169
c45 0 90 -26 90 -76c0 -6 0 -12 -2 -17c-5 -20 -26 -36 -47 -36c-7 0 -14 2 -18 4c-10 4 -18 13 -21 22c-1 5 -2 9 -2 14c0 14 5 27 15 35c4 2 6 7 6 12c0 6 -5 12 -11 13c-1 0 -3 1 -5 1c-5 0 -12 -2 -20 -8c-15 -12 -23 -30 -51 -132v-3h59c6 0 10 -4 10 -10v-22
c0 -6 -4 -10 -10 -10h-72v-2c-7 -23 -16 -54 -25 -86c-24 -85 -72 -234 -116 -278c-25 -25 -48 -35 -80 -35c-46 0 -81 29 -81 81c0 27 25 52 52 52zM1061 261c46 0 70 -49 70 -90c0 -76 -55 -193 -140 -193c-6 0 -13 0 -19 2c-34 9 -43 31 -43 31l-3 7l-58 -161h75v-20
h-225v20h62l99 276c12 32 23 58 23 75c0 14 -8 22 -22 22c-16 0 -35 -13 -43 -26c-10 -17 -23 -40 -38 -90c-21 -80 -76 -136 -131 -136c-6 0 -13 0 -19 2c-34 9 -44 31 -44 31l-3 7l-58 -161h75v-20h-224v20h61l99 276c5 10 23 54 23 78c0 7 -1 12 -5 15c-2 2 -5 2 -8 2h-4
c-9 -2 -20 -10 -26 -19c-12 -16 -23 -48 -27 -61l-18 9c16 46 42 106 99 106l5 -1h3c35 -5 56 -43 56 -43l2 -4l3 3c17 17 48 43 79 43c36 0 62 -32 68 -65c23 54 67 67 101 67c5 0 10 0 15 -1c35 -5 56 -43 56 -43l2 -4l3 3c17 17 48 43 79 43zM168 228c0 0 -8 13 -34 13
s-45 -21 -45 -38s5 -23 30 -37s77 -29 77 -89s-58 -82 -110 -82s-86 23 -86 68c0 30 20 41 35 41s32 -11 32 -37c0 -24 -13 -31 -16 -33c-1 0 -1 -1 -1 -2c0 -5 7 -15 36 -15c37 0 49 34 49 44s-4 24 -21 34s-33 18 -45 25c-28 16 -35 39 -35 60c0 39 30 83 97 83
c58 0 77 -35 77 -58c0 -3 0 -6 -1 -8c-2 -10 -9 -24 -28 -24s-28 17 -28 28c0 7 3 19 17 27zM658 14c44 21 79 131 79 179c0 10 -2 29 -14 32c-2 1 -5 1 -7 1c-39 0 -77 -70 -84 -101c-1 -2 -12 -38 -12 -69c0 -19 4 -37 19 -43c2 -1 6 -1 8 -1c3 0 8 0 11 2zM982 14
c44 21 79 131 79 179c0 10 -2 29 -14 32c-2 1 -5 1 -7 1c-39 0 -77 -70 -84 -101c-1 -2 -12 -38 -12 -69c0 -19 4 -37 19 -43c2 -1 6 -1 8 -1c3 0 8 0 11 2z" />
    <glyph glyph-name="uniE539" unicode="&#xe524;&#xe522;&#xe525;" horiz-adv-x="715" 
d="M148 -60c36 0 45 -26 45 -40c0 -16 -6 -34 -25 -42c-5 -2 -7 -6 -8 -10c0 -5 1 -8 5 -11s9 -5 14 -5c6 0 12 2 17 5c24 16 30 45 51 127l3 12c12 46 21 84 29 121c7 33 15 67 25 107v4h-62c-6 0 -10 4 -10 10v22c0 6 4 10 10 10h76v2c25 74 66 169 159 169
c45 0 90 -26 90 -76c0 -6 0 -12 -2 -17c-5 -20 -26 -36 -47 -36c-7 0 -14 2 -18 4c-10 4 -18 13 -21 22c-1 5 -2 9 -2 14c0 14 5 27 15 35c4 2 6 7 6 12c0 6 -5 12 -11 13c-1 0 -3 1 -5 1c-5 0 -12 -2 -20 -8c-15 -12 -23 -30 -51 -132v-3h59c6 0 10 -4 10 -10v-22
c0 -6 -4 -10 -10 -10h-72v-2c-7 -23 -16 -54 -25 -86c-24 -85 -72 -234 -116 -278c-25 -25 -48 -35 -80 -35c-46 0 -81 29 -81 81c0 27 25 52 52 52zM168 228c0 0 -8 13 -34 13s-45 -21 -45 -38s5 -23 30 -37s77 -29 77 -89s-58 -82 -110 -82s-86 23 -86 68
c0 30 20 41 35 41s32 -11 32 -37c0 -24 -13 -31 -16 -33c-1 0 -1 -1 -1 -2c0 -5 7 -15 36 -15c37 0 49 34 49 44s-4 24 -21 34s-33 18 -45 25c-28 16 -35 39 -35 60c0 39 30 83 97 83c58 0 77 -35 77 -58c0 -3 0 -6 -1 -8c-2 -10 -9 -24 -28 -24s-28 17 -28 28
c0 7 3 19 17 27zM618 203c-5 -1 -19 -2 -33 -2h-10c-16 1 -29 4 -34 5c-4 0 -5 0 -7 -4s-16 -39 -19 -46s-4 -12 -10 -12h-11c-6 0 -9 4 -9 10c3 7 24 30 34 85c2 11 8 16 14 18c12 0 22 -1 34 -3c13 -2 26 -3 43 -3c9 0 19 0 31 1l48 4h1c2 0 7 -1 8 -9v-6
c0 -1 -1 -4 -2 -5c-4 -9 -12 -17 -20 -25c-7 -7 -143 -122 -143 -122s-1 -1 -1 -2s0 -1 2 -2c4 -2 22 -9 38 -21s22 -20 27 -23c2 -2 5 -2 7 -2c17 0 27 22 27 36v6c-1 4 -17 8 -17 27c0 13 9 28 26 28c21 0 28 -14 28 -34c0 -53 -38 -103 -93 -103c-23 0 -46 8 -56 25
c-6 11 -10 24 -27 24s-23 -18 -29 -28c-5 -7 -16 -20 -30 -20c-4 0 -7 1 -11 3c0 0 -7 5 -7 14c0 6 3 13 13 21c26 21 190 154 191 155s2 2 2 4c0 3 -2 6 -5 6z" />
    <glyph glyph-name="uniE53A" unicode="&#xe524;&#xe522;&#xe525;&#xe520;" horiz-adv-x="1045" 
d="M148 -65c36 0 45 -26 45 -40c0 -16 -6 -34 -25 -42c-5 -2 -7 -6 -8 -10c0 -5 1 -8 5 -11s9 -5 14 -5c6 0 12 2 17 5c24 16 30 45 51 127l3 12c12 46 21 84 29 121c7 33 15 67 25 107v4h-62c-6 0 -10 4 -10 10v22c0 6 4 10 10 10h76v2c25 74 66 169 159 169
c45 0 90 -26 90 -76c0 -6 0 -12 -2 -17c-5 -20 -26 -36 -47 -36c-7 0 -14 2 -18 4c-10 4 -18 13 -21 22c-1 5 -2 9 -2 14c0 14 5 27 15 35c4 2 6 7 6 12c0 6 -5 12 -11 13c-1 0 -3 1 -5 1c-5 0 -12 -2 -20 -8c-15 -12 -23 -30 -51 -132v-3h59c6 0 10 -4 10 -10v-22
c0 -6 -4 -10 -10 -10h-72v-2c-7 -23 -16 -54 -25 -86c-24 -85 -72 -234 -116 -278c-25 -25 -48 -35 -80 -35c-46 0 -81 29 -81 81c0 27 25 52 52 52zM824 -163h-224v20h61l99 276c5 10 23 54 23 78c0 7 -1 12 -5 15c-2 2 -5 2 -8 2h-4c-9 -2 -21 -10 -27 -19
c-12 -16 -22 -48 -26 -61l-18 9c16 46 42 106 99 106l5 -1h3c35 -5 56 -43 56 -43l2 -4l3 3c17 17 48 43 79 43c46 0 70 -49 70 -90c0 -76 -54 -193 -139 -193c-6 0 -13 0 -19 2c-34 9 -44 31 -44 31l-3 7l-58 -161h75v-20zM168 223c0 0 -8 13 -34 13s-45 -21 -45 -38
s5 -23 30 -37s77 -29 77 -89s-58 -82 -110 -82s-86 23 -86 68c0 30 20 41 35 41s32 -11 32 -37c0 -24 -13 -31 -16 -33c-1 0 -1 -1 -1 -2c0 -5 7 -15 36 -15c37 0 49 34 49 44s-4 24 -21 34s-33 18 -45 25c-28 16 -35 39 -35 60c0 39 30 83 97 83c58 0 77 -35 77 -58
c0 -3 0 -6 -1 -8c-2 -10 -9 -24 -28 -24s-28 17 -28 28c0 7 3 19 17 27zM618 198c-5 -1 -19 -2 -33 -2h-10c-16 1 -29 4 -34 5c-4 0 -5 0 -7 -4s-16 -39 -19 -46s-4 -12 -10 -12h-11c-6 0 -9 4 -9 10c3 7 24 30 34 85c2 11 8 16 14 18c12 0 22 -1 34 -3c13 -2 26 -3 43 -3
c9 0 19 0 31 1l48 4h1c2 0 7 -1 8 -9v-6c0 -1 -1 -4 -2 -5c-4 -9 -12 -17 -20 -25c-7 -7 -143 -122 -143 -122s-1 -1 -1 -2s0 -1 2 -2c4 -2 22 -9 38 -21s22 -20 27 -23c2 -2 5 -2 7 -2c17 0 27 22 27 36v6c-1 4 -17 8 -17 27c0 13 9 28 26 28c21 0 28 -14 28 -34
c0 -53 -38 -103 -93 -103c-23 0 -46 8 -56 25c-6 11 -10 24 -27 24s-23 -18 -29 -28c-5 -7 -16 -20 -30 -20c-4 0 -7 1 -11 3c0 0 -7 5 -7 14c0 6 3 13 13 21c26 21 190 154 191 155s2 2 2 4c0 3 -2 6 -5 6zM852 12c3 0 8 0 11 2c44 21 79 131 79 179c0 10 -2 29 -14 32
c-2 1 -5 1 -7 1c-39 0 -77 -70 -84 -101c-1 -2 -12 -38 -12 -69c0 -19 4 -37 19 -43c2 -1 6 -1 8 -1z" />
    <glyph glyph-name="uniE53B" unicode="&#xe524;&#xe522;&#xe522;&#xe525;" horiz-adv-x="967" 
d="M414 253l-1 -3h156l1 2c25 74 66 170 158 170c29 0 69 -12 83 -39c7 -11 10 -23 10 -35c0 -6 -1 -13 -3 -19c-6 -21 -27 -36 -49 -36c-6 0 -12 1 -16 3c-10 4 -18 14 -21 23c-1 5 -2 10 -2 15c0 13 5 26 15 34c4 2 6 7 6 12c0 6 -5 12 -11 13c-1 0 -3 1 -5 1
c-5 0 -12 -2 -20 -8c-15 -12 -23 -30 -51 -133l-1 -3h60c6 0 10 -4 10 -10v-22c0 -6 -4 -10 -10 -10h-73v-2c-7 -23 -16 -55 -25 -87c-25 -85 -73 -235 -117 -279c-25 -25 -48 -36 -80 -36c-46 0 -82 29 -82 82c0 27 25 52 52 52c36 0 46 -26 46 -40c0 -16 -6 -35 -25 -43
c-5 -2 -8 -5 -9 -9c-1 -5 3 -10 6 -12c4 -3 8 -4 13 -4c6 0 12 2 17 5c24 16 31 45 52 127l3 12c12 46 21 85 29 122c7 33 15 68 25 108l1 4h-156v-2c-7 -23 -16 -55 -25 -87c-25 -85 -73 -235 -117 -279c-25 -25 -48 -36 -80 -36c-46 0 -82 28 -82 81c0 27 25 53 52 53
c36 0 46 -26 46 -40c0 -16 -6 -35 -25 -43c-5 -2 -8 -6 -9 -10c-1 -5 3 -9 6 -11c4 -3 8 -4 13 -4c6 0 12 2 17 5c24 16 31 45 52 127l3 12c12 46 21 85 29 122c7 33 15 68 25 108l1 4h-63c-6 0 -10 4 -10 10v22c0 6 4 10 10 10h76l1 2c25 74 66 170 158 170
c29 0 69 -12 83 -39c7 -11 10 -23 10 -35c0 -6 -1 -13 -3 -19c-6 -21 -27 -36 -49 -36c-6 0 -12 1 -16 3c-10 4 -18 14 -21 23c-1 5 -2 10 -2 15c0 13 5 26 15 34c4 2 6 7 6 12c0 6 -5 12 -11 13c-1 0 -3 1 -5 1c-5 0 -12 -2 -20 -8c-15 -12 -23 -30 -51 -133zM168 228
c0 0 -8 13 -34 13s-45 -21 -45 -38s5 -23 30 -37s77 -29 77 -89s-58 -82 -110 -82s-86 23 -86 68c0 30 20 41 35 41s32 -11 32 -37c0 -24 -13 -31 -16 -33c-1 0 -1 -1 -1 -2c0 -5 7 -15 36 -15c37 0 49 34 49 44s-4 24 -21 34s-33 18 -45 25c-28 16 -35 39 -35 60
c0 39 30 83 97 83c58 0 77 -35 77 -58c0 -3 0 -6 -1 -8c-2 -10 -9 -24 -28 -24s-28 17 -28 28c0 7 3 19 17 27zM870 203c-5 -1 -19 -2 -33 -2h-10c-16 1 -29 4 -34 5c-4 0 -5 0 -7 -4s-16 -39 -19 -46s-4 -12 -10 -12h-11c-6 0 -9 4 -9 10c3 7 24 30 34 85c2 11 8 16 14 18
c12 0 22 -1 34 -3c13 -2 26 -3 43 -3c9 0 19 0 31 1l48 4h1c2 0 7 -1 8 -9v-6c0 -1 -1 -4 -2 -5c-4 -9 -12 -17 -20 -25c-7 -7 -143 -122 -143 -122s-1 -1 -1 -2s0 -1 2 -2c4 -2 22 -9 38 -21s22 -20 27 -23c2 -2 5 -2 7 -2c17 0 27 22 27 36v6c-1 4 -17 8 -17 27
c0 13 9 28 26 28c21 0 28 -14 28 -34c0 -53 -38 -103 -93 -103c-23 0 -46 8 -56 25c-6 11 -10 24 -27 24s-23 -18 -29 -28c-5 -7 -16 -20 -30 -20c-4 0 -7 1 -11 3c0 0 -7 5 -7 14c0 6 3 13 13 21c26 21 190 154 191 155s2 2 2 4c0 3 -2 6 -5 6z" />
    <glyph glyph-name="uniE53C" unicode="&#xe523;&#xe522;" horiz-adv-x="619" 
d="M167 -60c36 0 45 -26 45 -40c0 -16 -6 -34 -25 -42c-5 -2 -7 -6 -8 -10c0 -5 1 -8 5 -11s9 -5 14 -5c6 0 12 2 17 5c24 16 30 45 51 127l3 12c12 46 21 84 29 121c7 33 15 67 25 107v4h-62c-6 0 -10 4 -10 10v22c0 6 4 10 10 10h76v2c25 74 66 169 159 169
c45 0 90 -26 90 -76c0 -6 0 -12 -2 -17c-5 -20 -26 -36 -47 -36c-7 0 -14 2 -18 4c-10 4 -18 13 -21 22c-1 5 -2 9 -2 14c0 14 5 27 15 35c4 2 6 7 6 12c0 6 -5 12 -11 13c-1 0 -3 1 -5 1c-5 0 -12 -2 -20 -8c-15 -12 -23 -30 -51 -132v-3h59c6 0 10 -4 10 -10v-22
c0 -6 -4 -10 -10 -10h-72v-2c-7 -23 -16 -54 -25 -86c-24 -85 -72 -234 -116 -278c-25 -25 -48 -35 -80 -35c-46 0 -81 29 -81 81c0 27 25 52 52 52zM189 253c22 0 41 -16 41 -39c0 -31 -16 -55 -48 -55c-9 0 -19 2 -26 10c-4 4 -6 11 -6 17c0 8 3 16 12 23v2s0 2 -3 4
c-1 1 -2 1 -3 1c-3 0 -7 -2 -11 -6c-16 -16 -48 -50 -68 -191c0 -3 -1 -6 -1 -7c-2 -11 -7 -12 -11 -12h-55c-8 0 -10 5 -10 12v4l34 109c11 35 20 64 20 81c0 8 -2 14 -7 16c-2 1 -3 1 -5 1c-22 0 -39 -54 -39 -54l-15 8c10 33 33 77 73 77c5 0 10 -1 15 -2
c29 -7 38 -41 38 -41l3 4c17 23 43 38 72 38z" />
    <glyph glyph-name="uniE53D" unicode="&#xe523;&#xe522;&#xe525;" horiz-adv-x="733" 
d="M167 -60c36 0 45 -26 45 -40c0 -16 -6 -34 -25 -42c-5 -2 -7 -6 -8 -10c0 -5 1 -8 5 -11s9 -5 14 -5c6 0 12 2 17 5c24 16 30 45 51 127l3 12c12 46 21 84 29 121c7 33 15 67 25 107v4h-62c-6 0 -10 4 -10 10v22c0 6 4 10 10 10h76v2c25 74 66 169 159 169
c45 0 90 -26 90 -76c0 -6 0 -12 -2 -17c-5 -20 -26 -36 -47 -36c-7 0 -14 2 -18 4c-10 4 -18 13 -21 22c-1 5 -2 9 -2 14c0 14 5 27 15 35c4 2 6 7 6 12c0 6 -5 12 -11 13c-1 0 -3 1 -5 1c-5 0 -12 -2 -20 -8c-15 -12 -23 -30 -51 -132v-3h59c6 0 10 -4 10 -10v-22
c0 -6 -4 -10 -10 -10h-72v-2c-7 -23 -16 -54 -25 -86c-24 -85 -72 -234 -116 -278c-25 -25 -48 -35 -80 -35c-46 0 -81 29 -81 81c0 27 25 52 52 52zM636 203c-5 -1 -19 -2 -33 -2h-10c-16 1 -29 4 -34 5c-4 0 -5 0 -7 -4s-16 -39 -19 -46s-4 -12 -10 -12h-11
c-6 0 -9 4 -9 10c3 7 24 30 34 85c2 11 8 16 14 18c12 0 22 -1 34 -3c13 -2 26 -3 43 -3c9 0 19 0 31 1l48 4h1c2 0 7 -1 8 -9v-6c0 -1 -1 -4 -2 -5c-4 -9 -12 -17 -20 -25c-7 -7 -143 -122 -143 -122s-1 -1 -1 -2s0 -1 2 -2c4 -2 22 -9 38 -21s22 -20 27 -23
c2 -2 5 -2 7 -2c17 0 27 22 27 36v6c-1 4 -17 8 -17 27c0 13 9 28 26 28c21 0 28 -14 28 -34c0 -53 -38 -103 -93 -103c-23 0 -46 8 -56 25c-6 11 -10 24 -27 24s-23 -18 -29 -28c-5 -7 -16 -20 -30 -20c-4 0 -7 1 -11 3c0 0 -7 5 -7 14c0 6 3 13 13 21
c26 21 190 154 191 155s2 2 2 4c0 3 -2 6 -5 6zM189 253c22 0 41 -16 41 -39c0 -31 -16 -55 -48 -55c-9 0 -19 2 -26 10c-4 4 -6 11 -6 17c0 8 3 16 12 23v2s0 2 -3 4c-1 1 -2 1 -3 1c-3 0 -7 -2 -11 -6c-16 -16 -48 -50 -68 -191c0 -3 -1 -6 -1 -7c-2 -11 -7 -12 -11 -12
h-55c-8 0 -10 5 -10 12v4l34 109c11 35 20 64 20 81c0 8 -2 14 -7 16c-2 1 -3 1 -5 1c-22 0 -39 -54 -39 -54l-15 8c10 33 33 77 73 77c5 0 10 -1 15 -2c29 -7 38 -41 38 -41l3 4c17 23 43 38 72 38z" />
    <glyph glyph-name=".notdef" horiz-adv-x="500" 
 />
    <glyph glyph-name="uni0000" horiz-adv-x="0" 
 />
    <glyph glyph-name="uni000D" unicode="&#xd;" horiz-adv-x="250" 
 />
    <glyph glyph-name="space" unicode=" " horiz-adv-x="250" 
 />
    <glyph glyph-name="uniE000" unicode="&#xe000;" horiz-adv-x="62" 
d="M9 500c18 -19 53 -57 53 -130c0 -91 -39 -183 -39 -240c0 -61 35 -118 37 -120v-2c1 -1 0 -2 -1 -3s-3 0 -4 2c-1 1 -55 56 -55 137c0 88 35 150 35 265c0 22 -9 57 -34 88v0v0c-1 1 -2 2 -1 3c0 1 0 3 1 3c25 31 34 66 34 88c0 115 -35 177 -35 265c0 82 54 136 55 137
c1 2 3 2 4 2c1 -1 1 -2 1 -3v-2c-2 -2 -37 -59 -37 -120c0 -57 39 -149 39 -240c0 -72 -35 -111 -53 -130z" />
    <glyph glyph-name="uniE001" unicode="&#xe001;" horiz-adv-x="62" 
d="M53 500c-18 19 -53 58 -53 130c0 91 39 183 39 240c0 61 -35 118 -36 120c-1 1 -1 1 -1 2s0 2 1 3c1 0 3 0 4 -2c1 -1 55 -56 55 -137c0 -88 -35 -150 -35 -265c0 -22 9 -57 34 -88c1 -1 1 -2 1 -3c1 -1 0 -2 -1 -3v0v0c-25 -31 -34 -66 -34 -88c0 -115 35 -177 35 -265
c0 -81 -54 -136 -55 -137c-1 -2 -3 -3 -4 -2s-1 1 -1 2s0 2 1 3c1 2 36 59 36 120c0 57 -39 149 -39 240c0 73 35 111 53 130z" />
    <glyph glyph-name="uniE002" unicode="&#xe002;" horiz-adv-x="528" 
d="M210 -269h-196c-8 0 -14 6 -14 14v1511c0 8 6 14 14 14h196c191 0 292 154 293 156c3 3 7 5 11 5c2 0 5 0 7 -1c5 -2 7 -7 7 -12c0 -2 0 -3 -1 -5c-1 -3 -61 -260 -368 -260h-51v-1305h51c308 0 367 -257 368 -260c1 -2 1 -3 1 -5c0 -5 -2 -10 -7 -12c-2 -1 -5 -2 -7 -2
c-4 0 -7 2 -10 5c-1 2 -103 157 -294 157z" />
    <glyph glyph-name="uniE003" unicode="&#xe003;" horiz-adv-x="491" 
d="M484 277c4 -3 7 -7 7 -12c0 -2 -1 -4 -1 -5c-1 -3 -60 -260 -368 -260h-122v14v90c0 8 6 13 14 13h159c191 0 291 154 293 157c2 4 7 5 11 5c2 0 5 -1 7 -2z" />
    <glyph glyph-name="uniE004" unicode="&#xe004;" horiz-adv-x="491" 
d="M484 -277c-2 -1 -5 -2 -7 -2c-4 0 -9 1 -11 5c-2 3 -102 157 -293 157h-159c-8 0 -14 5 -14 13v90v14h122c308 0 367 -257 368 -260c0 -1 1 -3 1 -5c0 -5 -3 -9 -7 -12z" />
    <glyph glyph-name="uniE005" unicode="&#xe005;" horiz-adv-x="491" 
d="M7 277c2 1 5 2 7 2c4 0 9 -1 11 -5c2 -3 102 -157 293 -157h159c8 0 14 -5 14 -13v-90v-14h-122c-308 0 -367 257 -368 260c0 1 -1 3 -1 5c0 5 3 9 7 12z" />
    <glyph glyph-name="uniE006" unicode="&#xe006;" horiz-adv-x="491" 
d="M7 -277c-4 3 -7 7 -7 12c0 2 1 4 1 5c1 3 60 260 368 260h122v-104c0 -8 -6 -13 -14 -13h-159c-191 0 -291 -154 -293 -157c-2 -4 -7 -5 -11 -5c-2 0 -5 1 -7 2z" />
    <glyph glyph-name="uniE007" unicode="&#xe007;" horiz-adv-x="1042" 
d="M14 653l994 463c3 2 7 3 10 3c13 0 24 -11 24 -24v0v-205v0c0 -8 -6 -18 -14 -21l-994 -464c-3 -1 -7 -2 -10 -2c-13 0 -24 10 -24 24v0v204v0c0 9 6 18 14 22zM14 153l994 463c3 2 7 3 10 3c13 0 24 -11 24 -24v0v-205v0c0 -8 -6 -18 -14 -21l-994 -464
c-3 -1 -7 -2 -10 -2c-13 0 -24 10 -24 24v0v204v0c0 9 6 18 14 22z" />
    <glyph glyph-name="uniE008" unicode="&#xe008;" horiz-adv-x="1539" 
d="M17 639l1491 470c2 1 5 1 7 1c13 0 24 -10 24 -23v-195v0c0 -10 -7 -20 -17 -23l-1491 -470c-2 0 -5 -1 -7 -1c-13 0 -24 11 -24 24v195c0 9 8 19 17 22zM17 151l1491 470c2 0 5 1 7 1c13 0 24 -11 24 -24v-195c0 -9 -8 -20 -17 -22l-1491 -470c-2 -1 -5 -2 -7 -2
c-13 0 -24 11 -24 24v195v0c0 9 7 20 17 23z" />
    <glyph glyph-name="uniE009" unicode="&#xe009;" horiz-adv-x="2276" 
d="M20 661l2228 392h4c13 0 24 -10 24 -24v0v-188v0c0 -11 -9 -21 -20 -23l-2228 -393h-4c-13 0 -24 10 -24 24v0v188v0c0 11 9 22 20 24zM20 186l2228 392c1 1 3 1 4 1c13 0 24 -11 24 -24v0v-188v0c0 -11 -9 -22 -20 -24l-2228 -392c-1 -1 -3 -1 -4 -1
c-13 0 -24 11 -24 24v0v189v0c0 11 9 21 20 23z" />
    <glyph glyph-name="uniE043" unicode="&#xe043;" horiz-adv-x="104" 
d="M104 625c0 -29 -23 -53 -52 -53s-52 24 -52 53s23 53 52 53s52 -24 52 -53zM104 375c0 -29 -23 -53 -52 -53s-52 24 -52 53s23 53 52 53s52 -24 52 -53z" />
    <glyph glyph-name="uniE044" unicode="&#xe044;" horiz-adv-x="104" 
d="M104 0c0 -29 -23 -53 -52 -53s-52 24 -52 53s23 53 52 53s52 -24 52 -53z" />
    <glyph glyph-name="uniE047" unicode="&#xe047;" horiz-adv-x="654" 
d="M379 479l191 -98c56 -29 84 -85 84 -164s-49 -199 -203 -199c-153 0 -167 76 -171 95c-1 3 -1 6 -1 10c0 20 11 49 44 57c5 1 11 2 16 2c34 0 67 -24 77 -59c12 -40 38 -63 74 -63c40 0 95 31 95 118c0 43 -43 73 -96 102l-172 89l-205 -362c-2 -3 -6 -6 -9 -7h-3
c-2 0 -6 1 -8 2l-15 11c-3 2 -6 7 -6 11c0 2 0 5 1 7l204 360l-189 99c-58 33 -87 83 -87 162s50 199 204 199c153 0 167 -76 171 -95c1 -3 1 -6 1 -9c0 -21 -11 -51 -45 -59c-5 -1 -11 -2 -16 -2c-34 0 -67 24 -77 59c-12 40 -38 64 -74 64c-40 0 -95 -31 -95 -118
c0 -49 33 -68 82 -94l187 -96l204 361c2 4 8 7 12 7c2 0 6 -1 8 -2l16 -11c3 -2 6 -8 6 -12c0 -2 -1 -4 -2 -6zM36 308c-12 12 -19 29 -19 45s7 33 19 45s30 19 46 19s33 -7 45 -19s19 -29 19 -45s-7 -33 -19 -45s-29 -19 -45 -19s-34 7 -46 19zM528 507
c-12 12 -19 29 -19 45s7 34 19 46s29 19 45 19s33 -7 45 -19s19 -30 19 -46s-7 -33 -19 -45s-29 -19 -45 -19s-33 7 -45 19z" />
    <glyph glyph-name="uniE048" unicode="&#xe048;" horiz-adv-x="745" 
d="M642 324h90c8 0 13 -6 13 -14v-10c0 -8 -5 -14 -13 -14h-91c-11 -154 -118 -277 -252 -286v-99c0 -8 -6 -14 -14 -14h-11c-8 0 -13 6 -13 14v99c-131 12 -236 134 -247 286h-90c-8 0 -14 6 -14 14v10c0 8 6 14 14 14h90c6 157 112 285 247 298v99c0 8 5 14 13 14h11
c8 0 14 -6 14 -14v-99c137 -10 247 -138 253 -298zM389 324h148c0 142 -40 257 -148 268v-268zM351 324v267c-103 -14 -142 -127 -142 -267h142zM351 286h-142c0 -134 45 -241 142 -255v255zM389 286v-255c101 11 147 118 147 255h-147z" />
    <glyph glyph-name="uniE049" unicode="&#xe049;" horiz-adv-x="738" 
d="M632 324h93c8 0 13 -5 13 -13v-12c0 -8 -5 -13 -13 -13h-93v-256c0 -17 -13 -30 -30 -30h-213v-99c0 -8 -6 -14 -14 -14h-11c-8 0 -14 6 -14 14v99h-214c-17 0 -30 13 -30 30v256h-92c-8 0 -14 5 -14 13v12c0 8 6 13 14 13h92v268c0 17 13 30 30 30h214v99
c0 8 6 14 14 14h11c8 0 14 -6 14 -14v-99h213c17 0 30 -13 30 -30v-268zM526 324v268h-137v-268h137zM350 324v268h-137v-268h137zM213 286v-256h137v256h-137zM389 286v-256h137v256h-137z" />
    <glyph glyph-name="uniE04A" unicode="&#xe04a;" horiz-adv-x="554" 
d="M366 32l-177 85c-100 42 -189 103 -189 217c0 111 61 164 89 187c-54 45 -89 111 -89 173c0 87 18 127 75 183c-46 43 -75 116 -75 181c0 107 69 223 231 223c175 0 227 -64 251 -106c10 -17 16 -38 16 -56c0 -44 -36 -60 -74 -60c-47 0 -77 33 -97 88
c-16 45 -43 87 -120 87s-128 -46 -128 -105c0 -95 63 -135 110 -160l176 -84c100 -42 189 -103 189 -217c0 -108 -57 -161 -86 -185c51 -38 86 -89 86 -161c0 -111 -61 -163 -89 -186c54 -45 89 -122 89 -193c0 -90 -49 -223 -231 -223c-89 0 -264 38 -264 156
c0 47 27 74 73 74c55 0 75 -37 95 -96c18 -54 43 -86 120 -86s128 38 128 97c0 95 -63 142 -109 167zM188 624l177 -84c27 -11 54 -25 78 -40c26 20 31 69 32 74c0 85 -43 112 -110 142l-176 85c-31 15 -60 33 -85 52c-16 -16 -25 -37 -25 -62c0 -95 63 -142 109 -167z
M189 285l176 -84c22 -11 57 -32 77 -47c27 19 32 69 33 75c0 85 -43 112 -110 142l-176 85c-22 11 -57 32 -77 46c-27 -19 -32 -68 -33 -74c0 -97 57 -114 87 -131c5 -3 13 -7 23 -12z" />
    <glyph glyph-name="uniE04B" unicode="&#xe04b;" horiz-adv-x="554" 
d="M442 154c3 2 33 24 33 74c0 97 -56 114 -86 131c-5 2 -13 7 -24 12v-171c27 -13 53 -28 77 -46zM225 438v-171c34 -17 75 -36 104 -50v172c-34 16 -75 36 -104 49zM166 297c5 -3 13 -7 23 -12v170c-27 14 -52 29 -76 46c-4 -1 -34 -15 -34 -74c0 -77 57 -114 87 -130z
M189 624v176c-31 16 -59 33 -85 53c-2 -2 -24 -20 -24 -62c0 -95 62 -142 109 -167zM329 555v179c-34 16 -75 36 -104 49v-179c26 -14 55 -28 104 -49zM365 716v-177c28 -11 54 -24 78 -39c3 2 32 18 32 73c0 84 -45 111 -110 143zM225 101v-97c0 -7 -6 -12 -12 -12h-11
c-7 0 -13 5 -13 12v112c-100 42 -189 103 -189 217c0 112 61 164 89 187c-54 46 -89 112 -89 174c0 86 19 127 76 183c-47 43 -76 115 -76 181c0 106 69 223 231 223c175 0 228 -64 251 -106c9 -17 16 -35 16 -53c0 -46 -31 -64 -73 -64c-48 0 -78 33 -98 89
c-16 44 -43 86 -120 86s-127 -46 -127 -105c0 -95 63 -134 109 -160v34c0 7 6 13 13 13h11c7 0 12 -6 12 -13v-53c26 -14 55 -28 104 -49v102c0 7 6 13 13 13h10c7 0 13 -6 13 -13v-118c100 -42 189 -103 189 -217c0 -108 -57 -161 -86 -184c51 -39 86 -89 86 -161
c0 -111 -61 -164 -88 -187c53 -45 88 -121 88 -193c0 -90 -49 -222 -231 -222c-88 0 -264 39 -264 156c0 35 19 68 56 73c74 0 89 -25 113 -95c18 -54 42 -87 119 -87s128 39 128 98c0 95 -64 142 -110 167v-28c0 -7 -5 -12 -13 -12h-10c-8 0 -13 5 -13 12v48
c-26 13 -55 27 -104 49z" />
    <glyph glyph-name="uniE050" unicode="&#xe050;" horiz-adv-x="640" 
d="M562 -21c0 89 -65 150 -155 150c7 -44 34 -203 55 -323c71 29 100 102 100 173zM420 -206l-58 329c-59 -14 -104 -63 -104 -124c0 -49 22 -75 61 -99c12 -8 22 -13 22 -22s-9 -13 -17 -13c-80 0 -135 96 -135 166c0 94 62 190 153 217c-7 41 -14 88 -23 142
c-15 -15 -31 -29 -48 -44c-88 -76 -174 -185 -174 -307c0 -151 122 -251 265 -251c19 0 38 2 58 6zM332 822c-8 -31 -11 -65 -11 -102c0 -42 5 -81 11 -121c69 68 146 146 146 250c0 69 -24 118 -39 118c-52 0 -98 -105 -107 -145zM122 -513c0 66 45 123 115 123
c75 0 116 -57 116 -111c0 -64 -47 -104 -94 -111c-3 -1 -5 -2 -5 -4c0 -1 2 -2 3 -3c2 0 23 -5 47 -5c101 0 154 55 154 159c0 53 -11 123 -30 219c-23 -4 -50 -7 -79 -7c-186 0 -349 147 -349 334c0 200 126 321 217 406c21 17 73 70 74 71c-17 112 -22 161 -22 215
c0 84 18 212 82 288c33 39 64 51 71 51c18 0 47 -35 71 -86c16 -36 44 -110 44 -201c0 -159 -73 -284 -179 -395c9 -56 19 -115 29 -175c146 0 253 -102 253 -253c0 -103 -73 -205 -171 -237c6 -39 12 -69 15 -89c10 -57 16 -102 16 -141c0 -63 -14 -129 -68 -167
c-36 -22 -77 -34 -124 -34c-135 0 -186 87 -186 153z" />
    <glyph glyph-name="uniE051" unicode="&#xe051;" horiz-adv-x="640" 
d="M562 -21c0 13 -1 23 -2 32c-9 48 -52 118 -153 118c7 -44 34 -203 55 -323c71 29 100 102 100 173zM420 -206l-58 329c-59 -14 -104 -63 -104 -124c0 -49 22 -75 61 -99c12 -8 22 -13 22 -22s-9 -13 -17 -13c-80 0 -135 96 -135 166c0 94 62 190 153 217
c-7 41 -14 88 -23 142c-15 -15 -31 -29 -48 -44c-88 -76 -174 -185 -174 -307c0 -151 122 -251 265 -251c19 0 38 2 58 6zM332 822c-8 -31 -11 -65 -11 -102c0 -42 5 -81 11 -121c69 68 146 146 146 250c0 69 -24 118 -39 118c-52 0 -98 -105 -107 -145zM269 773
c0 84 18 212 82 288c33 39 64 51 71 51c18 0 47 -35 71 -86c16 -36 44 -110 44 -201c0 -159 -73 -284 -179 -395c9 -56 19 -115 29 -175c146 0 253 -102 253 -253c0 -103 -73 -205 -171 -237c6 -39 12 -69 15 -89c10 -57 16 -102 16 -141c0 -63 -14 -129 -68 -167
c-36 -22 -80 -34 -124 -34h-12l-48 -179c-3 -11 -4 -17 -4 -20s1 -5 22 -5h19l-3 -23h-139l3 23h18c12 0 19 0 21 2c3 2 4 5 6 12l35 132c2 6 2 9 2 11c0 3 0 6 -11 6h-32l6 21h2c30 0 70 11 84 22c-81 10 -155 64 -155 151c0 66 45 123 115 123c75 0 116 -57 116 -111
c0 -64 -47 -104 -94 -111c-3 -1 -5 -2 -5 -4c0 -1 2 -2 3 -3c2 0 23 -5 47 -5c101 0 154 55 154 159c0 53 -11 123 -30 219c-23 -4 -50 -7 -79 -7c-186 0 -349 147 -349 334c0 200 126 321 217 406c21 17 73 70 74 71c-17 112 -22 161 -22 215zM329 -867c0 -3 11 -9 24 -9
c27 0 48 29 48 67c0 24 -11 38 -29 38c-8 0 -12 -1 -27 -7c-2 -12 -9 -19 -19 -19c-8 0 -13 6 -13 14c0 7 4 13 12 17l30 103l3 -1c26 -6 48 -9 69 -9c16 0 29 2 43 8c3 1 3 1 4 1c3 0 5 -2 5 -5c0 -39 -47 -54 -77 -54c-14 0 -15 0 -38 5l-10 -34c14 5 24 7 38 7
c35 0 67 -22 67 -60c0 -56 -45 -93 -99 -93c-42 0 -68 21 -68 53c0 21 13 35 32 35c16 0 28 -11 28 -27c0 -13 -10 -25 -21 -27c-2 -1 -2 -1 -2 -3z" />
    <glyph glyph-name="uniE052" unicode="&#xe052;" horiz-adv-x="640" 
d="M423 -717c0 -24 -14 -40 -43 -53c18 -13 28 -32 28 -55c0 -43 -38 -73 -92 -73c-44 0 -74 22 -74 55c0 31 26 51 52 61c-14 14 -21 28 -21 47c0 45 41 71 83 71c33 0 67 -16 67 -53zM323 -877c22 0 38 15 38 34c0 14 -8 24 -27 35v0c-2 2 -2 2 -14 8c-3 2 -4 2 -8 4
c-17 -10 -26 -26 -26 -46c0 -21 15 -35 37 -35zM361 -757c15 12 21 23 21 39c0 21 -12 33 -31 33c-20 0 -34 -13 -34 -31c0 -12 5 -19 20 -28l2 -1c3 -2 7 -4 22 -12zM640 2c0 -103 -73 -204 -171 -237c7 -38 12 -69 15 -89c10 -57 16 -102 16 -141
c0 -128 -63 -201 -192 -201c-135 0 -185 87 -185 153s44 123 114 123c75 0 116 -57 116 -111c0 -63 -47 -104 -94 -111c-3 -1 -5 -2 -5 -4c0 -1 2 -2 3 -2c2 -1 23 -6 47 -6c101 0 155 55 155 159c0 53 -12 124 -30 219c-24 -4 -51 -7 -80 -7c-186 0 -349 147 -349 335
c0 199 126 321 217 405c21 18 73 71 74 71c-17 113 -22 162 -22 216c0 84 18 211 83 287c32 39 64 51 71 51c17 0 46 -35 70 -86c17 -36 45 -110 45 -201c0 -158 -74 -284 -179 -395c9 -56 18 -115 28 -175c146 0 253 -102 253 -253zM332 822c-7 -31 -11 -64 -11 -102
c0 -41 5 -81 11 -121c69 69 147 147 147 250c0 70 -25 118 -40 118c-52 0 -97 -105 -107 -145zM362 -212c20 0 38 3 58 7l-58 328c-58 -14 -104 -63 -104 -124c0 -48 22 -75 61 -98c13 -8 22 -14 22 -22c0 -10 -9 -14 -17 -14c-80 0 -135 96 -135 167c0 93 62 190 153 216
c-7 42 -14 88 -23 142c-15 -15 -31 -29 -48 -43c-88 -77 -174 -186 -174 -308c0 -151 122 -251 265 -251zM462 -193c71 29 101 101 101 173c0 12 -2 23 -3 31c-9 48 -52 118 -153 118c7 -44 34 -203 55 -322z" />
    <glyph glyph-name="uniE053" unicode="&#xe053;" horiz-adv-x="640" 
d="M640 3c0 -104 -73 -205 -171 -238c6 -38 12 -69 15 -89c10 -56 16 -102 16 -141c0 -128 -63 -201 -192 -201c-135 0 -186 87 -186 153s45 123 115 123c75 0 116 -57 116 -110c0 -64 -47 -104 -94 -112c-3 -1 -5 -1 -5 -3c0 -1 2 -3 3 -3c2 -1 23 -6 47 -6
c101 0 155 55 155 159c0 53 -12 124 -31 220c-23 -5 -50 -8 -79 -8c-186 0 -349 147 -349 335c0 200 126 321 217 405c21 18 73 71 74 71c-17 113 -22 162 -22 216c0 84 18 211 82 287c18 22 36 35 49 43c-39 3 -65 24 -65 54c0 31 27 51 53 61c-15 14 -21 28 -22 47
c0 45 41 71 83 71c33 0 67 -16 67 -53c0 -24 -14 -40 -43 -52c18 -14 28 -33 28 -56c0 -35 -25 -61 -64 -70c17 -12 38 -42 56 -80c16 -36 44 -109 44 -201c0 -158 -73 -284 -178 -395c8 -55 18 -114 28 -175c146 0 253 -102 253 -252zM444 1316c-20 0 -34 -13 -34 -31
c0 -12 5 -19 21 -28l1 -1c3 -2 7 -4 22 -12c15 12 21 23 21 39c0 21 -11 33 -31 33zM379 1160c0 -22 15 -36 37 -36s38 15 38 34c0 14 -7 24 -27 35v0c-2 2 -2 2 -14 8c-3 2 -4 2 -8 4c-17 -10 -26 -26 -26 -45zM332 822c-8 -31 -11 -64 -11 -102c0 -41 5 -80 11 -121
c69 69 146 147 146 250c0 70 -24 119 -39 119c-52 0 -98 -105 -107 -146zM362 -211c19 0 38 2 58 6l-58 328c-58 -14 -104 -62 -104 -124c0 -48 22 -74 61 -98c12 -8 22 -14 22 -22c0 -10 -9 -14 -17 -14c-80 0 -135 96 -135 167c0 93 62 190 153 216c-7 42 -14 88 -23 142
c-15 -14 -31 -29 -48 -43c-88 -77 -174 -186 -174 -308c0 -151 122 -250 265 -250zM462 -193c71 29 100 101 100 173c0 12 -1 23 -2 31c-9 48 -52 118 -153 118c7 -44 34 -203 55 -322z" />
    <glyph glyph-name="uniE054" unicode="&#xe054;" horiz-adv-x="640" 
d="M462 -194c71 29 100 101 100 173c0 12 -1 23 -2 32c-9 47 -52 118 -153 118c7 -45 34 -204 55 -323zM362 -212c19 0 38 2 58 6l-58 328c-58 -14 -104 -62 -104 -124c0 -48 22 -74 61 -98c12 -8 22 -14 22 -22c0 -10 -9 -13 -17 -13c-80 0 -135 95 -135 166
c0 93 62 190 153 217c-7 41 -14 87 -23 141c-15 -14 -31 -29 -48 -43c-88 -77 -174 -186 -174 -307c0 -152 122 -251 265 -251zM332 821c-7 -31 -11 -64 -11 -102c0 -41 5 -80 11 -121c69 69 147 147 147 251c0 69 -25 118 -40 118c-52 0 -97 -105 -107 -146zM640 2
c0 -104 -73 -205 -171 -238c7 -38 12 -69 15 -89c10 -56 16 -102 16 -141c0 -63 -14 -129 -68 -167c-36 -22 -77 -34 -124 -34c-135 0 -185 87 -185 153s44 124 114 124c75 0 116 -58 116 -111c0 -64 -47 -104 -94 -112c-3 -1 -5 -1 -5 -3c0 -1 2 -3 3 -3c2 -1 23 -6 47 -6
c101 0 155 55 155 159c0 53 -12 124 -30 220c-24 -5 -51 -8 -80 -8c-186 0 -349 147 -349 335c0 200 126 321 217 406c21 17 73 70 74 71c-17 112 -22 161 -22 215c0 84 18 211 82 287c27 32 53 46 65 50c-19 9 -30 25 -30 46c0 20 13 34 32 34c17 0 28 -10 28 -26
c0 -13 -7 -23 -20 -27c-2 -1 -2 -2 -2 -3c0 -4 10 -9 23 -9c27 0 49 29 49 67c0 24 -11 38 -30 38c-7 0 -12 -1 -26 -7c-2 -12 -9 -19 -20 -19c-7 0 -13 6 -13 14c0 7 4 13 13 17l30 103l2 -1c26 -6 49 -9 69 -9c17 0 30 2 44 8v0c2 1 3 1 4 1c2 0 4 -2 4 -5
c0 -11 -8 -27 -19 -37c-14 -12 -31 -17 -58 -17c-14 0 -14 0 -38 5l-9 -34c14 5 25 7 38 7c37 0 66 -21 66 -60c0 -56 -45 -93 -99 -93c-5 0 -10 0 -15 1c17 -13 37 -42 54 -79c17 -36 45 -109 45 -200c0 -159 -74 -285 -179 -396c8 -55 18 -114 28 -174
c146 0 253 -103 253 -253zM379 1131l-3 -23h-139l3 23h19c12 0 20 0 22 3v0c1 1 2 3 3 7h1c0 1 1 6 4 16l32 120c1 6 2 9 2 11c0 3 0 5 -11 5h-33l6 22h2c31 0 72 12 86 22v1h18l-49 -182c-3 -11 -4 -17 -4 -20c0 -4 1 -5 22 -5h19z" />
    <glyph glyph-name="uniE055" unicode="&#xe055;" horiz-adv-x="1044" 
d="M1044 2c0 -104 -73 -205 -171 -238c7 -38 12 -69 16 -89c9 -56 15 -102 15 -141c0 -128 -63 -201 -192 -201c-135 0 -185 87 -185 153s45 123 115 123c75 0 115 -57 115 -110c0 -64 -47 -105 -94 -112c-3 -1 -4 -2 -4 -4c0 -1 1 -2 3 -2c2 -1 22 -6 47 -6
c100 0 154 55 154 159c0 53 -12 124 -30 220c-24 -5 -51 -8 -80 -8c-74 0 -145 24 -203 64c-24 -20 -51 -36 -81 -46c7 -38 12 -69 16 -89c9 -56 15 -102 15 -141c0 -128 -63 -201 -192 -201c-135 0 -185 87 -185 153s45 123 115 123c75 0 115 -57 115 -110
c0 -64 -47 -105 -94 -112c-3 -1 -4 -2 -4 -4c0 -1 1 -2 3 -2c2 -1 22 -6 47 -6c100 0 154 55 154 159c0 53 -12 124 -30 220c-24 -5 -51 -8 -80 -8c-186 0 -349 147 -349 335c0 200 126 321 217 406c21 17 73 70 74 70c-17 113 -22 162 -22 216c0 84 18 211 83 287
c32 39 64 52 71 52c18 0 47 -36 70 -87c17 -36 45 -109 45 -200c0 -159 -74 -285 -179 -396c9 -55 18 -114 28 -175c18 0 35 -1 51 -4c44 105 121 179 183 237c21 17 73 70 74 70c-17 113 -22 162 -22 216c0 84 18 211 83 287c32 39 64 52 71 52c18 0 47 -36 70 -87
c17 -36 45 -109 45 -200c0 -159 -74 -285 -179 -396c9 -55 18 -114 28 -175c146 0 253 -102 253 -252zM736 821c-7 -31 -11 -64 -11 -102c0 -41 5 -80 12 -121c68 69 146 147 146 251c0 69 -25 118 -40 118c-52 0 -97 -105 -107 -146zM676 346c-47 -41 -93 -90 -126 -145
c26 -21 48 -47 63 -78c25 58 73 107 133 125c-6 41 -14 87 -23 141c-15 -14 -31 -29 -47 -43zM332 821c-7 -31 -11 -64 -11 -102c0 -41 5 -80 12 -121c68 69 146 147 146 251c0 69 -25 118 -40 118c-52 0 -97 -105 -107 -146zM362 -213c20 0 38 3 58 7l-57 328
c-59 -14 -104 -62 -104 -124c0 -48 22 -74 60 -98c13 -8 22 -14 22 -22c0 -10 -9 -14 -17 -14c-80 0 -135 96 -135 167c0 93 62 190 153 217c-6 41 -14 87 -23 141c-15 -14 -31 -29 -47 -43c-88 -77 -175 -186 -175 -308c0 -151 122 -251 265 -251zM462 -194
c71 29 101 101 101 173c0 12 -1 23 -3 31c-9 48 -52 118 -153 118c7 -44 34 -203 55 -322zM766 -213c20 0 38 3 58 7l-57 328c-59 -14 -104 -62 -104 -124c0 -48 22 -74 60 -98c13 -8 22 -14 22 -22c0 -10 -9 -14 -17 -14c-42 0 -77 27 -100 62c-10 -27 -23 -53 -41 -76
c48 -40 111 -63 179 -63zM866 -194c71 29 101 101 101 173c0 12 -1 23 -3 31c-9 48 -52 118 -153 118c7 -44 34 -203 55 -322z" />
    <glyph glyph-name="uniE057" unicode="&#xe057;" horiz-adv-x="640" 
d="M360 -758c16 12 22 22 22 39c0 20 -12 32 -31 32c-20 0 -34 -12 -34 -30c0 -13 5 -19 20 -29l7 -4c3 -2 8 -4 16 -8zM323 -878c22 0 38 14 38 33c0 15 -8 25 -27 36l-22 11c-17 -10 -26 -26 -26 -45c0 -21 15 -35 37 -35zM422 -718c0 -24 -13 -41 -42 -53
c18 -14 28 -33 28 -55c0 -43 -38 -73 -92 -73c-44 0 -74 22 -74 54c0 31 26 51 52 62c-15 14 -21 28 -21 46c0 45 41 72 83 72c33 0 66 -16 66 -53zM440 -641l4 -3c53 -27 86 -76 86 -137s-33 -111 -86 -139l-4 -2v22l1 1c38 28 44 73 44 118c0 44 -6 90 -44 117l-1 1v22z
M462 -194c71 29 100 101 100 173c0 12 -1 23 -2 32c-9 47 -52 118 -153 118c7 -45 34 -204 55 -323zM362 -212c19 0 38 2 58 6l-58 329c-58 -15 -104 -63 -104 -125c0 -48 22 -74 61 -98c12 -8 22 -14 22 -22c0 -10 -9 -13 -17 -13c-80 0 -135 95 -135 166
c0 93 62 190 153 217c-7 41 -14 87 -23 141c-15 -14 -31 -28 -48 -43c-88 -77 -174 -186 -174 -307c0 -152 122 -251 265 -251zM332 822c-7 -31 -11 -65 -11 -103c0 -41 5 -80 11 -121c69 69 147 147 147 251c0 69 -25 118 -40 118c-52 0 -97 -105 -107 -145zM387 255
c146 0 253 -103 253 -253c0 -104 -73 -205 -171 -238c7 -38 12 -69 15 -89c10 -56 16 -102 16 -140c0 -129 -63 -202 -192 -202c-29 0 -55 4 -77 12v-8l-1 -1c-38 -26 -43 -74 -43 -117c0 -44 5 -92 43 -119l1 -1v-21l-4 2c-52 28 -85 78 -85 139c0 56 28 103 74 131
c-67 29 -93 88 -93 136c0 66 44 124 114 124c75 0 116 -57 116 -111c0 -64 -47 -104 -94 -112c-3 -1 -5 -1 -5 -3c0 -1 2 -3 3 -3c2 -1 23 -5 47 -5c101 0 155 55 155 158c0 54 -12 124 -30 220c-24 -5 -51 -8 -80 -8c-186 0 -349 147 -349 335c0 200 126 321 217 406
c21 17 73 70 74 71c-17 112 -22 161 -22 215c0 84 18 211 82 288c33 38 64 51 72 51c17 0 46 -36 70 -87c17 -36 45 -109 45 -200c0 -159 -74 -285 -179 -396c8 -55 18 -114 28 -174z" />
    <glyph glyph-name="uniE05C" unicode="&#xe05c;" horiz-adv-x="627" 
d="M13 469h72c7 0 13 -6 13 -13v-910c0 -7 -6 -13 -13 -13h-72c-7 0 -13 6 -13 13v910c0 7 6 13 13 13zM627 -261c0 -140 -103 -219 -224 -219c-75 0 -182 31 -182 123c0 49 34 81 83 81c44 0 75 -32 75 -76c0 -43 -29 -74 -73 -74c-6 0 -10 1 -11 1c23 -16 54 -25 85 -25
c105 0 122 84 122 174c0 77 -2 189 -90 189s-106 -95 -108 -106c0 -1 0 -13 -14 -13s-15 12 -15 13c-11 56 -33 151 -92 175v-436c0 -7 -5 -13 -12 -13s-13 6 -13 13v910c0 7 6 13 13 13s12 -6 12 -13v-436c56 23 83 119 92 174c0 1 1 14 15 14s14 -13 14 -14
c2 -10 20 -105 108 -105s90 112 90 189c0 90 -17 174 -122 174c-31 0 -62 -9 -85 -25c48 0 84 -18 84 -73c0 -44 -31 -76 -75 -76c-49 0 -83 32 -83 81c0 92 107 123 182 123c121 0 224 -79 224 -219c0 -108 -60 -221 -182 -221c-43 0 -56 3 -94 26c-2 -4 -22 -44 -55 -67
c33 -23 53 -63 55 -67c39 24 56 26 79 26c131 0 197 -97 197 -221z" />
    <glyph glyph-name="uniE05D" unicode="&#xe05d;" horiz-adv-x="627" 
d="M13 469h72c7 0 13 -6 13 -13v-910c0 -7 -6 -13 -13 -13h-72c-7 0 -13 6 -13 13v910c0 7 6 13 13 13zM627 -261c0 -140 -103 -219 -224 -219c-75 0 -182 31 -182 123c0 49 34 81 83 81c44 0 75 -32 75 -76c0 -43 -29 -74 -73 -74c-6 0 -10 1 -11 1c23 -16 54 -25 85 -25
c105 0 122 84 122 174c0 77 -2 189 -90 189s-106 -95 -108 -106c0 -1 0 -13 -14 -13s-15 12 -15 13c-11 56 -33 151 -92 175v-436c0 -7 -6 -13 -13 -13s-12 6 -12 13v910c0 7 5 13 12 13s13 -6 13 -13v-436c56 23 83 119 92 174c0 1 1 14 15 14s14 -13 14 -14
c2 -10 20 -105 108 -105s90 112 90 189c0 90 -17 174 -122 174c-31 0 -62 -9 -85 -25c48 0 84 -18 84 -73c0 -44 -31 -76 -75 -76c-49 0 -83 32 -83 81c0 92 107 123 182 123c121 0 224 -79 224 -219c0 -108 -60 -221 -182 -221c-43 0 -56 3 -94 26c-2 -4 -22 -44 -55 -67
c33 -23 53 -63 55 -67c39 24 56 26 79 26c131 0 197 -97 197 -221zM368 -559c0 -24 -14 -41 -43 -53c18 -13 28 -33 28 -55c0 -43 -38 -73 -92 -73c-44 0 -74 21 -74 54c0 31 27 50 53 62c-15 14 -22 27 -22 46c0 46 41 72 83 72c31 0 67 -18 67 -53zM283 -587l1 -1l22 -11
c16 12 21 23 21 39c0 21 -11 32 -31 32s-34 -12 -34 -30c0 -13 5 -20 21 -29zM257 -639c-17 -10 -26 -26 -26 -45c0 -21 15 -35 37 -35s38 14 38 33c0 14 -7 25 -26 36h-1l-14 7c-3 2 -4 2 -8 4z" />
    <glyph glyph-name="uniE062" unicode="&#xe062;" horiz-adv-x="663" 
d="M254 251c93 0 164 -29 211 -85c41 -49 63 -118 63 -201c0 -67 -25 -145 -69 -220c-25 -42 -56 -84 -92 -123c-40 -43 -86 -83 -137 -120c-91 -71 -205 -118 -206 -118s-4 -1 -5 -1c-6 0 -15 2 -18 12c0 2 -1 3 -1 5c0 12 12 19 12 19c1 0 99 45 203 140
c39 35 83 98 116 164c30 59 65 148 65 241c0 168 -50 250 -152 250c-35 0 -67 -6 -92 -20c-17 -9 -39 -29 -50 -45s-23 -45 -26 -64c8 7 25 17 35 21c9 3 20 5 32 5c17 0 37 -4 58 -18c30 -19 48 -51 48 -86c0 -39 -19 -75 -50 -92c-19 -11 -42 -17 -64 -17
c-13 0 -26 2 -38 6c-30 10 -53 29 -65 56c-9 19 -13 41 -13 65c0 17 2 35 7 53c9 35 32 86 90 129c1 0 62 44 138 44zM568 124c0 28 22 51 48 51s48 -23 48 -51s-22 -50 -48 -50s-48 22 -48 50zM568 -123c0 28 22 51 48 51s48 -23 48 -51s-22 -51 -48 -51s-48 23 -48 51z
" />
    <glyph glyph-name="uniE063" unicode="&#xe063;" horiz-adv-x="662" 
d="M567 124c0 28 22 51 48 51s48 -23 48 -51s-22 -50 -48 -50s-48 22 -48 50zM567 -123c0 28 22 51 48 51s48 -23 48 -51s-22 -51 -48 -51s-48 23 -48 51zM259 -710c0 -4 1 -6 22 -6h19l-3 -23h-139l3 23h19c12 0 20 0 22 3v1c1 1 2 1 3 6l1 1c0 1 1 5 4 15l32 120
c1 3 2 8 2 11s0 6 -11 6h-33l6 21h2c31 1 72 12 86 22v1h18l-49 -182c-3 -11 -4 -16 -4 -19zM490 -510c2 0 4 -1 4 -5c0 -11 -9 -27 -19 -36c-14 -12 -32 -18 -58 -18c-14 0 -15 0 -38 5l-9 -34c14 5 25 7 38 7c20 0 36 -5 48 -16s18 -26 18 -44c0 -26 -10 -49 -28 -66
s-43 -27 -71 -27c-41 0 -68 21 -68 53c0 21 13 35 32 35c17 0 28 -11 28 -27c0 -13 -7 -23 -20 -27c-1 0 -2 -1 -2 -1c0 -5 10 -11 23 -11c27 0 49 29 49 67c0 25 -11 39 -30 39c-7 0 -11 -2 -26 -8c-2 -12 -10 -19 -20 -19c-8 0 -13 6 -13 14s4 14 13 18l30 102l2 -1
c26 -6 49 -9 69 -9c17 0 30 2 44 8l1 1h3zM253 251c93 0 165 -29 212 -85c41 -49 63 -118 63 -201c0 -67 -25 -145 -69 -220c-25 -42 -56 -84 -92 -123c-40 -43 -86 -82 -137 -119c-91 -71 -205 -119 -206 -119s-5 -1 -6 -1c-6 0 -14 2 -17 12c0 2 -1 4 -1 5
c0 12 11 19 11 19h1c1 0 99 45 203 140c39 35 83 98 116 164c30 59 65 148 65 241c0 168 -50 250 -152 250c-35 0 -67 -6 -92 -20c-17 -9 -39 -29 -50 -45s-23 -45 -26 -64c8 7 24 17 34 21c9 3 19 5 32 5c17 0 38 -4 59 -18c30 -19 48 -51 48 -86c0 -39 -20 -76 -51 -93
c-18 -11 -40 -16 -61 -16c-14 0 -27 2 -40 6c-30 10 -53 29 -65 56c-9 19 -13 41 -13 65c0 17 2 35 7 53c9 35 32 86 90 129c1 0 61 44 137 44z" />
    <glyph glyph-name="uniE064" unicode="&#xe064;" horiz-adv-x="663" 
d="M568 124c0 28 22 51 48 51s48 -23 48 -51s-22 -50 -48 -50s-48 22 -48 50zM568 -123c0 28 22 51 48 51s48 -23 48 -51s-22 -51 -48 -51s-48 23 -48 51zM352 -560v-1c0 -24 -14 -41 -43 -53c18 -13 29 -33 29 -55c0 -43 -38 -73 -92 -73c-44 0 -74 22 -74 55
c0 17 9 34 24 46c8 6 17 10 28 15c-15 14 -21 28 -21 47c0 20 8 38 23 51s36 20 59 20c19 0 36 -5 48 -14c10 -8 19 -25 19 -38zM267 -588l1 -1c4 -2 8 -5 22 -12c16 12 21 23 21 39c0 21 -11 33 -31 33s-33 -13 -33 -31c0 -13 4 -19 20 -28zM242 -640
c-17 -10 -26 -27 -26 -46c0 -21 14 -35 36 -35s39 15 39 34c0 14 -8 24 -27 35c-2 1 -2 2 -14 8c-3 2 -4 2 -8 4zM254 251c93 0 164 -29 211 -85c41 -49 63 -118 63 -201c0 -67 -24 -145 -68 -220c-25 -42 -57 -84 -93 -123c-40 -43 -86 -82 -137 -119
c-91 -71 -205 -119 -206 -119s-4 -1 -5 -1c-6 0 -15 2 -18 12c0 2 -1 3 -1 5c0 12 12 19 12 19c1 0 99 45 203 140c39 35 83 98 116 164c30 59 65 148 65 241c0 168 -50 250 -152 250c-35 0 -67 -6 -92 -20c-17 -9 -39 -29 -50 -45s-23 -45 -26 -64c8 7 25 17 35 21
c9 3 20 5 32 5c17 0 37 -4 58 -18c30 -19 48 -51 48 -86c0 -39 -19 -76 -50 -93c-18 -11 -40 -16 -62 -16c-14 0 -27 2 -40 6c-30 10 -53 29 -65 56c-9 19 -13 41 -13 65c0 17 2 35 7 53c9 35 32 86 90 129c1 0 62 44 138 44z" />
    <glyph glyph-name="uniE065" unicode="&#xe065;" horiz-adv-x="664" 
d="M569 124c0 28 22 51 48 51s48 -23 48 -51s-22 -50 -48 -50s-48 22 -48 50zM569 -123c0 28 22 51 48 51s48 -23 48 -51s-22 -51 -48 -51s-48 23 -48 51zM282 248c176 -12 244 -137 244 -284c0 -122 -83 -308 -298 -461c-92 -72 -205 -119 -205 -119h-4c-6 0 -15 1 -18 11
c0 2 -1 3 -1 5c0 11 11 18 11 18s97 44 203 140c69 63 182 240 182 406s-48 251 -153 251c-155 0 -169 -133 -169 -133s28 28 69 28c17 0 36 -5 57 -18c33 -21 48 -53 48 -85c0 -37 -20 -74 -51 -92c-19 -11 -42 -17 -63 -17c-43 0 -84 22 -102 62c-8 18 -13 41 -13 66
c0 58 26 127 97 180c0 0 50 36 117 42c-32 7 -53 27 -53 54c0 18 10 36 26 48c8 6 16 11 28 16c-16 15 -22 29 -22 48c0 21 9 40 24 53s37 21 61 21c20 0 38 -5 50 -15c11 -8 19 -26 19 -39v-1c0 -25 -14 -43 -44 -55c19 -14 29 -34 29 -57c0 -37 -27 -65 -69 -73zM278 404
h2c4 -2 7 -5 22 -13c16 12 23 24 23 41c0 22 -12 34 -33 34c-20 0 -35 -13 -35 -32c0 -13 5 -20 21 -30zM252 351c-17 -11 -27 -27 -27 -47c0 -22 15 -37 38 -37s40 15 40 35c0 15 -8 26 -28 37c-3 2 -3 2 -15 8z" />
    <glyph glyph-name="uniE066" unicode="&#xe066;" horiz-adv-x="664" 
d="M569 124c0 28 22 51 48 51s48 -23 48 -51s-22 -50 -48 -50s-48 22 -48 50zM569 -123c0 28 22 51 48 51s48 -23 48 -51s-22 -51 -48 -51s-48 23 -48 51zM225 278h20l-4 -23h-144l4 23h19c12 0 21 1 23 4c1 1 3 2 4 7c0 1 1 7 4 17l33 123c1 3 2 9 2 12s0 6 -12 6h-33l6 22
h2c32 1 75 12 89 23h18l-50 -188c-3 -11 -4 -17 -4 -20c0 -4 1 -6 23 -6zM292 285l-2 -1v-1c0 -5 11 -11 25 -11c28 0 50 31 50 70c0 25 -11 40 -30 40c-8 0 -13 -1 -28 -8c-2 -13 -9 -20 -20 -20c-8 0 -14 6 -14 14s5 15 14 19l30 105h3c27 -6 50 -10 71 -10
c17 0 31 3 45 9h2c1 0 2 1 3 1c2 0 4 -2 4 -6c0 -11 -9 -28 -20 -37c-14 -12 -33 -18 -60 -18c-15 0 -15 0 -39 5l-10 -35c15 5 27 7 40 7c20 0 38 -6 50 -17s19 -26 19 -45c0 -27 -11 -52 -30 -69s-45 -27 -73 -27c-43 0 -70 21 -70 54c0 21 13 36 33 36
c17 0 29 -11 29 -27c0 -14 -8 -23 -22 -28zM252 249c198 0 273 -131 273 -285c0 -122 -82 -308 -297 -461c-92 -72 -206 -119 -206 -119h-4c-5 0 -14 1 -17 11c0 2 -1 3 -1 5c0 11 11 18 11 18s97 44 203 140c69 63 181 240 181 406s-48 251 -153 251
c-155 0 -168 -133 -168 -133s27 28 68 28c17 0 36 -5 57 -18c34 -21 48 -54 48 -86c0 -37 -19 -73 -50 -91c-19 -11 -41 -17 -63 -17c-43 0 -85 22 -103 62c-8 18 -13 41 -13 66c0 58 26 127 97 180c0 0 60 43 137 43z" />
    <glyph glyph-name="uniE069" unicode="&#xe069;" horiz-adv-x="352" 
d="M13 252h110c7 0 13 -6 13 -13v-478c0 -7 -6 -13 -13 -13h-110c-7 0 -13 6 -13 13v478c0 7 6 13 13 13zM229 252h110c7 0 13 -6 13 -13v-478c0 -7 -6 -13 -13 -13h-110c-7 0 -13 6 -13 13v478c0 7 6 13 13 13z" />
    <glyph glyph-name="uniE06D" unicode="&#xe06d;" horiz-adv-x="439" 
d="M36 746h369v-81h-136v-374h-96v374h-137v81zM0 -231l165 463h110l164 -463h-105l-31 95h-170l-32 -95h-101zM219 126l-60 -182h119zM393 -329c14 -20 21 -43 21 -71s-7 -51 -21 -68c-8 -10 -20 -18 -36 -26c24 -9 42 -22 54 -41s18 -41 18 -68s-7 -52 -21 -74
c-9 -14 -19 -26 -32 -36c-15 -11 -33 -20 -53 -24c-21 -4 -42 -6 -63 -6h-2h-209v464h224c57 -1 96 -18 120 -50zM242 -360h-101v-102h113c20 0 36 3 49 11s19 21 19 41c0 22 -8 36 -25 43c-14 5 -33 7 -55 7zM255 -539h-114v-123h113c20 0 36 3 47 8c20 10 30 29 30 58
c0 24 -9 40 -29 49c-11 5 -27 8 -47 8z" />
    <glyph glyph-name="uniE06E" unicode="&#xe06e;" horiz-adv-x="294" 
d="M24 500h247v-54h-91v-250h-64v250h-92v54zM0 -154l111 310h73l110 -310h-70l-21 63h-114l-21 -63h-68zM147 85l-40 -122h79zM183 -186c53 -1 94 -26 94 -82c0 -18 -4 -34 -14 -45c-5 -7 -13 -12 -24 -18c34 -13 48 -37 48 -73c0 -26 -13 -58 -35 -73
c-10 -8 -22 -14 -36 -16c-14 -3 -28 -4 -42 -4h-141v311h150zM162 -241h-67v-68h75c14 0 24 2 33 7c9 6 13 14 13 28s-6 24 -17 29c-9 3 -22 4 -37 4zM171 -361h-76v-82h75c14 0 24 2 32 5c13 7 20 20 20 39c0 32 -25 38 -51 38z" />
    <glyph glyph-name="uniE07A" unicode="&#xe07a;" horiz-adv-x="480" 
d="M92 -381c0 49 33 93 86 93c56 0 86 -43 86 -84c0 -48 -35 -78 -70 -83c-2 -1 -3 -1 -3 -3c0 -1 1 -2 2 -2s17 -4 35 -4c76 0 116 41 116 119c0 40 -9 93 -23 165c-18 -4 -38 -6 -59 -6c-140 0 -262 110 -262 251c0 150 94 241 162 304c16 13 55 53 56 54
c-13 84 -17 121 -17 161c0 63 14 158 62 216c25 29 48 38 54 38c13 0 35 -27 53 -65c12 -27 33 -82 33 -150c0 -119 -55 -213 -134 -297c6 -41 14 -86 21 -131c110 0 190 -77 190 -189c0 -78 -55 -154 -128 -179c5 -28 8 -51 11 -66c7 -43 12 -77 12 -106
c0 -96 -47 -151 -144 -151c-101 0 -139 66 -139 115zM249 620c-6 -23 -8 -48 -8 -76c0 -31 3 -61 8 -91c51 52 110 110 110 188c0 52 -19 88 -30 88c-39 0 -73 -78 -80 -109zM315 -150l-43 246c-44 -11 -78 -47 -78 -93c0 -36 16 -56 45 -74c9 -6 16 -10 16 -16
c0 -8 -6 -10 -12 -10c-60 0 -101 71 -101 125c0 69 46 142 114 162c-5 31 -10 66 -17 106c-11 -11 -23 -21 -36 -32c-66 -58 -130 -140 -130 -231c0 -113 91 -188 198 -188c15 0 29 2 44 5zM422 -11c0 66 -50 112 -117 112c5 -34 26 -153 41 -242c53 21 76 76 76 130z" />
    <glyph glyph-name="uniE07B" unicode="&#xe07b;" horiz-adv-x="471" 
d="M10 355h54c5 0 9 -4 9 -9v-683c0 -5 -4 -10 -9 -10h-54c-5 0 -10 5 -10 10v683c0 5 5 9 10 9zM471 -192c0 -105 -77 -165 -168 -165c-83 0 -114 38 -118 42c-13 17 -20 34 -20 51c0 36 27 61 63 61c32 0 56 -26 56 -58c0 -10 -3 -20 -8 -30c-12 -21 -33 -24 -55 -24
c17 -12 41 -18 64 -18c79 0 91 62 91 130c0 58 -1 141 -67 141s-79 -71 -81 -79c0 -1 0 -10 -11 -10s-11 9 -11 10c-1 4 -6 39 -26 85c-12 28 -29 41 -42 46v-327c0 -5 -5 -10 -10 -10s-10 5 -10 10v683c0 5 5 9 10 9s10 -4 10 -9v-328c41 16 62 92 68 131c0 1 0 11 11 11
s11 -10 11 -11c2 -8 15 -79 81 -79s67 85 67 142c0 68 -12 130 -91 130c-23 0 -47 -6 -64 -18c22 0 43 -3 55 -24c5 -10 8 -20 8 -30c0 -32 -23 -59 -56 -59c-37 0 -63 26 -63 62c0 17 7 34 20 51c4 4 35 41 118 41c91 0 168 -59 168 -164c0 -81 -45 -166 -137 -166
c-28 0 -47 4 -71 19c-2 -3 -16 -33 -41 -50c25 -17 39 -47 41 -50c28 17 49 19 62 19c97 0 146 -74 146 -165z" />
    <glyph glyph-name="uniE07C" unicode="&#xe07c;" horiz-adv-x="497" 
d="M348 131c1 -1 0 -1 1 -2c30 -36 47 -86 47 -149c0 -50 -19 -108 -52 -164c-39 -66 -98 -130 -172 -182c-68 -53 -153 -89 -154 -89s-3 -1 -4 -1c-4 0 -11 2 -13 9c0 1 -1 3 -1 4c0 9 9 14 9 14c1 0 74 34 152 105c23 21 57 63 87 123c14 27 29 64 39 105c3 13 7 33 8 46
c0 3 1 7 1 10c0 7 1 13 1 20c0 126 -37 188 -114 188c-60 0 -91 -27 -107 -50c-8 -12 -17 -33 -19 -47c9 9 27 19 49 19c14 0 29 -4 45 -14c23 -14 36 -37 36 -63c0 -30 -15 -57 -38 -70c-12 -7 -34 -13 -48 -13c-8 0 -20 3 -28 5c-22 7 -40 22 -49 42c-7 15 -10 32 -10 50
c0 12 2 25 5 38c7 26 24 64 68 97c0 0 46 33 103 33c36 0 67 -7 94 -18c1 -1 2 -1 3 -2c9 -4 24 -11 32 -17l4 -4c8 -6 19 -16 25 -23zM341 137l-2 2zM365 106c-1 1 -2 3 -3 4c1 -1 2 -3 3 -4zM381 70c0 1 -1 1 -1 2c0 -1 1 -1 1 -2zM462 61c-20 0 -36 17 -36 38
s16 38 36 38s36 -17 36 -38s-16 -38 -36 -38zM462 -55c20 0 36 -17 36 -38s-16 -38 -36 -38s-36 17 -36 38s16 38 36 38z" />
    <glyph glyph-name="uniE07D" unicode="&#xe07d;" horiz-adv-x="180" 
d="M137 128c18 -13 28 -33 28 -55c0 -43 -38 -73 -92 -73c-44 0 -73 21 -73 54c0 17 9 35 24 47c8 6 17 10 28 15c-15 14 -21 27 -21 46c0 20 8 39 23 52s36 20 59 20c19 0 36 -6 48 -15c10 -8 19 -25 19 -38c0 -24 -14 -41 -43 -53zM95 153h1c4 -2 8 -5 22 -12
c16 12 21 23 21 39c0 21 -11 33 -31 33s-34 -13 -34 -31c0 -13 5 -20 21 -29zM69 101c-17 -10 -26 -26 -26 -45c0 -21 15 -35 37 -35s39 14 39 33c0 14 -8 25 -27 36c-2 1 -3 1 -15 7c-3 2 -4 2 -8 4z" />
    <glyph glyph-name="uniE07E" unicode="&#xe07e;" horiz-adv-x="336" 
d="M101 28c0 -4 1 -5 22 -5h19l-3 -23h-139l3 23h19c12 0 20 0 22 3c1 1 3 2 4 7c0 1 1 6 4 16l32 120c1 3 2 8 2 11s0 6 -11 6h-33l6 21h2c31 1 72 12 86 22v1h18l-49 -182c-3 -11 -4 -17 -4 -20zM332 229c2 0 4 -1 4 -5c0 -11 -9 -27 -19 -36c-14 -12 -32 -18 -58 -18
c-14 0 -15 0 -38 5l-9 -34c14 5 25 7 38 7c20 0 36 -5 48 -16s18 -26 18 -44c0 -26 -10 -50 -28 -67s-43 -26 -71 -26c-41 0 -68 21 -68 53c0 21 13 35 32 35c17 0 28 -11 28 -27c0 -13 -7 -23 -20 -27l-2 -1c0 -5 10 -11 23 -11c27 0 49 29 49 67c0 25 -11 38 -30 38
c-7 0 -11 -1 -26 -7c-2 -12 -10 -19 -20 -19c-8 0 -13 6 -13 14s4 13 13 17l30 103l2 -1c26 -6 49 -9 69 -9c17 0 30 2 44 8h1c1 0 2 1 3 1z" />
    <glyph glyph-name="uniE080" unicode="&#xe080;" horiz-adv-x="404" 
d="M202 255c106 0 187 -110 187 -255s-81 -254 -187 -254s-187 109 -187 254s81 255 187 255zM261 -139v278c0 36 -16 75 -59 75s-59 -39 -59 -75v-278c0 -36 16 -75 59 -75s59 39 59 75z" />
    <glyph glyph-name="uniE081" unicode="&#xe081;" horiz-adv-x="351" 
d="M249 -197h76c7 0 11 -5 11 -12v-22c0 -7 -4 -12 -11 -12h-274c-7 0 -12 5 -12 12v22c0 7 5 12 12 12h76v341l-71 -122c-2 -3 -6 -6 -10 -6c-2 0 -4 1 -6 2l-19 11c-3 2 -6 6 -6 10c0 2 0 4 1 6l112 194l4 4c2 1 4 2 6 2h99c7 0 12 -5 12 -12v-430z" />
    <glyph glyph-name="uniE082" unicode="&#xe082;" horiz-adv-x="392" 
d="M342 -39c4 10 11 14 18 14c9 0 17 -6 17 -19c0 -27 -23 -102 -41 -139s-61 -60 -93 -60s-60 16 -78 42s-29 60 -58 60c-24 0 -32 -10 -33 -16c-1 -3 -1 -6 -1 -9c0 -8 2 -19 8 -33c2 -5 3 -9 3 -13c0 -18 -17 -31 -33 -31c-12 0 -36 3 -36 50s30 89 30 89
c58 87 197 112 197 229c0 45 -7 63 -26 75c-12 8 -28 11 -42 11c-15 0 -29 -3 -34 -5c-18 -5 -23 -12 -23 -18c0 -5 4 -10 7 -11c26 -10 46 -41 46 -69c0 -41 -33 -74 -74 -74s-75 33 -75 74c0 46 28 137 179 137s170 -83 170 -125c0 -60 -27 -112 -133 -145
s-131 -71 -131 -71c10 2 18 3 26 3c54 0 68 -40 133 -40c49 0 69 72 77 94z" />
    <glyph glyph-name="uniE083" unicode="&#xe083;" horiz-adv-x="379" 
d="M272 16h-2c44 -14 94 -45 94 -118c0 -109 -104 -142 -200 -142c-22 0 -71 1 -110 37c-36 33 -39 69 -39 82v4c0 36 29 65 65 65s64 -29 64 -65c0 -33 -27 -62 -60 -64c11 -8 37 -16 65 -16c42 0 87 18 87 85c0 70 -23 100 -67 106c-32 5 -55 5 -72 6c-11 1 -13 12 -13 12
v20s1 14 13 14s68 4 80 6s59 11 59 74c0 54 -45 79 -87 79c-19 0 -38 -5 -52 -15l-3 -3c28 -6 50 -34 50 -63c0 -36 -28 -64 -64 -64s-65 28 -65 64l1 2h-1s-5 122 167 122s175 -113 175 -122v-5c0 -18 -5 -70 -85 -101z" />
    <glyph glyph-name="uniE084" unicode="&#xe084;" horiz-adv-x="457" 
d="M208 -127h-172c-9 0 -11 6 -11 6s-7 11 -10 18c-1 2 -1 4 -1 6c0 6 3 11 3 11c26 37 56 87 82 168s31 155 31 155c1 6 6 12 13 12h149c4 0 7 -2 10 -4l22 -22c1 -1 3 -5 3 -10c0 -4 -1 -9 -5 -14c-118 -158 -230 -278 -230 -278h116v82c0 4 1 8 4 11l91 83c2 2 6 3 9 3h2
c2 0 3 0 5 -1l12 -6c4 -2 7 -7 7 -13v-159h90c8 0 14 -7 14 -14v-19c0 -8 -6 -15 -14 -15h-90v-74h90c8 0 14 -6 14 -14v-19c0 -8 -6 -14 -14 -14h-303c-7 0 -14 6 -14 14v19c0 8 7 14 14 14h83v74z" />
    <glyph glyph-name="uniE085" unicode="&#xe085;" horiz-adv-x="377" 
d="M27 218v4c0 14 12 17 22 17c7 0 12 -1 12 -1c43 -6 78 -10 114 -10c37 0 75 4 124 16c6 1 10 2 14 2c13 0 18 -6 18 -14c0 -3 -1 -7 -2 -10c-8 -21 -24 -58 -71 -77c-22 -9 -53 -12 -83 -12c-35 0 -68 4 -83 5h-1c-6 0 -11 -5 -11 -11v-63c0 -4 3 -7 7 -7c1 0 3 0 4 1
c29 20 64 28 97 28c45 0 88 -14 113 -31c37 -25 61 -77 61 -131c0 -40 -13 -82 -45 -115c-36 -37 -91 -53 -142 -53c-37 0 -73 9 -98 23c-52 30 -62 68 -62 102s27 70 66 70s73 -19 73 -68s-31 -60 -40 -66c-3 -2 -4 -4 -4 -7c0 -2 2 -5 5 -6c6 -4 19 -7 42 -7h8
c66 3 82 75 82 125c0 48 -13 109 -84 109c-63 0 -74 -52 -79 -65c-2 -6 -6 -7 -10 -7h-5c-5 1 -26 6 -35 8c-6 1 -7 9 -7 13v3s4 66 5 122v13c0 52 -5 100 -5 100z" />
    <glyph glyph-name="uniE086" unicode="&#xe086;" horiz-adv-x="402" 
d="M247 48c63 0 140 -37 140 -135c0 -116 -131 -157 -166 -157s-72 2 -130 46c-59 52 -76 121 -76 182c0 56 15 105 25 129c20 46 85 132 175 132c100 0 142 -53 155 -89c4 -8 6 -23 6 -32v-1v-2c0 -36 -29 -64 -65 -64s-64 28 -64 64c0 23 17 50 38 59
c-10 11 -25 19 -50 19c-54 0 -79 -46 -85 -83c-3 -18 -5 -32 -5 -48s2 -32 5 -53c14 15 36 33 97 33zM210 -202c33 0 61 45 61 101s-28 102 -61 102s-60 -46 -60 -102s27 -101 60 -101z" />
    <glyph glyph-name="uniE087" unicode="&#xe087;" horiz-adv-x="381" 
d="M162 -123c23 33 125 206 133 222c-10 -10 -47 -13 -67 -13c-80 0 -83 38 -118 38s-50 -31 -50 -54v-32c0 -6 -5 -11 -11 -11h-23c-6 0 -11 5 -11 11v185c0 6 5 11 11 11h23c6 0 11 -5 11 -11v-48c3 6 41 69 103 69c65 0 77 -86 119 -86c40 0 42 69 42 79s7 14 12 14h18
c6 0 10 -4 11 -14s1 -14 1 -23c0 -23 -6 -78 -17 -109c-22 -63 -54 -148 -66 -195c-6 -22 -8 -46 -8 -67c0 -37 6 -68 6 -70v-3c1 -9 -16 -20 -25 -20c-7 0 -34 7 -63 7c-3 0 -7 -1 -10 -1c-32 -2 -42 -6 -58 -6c-11 0 -14 6 -14 17c0 37 29 77 51 110z" />
    <glyph glyph-name="uniE088" unicode="&#xe088;" horiz-adv-x="408" 
d="M324 18c52 -27 69 -72 69 -120c0 -81 -85 -146 -189 -146s-189 65 -189 146c0 48 25 85 70 111c-47 30 -57 66 -57 106c0 72 79 131 176 131s176 -59 176 -131c0 -40 -23 -72 -56 -97zM204 -192c63 0 98 35 98 62c0 55 -97 89 -165 112c0 0 -52 -16 -52 -83
c0 -56 55 -91 119 -91zM268 45c18 9 40 32 40 80c0 46 -42 75 -104 75c-43 0 -79 -16 -79 -55c0 -45 75 -78 143 -100z" />
    <glyph glyph-name="uniE089" unicode="&#xe089;" horiz-adv-x="402" 
d="M155 -47c-63 0 -140 37 -140 135c0 116 131 157 166 157s72 -2 130 -46c59 -52 76 -121 76 -182c0 -56 -15 -105 -25 -129c-20 -46 -85 -132 -175 -132c-100 0 -142 53 -155 89c-4 8 -6 23 -6 32v1v2c0 36 29 64 65 64s64 -28 64 -64c0 -23 -17 -50 -38 -59
c10 -11 25 -19 50 -19c54 0 79 46 85 83c3 18 5 32 5 48s-2 32 -5 53c-14 -15 -36 -33 -97 -33zM192 204c-33 0 -61 -46 -61 -102s28 -101 61 -101s60 45 60 101s-27 102 -60 102z" />
    <glyph glyph-name="uniE08A" unicode="&#xe08a;" horiz-adv-x="463" 
d="M325 179c2 1 2 3 2 4c0 2 0 3 -1 5c-11 17 -32 34 -79 34c-89 0 -111 -64 -111 -120v-191c0 -88 42 -135 129 -135c88 0 147 50 151 133c0 4 4 8 8 8h13c5 0 8 -3 8 -8c-4 -107 -81 -165 -180 -165c-250 0 -265 149 -265 268c0 65 25 246 243 246c170 0 209 -92 218 -135
c1 -4 2 -11 2 -15v-6c0 -50 -40 -90 -90 -90h-11c-41 5 -74 37 -79 78c-1 4 -1 8 -1 12c0 32 18 61 43 77z" />
    <glyph glyph-name="uniE08B" unicode="&#xe08b;" horiz-adv-x="463" 
d="M424 -83h13c5 0 8 -3 8 -8c-4 -107 -81 -165 -180 -165h-9v-109c0 -6 -5 -11 -11 -11h-27c-6 0 -11 5 -11 11v112c-195 21 -207 156 -207 265c0 61 22 225 207 244v121c0 6 5 11 11 11h27c6 0 11 -5 11 -11v-120c159 -4 196 -93 205 -134c1 -4 2 -11 2 -15v-6
c0 -50 -40 -90 -90 -90h-10c-41 5 -75 37 -80 78c-1 4 -1 8 -1 12c0 32 18 61 43 77c2 1 2 2 2 4c0 1 0 2 -1 4c-10 16 -29 33 -70 35v-446h9c88 0 147 50 151 133c0 4 4 8 8 8zM136 102v-191c0 -66 23 -109 71 -126v432c-57 -16 -71 -68 -71 -115z" />
    <glyph glyph-name="uniE08C" unicode="&#xe08c;" horiz-adv-x="408" 
d="M227 23h167c7 0 14 -6 14 -13v-19c0 -7 -7 -14 -14 -14h-167v-167c0 -7 -6 -14 -13 -14h-20c-7 0 -13 7 -13 14v167h-168c-7 0 -13 7 -13 14v19c0 7 6 13 13 13h168v168c0 7 6 13 13 13h20c7 0 13 -6 13 -13v-168z" />
    <glyph glyph-name="uniE0A0" unicode="&#xe0a0;" horiz-adv-x="539" 
d="M23 179c8 0 14 -6 14 -14v-329s-7 -14 -14 -14h-9c-8 0 -14 7 -14 14v329s6 14 14 14h9zM451 179c8 0 14 -6 14 -14v-329s-7 -14 -14 -14h-9c-8 0 -14 7 -14 14v79c-30 -30 -81 -50 -158 -50c-78 0 -129 20 -159 50v-79c0 -6 -7 -14 -14 -14h-9c-8 0 -14 7 -14 14v329
s6 14 14 14h9c8 0 14 -6 14 -14v-78c30 29 81 49 159 49c77 0 128 -20 158 -49v78c0 8 6 14 14 14h9zM321 -97c24 8 33 25 33 51s-19 90 -33 117c-14 26 -32 33 -59 33c-16 0 -32 -3 -44 -6c-22 -8 -32 -22 -32 -45v-6c1 -27 19 -92 32 -117c13 -24 32 -33 60 -33
c15 0 31 3 43 6zM524 179c8 0 14 -6 14 -14v-329s-7 -14 -14 -14h-9c-8 0 -14 7 -14 14v329s6 14 14 14h9z" />
    <glyph glyph-name="uniE0A1" unicode="&#xe0a1;" horiz-adv-x="432" 
d="M410 177h9c8 0 13 -6 13 -14v-328c0 -8 -5 -14 -13 -14h-9c-8 0 -14 6 -14 14v26h-359v-21c0 -8 -6 -14 -14 -14h-9c-8 0 -14 6 -14 14v323c0 8 6 14 14 14h9c8 0 14 -6 14 -14v-22h359v22c0 8 6 14 14 14zM396 -70v143h-359v-143h359z" />
    <glyph glyph-name="uniE0A2" unicode="&#xe0a2;" horiz-adv-x="373" 
d="M187 136c138 0 186 -70 186 -135s-48 -135 -186 -135s-187 70 -187 135s49 135 187 135zM238 -96c24 7 32 25 32 51c0 25 -18 89 -32 116s-32 33 -60 33c-15 0 -31 -2 -43 -6c-24 -8 -34 -24 -32 -51c1 -27 19 -91 32 -116s32 -33 60 -33c15 0 31 2 43 6z" />
    <glyph glyph-name="uniE0A3" unicode="&#xe0a3;" 
d="M213 132c62 0 112 -33 112 -92c0 -88 -109 -173 -213 -173c-81 0 -112 48 -112 91c0 93 116 174 213 174zM186 -44c3 2 104 50 104 93c0 22 -16 36 -40 36c-36 0 -107 -40 -111 -42s-104 -51 -104 -93c0 -9 7 -36 40 -36c35 0 108 40 111 42z" />
    <glyph glyph-name="uniE0A4" unicode="&#xe0a4;" 
d="M0 -42c0 92 116 174 213 174c62 0 112 -33 112 -92c0 -88 -109 -173 -213 -173c-81 0 -112 48 -112 91z" />
    <glyph glyph-name="uniE0A5" unicode="&#xe0a5;" 
 />
    <glyph glyph-name="uniE0A9" unicode="&#xe0a9;" 
d="M320 96l-122 -96l122 -96c3 -2 5 -6 5 -10c0 -3 -2 -7 -4 -9l-12 -13c-2 -3 -6 -4 -10 -4c-3 0 -7 1 -9 3l-127 101l-128 -101c-2 -2 -6 -3 -9 -3c-4 0 -8 1 -10 4l-12 13c-2 2 -4 6 -4 9c0 4 2 8 5 10l122 96l-122 96c-3 2 -5 6 -5 10s2 8 4 10l13 12c3 2 5 4 9 4
c3 0 7 -1 9 -3l128 -101l127 101c2 2 6 3 9 3c4 0 7 -2 10 -4l12 -12c2 -2 4 -5 4 -9v-1c0 -4 -2 -8 -5 -10z" />
    <glyph glyph-name="uniE0AF" unicode="&#xe0af;" 
d="M186 23h128c6 0 11 -6 11 -14v-19c0 -7 -5 -13 -11 -13h-128v-101c0 -4 -6 -8 -14 -8h-19c-7 0 -13 4 -13 8v101h-129c-6 0 -11 6 -11 13v19c0 8 5 14 11 14h128v100c0 5 6 9 14 9h19c8 0 14 -4 14 -9v-100z" />
    <glyph glyph-name="uniE0B3" unicode="&#xe0b3;" 
d="M184 0l85 -80c17 22 27 50 27 80c0 27 -8 52 -22 73zM162 -19l-93 -76c24 -24 58 -38 94 -38c33 0 64 12 87 32zM140 1l-84 79c-17 -22 -27 -50 -27 -80c0 -27 8 -52 22 -73zM163 20l93 76c-24 24 -58 38 -94 38c-33 0 -64 -13 -87 -33zM162 163c90 0 163 -73 163 -163
s-73 -162 -163 -162s-162 72 -162 162s72 163 162 163z" />
    <glyph glyph-name="uniE0D7" unicode="&#xe0d7;" horiz-adv-x="373" 
d="M350 179h9c8 0 14 -7 14 -14v-329c0 -8 -6 -14 -14 -14h-9c-7 0 -14 6 -14 14v134c-49 -35 -138 -98 -140 -99c-2 -2 -6 -3 -10 -3c-3 0 -7 1 -13 6l-137 95v-133c0 -8 -6 -14 -13 -14h-9c-8 0 -14 6 -14 14v329c0 7 6 14 14 14h9c7 0 13 -7 13 -14v-134l141 99
c2 2 5 3 9 3c5 0 8 -1 10 -3c2 -1 92 -64 140 -98v133c0 7 7 14 14 14zM153 -80l149 104l-82 57l-149 -104z" />
    <glyph glyph-name="uniE0D8" unicode="&#xe0d8;" horiz-adv-x="373" 
d="M196 -130c-2 -2 -6 -3 -10 -3c-3 0 -7 1 -13 6l-170 118c-2 2 -3 5 -3 8c0 4 2 7 5 9l172 121c2 2 5 3 9 3c5 0 8 -1 10 -3c3 -2 155 -108 172 -120c3 -2 5 -6 5 -9c0 -4 -2 -7 -5 -9c-17 -12 -170 -120 -172 -121zM153 -81l149 104l-82 57l-149 -104z" />
    <glyph glyph-name="uniE0D9" unicode="&#xe0d9;" horiz-adv-x="335" 
d="M330 -9l-154 -120c-2 -2 -5 -3 -9 -3c-3 0 -6 1 -8 3l-154 120c-3 2 -5 6 -5 9c0 4 2 7 5 9l154 121c2 2 5 3 8 3c4 0 7 -1 9 -3l154 -121c3 -2 5 -6 5 -9c0 -4 -2 -7 -5 -9zM197 -80l74 57l-133 104l-74 -58z" />
    <glyph glyph-name="uniE0DB" unicode="&#xe0db;" horiz-adv-x="335" 
d="M330 -10l-154 -119c-2 -2 -5 -3 -9 -3c-3 0 -6 1 -8 3l-154 119c-3 3 -5 6 -5 10c0 3 2 7 5 9l154 121c2 2 5 3 8 3c4 0 7 -1 9 -3l154 -121c3 -2 5 -6 5 -10c0 -3 -2 -6 -5 -9z" />
    <glyph glyph-name="uniE0EC" unicode="&#xe0ec;" horiz-adv-x="460" 
d="M230 230c127 0 230 -103 230 -230s-103 -230 -230 -230s-230 103 -230 230s103 230 230 230zM230 -206c115 0 206 92 206 206c0 113 -92 206 -206 206c-113 0 -206 -92 -206 -206c0 -113 92 -206 206 -206zM388 96l-122 -96l122 -96c3 -2 5 -6 5 -10c0 -3 -2 -7 -4 -9
l-12 -13c-2 -3 -6 -4 -10 -4c-3 0 -7 1 -9 3l-127 101l-128 -101c-2 -2 -6 -3 -9 -3c-4 0 -8 1 -10 4l-12 13c-2 2 -4 6 -4 9c0 4 2 8 5 10l122 96l-122 96c-3 2 -5 6 -5 10s2 8 4 10l13 12c3 2 5 4 9 4c3 0 7 -1 9 -3l128 -101l127 101c2 2 6 3 9 3c4 0 7 -2 10 -4l12 -12
c2 -2 4 -5 4 -9v-1c0 -4 -2 -8 -5 -10z" />
    <glyph glyph-name="uniE1D0" unicode="&#xe1d0;" horiz-adv-x="538" 
d="M23 179c8 0 14 -6 14 -14v-329s-7 -14 -14 -14h-9c-8 0 -14 7 -14 14v329s6 14 14 14h9zM451 179c8 0 14 -6 14 -14v-329s-7 -14 -14 -14h-9c-8 0 -14 7 -14 14v79c-30 -30 -81 -50 -158 -50c-78 0 -129 20 -159 50v-79c0 -6 -7 -14 -14 -14h-9c-8 0 -14 7 -14 14v329
s6 14 14 14h9c8 0 14 -6 14 -14v-78c30 29 81 49 159 49c77 0 128 -20 158 -49v78c0 8 6 14 14 14h9zM321 -97c24 8 33 25 33 51s-19 90 -33 117c-14 26 -32 33 -59 33c-16 0 -32 -3 -44 -6c-22 -8 -32 -22 -32 -45v-6c1 -27 19 -92 32 -117c13 -24 32 -33 60 -33
c15 0 31 3 43 6zM524 179c8 0 14 -6 14 -14v-329s-7 -14 -14 -14h-9c-8 0 -14 7 -14 14v329s6 14 14 14h9z" />
    <glyph glyph-name="uniE1D1" unicode="&#xe1d1;" horiz-adv-x="432" 
d="M410 177h9c8 0 13 -6 13 -14v-328c0 -8 -5 -14 -13 -14h-9c-8 0 -14 6 -14 14v26h-359v-21c0 -8 -6 -14 -14 -14h-9c-8 0 -14 6 -14 14v323c0 8 6 14 14 14h9c8 0 14 -6 14 -14v-22h359v22c0 8 6 14 14 14zM396 -70v143h-359v-143h359z" />
    <glyph glyph-name="uniE1D2" unicode="&#xe1d2;" horiz-adv-x="373" 
d="M187 136c138 0 186 -70 186 -135s-48 -135 -186 -135s-187 70 -187 135s49 135 187 135zM238 -96c24 7 32 25 32 51c0 25 -18 89 -32 116s-32 33 -60 33c-15 0 -31 -2 -43 -6c-24 -8 -34 -24 -32 -51c1 -27 19 -91 32 -116s32 -33 60 -33c15 0 31 2 43 6z" />
    <glyph glyph-name="uniE1D3" unicode="&#xe1d3;" 
d="M300 102v773h25v-834c0 -88 -109 -173 -213 -173c-81 0 -112 48 -112 91c0 93 116 174 213 174c35 0 66 -11 87 -31zM186 -43c3 2 104 50 104 93c0 22 -16 36 -40 36c-36 0 -107 -40 -111 -42s-104 -51 -104 -93c0 -9 7 -36 40 -36c35 0 108 40 111 42z" />
    <glyph glyph-name="uniE1D4" unicode="&#xe1d4;" 
d="M25 -102v-773h-25v834c0 88 109 173 213 173c81 0 112 -48 112 -91c0 -92 -116 -174 -213 -174c-35 0 -66 11 -87 31zM139 43c-3 -2 -104 -50 -104 -93c0 -21 16 -36 40 -36c36 0 108 40 111 42c4 2 104 51 104 93c0 9 -7 36 -40 36c-35 0 -107 -40 -111 -42z" />
    <glyph glyph-name="uniE1D5" unicode="&#xe1d5;" 
d="M300 875h25v-833c0 -88 -109 -173 -213 -173c-81 0 -112 48 -112 91c0 92 116 174 213 174c35 0 66 -11 87 -31v772z" />
    <glyph glyph-name="uniE1D6" unicode="&#xe1d6;" 
d="M25 -875h-25v834c0 88 109 173 213 173c81 0 112 -48 112 -91c0 -93 -116 -174 -213 -174c-35 0 -67 11 -87 31v-773z" />
    <glyph glyph-name="uniE1D7" unicode="&#xe1d7;" horiz-adv-x="589" 
d="M325 630v-590c0 -88 -109 -173 -213 -173c-81 0 -112 48 -112 91c0 92 116 174 213 174c35 0 66 -11 87 -31v774c0 7 6 13 13 13c5 0 11 -4 12 -8c0 -1 9 -36 10 -39c1 -4 18 -61 56 -118c27 -42 107 -146 119 -165s79 -95 79 -224c0 -61 -12 -175 -62 -264
c-4 -7 -10 -11 -16 -11c-2 0 -3 0 -5 1c-4 2 -6 5 -6 9s2 9 4 15c26 72 45 146 45 218c0 129 -111 274 -224 328z" />
    <glyph glyph-name="uniE1D8" unicode="&#xe1d8;" 
d="M0 -875v831v9c0 2 0 4 1 6c10 84 113 160 212 160c81 0 112 -48 112 -91c0 -50 -34 -96 -80 -129c46 -88 64 -160 64 -245c0 -89 -30 -155 -79 -225c-50 -69 -110 -116 -150 -182c-35 -58 -44 -96 -45 -100c-1 -3 -10 -38 -10 -40c-1 -4 -7 -7 -12 -7c-7 0 -13 5 -13 13z
M25 -103v-529c49 21 137 75 195 173c18 31 47 73 47 157c0 66 -13 117 -48 197c-34 -18 -72 -29 -107 -29s-66 11 -87 31z" />
    <glyph glyph-name="uniE1D9" unicode="&#xe1d9;" horiz-adv-x="575" 
d="M579 405c0 -49 -9 -86 -19 -123c3 -21 5 -45 5 -74c0 -56 -26 -110 -44 -138c-4 -6 -8 -14 -15 -14s-12 6 -12 12s2 11 4 16c14 37 23 87 23 127c0 107 -107 221 -196 269v-440c0 -88 -109 -173 -213 -173c-81 0 -112 48 -112 91c0 92 116 174 213 174
c35 0 66 -11 87 -31v774c0 6 3 12 15 12c11 0 13 -5 14 -12c3 -11 28 -103 66 -158s89 -107 136 -168c34 -45 48 -92 48 -144zM534 364c1 9 1 19 1 29c0 38 -8 79 -48 130c-35 47 -100 116 -151 116c7 -48 33 -85 67 -120c49 -49 79 -80 106 -115c8 -12 17 -24 25 -40z" />
    <glyph glyph-name="uniE1DA" unicode="&#xe1da;" 
d="M37 -637c48 13 122 34 183 109c26 33 47 82 47 159c-27 -49 -96 -104 -154 -149c-59 -45 -67 -82 -74 -107c0 -3 -1 -7 -2 -12zM0 -39c0 87 109 171 213 171c81 0 112 -48 112 -91c0 -51 -36 -100 -85 -132c31 -29 66 -78 66 -145c0 -26 -2 -44 -6 -57
c6 -36 9 -72 9 -105c0 -181 -139 -257 -193 -307c-40 -37 -71 -67 -86 -170c-2 -8 -7 -16 -15 -16s-15 8 -15 16v836zM25 -460c48 14 137 55 202 130c16 19 27 37 33 58l1 3c3 12 4 25 4 38c0 59 -20 93 -49 125c-33 -17 -70 -27 -104 -27c-35 0 -66 11 -87 31v-358z" />
    <glyph glyph-name="uniE1DB" unicode="&#xe1db;" horiz-adv-x="579" 
d="M325 480v-440c0 -89 -109 -173 -213 -173c-81 0 -112 48 -112 91c0 92 116 174 213 174c35 0 66 -11 87 -31v713v59v179c0 7 3 12 15 12c11 0 13 -5 14 -12c3 -10 28 -103 66 -158c38 -56 88 -107 136 -169c34 -45 48 -92 48 -144c0 -36 -4 -66 -11 -94
c7 -23 11 -48 11 -73c0 -50 -9 -93 -19 -131c3 -21 5 -46 5 -74c0 -24 -29 -149 -59 -153c-1 0 -3 1 -5 2c-5 2 -7 6 -7 11s2 11 4 16c15 41 22 86 22 130c0 105 -107 219 -195 265zM535 552v14c0 39 -8 80 -48 132c-36 47 -101 116 -152 116c5 -22 13 -47 28 -69
c38 -55 120 -125 168 -187c1 -2 3 -4 4 -6zM534 365c1 11 1 21 1 32c0 39 -7 81 -48 134c-35 46 -100 109 -152 109c8 -49 33 -85 68 -121c49 -49 79 -80 106 -115c8 -11 17 -24 25 -39z" />
    <glyph glyph-name="uniE1DC" unicode="&#xe1dc;" 
d="M0 -1067v1026c0 88 109 173 213 173c81 0 112 -48 112 -91c0 -51 -36 -100 -85 -132c31 -29 66 -80 66 -148c0 -30 -4 -55 -11 -77c6 -26 11 -54 11 -84v-8v-18c-1 -16 -4 -33 -7 -50c6 -40 10 -81 10 -117c0 -185 -139 -262 -193 -312c-40 -39 -71 -58 -86 -162
c-2 -8 -7 -16 -15 -16s-15 9 -15 16zM225 -711c26 32 42 74 42 149c-7 -13 -16 -25 -26 -36c-51 -59 -140 -105 -178 -160c-14 -22 -23 -46 -28 -68c50 13 128 38 190 115zM25 -460c48 14 137 55 202 130c26 31 38 62 38 99c0 59 -20 93 -49 125c-33 -17 -70 -27 -104 -27
c-35 0 -66 11 -87 31v-358zM266 -396c0 5 0 11 -1 16c-3 -5 -7 -11 -11 -16c-27 -35 -82 -72 -141 -122c-56 -48 -67 -82 -74 -107c0 -4 -1 -9 -2 -14c87 33 142 65 181 113c31 38 48 80 48 130z" />
    <glyph glyph-name="uniE1DD" unicode="&#xe1dd;" horiz-adv-x="579" 
d="M531 558c1 -1 2 -3 4 -5v19c0 39 -7 80 -48 133c-36 47 -101 109 -152 109c5 -22 13 -47 28 -68c38 -56 120 -126 168 -188zM112 -133c-81 0 -112 48 -112 91c0 93 116 174 213 174c35 0 66 -11 87 -31v1139c0 7 3 12 15 12c11 0 13 -5 14 -12c3 -10 28 -103 66 -158
c38 -56 88 -107 136 -169c34 -45 48 -92 48 -144c0 -39 -5 -71 -13 -101c8 -26 13 -52 13 -80c0 -36 -5 -70 -12 -100c8 -23 12 -48 12 -74c0 -48 -9 -93 -19 -130c3 -21 5 -46 5 -74c0 -57 -26 -110 -44 -139c-4 -6 -8 -14 -15 -14c-2 0 -3 1 -5 2c-5 2 -7 6 -7 11
s2 10 4 15c15 41 22 91 22 116c0 117 -94 226 -195 280v-441c0 -88 -109 -173 -213 -173zM534 727c1 10 1 19 1 28c0 38 -8 79 -48 131c-36 47 -101 116 -153 116h-1c4 -24 13 -53 30 -79c38 -55 120 -129 168 -191c1 -1 2 -3 3 -5zM534 366c1 10 1 21 1 32
c0 39 -7 80 -48 133c-36 47 -100 109 -152 109c8 -48 33 -85 68 -120c49 -49 79 -81 105 -116c9 -11 18 -23 26 -38z" />
    <glyph glyph-name="uniE1DE" unicode="&#xe1de;" 
d="M0 -1254v1213c0 88 109 173 213 173c81 0 112 -48 112 -91c0 -51 -36 -99 -84 -132c30 -29 65 -79 65 -148c0 -30 -4 -55 -10 -77c6 -25 10 -54 11 -84v-8c0 -6 -1 -12 -1 -17c-2 -24 -5 -48 -12 -73c7 -27 13 -57 13 -89v-8c0 -7 0 -13 -1 -20c-1 -16 -3 -33 -7 -49
c7 -40 10 -80 10 -116c0 -185 -139 -262 -193 -312c-40 -38 -71 -58 -86 -162c-1 -8 -7 -16 -15 -16s-15 9 -15 16zM225 -898c26 32 42 73 42 146c-7 -13 -16 -25 -26 -36c-51 -58 -139 -105 -177 -160c-14 -20 -23 -44 -28 -65c50 14 128 39 189 115zM64 -758
c-16 -23 -24 -48 -29 -71c89 33 144 65 183 113c31 39 48 80 48 131c0 6 0 13 -1 20c-6 -12 -14 -23 -24 -33c-51 -59 -139 -105 -177 -160zM25 -460c49 14 137 55 202 131c26 30 39 61 39 98c0 60 -21 93 -50 125c-33 -17 -70 -27 -104 -27c-35 0 -66 11 -87 31v-358z
M266 -396v16c-4 -5 -8 -11 -12 -16c-27 -35 -81 -72 -141 -122c-56 -47 -67 -82 -73 -107c-1 -4 -2 -8 -3 -14c88 33 142 65 181 113c31 39 48 80 48 130z" />
    <glyph glyph-name="uniE1DF" unicode="&#xe1df;" horiz-adv-x="579" 
d="M566 868c9 -25 13 -51 13 -78c0 -41 -6 -77 -14 -110c9 -25 14 -52 14 -80c0 -40 -5 -76 -13 -108c8 -25 13 -52 13 -79c0 -50 -9 -93 -19 -131c3 -21 5 -45 5 -73c0 -24 -29 -148 -59 -152c-1 -1 -3 0 -5 1c-5 3 -7 6 -7 11s2 11 4 16c15 41 22 86 22 130
c0 105 -108 219 -195 265v-440c0 -88 -109 -173 -213 -173c-81 0 -112 48 -112 91c0 92 116 174 213 174c35 0 66 -11 87 -31v573v199v565c0 7 3 13 15 13c11 0 13 -6 14 -13c3 -9 28 -95 66 -150s88 -107 136 -168c34 -45 48 -101 48 -152c0 -39 -5 -71 -13 -100zM534 929
c1 8 1 17 1 27c0 40 -8 85 -48 136c-36 48 -101 112 -153 112h-1c4 -25 13 -54 30 -79c38 -55 120 -129 168 -191c1 -2 2 -4 3 -5zM333 1016c4 -25 12 -55 30 -81c38 -55 120 -129 168 -191c1 -2 2 -3 3 -4c0 11 1 22 1 34c0 39 -7 80 -48 132c-36 48 -101 110 -153 110h-1z
M534 553c1 10 1 21 1 31c0 39 -7 80 -48 133c-36 47 -101 109 -153 109h-1c4 -25 12 -56 30 -82c38 -55 120 -125 168 -187c1 -2 2 -3 3 -4zM534 365c1 11 1 21 1 32c0 39 -7 80 -48 133c-36 47 -101 109 -153 109c8 -54 30 -85 69 -124c49 -49 79 -76 105 -111
c9 -11 18 -24 26 -39z" />
    <glyph glyph-name="uniE1E0" unicode="&#xe1e0;" 
d="M0 -1442v1401c0 88 109 173 213 173c81 0 112 -48 112 -91c0 -51 -36 -99 -84 -132c30 -29 65 -79 65 -148c0 -29 -4 -55 -11 -77c6 -25 11 -54 11 -83v-9v-17c-2 -23 -6 -48 -12 -73c6 -26 12 -57 12 -89v-8v-20c-2 -23 -5 -47 -12 -71c7 -27 12 -57 12 -88v-8v-20
c-1 -16 -3 -33 -7 -49c7 -40 10 -80 10 -117c0 -184 -139 -261 -193 -312c-40 -38 -71 -58 -86 -161c-2 -8 -7 -16 -15 -16s-15 8 -15 15zM241 -788c-51 -58 -140 -105 -178 -160c-14 -21 -23 -46 -28 -68c89 33 144 66 183 113c31 39 48 81 48 131c0 6 0 12 -1 17
c-7 -11 -15 -22 -24 -33zM25 -459c48 13 137 55 202 130c26 30 38 61 38 98c0 60 -20 93 -49 125c-33 -17 -70 -27 -104 -27c-35 0 -66 11 -87 31v-357zM225 -1086c26 33 42 74 42 147c-7 -12 -16 -24 -26 -36c-51 -58 -140 -105 -178 -160c-14 -20 -22 -44 -27 -66
c49 14 127 39 189 115zM265 -565c-7 -12 -15 -23 -24 -33c-51 -58 -140 -105 -178 -160c-15 -22 -24 -48 -28 -71c89 33 144 66 183 113c31 39 48 81 48 131c0 6 0 13 -1 20zM113 -518c-56 -47 -67 -81 -74 -107c0 -3 -1 -8 -2 -14c87 34 142 66 181 113c31 39 48 80 48 130
c0 6 0 11 -1 17c-3 -6 -7 -11 -11 -16c-27 -35 -82 -73 -141 -123z" />
    </font>
</defs>
</svg>
