<?xml version="1.0" standalone="no"?>
<!DOCTYPE svg PUBLIC "-//W3C//DTD SVG 1.1//EN" "http://www.w3.org/Graphics/SVG/1.1/DTD/svg11.dtd" >
<!--
Version 1.0.2 - Adding accidentals
Version 1.0.3 - Adding figured bass figures
Version 1.0.4 - Fixing overlaps
Version 1.0.5 - Adding accidentals
Version 1.0.6 - Adding dynamics
-->
<svg xmlns="http://www.w3.org/2000/svg" xmlns:xlink="http://www.w3.org/1999/xlink" version="1.1">
<metadata>
Created by FontForge 20170730 at Wed Oct  9 09:20:07 2019
 By Laurent Pugin

</metadata>
<defs>
<font id="VerovioText" horiz-adv-x="1024" >
  <font-face 
    font-family="VerovioText"
    font-weight="400"
    font-stretch="normal"
    units-per-em="2048"
    panose-1="5 6 0 0 0 0 0 0 0 0"
    ascent="1638"
    descent="-410"
    bbox="-518.4 -802.8 6598.8 4661.25"
    underline-thickness="102"
    underline-position="-102"
    unicode-range="U+E1D0-ECC0"
  />
<missing-glyph horiz-adv-x="608" 
 />
    <glyph glyph-name=".notdef" horiz-adv-x="608" 
 />
    <glyph glyph-name=".notdef" horiz-adv-x="608" 
 />
    <glyph glyph-name="uniE1D0" unicode="&#xe1d0;" horiz-adv-x="1342" 
d="M68.75 167.75c0 -7.5 -7.5 -12.5 -20 -12.5h-28.75c-12.5 0 -20 5 -20 12.5v662.5c0 7.5 7.5 16.25 20 16.25h28.75c12.5 0 20 -8.75 20 -16.25v-662.5zM200 167.75c0 -7.5 -11.25 -12.5 -21.25 -12.5h-30c-10 0 -21.25 5 -21.25 12.5v662.5
c0 7.5 11.25 16.25 21.25 16.25h30c10 0 21.25 -8.75 21.25 -16.25v-662.5zM681.25 779c207.5 0 457.5 -120 457.5 -278.75c0 -153.75 -117.5 -281.25 -481.25 -281.25c-330 0 -457.5 135 -457.5 281.25c0 153.75 183.75 278.75 481.25 278.75zM445 639
c-2.5 -15 -5 -33.75 -5 -51.25c0 -71.25 36.25 -146.25 77.5 -200c12.5 -17.5 31.25 -36.25 46.25 -48.75c31.25 -28.75 66.25 -48.75 107.5 -61.25c20 -5 38.75 -7.5 58.75 -7.5c22.5 0 43.75 2.5 63.75 7.5c56.25 15 90 53.75 100 110c2.5 12.5 2.5 26.25 2.5 41.25
c0 136.25 -122.5 296.25 -273.75 296.25c-68.75 0 -152.5 -10 -177.5 -86.25zM1213.75 167.75c0 -7.5 -11.25 -12.5 -21.25 -12.5h-30c-10 0 -21.25 5 -21.25 12.5v662.5c0 7.5 11.25 16.25 21.25 16.25h30c10 0 21.25 -8.75 21.25 -16.25v-662.5zM1341.25 167.75
c0 -7.5 -10 -12.5 -22.5 -12.5h-28.75c-10 0 -22.5 5 -22.5 12.5v662.5c0 7.5 12.5 16.25 22.5 16.25h28.75c12.5 0 22.5 -8.75 22.5 -16.25v-662.5z" />
    <glyph glyph-name="uniE1D1" unicode="&#xe1d1;" horiz-adv-x="1088" 
d="M1060 1036.25c17.5 0 30 -16.25 30 -33.75v-957.5c0 -17.5 -12.5 -32.5 -30 -32.5c-20 0 -33.75 15 -33.75 32.5v85s-27.5 51.25 -61.25 51.25h-845c-22.5 0 -53.75 -30 -53.75 -61.25v-75c0 -17.5 -15 -32.5 -32.5 -32.5s-33.75 15 -33.75 32.5v957.5
c0 17.5 16.25 33.75 33.75 33.75s32.5 -16.25 32.5 -33.75v-97.5s28.75 -61.25 46.25 -61.25h852.5c28.75 0 61.25 20 61.25 66.25v92.5c0 17.5 13.75 33.75 33.75 33.75zM66.25 550v-80c0 -48.75 53.75 -83.75 146.25 -83.75h673.75c85 0 140 25 140 83.75v95
c0 43.75 -55 73.75 -140 73.75h-683.75c-97.5 0 -136.25 -27.5 -136.25 -88.75z" />
    <glyph glyph-name="uniE1D2" unicode="&#xe1d2;" horiz-adv-x="940" 
d="M481.25 826.25c207.5 0 458.75 -117.5 458.75 -276.25c0 -153.75 -115 -282.5 -481.25 -282.5c-330 0 -458.75 133.75 -458.75 282.5c0 153.75 183.75 276.25 481.25 276.25zM248.75 687.5c-7.5 -17.5 -7.5 -36.25 -7.5 -56.25c0 -68.75 32.5 -142.5 76.25 -193.75
c15 -20 31.25 -36.25 46.25 -51.25c31.25 -25 68.75 -46.25 105 -58.75c20 -5 38.75 -8.75 58.75 -8.75c22.5 0 46.25 3.75 68.75 8.75c53.75 15 87.5 53.75 97.5 110c2.5 10 5 25 5 40c0 132.5 -122.5 297.5 -273.75 297.5c-71.25 0 -153.75 -11.25 -176.25 -87.5z" />
    <glyph glyph-name="uniE1D3" unicode="&#xe1d3;" horiz-adv-x="699" 
d="M230 227.5c-130 0 -230 71.25 -230 196.25c0 122.5 110 397.5 466.25 397.5c71.25 0 130 -20 171.25 -56.25v1648.75h61.25v-1792.5c0 -78.75 -80 -393.75 -468.75 -393.75zM283.75 631.25c-163.75 -95 -215 -161.25 -215 -212.5c0 -15 8.75 -33.75 16.25 -46.25
c15 -28.75 42.5 -53.75 93.75 -53.75s123.75 26.25 231.25 97.5c166.25 107.5 215 163.75 215 212.5c0 15 -6.25 31.25 -16.25 43.75c-15 31.25 -40 51.25 -83.75 51.25c-48.75 0 -123.75 -26.25 -241.25 -92.5z" />
    <glyph glyph-name="uniE1D4" unicode="&#xe1d4;" horiz-adv-x="559" 
 />
    <glyph glyph-name="uniE1D5" unicode="&#xe1d5;" horiz-adv-x="682" 
d="M620 760v1653.75h61.25v-1792.5c0 -195 -253.75 -386.25 -458.75 -386.25c-125 0 -222.5 71.25 -222.5 191.25c0 200 202.5 387.5 456.25 387.5c66.25 0 122.5 -17.5 163.75 -53.75z" />
    <glyph glyph-name="uniE1D6" unicode="&#xe1d6;" horiz-adv-x="544" 
 />
    <glyph glyph-name="uniE1D7" unicode="&#xe1d7;" horiz-adv-x="1132" 
d="M696.25 2465c36.25 -163.75 115 -307.5 212.5 -443.75c122.5 -171.25 215 -376.25 222.5 -593.75v-15c0 -112.5 -41.25 -266.25 -48.75 -283.75c-12.5 -25 -25 -36.25 -40 -36.25c-2.5 0 -11.25 0 -13.75 2.5c-12.5 7.5 -30 23.75 -30 48.75c0 10 0 17.5 5 27.5
c33.75 76.25 46.25 160 46.25 238.75c0 102.5 -23.75 197.5 -46.25 258.75c-87.5 243.75 -235 302.5 -322.5 320v-1362.5c0 -195 -253.75 -383.75 -458.75 -383.75c-125 0 -222.5 72.5 -222.5 192.5c0 197.5 202.5 383.75 456.25 383.75c66.25 0 122.5 -17.5 163.75 -53.75
v1717.5c0 20 7.5 20 20 20h12.5c17.5 0 36.25 -3.75 43.75 -37.5z" />
    <glyph glyph-name="uniE1D8" unicode="&#xe1d8;" horiz-adv-x="544" 
 />
    <glyph glyph-name="uniE1D9" unicode="&#xe1d9;" horiz-adv-x="1163" 
d="M1101.25 1453.75c0 -7.5 2.5 -13.75 2.5 -18.75c36.25 -71.25 58.75 -150 58.75 -232.5v-41.25c0 -95 -7.5 -205 -15 -215c-12.5 -25 -26.25 -33.75 -38.75 -33.75c-7.5 0 -11.25 3.75 -18.75 6.25c-10 2.5 -25 20 -25 45c0 5 0 11.25 2.5 16.25
c10 61.25 15 117.5 15 173.75c0 102.5 -17.5 196.25 -63.75 288.75c-112.5 232.5 -232.5 272.5 -340 280v-1096.25c0 -195 -253.75 -383.75 -456.25 -383.75c-125 0 -222.5 72.5 -222.5 192.5c0 197.5 202.5 383.75 456.25 383.75c63.75 0 122.5 -17.5 163.75 -53.75v1730
h30c12.5 0 36.25 -2.5 41.25 -22.5c31.25 -207.5 141.25 -238.75 246.25 -351.25c141.25 -151.25 190 -205 210 -337.5c5 -22.5 5 -46.25 5 -68.75c0 -120 -41.25 -236.25 -48.75 -248.75c-2.5 -5 -2.5 -7.5 -2.5 -12.5zM1077.5 1655c2.5 12.5 2.5 26.25 2.5 38.75
c0 63.75 -20 122.5 -53.75 173.75c-63.75 95 -168.75 202.5 -286.25 202.5h-17.5c-12.5 0 -26.25 -10 -26.25 -17.5c0 -2.5 0 -5 2.5 -7.5c41.25 -158.75 127.5 -205 220 -310c41.25 -46.25 73.75 -85 105 -133.75c5 -7.5 7.5 -7.5 15 -7.5c10 0 21.25 5 23.75 10
c10 15 10 36.25 15 51.25z" />
    <glyph glyph-name="uniE1DA" unicode="&#xe1da;" horiz-adv-x="544" 
 />
    <glyph glyph-name="uniE1DB" unicode="&#xe1db;" horiz-adv-x="1153" 
d="M1152.5 1210v-56.25c0 -90 -8.75 -185 -13.75 -195c-15 -22.5 -27.5 -32.5 -40 -32.5c-5 0 -8.75 2.5 -13.75 2.5c-15 7.5 -25 26.25 -25 51.25v12.5c10 58.75 17.5 117.5 17.5 173.75c0 100 -17.5 192.5 -63.75 282.5c-112.5 227.5 -230 263.75 -335 271.25v-1093.75
c0 -195 -253.75 -383.75 -456.25 -383.75c-125 0 -222.5 72.5 -222.5 192.5c0 197.5 202.5 383.75 456.25 383.75c63.75 0 122.5 -17.5 163.75 -53.75v2103.75s10 26.25 22.5 26.25s38.75 -21.25 41.25 -41.25c36.25 -205 145 -236.25 247.5 -348.75
c138.75 -148.75 185 -205 207.5 -327.5c2.5 -20 2.5 -38.75 2.5 -58.75c0 -78.75 -20 -163.75 -40 -217.5c17.5 -33.75 30 -71.25 37.5 -117.5c2.5 -25 5 -47.5 5 -72.5c0 -117.5 -42.5 -230 -45 -242.5c-2.5 -5 -2.5 -7.5 -2.5 -12.5s0 -11.25 2.5 -16.25
c31.25 -71.25 48.75 -151.25 53.75 -230zM1067.5 1655c2.5 15 2.5 31.25 2.5 48.75c0 58.75 -17.5 115 -51.25 163.75c-61.25 95 -166.25 197.5 -296.25 197.5c-10 0 -26.25 -22.5 -26.25 -25c41.25 -158.75 130 -200 220 -305l10 -10
c33.75 -41.25 61.25 -77.5 92.5 -121.25c2.5 -7.5 10 -10 15 -10c10 0 21.25 8.75 23.75 13.75c5 15 5 30 10 47.5zM1070 2075c0 15 5 28.75 5 43.75c0 28.75 -7.5 58.75 -30 100c-112.5 190 -233.75 237.5 -346.25 237.5c33.75 -197.5 132.5 -232.5 232.5 -342.5
c46.25 -51.25 85 -88.75 113.75 -127.5c10 36.25 20 68.75 25 88.75z" />
    <glyph glyph-name="uniE1DC" unicode="&#xe1dc;" horiz-adv-x="544" 
 />
    <glyph glyph-name="uniE1DD" unicode="&#xe1dd;" horiz-adv-x="1153" 
d="M1098.75 1442.5c31.25 -73.75 48.75 -151.25 53.75 -230v-58.75c0 -87.5 -8.75 -182.5 -13.75 -195c-15 -20 -27.5 -30 -40 -30c-5 0 -8.75 0 -13.75 2.5c-15 7.5 -25 26.25 -25 48.75v15c10 58.75 17.5 117.5 17.5 173.75c0 97.5 -17.5 190 -63.75 282.5
c-112.5 227.5 -230 263.75 -335 271.25v-1096.25c0 -195 -253.75 -383.75 -456.25 -383.75c-125 0 -222.5 72.5 -222.5 192.5c0 197.5 202.5 383.75 456.25 383.75c63.75 0 122.5 -17.5 163.75 -53.75v2511.25s10 25 22.5 25s38.75 -20 41.25 -37.5
c36.25 -205 145 -238.75 247.5 -348.75c138.75 -151.25 185 -205 207.5 -330c2.5 -17.5 2.5 -38.75 2.5 -56.25c0 -85 -25 -176.25 -42.5 -227.5c20 -36.25 32.5 -75 40 -123.75c2.5 -17.5 2.5 -36.25 2.5 -56.25c0 -78.75 -20 -163.75 -40 -217.5
c17.5 -33.75 30 -71.25 37.5 -117.5c2.5 -25 5 -48.75 5 -71.25c0 -117.5 -42.5 -231.25 -45 -243.75c-2.5 -5 -2.5 -10 -2.5 -12.5c0 -7.5 0 -11.25 2.5 -16.25zM1067.5 1655c2.5 17.5 2.5 33.75 2.5 51.25c0 58.75 -17.5 112.5 -51.25 163.75
c-61.25 92.5 -166.25 197.5 -296.25 197.5c-10 -2.5 -26.25 -22.5 -26.25 -25c41.25 -158.75 130 -202.5 220 -305l10 -10c33.75 -41.25 61.25 -77.5 92.5 -123.75c2.5 -5 10 -7.5 15 -7.5c10 0 21.25 8.75 23.75 13.75c5 15 5 30 10 45zM1070 2077.5c0 15 5 28.75 5 43.75
c0 25 -7.5 56.25 -30 97.5c-112.5 192.5 -233.75 240 -346.25 240c33.75 -200 132.5 -232.5 232.5 -342.5c46.25 -51.25 85 -91.25 113.75 -127.5c10 36.25 20 68.75 25 88.75zM1070 2485c0 12.5 5 26.25 5 41.25c0 28.75 -7.5 58.75 -30 100
c-112.5 187.5 -231.25 237.5 -346.25 237.5c2.5 0 2.5 -5 2.5 -7.5c33.75 -205 127.5 -238.75 230 -348.75c46.25 -51.25 82.5 -88.75 111.25 -125z" />
    <glyph glyph-name="uniE1DF" unicode="&#xe1df;" horiz-adv-x="1153" 
d="M1098.75 1442.5c31.25 -73.75 48.75 -151.25 53.75 -230v-58.75c0 -87.5 -8.75 -182.5 -13.75 -195c-15 -20 -27.5 -30 -40 -30c-5 0 -8.75 0 -13.75 2.5c-15 7.5 -25 26.25 -25 48.75v15c10 58.75 17.5 117.5 17.5 173.75c0 97.5 -17.5 190 -63.75 282.5
c-112.5 225 -227.5 263.75 -332.5 271.25v-1096.25c0 -195 -253.75 -383.75 -458.75 -383.75c-125 0 -222.5 72.5 -222.5 192.5c0 197.5 202.5 383.75 456.25 383.75c66.25 0 122.5 -17.5 163.75 -53.75v2892.5s10 25 22.5 25s38.75 -20 41.25 -40
c36.25 -205 145 -236.25 247.5 -348.75c138.75 -148.75 185 -205 207.5 -327.5c2.5 -20 2.5 -41.25 2.5 -61.25c0 -76.25 -20 -156.25 -37.5 -207.5c17.5 -36.25 27.5 -68.75 35 -112.5c2.5 -17.5 2.5 -38.75 2.5 -56.25c0 -85 -25 -176.25 -42.5 -227.5
c20 -36.25 32.5 -75 40 -123.75c2.5 -17.5 2.5 -36.25 2.5 -56.25c0 -78.75 -20 -163.75 -40 -217.5c17.5 -33.75 30 -71.25 37.5 -117.5c2.5 -25 5 -48.75 5 -71.25c0 -117.5 -42.5 -231.25 -45 -243.75c-2.5 -5 -2.5 -10 -2.5 -12.5c0 -7.5 0 -11.25 2.5 -16.25z
M1067.5 1655c2.5 17.5 2.5 33.75 2.5 51.25c0 58.75 -17.5 112.5 -51.25 163.75c-61.25 92.5 -166.25 197.5 -296.25 197.5c-10 -2.5 -26.25 -22.5 -26.25 -25c41.25 -158.75 130 -202.5 220 -305l10 -10c33.75 -41.25 61.25 -77.5 92.5 -123.75c2.5 -5 10 -7.5 15 -7.5
c10 0 21.25 8.75 23.75 13.75c5 15 5 30 10 45zM1070 2077.5c0 15 5 28.75 5 43.75c0 25 -7.5 56.25 -30 97.5c-112.5 192.5 -233.75 240 -346.25 240c33.75 -200 132.5 -232.5 232.5 -342.5c46.25 -51.25 85 -91.25 113.75 -127.5c10 36.25 20 68.75 25 88.75zM1070 2485
c0 12.5 5 26.25 5 41.25c0 28.75 -7.5 58.75 -30 100c-112.5 187.5 -231.25 237.5 -348.75 237.5c2.5 0 2.5 -5 2.5 -7.5c33.75 -205 130 -238.75 232.5 -348.75c46.25 -51.25 82.5 -88.75 111.25 -125zM1070 2863.75c0 15 5 28.75 5 43.75c0 28.75 -7.5 58.75 -30 100
c-112.5 190 -236.25 237.5 -348.75 237.5c36.25 -190 137.5 -222.5 235 -330c48.75 -53.75 87.5 -93.75 116.25 -132.5c10 33.75 17.5 63.75 22.5 81.25z" />
    <glyph glyph-name="uniE1E0" unicode="&#xe1e0;" horiz-adv-x="544" 
 />
    <glyph glyph-name="uniE1E1" unicode="&#xe1e1;" horiz-adv-x="1180" 
d="M1152.5 2136.25c5 -20 7.5 -43.75 7.5 -66.25c0 -76.25 -18.75 -153.75 -36.25 -210c7.5 -22.5 15 -50 17.5 -81.25c5 -22.5 8.75 -50 8.75 -72.5c0 -120 -43.75 -232.5 -48.75 -245v-10v-18.75c33.75 -73.75 51.25 -153.75 56.25 -230c0 -17.5 2.5 -38.75 2.5 -58.75
c0 -90 -8.75 -187.5 -18.75 -197.5c-10 -25 -22.5 -36.25 -37.5 -36.25c-5 0 -13.75 3.75 -16.25 6.25c-15 2.5 -27.5 22.5 -27.5 45c0 7.5 0 11.25 2.5 18.75c10 61.25 17.5 117.5 17.5 173.75c0 100 -20 193.75 -61.25 283.75c-112.5 235 -232.5 272.5 -337.5 280
v-1091.25c0 -195 -253.75 -383.75 -458.75 -383.75c-125 0 -222.5 72.5 -222.5 192.5c0 197.5 202.5 383.75 456.25 383.75c66.25 0 122.5 -17.5 163.75 -53.75v3232.5c0 12.5 27.5 18.75 30 18.75c15 0 31.25 0 31.25 -36.25c36.25 -200 148.75 -256.25 256.25 -368.75
l35 -38.75c110 -120 162.5 -178.75 180 -288.75c5 -20 5 -41.25 5 -61.25c0 -82.5 -18.75 -163.75 -36.25 -220c15 -31.25 26.25 -63.75 31.25 -100c5 -20 5 -41.25 5 -63.75c0 -76.25 -18.75 -165 -36.25 -221.25c15 -31.25 26.25 -60 31.25 -98.75c5 -20 5 -42.5 5 -65
c0 -76.25 -18.75 -163.75 -36.25 -217.5c15 -31.25 26.25 -63.75 31.25 -100zM1070 1652.5c2.5 12.5 5 28.75 5 43.75c0 58.75 -20 115 -56.25 168.75c-58.75 92.5 -163.75 200 -283.75 200h-12.5c-15 0 -23.75 -15 -23.75 -27.5c36.25 -156.25 125 -202.5 220 -310
c38.75 -41.25 68.75 -82.5 100 -133.75c5 -5 10 -7.5 17.5 -7.5c10 0 21.25 7.5 23.75 15c7.5 15 7.5 33.75 10 51.25zM1070 2035c5 12.5 7.5 27.5 7.5 42.5c0 28.75 -7.5 56.25 -30 97.5c-110 187.5 -238.75 238.75 -348.75 241.25
c41.25 -163.75 138.75 -197.5 238.75 -300c51.25 -56.25 88.75 -100 117.5 -138.75c7.5 22.5 12.5 42.5 15 57.5zM1070 2416.25c5 15 7.5 28.75 7.5 46.25c0 25 -7.5 55 -30 96.25c-112.5 192.5 -236.25 241.25 -348.75 241.25c41.25 -173.75 138.75 -225 238.75 -335
l112.5 -126.25c7.5 28.75 17.5 60 20 77.5zM1070 2800c5 12.5 7.5 28.75 7.5 43.75c0 28.75 -7.5 55 -30 93.75c-112.5 195 -236.25 243.75 -348.75 243.75c41.25 -173.75 138.75 -225 238.75 -335l112.5 -126.25c7.5 31.25 17.5 62.5 20 80zM1070 3181.25
c5 15 7.5 31.25 7.5 46.25c0 25 -7.5 56.25 -30 95c-112.5 195 -236.25 242.5 -348.75 242.5c41.25 -173.75 138.75 -225 238.75 -335l112.5 -125c7.5 28.75 17.5 58.75 20 76.25z" />
    <glyph glyph-name="uniE1E2" unicode="&#xe1e2;" horiz-adv-x="544" 
 />
    <glyph glyph-name="uniE1E3" unicode="&#xe1e3;" horiz-adv-x="1163" 
d="M1106.25 1415c33.75 -76.25 51.25 -153.75 56.25 -230v-60c0 -90 -7.5 -186.25 -15 -196.25c-12.5 -25 -26.25 -36.25 -38.75 -36.25c-7.5 0 -13.75 2.5 -18.75 5c-12.5 2.5 -25 21.25 -25 46.25c0 5 0 10 2.5 15c10 61.25 15 121.25 15 177.5
c0 100 -17.5 191.25 -63.75 283.75c-112.5 235 -232.5 271.25 -337.5 278.75v-1072.5c0 -195 -253.75 -383.75 -458.75 -383.75c-125 0 -222.5 72.5 -222.5 192.5c0 197.5 202.5 383.75 456.25 383.75c66.25 0 122.5 -17.5 163.75 -53.75v3596.25c0 12.5 30 17.5 30 17.5
c17.5 0 31.25 1.25 33.75 -35c36.25 -200 151.25 -251.25 253.75 -366.25l32.5 -36.25c115 -122.5 170 -181.25 187.5 -293.75c2.5 -17.5 5 -36.25 5 -56.25c0 -82.5 -21.25 -167.5 -38.75 -226.25c15 -31.25 26.25 -60 33.75 -101.25c2.5 -17.5 5 -36.25 5 -56.25
c0 -78.75 -21.25 -167.5 -38.75 -223.75c15 -31.25 26.25 -63.75 33.75 -102.5c2.5 -17.5 5 -38.75 5 -58.75c0 -78.75 -21.25 -163.75 -38.75 -222.5c15 -31.25 26.25 -63.75 33.75 -100c2.5 -17.5 5 -36.25 5 -56.25c0 -82.5 -21.25 -168.75 -38.75 -225
c15 -31.25 26.25 -63.75 33.75 -102.5c2.5 -17.5 5 -38.75 5 -58.75c0 -73.75 -21.25 -156.25 -36.25 -215c7.5 -22.5 16.25 -51.25 21.25 -82.5c5 -22.5 5 -48.75 5 -73.75c0 -117.5 -41.25 -231.25 -46.25 -246.25c-2.5 0 -2.5 -5 -2.5 -10s2.5 -12.5 2.5 -15zM1075 1635
c2.5 12.5 5 28.75 5 41.25c0 61.25 -20 117.5 -56.25 168.75c-61.25 95 -168.75 200 -286.25 200h-12.5c-15 0 -23.75 -13.75 -23.75 -26.25c36.25 -158.75 125 -205 220 -310c38.75 -43.75 71.25 -81.25 102.5 -132.5c5 -5 10 -7.5 15 -7.5c10 0 21.25 7.5 23.75 15
c7.5 15 7.5 31.25 12.5 51.25zM1075 2013.75c5 15 5 31.25 5 46.25c0 25 -7.5 56.25 -30 97.5c-112.5 183.75 -241.25 237.5 -348.75 240c38.75 -163.75 138.75 -196.25 236.25 -301.25c51.25 -53.75 91.25 -97.5 122.5 -136.25zM1075 2397.5c5 15 5 28.75 5 46.25
c0 25 -5 53.75 -30 95c-112.5 192.5 -238.75 243.75 -348.75 243.75c41.25 -173.75 141.25 -226.25 236.25 -338.75c46.25 -48.75 83.75 -88.75 112.5 -122.5c10 28.75 20 58.75 25 76.25zM1075 2782.5c5 12.5 5 27.5 5 42.5c0 25 -5 53.75 -30 95
c-112.5 192.5 -238.75 243.75 -348.75 243.75c41.25 -173.75 141.25 -226.25 236.25 -336.25c46.25 -48.75 83.75 -88.75 112.5 -125c10 28.75 20 60 25 80zM1075 3163.75c5 15 5 28.75 5 46.25c0 22.5 -5 52.5 -30 93.75c-112.5 192.5 -238.75 243.75 -348.75 243.75
c41.25 -173.75 141.25 -225 236.25 -335c46.25 -51.25 83.75 -92.5 112.5 -126.25c10 28.75 20 60 25 77.5zM1075 3547.5c5 12.5 5 26.25 5 43.75c0 22.5 -7.5 52.5 -30 93.75c-112.5 192.5 -238.75 243.75 -348.75 243.75c41.25 -173.75 141.25 -225 236.25 -335
c46.25 -48.75 83.75 -90 112.5 -126.25c10 31.25 20 62.5 25 80z" />
    <glyph glyph-name="uniE1E4" unicode="&#xe1e4;" horiz-adv-x="544" 
 />
    <glyph glyph-name="uniE1E5" unicode="&#xe1e5;" horiz-adv-x="1163" 
d="M1160 1080c0 -17.5 2.5 -38.75 2.5 -58.75c0 -90 -11.25 -187.5 -18.75 -197.5c-12.5 -25 -22.5 -36.25 -37.5 -36.25c-5 0 -13.75 2.5 -16.25 5c-15 2.5 -27.5 23.75 -27.5 46.25c0 7.5 0 10 2.5 17.5c10 58.75 15 118.75 15 175c0 100 -17.5 193.75 -61.25 283.75
c-115 235 -235 271.25 -337.5 278.75v-941.25c0 -195 -253.75 -385 -458.75 -385c-125 0 -222.5 72.5 -222.5 192.5c0 200 202.5 386.25 456.25 386.25c66.25 0 122.5 -20 163.75 -53.75v3850c0 12.5 30 18.75 30 18.75c17.5 0 31.25 0 33.75 -36.25
c36.25 -202.5 151.25 -253.75 253.75 -368.75l30 -32.5c115 -125 170 -182.5 187.5 -295c2.5 -20 5 -38.75 5 -58.75c0 -78.75 -21.25 -166.25 -38.75 -225c17.5 -31.25 28.75 -63.75 33.75 -102.5c2.5 -17.5 5 -36.25 5 -56.25c0 -78.75 -21.25 -166.25 -38.75 -222.5
c17.5 -31.25 28.75 -63.75 33.75 -102.5c2.5 -20 5 -38.75 5 -58.75c0 -78.75 -21.25 -167.5 -38.75 -223.75c17.5 -31.25 28.75 -63.75 33.75 -102.5c2.5 -17.5 5 -36.25 5 -56.25c0 -82.5 -21.25 -166.25 -38.75 -225c17.5 -31.25 28.75 -61.25 33.75 -100
c2.5 -17.5 5 -36.25 5 -56.25c0 -78.75 -21.25 -168.75 -38.75 -225c17.5 -31.25 28.75 -63.75 33.75 -100c2.5 -20 5 -41.25 5 -61.25c0 -73.75 -18.75 -156.25 -36.25 -215c7.5 -22.5 17.5 -51.25 20 -82.5c5 -22.5 8.75 -48.75 8.75 -71.25
c0 -120 -43.75 -233.75 -48.75 -246.25c-2.5 -2.5 -2.5 -7.5 -2.5 -10c0 -7.5 2.5 -15 2.5 -17.5c33.75 -73.75 51.25 -153.75 56.25 -230zM1072.5 1530c2.5 12.5 5 28.75 5 43.75c0 58.75 -20 115 -56.25 166.25c-61.25 95 -166.25 202.5 -286.25 202.5h-12.5
c-10 0 -21.25 -11.25 -21.25 -28.75c33.75 -156.25 122.5 -202.5 217.5 -310c38.75 -41.25 71.25 -81.25 102.5 -132.5c5 -5 10 -7.5 17.5 -7.5c10 0 21.25 7.5 21.25 15c10 15 10 33.75 12.5 51.25zM1072.5 1911.25c5 12.5 7.5 28.75 7.5 43.75
c0 28.75 -7.5 56.25 -30 97.5c-112.5 187.5 -241.25 237.5 -351.25 240c38.75 -163.75 141.25 -196.25 238.75 -298.75c51.25 -56.25 88.75 -100 120 -138.75zM1072.5 2292.5c5 15 7.5 28.75 7.5 46.25c0 25 -7.5 53.75 -30 95c-115 195 -241.25 243.75 -351.25 243.75
c41.25 -173.75 141.25 -226.25 238.75 -336.25c46.25 -51.25 81.25 -91.25 112.5 -125c10 28.75 17.5 58.75 22.5 76.25zM1072.5 2677.5c5 12.5 7.5 27.5 7.5 42.5c0 28.75 -7.5 56.25 -30 97.5c-115 192.5 -241.25 241.25 -351.25 241.25
c41.25 -173.75 141.25 -226.25 238.75 -333.75l112.5 -127.5zM1072.5 3058.75c5 15 7.5 31.25 7.5 46.25c0 25 -7.5 52.5 -30 93.75c-115 192.5 -241.25 243.75 -351.25 243.75c41.25 -173.75 141.25 -225 238.75 -332.5c46.25 -51.25 81.25 -92.5 112.5 -128.75
c10 28.75 17.5 60 22.5 77.5zM1072.5 3442.5c5 15 7.5 28.75 7.5 46.25c0 22.5 -7.5 51.25 -30 92.5c-115 195 -241.25 245 -351.25 245c41.25 -173.75 141.25 -225 238.75 -335l112.5 -126.25zM1072.5 3826.25c5 12.5 7.5 28.75 7.5 43.75c0 28.75 -10 56.25 -32.5 97.5
c-112.5 192.5 -238.75 240 -348.75 240c41.25 -173.75 141.25 -225 238.75 -335c43.75 -48.75 81.25 -88.75 112.5 -125c10 28.75 17.5 58.75 22.5 78.75z" />
    <glyph glyph-name="uniE1E6" unicode="&#xe1e6;" horiz-adv-x="544" 
 />
    <glyph glyph-name="uniE1E7" unicode="&#xe1e7;" horiz-adv-x="417" 
d="M125 518.75c0 78.75 67.5 148.75 146.25 148.75s145 -70 145 -148.75c0 -76.25 -66.25 -146.25 -145 -146.25s-146.25 70 -146.25 146.25z" />
    <glyph glyph-name="uniE550" unicode="&#xe550;" horiz-adv-x="480" 
d="M605 -100c-53 -156 -199 -250 -375 -250c-180 0 -308 92 -355 250h23c49 -100 217 -152 336 -152c121 0 291 52 348 152h23z" />
    <glyph glyph-name="uniE551" unicode="&#xe551;" horiz-adv-x="774" 
d="M899 -100c-53 -156 -311 -250 -520 -250c-203 0 -457 92 -504 250h22c49 -100 334 -152 484 -152c166 0 438 52 495 152h23z" />
    <glyph glyph-name="uniE552" unicode="&#xe552;" horiz-adv-x="1102" 
d="M1227 -100c-53 -156 -369 -250 -684 -250c-295 0 -621 92 -668 250h22c49 -100 419 -152 648 -152c225 0 602 52 659 152h23z" />
    <glyph glyph-name="uniE1E8" unicode="&#xe1e8;" horiz-adv-x="872" 
 />
    <glyph glyph-name="uniE1DE" unicode="&#xe1de;" horiz-adv-x="921" 
 />
    <glyph glyph-name="uniE260" unicode="&#xe260;" horiz-adv-x="611" 
d="M112.5 837.5c80 40 135 67.5 232.5 67.5c65 0 87.5 -7.5 135 -32.5c32.5 -17.5 60 -50 67.5 -95l10 -62.5c0 -70 -40 -142.5 -112.5 -222.5c-57.5 -62.5 -97.5 -110 -162.5 -170l-220 -197.5v1610h50v-897.5zM287.5 827.5c-80 0 -120 -25 -175 -72.5v-485
c77.5 77.5 135 147.5 177.5 210c52.5 80 80 147.5 80 210c0 22.5 2.5 40 2.5 50c0 35 -7.5 52.5 -27.5 75l-20 7.5z" />
    <glyph glyph-name="uniE261" unicode="&#xe261;" horiz-adv-x="507" 
d="M62.5 92.5v1347.5h45v-477.5l347.5 55v-1332.5h-42.5v465zM107.5 312.5l305 42.5v440l-305 -47.5v-435z" />
    <glyph glyph-name="uniE262" unicode="&#xe262;" horiz-adv-x="612" 
d="M402.5 1027.5v422.5h42.5v-410l110 35v-227.5l-110 -35v-412.5l110 30v-227.5l-110 -32.5v-387.5h-42.5v375l-190 -55v-387.5h-42.5v372.5l-107.5 -32.5v225l107.5 35v417.5l-107.5 -35v230l107.5 32.5v422.5h42.5v-407.5zM212.5 745v-417.5l190 55v420z" />
    <glyph glyph-name="uniEA5C" unicode="&#xea5c;" 
d="M733 614c-46.6667 114.667 -126 172 -238 172c-103.333 0 -172 -30.6667 -206 -92c-20 -36 -30 -96 -30 -180c0 -108.667 23.1667 -215 69.5 -319s119.5 -156 219.5 -156c79.3333 0 137 33.8333 173 101.5c36 67.6667 54 146.833 54 237.5c0 88.6667 -14 167.333 -42 236
zM840.5 125c-78.3333 -98 -180.167 -147 -305.5 -147c-117.333 0 -224.167 55 -320.5 165c-96.3333 110 -144.5 256.333 -144.5 439c0 216.109 78.7074 404.108 236.122 563.997l-236.122 92.0025l-2 136l347.007 -135.208c149.949 107.472 315.613 161.208 496.993 161.208
l5 -33c-83.3333 -15.3333 -155.167 -36.1667 -215.5 -62.5s-114.167 -63.1667 -161.5 -110.5c-0.943974 -0.931043 -1.88682 -1.86698 -2.82853 -2.8078l418.829 -163.192l2 -136l-505.576 196.992c-16.8993 -24.1578 -33.374 -50.1553 -49.4242 -77.9924
c-42.6667 -74 -72 -147.333 -88 -220c41.3333 25.3333 77 44 107 56c53.3333 21.3333 107 32 161 32c106 0 195 -36.6667 267 -110s108 -178 108 -314c0 -122 -39.1667 -232 -117.5 -330z" />
    <glyph glyph-name="uniEA50" unicode="&#xea50;" 
d="M723 198c36.667 107.333 55 262.667 55 466c0 162 -11 291.333 -33 388c-41.333 180 -118.667 270 -232 270s-191 -92.667 -233 -278c-22 -98.667 -33 -228.667 -33 -390c0 -151.333 11.333 -272.333 34 -363c42.667 -169.333 122.667 -254 240 -254
c98 0 165.333 53.667 202 161zM875 1135c67.333 -130 101 -279.333 101 -448c0 -132.667 -20.667 -257.667 -62 -375c-78 -220.667 -213 -331 -405 -331c-131.333 0 -239.333 59.667 -324 179c-90.667 127.333 -136 300.333 -136 519c0 172 30.333 320 91 444
c82 168.667 208 253 378 253c153.333 0 272.333 -80.333 357 -241z" />
    <glyph glyph-name="uniEA51" unicode="&#xea51;" 
d="M610.5 1366.5c0.333333 -1.66667 0.5 -5.5 0.5 -11.5v-1204c0 -51.3333 13.6667 -84 41 -98s78.3333 -22.3333 153 -25v-28h-564v30c80.6667 4 133.333 15 158 33s37 57 37 117v926c0 32 -4 56.3333 -12 73s-25.3333 25 -52 25c-17.3333 0 -39.8333 -4.83333 -67.5 -14.5
s-53.5 -19.8333 -77.5 -30.5v28l367 187h12c2.66667 -3.33333 4.16667 -5.83333 4.5 -7.5z" />
    <glyph glyph-name="uniEA52" unicode="&#xea52;" 
d="M61 23c244 253.333 409.667 439.333 497 558c87.3333 118.667 131 234.333 131 347c0 98.6667 -26.6667 173.833 -80 225.5s-117 77.5 -191 77.5c-91.3333 0 -165.333 -33.3333 -222 -100c-31.3333 -36.6667 -61.3333 -93 -90 -169l-43 9
c33.3333 153.333 89.8333 259.833 169.5 319.5c79.6667 59.6667 165.167 89.5 256.5 89.5c112.667 0 203.833 -35.5 273.5 -106.5s104.5 -157.833 104.5 -260.5c0 -109.333 -37.6667 -214.667 -113 -316s-239 -281.667 -491 -541h459c64 0 109 7.66667 135 23
s55.3333 52.6667 88 112l26 -12l-111 -279h-799v23z" />
    <glyph glyph-name="uniEA53" unicode="&#xea53;" 
d="M61 23c244 253.333 409.667 439.333 497 558c87.3333 118.667 131 234.333 131 347c0 98.6667 -26.6667 173.833 -80 225.5s-117 77.5 -191 77.5c-91.3333 0 -165.333 -33.3333 -222 -100c-31.3333 -36.6667 -61.3333 -93 -90 -169l-43 9
c33.3333 153.333 89.8333 259.833 169.5 319.5c79.6667 59.6667 165.167 89.5 256.5 89.5c112.667 0 203.833 -35.5 273.5 -106.5s104.5 -157.833 104.5 -260.5c0 -109.333 -37.6667 -214.667 -113 -316s-239 -281.667 -491 -541h436v333h122v-323.71
c14.5239 3.55167 26.5239 8.12175 36 13.7102c26 15.3333 55.3333 52.6667 88 112l26 -12l-111 -279l-39 2.84217e-14v-276h-122v276h-638v23z" />
    <glyph glyph-name="uniEA54" unicode="&#xea54;" 
d="M304.5 117c60.3333 -38 111.5 -57 153.5 -57c93.3333 0 162.667 31.5 208 94.5s68 131.5 68 205.5c0 71.3333 -18.3333 134 -55 188c-62 91.3333 -166.667 137 -314 137c-8.66667 0 -17 -0.166667 -25 -0.5s-17.3333 -1.16667 -28 -2.5l-2 26
c106.667 38.6667 190.667 83 252 133c61.3333 50 92 116 92 198c0 72.6667 -24.1667 128 -72.5 166s-103.5 57 -165.5 57c-73.3333 0 -138 -27 -194 -81c-30.6667 -29.3333 -63.6667 -74.6667 -99 -136l-31 7c26.6667 101.333 76.3333 182.333 149 243
c72.6667 60.6667 156.667 91 252 91c102 0 180.833 -28 236.5 -84s83.5 -120.667 83.5 -194c0 -64.6667 -23 -124 -69 -178c-26 -30.6667 -66.3333 -65 -121 -103c64 -27.3333 115.333 -59.3333 154 -96c72.6667 -70 109 -158.667 109 -266
c0 -126.667 -49.8333 -238.333 -149.5 -335c-99.6667 -96.6667 -241.5 -145 -425.5 -145c-82 0 -139.5 12.1667 -172.5 36.5c-33 24.3333 -49.5 50.5 -49.5 78.5c0 17.3333 5.5 34 16.5 50s28.8333 24 53.5 24c36.6667 0 85.1667 -19 145.5 -57z" />
    <glyph glyph-name="uniEA55" unicode="&#xea55;" 
d="M597 1168l-491 -694h491v694zM663 1374h95v-900h209v-133h-209v-341h-159v341h-576v133z" />
    <glyph glyph-name="uniEA56" unicode="&#xea56;" horiz-adv-x="1168" 
d="M663 1374h95v-900h170v256h121v-256h95v-133h-95v-259h-121v259h-170v-341h-159v341h-576v133zM597 1168l-491 -694h491v694z" />
    <glyph glyph-name="uniEA57" unicode="&#xea57;" 
d="M302.5 118.5c61.6667 -43 109.167 -64.5 142.5 -64.5c76.6667 0 143.667 33.8333 201 101.5c57.3333 67.6667 86 150.833 86 249.5c0 172.667 -92 297 -276 373c-102 42 -197 63 -285 63c-14.6667 0 -23.8333 0.5 -27.5 1.5s-8.16667 4.5 -13.5 10.5
c1.33333 5.33333 2.5 9.83333 3.5 13.5s2.16667 7.16667 3.5 10.5l218 478h429c21.3333 0 37.8333 3.66667 49.5 11s26.8333 21 45.5 41l16 -14l-78 -185c-2.66667 -6 -10 -9.83333 -22 -11.5s-25 -2.5 -39 -2.5h-387l-85 -175c109.333 -18.6667 189.333 -36.3333 240 -53
c83.3333 -28 153 -69.3333 209 -124c48 -47.3333 84.3333 -100.5 109 -159.5s37 -121.5 37 -187.5c0 -147.333 -52.5 -270.333 -157.5 -369c-105 -98.6667 -237.833 -148 -398.5 -148c-65.3333 0 -118 6.33333 -158 19c-66.6667 20.6667 -100 57.6667 -100 111
c0 20 7.16667 37.5 21.5 52.5c14.3333 15 36.5 22.5 66.5 22.5c38 0 87.8333 -21.5 149.5 -64.5z" />
    <glyph glyph-name="uniEA58" unicode="&#xea58;" 
d="M302.5 118.5c61.6667 -43 109.167 -64.5 142.5 -64.5c76.6667 0 143.667 33.8333 201 101.5c57.3333 67.6667 86 150.833 86 249.5c0 172.667 -92 297 -276 373c-102 42 -197 63 -285 63c-14.6667 0 -23.8333 0.5 -27.5 1.5s-8.16667 4.5 -13.5 10.5
c1.33333 5.33333 2.5 9.83333 3.5 13.5s2.16667 7.16667 3.5 10.5l218 478h262v189h121v-189h46c21.3333 0 37.8333 3.66667 49.5 11s26.8333 21 45.5 41l16 -14l-78 -185c-2.66667 -6 -10 -9.83333 -22 -11.5s-25 -2.5 -39 -2.5h-18v-198h-121v198h-248l-85 -175
c109.333 -18.6667 189.333 -36.3333 240 -53c83.3333 -28 153 -69.3333 209 -124c48 -47.3333 84.3333 -100.5 109 -159.5s37 -121.5 37 -187.5c0 -147.333 -52.5 -270.333 -157.5 -369c-105 -98.6667 -237.833 -148 -398.5 -148c-65.3333 0 -118 6.33333 -158 19
c-66.6667 20.6667 -100 57.6667 -100 111c0 20 7.16667 37.5 21.5 52.5c14.3333 15 36.5 22.5 66.5 22.5c38 0 87.8333 -21.5 149.5 -64.5z" />
    <glyph glyph-name="uniEA59" unicode="&#xea59;" 
d="M302.5 118.5c61.6667 -43 109.167 -64.5 142.5 -64.5c76.6667 0 143.667 33.8333 201 101.5c57.3333 67.6667 86 150.833 86 249.5c0 172.667 -92 297 -276 373c-102 42 -197 63 -285 63c-14.6667 0 -23.8333 0.5 -27.5 1.5s-8.16667 4.5 -13.5 10.5
c1.33333 5.33333 2.5 9.83333 3.5 13.5s2.16667 7.16667 3.5 10.5l129.688 284.362l-196.688 76.6376l-2 136l251.053 -97.8201l35.9472 78.8201h429c21.3333 0 37.8333 3.66667 49.5 11s26.8333 21 45.5 41l16 -14l-78 -185c-2.66667 -6 -10 -9.83333 -22 -11.5
s-25 -2.5 -39 -2.5h-226.035l426.035 -166l2 -136l-618.611 241.035l-55.3887 -114.035c109.333 -18.6667 189.333 -36.3333 240 -53c83.3333 -28 153 -69.3333 209 -124c48 -47.3333 84.3333 -100.5 109 -159.5s37 -121.5 37 -187.5c0 -147.333 -52.5 -270.333 -157.5 -369
c-105 -98.6667 -237.833 -148 -398.5 -148c-65.3333 0 -118 6.33333 -158 19c-66.6667 20.6667 -100 57.6667 -100 111c0 20 7.16667 37.5 21.5 52.5c14.3333 15 36.5 22.5 66.5 22.5c38 0 87.8333 -21.5 149.5 -64.5z" />
    <glyph glyph-name="uniEA5A" unicode="&#xea5a;" 
d="M304.448 117.145c60.7196 -42.0968 107.57 -63.1453 140.552 -63.1453c76.6667 0 143.667 33.8333 201 101.5c57.3333 67.6667 86 150.833 86 249.5c0 138.826 -59.4718 246.407 -178.415 322.745zM810.475 1357.35c9.07395 1.82276 16.7491 4.7067 23.0254 8.6518
c11.6667 7.33333 26.8333 21 45.5 41l16 -14l-78 -185c-2.66667 -6 -10 -9.83333 -22 -11.5s-25 -2.5 -39 -2.5h-12.1745l-112.484 -275.684c37.801 -21.6194 71.6873 -47.058 101.659 -76.3159c48 -47.3333 84.3333 -100.5 109 -159.5s37 -121.5 37 -187.5
c0 -147.333 -52.5 -270.333 -157.5 -369c-105 -98.6667 -237.833 -148 -398.5 -148c-26.8058 0 -51.4793 1.06615 -74.0204 3.19846l-55.9796 -137.198h-126l67.2381 164.792c-46.1587 21.7606 -69.2381 54.8301 -69.2381 99.2084c0 20 7.16667 37.5 21.5 52.5
c14.3333 15 36.5 22.5 66.5 22.5c14.457 0 30.6267 -3.11191 48.5092 -9.33573l247.709 607.101c-99.4321 40.1562 -192.171 60.2342 -278.218 60.2342c-14.6667 0 -23.8333 0.5 -27.5 1.5s-8.16667 4.5 -13.5 10.5c1.33333 5.33333 2.5 9.83333 3.5 13.5
s2.16667 7.16667 3.5 10.5l218 478h328.517l75.4835 185h126zM617.825 1194h-248.825l-85 -175c109.333 -18.6667 189.333 -36.3333 240 -53c0.233743 -0.0785377 0.467379 -0.15718 0.700907 -0.235928z" />
    <glyph glyph-name="uniEA5B" unicode="&#xea5b;" 
d="M840.5 125c-78.3333 -98 -180.167 -147 -305.5 -147c-117.333 0 -224.167 55 -320.5 165c-96.3333 110 -144.5 256.333 -144.5 439c0 235.333 93.3333 437.333 280 606c166.667 141.333 354 212 562 212l5 -33c-83.3333 -15.3333 -155.167 -36.1667 -215.5 -62.5
s-114.167 -63.1667 -161.5 -110.5c-48.6667 -48 -94.3333 -109 -137 -183s-72 -147.333 -88 -220c41.3333 25.3333 77 44 107 56c53.3333 21.3333 107 32 161 32c106 0 195 -36.6667 267 -110s108 -178 108 -314c0 -122 -39.1667 -232 -117.5 -330zM733 614
c-46.6667 114.667 -126 172 -238 172c-103.333 0 -172 -30.6667 -206 -92c-20 -36 -30 -96 -30 -180c0 -108.667 23.1667 -215 69.5 -319s119.5 -156 219.5 -156c79.3333 0 137 33.8333 173 101.5c36 67.6667 54 146.833 54 237.5c0 88.6667 -14 167.333 -42 236z" />
    <glyph glyph-name="uniEA5D" unicode="&#xea5d;" 
d="M919 1355v-33l-434 -1341h-132l405 1223h-436c-64.6667 0 -111.167 -10.6667 -139.5 -32s-64.1667 -66 -107.5 -134l-35 16c43.3333 106.667 70.1667 172.5 80.5 197.5c10.3333 25 23.8333 59.5 40.5 103.5h758z" />
    <glyph glyph-name="uniEA5E" unicode="&#xea5e;" 
d="M919 1355v-33l-434 -1341h-132l405 1223h-353v-280h-121v278.615c-45.2276 -3.5148 -79.061 -13.7198 -101.5 -30.6151c-28.3333 -21.3333 -64.1667 -66 -107.5 -134l-35 16c43.3333 106.667 70.1667 172.5 80.5 197.5c10.3333 25 23.8333 59.5 40.5 103.5h123v217h121
v-217h514z" />
    <glyph glyph-name="uniEA5F" unicode="&#xea5f;" 
d="M919 1355v-33l-218.905 -676.387l247.905 -97.6127l2 -136l-288.719 113.683l-176.281 -544.683h-132l195.128 589.237l-238.128 93.7628l-2 136l279.739 -110.147l170.261 514.147h-436c-64.6667 0 -111.167 -10.6667 -139.5 -32s-64.1667 -66 -107.5 -134l-35 16
c43.3333 106.667 70.1667 172.5 80.5 197.5c10.3333 25 23.8333 59.5 40.5 103.5h758z" />
    <glyph glyph-name="uniEA60" unicode="&#xea60;" 
d="M697 98c39.333 42.667 59 96 59 160c0 72.667 -20.833 131.5 -62.5 176.5s-127.167 113.167 -256.5 204.5c-57.333 -36 -99 -82.667 -125 -140s-39 -112.667 -39 -166c0 -91.333 23.5 -164 70.5 -218s106.833 -81 179.5 -81c76.667 0 134.667 21.333 174 64zM666 909
c41.333 51.333 62 113.333 62 186c0 63.333 -19.5 117.167 -58.5 161.5s-98.167 66.5 -177.5 66.5c-61.333 0 -112 -19.333 -152 -58s-60 -85.667 -60 -141c0 -62.667 23.5 -120.833 70.5 -174.5c47 -53.667 108.833 -104.167 185.5 -151.5c62.667 44 106 81 130 111z
M202 851c-49.333 64 -74 134.667 -74 212c0 88 36.5 162.667 109.5 224s167.833 92 284.5 92c107.333 0 192.667 -29 256 -87s95 -125.333 95 -202c0 -78 -32.333 -148 -97 -210c-37.333 -35.333 -97.667 -76 -181 -122c113.333 -84 194.5 -157.167 243.5 -219.5
s73.5 -135.833 73.5 -220.5c0 -96 -36.167 -176.667 -108.5 -242c-72.333 -65.333 -169.167 -98 -290.5 -98c-108.667 0 -201.833 30.167 -279.5 90.5c-77.667 60.333 -116.5 139.833 -116.5 238.5c0 84.667 27 159.333 81 224c35.333 42 96.667 92.333 184 151
c-88 70.667 -148 127 -180 169z" />
    <glyph glyph-name="uniEA61" unicode="&#xea61;" 
d="M651.5 611c48.3333 25.3333 75.8333 46.6667 82.5 64c2.66667 6.66667 5 31.5 7 74.5s3 77.8333 3 104.5c0 138.667 -23.3333 251.333 -70 338s-115 130 -205 130c-65.3333 0 -118.167 -29.6667 -158.5 -89s-60.5 -148 -60.5 -266c0 -97.3333 18.8333 -187.333 56.5 -270
s105.833 -124 204.5 -124c45.3333 0 92.1667 12.6667 140.5 38zM823 1203.5c80 -117 120 -247.5 120 -391.5c0 -101.333 -19 -204.333 -57 -309c-38 -104.667 -93.3333 -198 -166 -280c-84.6667 -94.6667 -192 -165 -322 -211c-72.6667 -26 -164.333 -46 -275 -60l-10 40
c69.3333 16 127 33 173 51c82.6667 32.6667 149 72.6667 199 120c70.6667 67.3333 127.167 142.5 169.5 225.5s68.8333 152.5 79.5 208.5l-35 -26c-49.3333 -37.3333 -107.333 -63 -174 -77c-34.6667 -8 -66.3333 -12 -95 -12c-113.333 0 -203.167 40.1667 -269.5 120.5
c-66.3333 80.3333 -99.5 176.167 -99.5 287.5c0 142 39.5 259 118.5 351s180.167 138 303.5 138c146.667 0 260 -58.5 340 -175.5z" />
    <glyph glyph-name="uniEA62" unicode="&#xea62;" 
d="M651.5 611c48.3333 25.3333 75.8333 46.6667 82.5 64c2.66667 6.66667 5 31.5 7 74.5s3 77.8333 3 104.5c0 138.667 -23.3333 251.333 -70 338s-115 130 -205 130c-65.3333 0 -118.167 -29.6667 -158.5 -89s-60.5 -148 -60.5 -266c0 -97.3333 18.8333 -187.333 56.5 -270
s105.833 -124 204.5 -124c45.3333 0 92.1667 12.6667 140.5 38zM823 1203.5c80 -117 120 -247.5 120 -391.5c0 -101.333 -19 -204.333 -57 -309c-38 -104.667 -93.3333 -198 -166 -280c-2.27699 -2.54593 -4.57038 -5.07426 -6.88016 -7.58498l244.88 -95.415l2 -136
l-352.248 137.25c-61.7369 -45.1986 -131.654 -81.6152 -209.752 -109.25c-72.6667 -26 -164.333 -46 -275 -60l-10 40c69.3333 16 127 33 173 51c82.6667 32.6667 149 72.6667 199 120c1.50858 1.43742 3.0107 2.87841 4.50637 4.32297l-417.506 162.677l-2 136
l508.779 -198.241c28.9161 38.2143 54.1563 78.4612 75.7206 120.741c42.3333 83 68.8333 152.5 79.5 208.5l-35 -26c-49.3333 -37.3333 -107.333 -63 -174 -77c-34.6667 -8 -66.3333 -12 -95 -12c-113.333 0 -203.167 40.1667 -269.5 120.5
c-66.3333 80.3333 -99.5 176.167 -99.5 287.5c0 142 39.5 259 118.5 351s180.167 138 303.5 138c146.667 0 260 -58.5 340 -175.5z" />
    <glyph glyph-name="uniECC0" unicode="&#xecc0;" 
d="M919 1355v-33l-174.932 -540.515l211.932 92.5151l2 -136l-265.517 -115.907l-207.483 -641.093h-132l190.807 576.192l-231.807 -101.192l-2 136l286.793 125.194l161.207 486.806h-436c-64.6667 0 -111.167 -10.6667 -139.5 -32s-64.1667 -66 -107.5 -134l-35 16
c43.3333 106.667 70.1667 172.5 80.5 197.5c10.3333 25 23.8333 59.5 40.5 103.5h758z" />
    <glyph glyph-name="uniE263" unicode="&#xe263;" horiz-adv-x="790" 
d="M45.7559 870h200.244v-146.123l40.5908 -46.0029h213.773l40.5908 43.2969v148.829h200.244v-194.832h-159.655l-67.6494 -75.7676v-102.828l67.6494 -86.5918h159.655v-189.42h-202.95v148.829l-37.8848 40.5908h-216.479l-37.8848 -40.5908v-148.829h-200.244v194.832
h162.361l70.3555 81.1797v102.828l-75.7676 78.4736h-156.949v192.126z" />
    <glyph glyph-name="uniE264" unicode="&#xe264;" horiz-adv-x="1087" 
d="M762 828c-80 0 -120 -25 -175 -72.5v-485c77.5 77.5 135 147.5 177.5 210c52.5 80 80 147.5 80 210c2.5 22.5 2.5 40 2.5 50c0 35 -7.5 52.5 -27.5 75l-20 7.5zM344.5 905.5c95 0 162.5 -32.5 192.5 -102.5v932.5h50v-897.5c80 40 135 67.5 232.5 67.5
c65 0 87.5 -7.5 135 -32.5c32.5 -17.5 60 -50 67.5 -95l10 -62.5c0 -70 -40 -142.5 -112.5 -222.5c-57.5 -62.5 -97.5 -110 -162.5 -170l-220 -197.5v497.5c-30 -70 -115 -157.5 -167.5 -217.5c-22.5 -27.5 -52.5 -55 -87.5 -82.5l-220 -197.5v1610h50v-897.5
c80 40 135 67.5 232.5 67.5zM287 828c-80 0 -120 -25 -175 -72.5v-485c77.5 77.5 135 147.5 177.5 210c52.5 80 80 147.5 80 210c2.5 22.5 2.5 40 2.5 50c0 35 -7.5 52.5 -27.5 75l-20 7.5z" />
    <glyph glyph-name="uniE520" unicode="&#xe520;" horiz-adv-x="1112" 
d="M82.7998 446.4h-82.7998c79.2002 153.601 153.602 274.799 223.2 363.6c69.5986 88.8008 160.801 134.398 273.6 136.8c21.6006 0 43.2002 -15.5986 64.7998 -46.7998c24.002 -24.001 36 -56.4014 36 -97.2002l86.4004 50.4004l90 46.7998
c43.2002 16.8008 87.5986 25.2002 133.2 25.2002c86.3994 0 155.999 -33.5986 208.8 -100.8s80.3984 -159.6 82.7998 -277.2c0 -50.4004 -3.59961 -96.001 -10.7998 -136.8s-19.1992 -75.6006 -36 -104.4s-39.5996 -61.2002 -68.4004 -97.2002
c-50.3994 -64.7998 -106.801 -115.2 -169.199 -151.2c-62.3994 -36 -127.199 -54 -194.4 -54c-31.2012 0 -70.8008 11.999 -118.8 36c-19.1992 11.999 -37.1992 24.002 -54 36c-16.8018 11.999 -32.4004 28.8008 -46.7998 50.4004l-201.601 -568.8l-10.7998 -14.4004
c9.60156 -24.001 24.001 -37.1982 43.2002 -39.5996h115.2v-104.4h-622.801v104.4h75.6006c14.3994 0 31.2012 6.00098 50.3994 18c14.4004 14.3994 25.2002 31.2012 32.4004 50.3994l428.4 1191.6v21.5996l-10.8008 36l-21.5996 10.7998
c-31.2012 0 -61.2002 -14.3994 -90 -43.1992c-28.7998 -28.8008 -56.4014 -65.999 -82.7998 -111.601l-39.6006 -61.2002l-36 -72zM709.2 723.6c-43.2002 -74.4004 -78.001 -160.801 -104.4 -259.199c-24.001 -108 -36 -182.401 -36 -223.2
c0 -86.4004 26.3994 -129.601 79.2002 -129.601c45.6016 0 82.7998 8.39941 111.6 25.2002c28.8008 16.8018 54 40.7988 75.6006 72c36 60.001 55.1982 93.6006 57.5996 100.8c16.8018 40.7988 28.7998 93.6006 36 158.4c7.2002 64.7998 11.999 111.6 14.4004 140.4
c0 26.3984 -2.40137 47.998 -7.2002 64.7998c-4.79883 16.8008 -11.999 33.6025 -21.5996 50.3994c-19.1992 33.5996 -52.8018 50.4004 -100.801 50.4004c-50.3994 0 -85.2012 -16.8008 -104.399 -50.4004z" />
    <glyph glyph-name="uniE521" unicode="&#xe521;" horiz-adv-x="1459" 
d="M1213.2 943.2c75.5996 0 154.8 -50.4004 154.8 -126v-25.2002l-226.8 -658.8c0 -46.7998 14.3994 -72 43.2002 -75.6006c28.7998 0 61.1992 18 93.5996 54s54 57.6006 57.5996 61.2002c14.4004 25.2002 67.0791 113.987 72 126l50.4004 147.601h82.7998
l-86.3994 -226.801c-29.8945 -78.4688 -111.601 -162 -158.4 -208.8s-104.4 -72 -165.6 -75.5996c-64.8008 0 -122.4 18 -176.4 50.3994l-57.5996 54c-10.8008 25.2002 -18 43.2002 -18 61.2002c72 226.8 158.399 446.4 234 669.601c0 25.1992 -18 43.1992 -54 46.7998
c-57.6006 0 -111.601 -54 -158.4 -162l-230.4 -655.2h-255.6l277.2 770.4c0 32.3994 -21.6006 46.7998 -61.2002 46.7998c-32.4004 0 -61.2002 -14.4004 -79.2002 -39.6006c-18 -25.1992 -43.2002 -68.3994 -72 -122.399l-230.399 -655.2h-248.4l277.2 756v14.4004
c0 36 -18 43.1992 -43.2002 57.5996c-90 0 -187.2 -169.2 -237.6 -262.8c-18 -32.4004 -43.2002 -82.7998 -75.6006 -151.2h-79.2002c68.4004 140.4 144 273.6 230.4 385.2c75.5996 97.2002 169.2 144 284.4 144c75.5996 0 111.6 -68.4004 122.399 -147.601
c68.4004 61.2002 122.4 97.2002 162 115.2c39.6006 21.6006 86.4004 32.4004 140.4 32.4004c75.5996 0 115.2 -68.4004 126 -147.601c79.2002 61.2002 176.399 147.601 306 147.601z" />
    <glyph glyph-name="uniE522" unicode="&#xe522;" horiz-adv-x="840" 
d="M-327.6 -644.4c-7.2002 -9.60059 -9.60156 -18 -7.2002 -25.1992c2.40137 -7.2002 15.5986 -11.999 39.5996 -14.4004c67.2012 0 123.599 49.2012 169.2 147.6c24.001 50.4004 47.999 108 72 172.801c24.001 64.7998 42.001 127.198 54 187.199l50.4004 219.601
l158.399 748.8h-208.8v136.8h252c26.3984 74.4014 47.999 130.799 64.7998 169.2c26.3994 64.7998 52.8018 117.602 79.2002 158.4c74.3975 108 152.398 190.8 234 248.399c81.6016 57.6006 171.602 86.4004 270 86.4004c33.5986 0 61.2002 -3.60059 82.7998 -10.7998
c21.6006 -7.2002 44.3994 -26.3994 68.4004 -57.6006c16.8008 -24.001 27.6006 -46.7998 32.3994 -68.3994l14.4004 -57.6006c0 -52.8008 -2.40137 -91.2021 -7.2002 -115.2c-4.79883 -24.001 -18 -57.5996 -39.5996 -100.8
c-9.60156 -21.5996 -31.2012 -46.7998 -64.7998 -75.5996c-14.4004 -11.999 -29.999 -19.1992 -46.8008 -21.6006c-16.8008 -2.40039 -37.1982 -2.40039 -61.1992 0c-21.6006 4.79883 -37.1992 18 -46.8008 39.6006c-9.60059 21.5996 -16.8008 45.6006 -21.5996 72
c0 43.2002 8.39844 81.6006 25.2002 115.2c16.8008 33.5986 43.2002 62.3984 79.2002 86.3994c25.1992 18 25.1992 18 50.3994 36c0 31.2012 -21.5996 50.4004 -64.7998 57.6006c-47.999 4.78809 -88.8008 -4.81348 -122.4 -28.8008
c-33.5986 -24.001 -68.3994 -75.5996 -104.399 -154.8c-16.8018 -43.2002 -37.1992 -106.801 -61.2002 -190.8s-40.7988 -144 -50.4004 -180h277.2v-144h-306c-43.2002 -247.201 -104.399 -494.398 -183.6 -741.6c-64.7998 -199.199 -127.199 -356.4 -187.2 -471.601
c-47.999 -93.5996 -97.2002 -169.2 -147.6 -226.8c-88.8018 -103.201 -180 -154.8 -273.601 -154.8c-88.7979 0 -155.999 34.8008 -201.6 104.399c-36 55.1992 -54 119.999 -54 194.4c0 60.001 14.3994 117.602 43.2002 172.8
c16.8008 26.3994 37.1982 46.7998 61.1992 61.2002c24.002 14.4004 47.999 21.5996 72 21.5996c31.2012 0 56.4014 -14.3994 75.6006 -43.1992c19.1982 -28.8008 32.3994 -55.1992 39.5996 -79.2002c7.2002 -24.001 10.7998 -44.3994 10.7998 -61.2002
c0 -33.5986 -8.39844 -62.3984 -25.1992 -86.4004c-16.791 -24.001 -33.5889 -49.2012 -50.4004 -75.5996c-16.791 -26.3984 -29.9883 -43.2002 -39.5996 -50.4004z" />
    <glyph glyph-name="uniE523" unicode="&#xe523;" horiz-adv-x="813" 
d="M698.4 626.4c-50.4004 0 -82.8008 43.1992 -82.8008 104.399l3.60059 39.6006l10.7998 43.1992c0 18 -10.7998 25.2002 -28.7998 25.2002c-46.7998 0 -93.6006 -36 -136.8 -111.6l-57.6006 -115.2c-75.5996 -194.4 -126 -406.8 -190.8 -612h-216l205.2 698.4v18
c0 39.5996 -10.7998 57.5996 -28.7998 57.5996c-54 0 -72 -32.4004 -108 -75.5996c-32.4004 -39.6006 -61.2002 -82.8008 -90 -129.601l-50.4004 28.7998c21.5996 54 57.5996 90 100.8 136.801c68.4004 68.3994 180 172.8 298.8 172.8c54 0 79.2002 -32.4004 79.2002 -100.8
c-3.59961 -25.2002 -3.59961 -50.4004 -7.2002 -75.6006c57.6006 86.4004 140.4 201.601 266.4 201.601c75.5996 0 144 -68.4004 144 -144c0 -108 -36 -162 -111.6 -162z" />
    <glyph glyph-name="uniE524" unicode="&#xe524;" horiz-adv-x="700" 
d="M291.6 118.8c75.6006 0 136.801 54 144 122.4c0 25.2002 -10.7998 54 -28.7998 79.2002c-10.7998 18 -32.3994 39.5996 -68.3994 64.7998c-79.2002 46.7998 -136.801 93.5996 -169.2 136.8c-32.4004 43.2002 -50.4004 93.5996 -54 154.8c0 180 144 295.2 313.2 295.2
l100.8 -10.7998c32.3994 -10.7998 61.2002 -25.2002 86.3994 -46.7998c54 -32.4004 82.8008 -86.4004 82.8008 -154.801l-3.60059 -36l-21.5996 -36c-10.7998 -18 -28.7998 -32.3994 -61.2002 -36c-61.2002 0 -93.5996 28.8008 -104.4 86.4004l14.4004 68.4004
c0 36 -50.4004 57.5996 -86.4004 64.7998c-68.3994 10.7998 -115.199 -57.6006 -126 -129.601c0 -25.1992 14.4004 -54 39.6006 -79.1992c32.3994 -25.2002 64.7998 -50.4004 93.5996 -75.6006c100.8 -82.7998 154.8 -133.2 158.4 -144
c28.7998 -36 43.2002 -82.7998 43.2002 -140.399v-36c0 -75.6006 -36 -140.4 -104.4 -194.4c-57.5996 -36 -136.8 -64.7998 -219.6 -72c-169.2 0 -320.4 93.5996 -320.4 241.2l3.59961 54l18 46.7998l36 32.4004l46.8008 14.3994c57.5996 0 86.3994 -36 86.3994 -111.6
c0 -46.7998 -18 -57.6006 -28.7998 -100.8c0 -28.8008 39.5996 -57.6006 82.7998 -57.6006h46.7998z" />
    <glyph glyph-name="uniE525" unicode="&#xe525;" horiz-adv-x="937" 
d="M622.8 414c75.6006 0 122.4 -82.7998 122.4 -172.8c0 -82.7998 -28.7998 -151.2 -86.4004 -208.8c-54 -61.2002 -140.399 -90 -262.8 -90c-43.2002 0 -75.5996 3.59961 -97.2002 14.3994l-43.2002 21.6006l-61.1992 36c-54 25.1992 -86.4004 36 -104.4 36
c-32.4004 0 -68.4004 -18 -108 -50.4004h-111.6v57.5996l752.399 637.2l-230.399 -3.59961c-82.8008 -10.7998 -115.2 -54 -158.4 -108h-86.4004l108 313.2h680.4v-115.2l-759.6 -586.8c46.7998 21.5996 93.5996 32.3994 140.399 32.3994
c50.4004 0 190.8 -64.7998 226.8 -72c32.4004 3.60059 50.4004 28.7998 50.4004 68.4004c-46.7998 0 -72 28.7998 -79.2002 82.7998c0 61.2002 46.7998 108 108 108z" />
    <glyph glyph-name="uniE526" unicode="&#xe526;" horiz-adv-x="1042" 
d="M-140.4 414c8.54688 8.42773 67.2539 128.931 86.4004 154.8l147.6 252c68.4004 61.2002 50.4004 61.2002 90 79.2002c39.6006 21.5996 129.601 43.2002 183.601 43.2002c75.5996 0 115.2 -68.4004 126 -147.601c79.2002 61.2002 176.399 147.601 306 147.601
c75.5996 0 154.8 -50.4004 154.8 -126v-25.2002l-226.8 -658.8c0 -46.7998 14.3994 -72 43.2002 -75.6006c28.7998 0 61.1992 18 93.5996 54s54 57.6006 57.5996 61.2002c14.4004 25.2002 67.0791 113.987 72 126l50.4004 147.601h82.7998l-86.3994 -226.801
c-29.8945 -78.4688 -111.601 -162 -158.4 -208.8s-104.4 -72 -165.6 -75.5996c-64.8008 0 -122.4 18 -176.4 50.3994l-57.5996 54c-10.8008 25.2002 -18 43.2002 -18 61.2002c72 226.8 158.399 446.4 234 669.601c0 25.1992 -18 43.1992 -54 46.7998
c-57.6006 0 -111.601 -54 -158.4 -162l-230.4 -655.2h-255.6l277.2 770.4c0 32.3994 -21.6006 46.7998 -61.2002 46.7998c-32.4004 0 -61.2002 -14.4004 -79.2002 -39.6006c-18 -25.1992 -169.2 -309.6 -198 -363.6h-79.2002z" />
    <glyph glyph-name="uniE527" unicode="&#xe527;" horiz-adv-x="6530" 
d="M6343.2 608.4c0 93.5996 -36 165.6 -129.601 165.6c-50.3994 0 -86.3994 -18 -104.399 -50.4004c-43.2002 -75.5996 -79.2002 -162 -104.4 -259.199c-25.2002 -108 -36 -183.601 -36 -223.2c0 -86.4004 25.2002 -129.601 79.2002 -129.601
c97.2002 0 147.6 39.6006 187.2 97.2002c72 118.8 79.2002 115.2 93.5996 259.2c7.2002 64.7998 10.7998 111.6 14.4004 140.4zM6120 3.59961c-79.2002 0 -180 64.8008 -219.6 122.4l-201.601 -568.8l-10.7998 -14.4004c10.7998 -25.2002 25.2002 -36 43.2002 -39.5996
h115.2v-104.4h-622.801v104.4h75.6006c14.3994 0 32.3994 7.2002 50.3994 18c14.4004 14.3994 25.2002 32.3994 32.4004 50.3994l428.4 1191.6v21.5996l-10.8008 36l-21.5996 10.7998c-82.7998 0 -136.8 -90 -172.8 -154.8l-39.6006 -61.2002
c-16.4512 -30.834 -31.7158 -62.8447 -47.1592 -95.3564c-4.06836 -150.57 -43.3809 -222.966 -114.841 -311.443c-82.7998 -104.399 -198 -205.2 -363.6 -205.2c-79.2002 0 -180 64.8008 -219.6 122.4l-201.601 -568.8l-10.7998 -14.4004
c10.7998 -25.2002 25.2002 -36 43.2002 -39.5996h115.2v-104.4h-622.801v104.4h75.6006c14.3994 0 32.3994 7.2002 50.3994 18c14.4004 14.3994 25.2002 32.3994 32.4004 50.3994l428.4 1191.6v21.5996l-10.8008 36l-21.5996 10.7998c-82.7998 0 -136.8 -90 -172.8 -154.8
l-39.6006 -61.2002c-16.4512 -30.834 -31.7158 -62.8447 -47.1592 -95.3564c-4.06836 -150.57 -43.3809 -222.966 -114.841 -311.443c-82.7998 -104.399 -198 -205.2 -363.6 -205.2c-79.2002 0 -180 64.8008 -219.6 122.4l-201.601 -568.8l-10.7998 -14.4004
c10.7998 -25.2002 25.2002 -36 43.2002 -39.5996h115.2v-104.4h-622.801v104.4h75.6006c14.3994 0 32.3994 7.2002 50.3994 18c14.4004 14.3994 25.2002 32.3994 32.4004 50.3994l428.4 1191.6v21.5996l-10.8008 36l-21.5996 10.7998c-82.7998 0 -136.8 -90 -172.8 -154.8
l-39.6006 -61.2002c-16.4443 -30.834 -31.7158 -62.8447 -47.1562 -95.3564c-4.08594 -150.57 -43.3799 -222.966 -114.844 -311.443c-82.7998 -104.399 -198 -205.2 -363.6 -205.2c-79.2002 0 -180 64.8008 -219.6 122.4l-201.601 -568.8l-10.7998 -14.4004
c10.7998 -25.2002 25.2002 -36 43.2002 -39.5996h115.2v-104.4h-622.801v104.4h75.6006c14.3994 0 32.3994 7.2002 50.3994 18c14.4004 14.3994 25.2002 32.3994 32.4004 50.3994l428.4 1191.6v21.5996l-10.8008 36l-21.5996 10.7998c-82.7998 0 -136.8 -90 -172.8 -154.8
l-39.6006 -61.2002c-16.4443 -30.834 -31.7158 -62.8447 -47.1562 -95.3564c-4.08594 -150.57 -43.3799 -222.966 -114.844 -311.443c-82.7998 -104.399 -198 -205.2 -363.6 -205.2c-79.2002 0 -180 64.8008 -219.6 122.4l-201.601 -568.8l-10.7998 -14.4004
c10.7998 -25.2002 25.2002 -36 43.2002 -39.5996h115.2v-104.4h-622.801v104.4h75.6006c14.3994 0 32.3994 7.2002 50.3994 18c14.4004 14.3994 25.2002 32.3994 32.4004 50.3994l428.4 1191.6v21.5996l-10.8008 36l-21.5996 10.7998c-82.7998 0 -136.8 -90 -172.8 -154.8
l-39.6006 -61.2002c-16.4443 -30.834 -31.7158 -62.8447 -47.1562 -95.3564c-4.08594 -150.57 -43.3799 -222.966 -114.844 -311.443c-82.7998 -104.399 -198 -205.2 -363.6 -205.2c-79.2002 0 -180 64.8008 -219.6 122.4l-201.601 -568.8l-10.7998 -14.4004
c10.7998 -25.2002 25.2002 -36 43.2002 -39.5996h115.2v-104.4h-622.801v104.4h75.6006c14.3994 0 32.3994 7.2002 50.3994 18c14.4004 14.3994 25.2002 32.3994 32.4004 50.3994l428.4 1191.6v21.5996l-10.8008 36l-21.5996 10.7998c-82.7998 0 -136.8 -90 -172.8 -154.8
l-39.6006 -61.2002c-28.7998 -54 -54 -111.6 -82.7998 -169.199h-82.7998c79.2002 154.8 154.8 273.6 223.2 363.6c68.3994 90 162 133.2 273.6 136.8c50.4004 0 100.8 -82.7998 100.8 -144l86.4004 50.4004l90 46.7998c43.2002 18 86.4004 25.2002 133.2 25.2002
c163.062 0 255.2 -121.576 282.798 -281.873c39.3691 64.1953 77.2812 119.405 113.202 166.673c68.3994 90 162 133.2 273.6 136.8c50.4004 0 100.8 -82.7998 100.8 -144l86.4004 50.4004l90 46.7998c43.2002 18 86.4004 25.2002 133.2 25.2002
c163.062 0 255.2 -121.576 282.798 -281.873c39.373 64.1953 77.2812 119.405 113.202 166.673c68.3994 90 162 133.2 273.6 136.8c50.4004 0 100.8 -82.7998 100.8 -144l86.4004 50.4004l90 46.7998c43.2002 18 86.4004 25.2002 133.2 25.2002
c163.062 0 255.2 -121.576 282.798 -281.873c39.373 64.1953 77.2812 119.405 113.202 166.673c68.3994 90 162 133.2 273.6 136.8c50.4004 0 100.8 -82.7998 100.8 -144l86.4004 50.4004l90 46.7998c43.2002 18 86.4004 25.2002 133.2 25.2002
c163.044 0 255.204 -121.576 282.78 -281.873c39.3838 64.1953 77.292 119.405 113.22 166.673c68.3994 90 162 133.2 273.6 136.8c50.4004 0 100.8 -82.7998 100.8 -144l86.4004 50.4004l90 46.7998c43.2002 18 86.4004 25.2002 133.2 25.2002
c163.044 0 255.204 -121.576 282.78 -281.873c39.3838 64.1953 77.292 119.405 113.22 166.673c68.3994 90 162 133.2 273.6 136.8c50.4004 0 100.8 -82.7998 100.8 -144l86.4004 50.4004l90 46.7998c43.2002 18 86.4004 25.2002 133.2 25.2002
c194.399 0 288 -172.8 291.6 -378c0 -169.2 -39.5996 -244.8 -115.2 -338.4c-82.7998 -104.399 -198 -205.2 -363.6 -205.2zM5263.2 608.4c0 93.5996 -36 165.6 -129.601 165.6c-50.3994 0 -86.3994 -18 -104.399 -50.4004c-43.2002 -75.5996 -79.2002 -162 -104.4 -259.199
c-25.2002 -108 -36 -183.601 -36 -223.2c0 -86.4004 25.2002 -129.601 79.2002 -129.601c97.2002 0 147.6 39.6006 187.2 97.2002c72 118.8 79.2002 115.2 93.5996 259.2c7.2002 64.7998 10.7998 111.6 14.4004 140.4zM4183.2 608.4c0 93.5996 -36 165.6 -129.601 165.6
c-50.3994 0 -86.3994 -18 -104.399 -50.4004c-43.2002 -75.5996 -79.2002 -162 -104.4 -259.199c-25.2002 -108 -36 -183.601 -36 -223.2c0 -86.4004 25.2002 -129.601 79.2002 -129.601c97.2002 0 147.6 39.6006 187.2 97.2002c72 118.8 79.2002 115.2 93.5996 259.2
c7.2002 64.7998 10.7998 111.6 14.4004 140.4zM3103.2 608.4c0 93.5996 -36 165.6 -129.601 165.6c-50.3994 0 -86.3994 -18 -104.399 -50.4004c-43.2002 -75.5996 -79.2002 -162 -104.4 -259.199c-25.2002 -108 -36 -183.601 -36 -223.2
c0 -86.4004 25.2002 -129.601 79.2002 -129.601c97.2002 0 147.6 39.6006 187.2 97.2002c72 118.8 79.2002 115.2 93.5996 259.2c7.2002 64.7998 10.7998 111.6 14.4004 140.4zM2023.2 608.4c0 93.5996 -36 165.6 -129.601 165.6c-50.3994 0 -86.3994 -18 -104.399 -50.4004
c-43.2002 -75.5996 -79.2002 -162 -104.4 -259.199c-25.2002 -108 -36 -183.601 -36 -223.2c0 -86.4004 25.2002 -129.601 79.2002 -129.601c97.2002 0 147.6 39.6006 187.2 97.2002c72 118.8 79.2002 115.2 93.5996 259.2c7.2002 64.7998 10.7998 111.6 14.4004 140.4z
M943.2 608.4c0 93.5996 -36 165.6 -129.601 165.6c-50.3994 0 -86.3994 -18 -104.399 -50.4004c-43.2002 -75.5996 -79.2002 -162 -104.4 -259.199c-25.2002 -108 -36 -183.601 -36 -223.2c0 -86.4004 25.2002 -129.601 79.2002 -129.601
c97.2002 0 147.6 39.6006 187.2 97.2002c72 118.8 79.2002 115.2 93.5996 259.2c7.2002 64.7998 10.7998 111.6 14.4004 140.4z" />
    <glyph glyph-name="uniE528" unicode="&#xe528;" horiz-adv-x="5444" 
d="M5263.2 608.4c0 93.5996 -36 165.6 -129.601 165.6c-50.3994 0 -86.3994 -18 -104.399 -50.4004c-43.2002 -75.5996 -79.2002 -162 -104.4 -259.199c-25.2002 -108 -36 -183.601 -36 -223.2c0 -86.4004 25.2002 -129.601 79.2002 -129.601
c97.2002 0 147.6 39.6006 187.2 97.2002c72 118.8 79.2002 115.2 93.5996 259.2c7.2002 64.7998 10.7998 111.6 14.4004 140.4zM5040 3.59961c-79.2002 0 -180 64.8008 -219.6 122.4l-201.601 -568.8l-10.7998 -14.4004c10.7998 -25.2002 25.2002 -36 43.2002 -39.5996
h115.2v-104.4h-622.801v104.4h75.6006c14.3994 0 32.3994 7.2002 50.3994 18c14.4004 14.3994 25.2002 32.3994 32.4004 50.3994l428.4 1191.6v21.5996l-10.8008 36l-21.5996 10.7998c-82.7998 0 -136.8 -90 -172.8 -154.8l-39.6006 -61.2002
c-16.4512 -30.834 -31.7158 -62.8447 -47.1592 -95.3564c-4.06836 -150.57 -43.3809 -222.966 -114.841 -311.443c-82.7998 -104.399 -198 -205.2 -363.6 -205.2c-79.2002 0 -180 64.8008 -219.6 122.4l-201.601 -568.8l-10.7998 -14.4004
c10.7998 -25.2002 25.2002 -36 43.2002 -39.5996h115.2v-104.4h-622.801v104.4h75.6006c14.3994 0 32.3994 7.2002 50.3994 18c14.4004 14.3994 25.2002 32.3994 32.4004 50.3994l428.4 1191.6v21.5996l-10.8008 36l-21.5996 10.7998c-82.7998 0 -136.8 -90 -172.8 -154.8
l-39.6006 -61.2002c-16.4443 -30.834 -31.7158 -62.8447 -47.1562 -95.3564c-4.08594 -150.57 -43.3799 -222.966 -114.844 -311.443c-82.7998 -104.399 -198 -205.2 -363.6 -205.2c-79.2002 0 -180 64.8008 -219.6 122.4l-201.601 -568.8l-10.7998 -14.4004
c10.7998 -25.2002 25.2002 -36 43.2002 -39.5996h115.2v-104.4h-622.801v104.4h75.6006c14.3994 0 32.3994 7.2002 50.3994 18c14.4004 14.3994 25.2002 32.3994 32.4004 50.3994l428.4 1191.6v21.5996l-10.8008 36l-21.5996 10.7998c-82.7998 0 -136.8 -90 -172.8 -154.8
l-39.6006 -61.2002c-16.4443 -30.834 -31.7158 -62.8447 -47.1562 -95.3564c-4.08594 -150.57 -43.3799 -222.966 -114.844 -311.443c-82.7998 -104.399 -198 -205.2 -363.6 -205.2c-79.2002 0 -180 64.8008 -219.6 122.4l-201.601 -568.8l-10.7998 -14.4004
c10.7998 -25.2002 25.2002 -36 43.2002 -39.5996h115.2v-104.4h-622.801v104.4h75.6006c14.3994 0 32.3994 7.2002 50.3994 18c14.4004 14.3994 25.2002 32.3994 32.4004 50.3994l428.4 1191.6v21.5996l-10.8008 36l-21.5996 10.7998c-82.7998 0 -136.8 -90 -172.8 -154.8
l-39.6006 -61.2002c-16.4443 -30.834 -31.7158 -62.8447 -47.1562 -95.3564c-4.08594 -150.57 -43.3799 -222.966 -114.844 -311.443c-82.7998 -104.399 -198 -205.2 -363.6 -205.2c-79.2002 0 -180 64.8008 -219.6 122.4l-201.601 -568.8l-10.7998 -14.4004
c10.7998 -25.2002 25.2002 -36 43.2002 -39.5996h115.2v-104.4h-622.801v104.4h75.6006c14.3994 0 32.3994 7.2002 50.3994 18c14.4004 14.3994 25.2002 32.3994 32.4004 50.3994l428.4 1191.6v21.5996l-10.8008 36l-21.5996 10.7998c-82.7998 0 -136.8 -90 -172.8 -154.8
l-39.6006 -61.2002c-28.7998 -54 -54 -111.6 -82.7998 -169.199h-82.7998c79.2002 154.8 154.8 273.6 223.2 363.6c68.3994 90 162 133.2 273.6 136.8c50.4004 0 100.8 -82.7998 100.8 -144l86.4004 50.4004l90 46.7998c43.2002 18 86.4004 25.2002 133.2 25.2002
c163.062 0 255.2 -121.576 282.798 -281.873c39.3691 64.1953 77.2812 119.405 113.202 166.673c68.3994 90 162 133.2 273.6 136.8c50.4004 0 100.8 -82.7998 100.8 -144l86.4004 50.4004l90 46.7998c43.2002 18 86.4004 25.2002 133.2 25.2002
c163.062 0 255.2 -121.576 282.798 -281.873c39.373 64.1953 77.2812 119.405 113.202 166.673c68.3994 90 162 133.2 273.6 136.8c50.4004 0 100.8 -82.7998 100.8 -144l86.4004 50.4004l90 46.7998c43.2002 18 86.4004 25.2002 133.2 25.2002
c163.062 0 255.2 -121.576 282.798 -281.873c39.373 64.1953 77.2812 119.405 113.202 166.673c68.3994 90 162 133.2 273.6 136.8c50.4004 0 100.8 -82.7998 100.8 -144l86.4004 50.4004l90 46.7998c43.2002 18 86.4004 25.2002 133.2 25.2002
c163.044 0 255.204 -121.576 282.78 -281.873c39.3838 64.1953 77.292 119.405 113.22 166.673c68.3994 90 162 133.2 273.6 136.8c50.4004 0 100.8 -82.7998 100.8 -144l86.4004 50.4004l90 46.7998c43.2002 18 86.4004 25.2002 133.2 25.2002
c194.399 0 288 -172.8 291.6 -378c0 -169.2 -39.5996 -244.8 -115.2 -338.4c-82.7998 -104.399 -198 -205.2 -363.6 -205.2zM4183.2 608.4c0 93.5996 -36 165.6 -129.601 165.6c-50.3994 0 -86.3994 -18 -104.399 -50.4004c-43.2002 -75.5996 -79.2002 -162 -104.4 -259.199
c-25.2002 -108 -36 -183.601 -36 -223.2c0 -86.4004 25.2002 -129.601 79.2002 -129.601c97.2002 0 147.6 39.6006 187.2 97.2002c72 118.8 79.2002 115.2 93.5996 259.2c7.2002 64.7998 10.7998 111.6 14.4004 140.4zM3103.2 608.4c0 93.5996 -36 165.6 -129.601 165.6
c-50.3994 0 -86.3994 -18 -104.399 -50.4004c-43.2002 -75.5996 -79.2002 -162 -104.4 -259.199c-25.2002 -108 -36 -183.601 -36 -223.2c0 -86.4004 25.2002 -129.601 79.2002 -129.601c97.2002 0 147.6 39.6006 187.2 97.2002c72 118.8 79.2002 115.2 93.5996 259.2
c7.2002 64.7998 10.7998 111.6 14.4004 140.4zM2023.2 608.4c0 93.5996 -36 165.6 -129.601 165.6c-50.3994 0 -86.3994 -18 -104.399 -50.4004c-43.2002 -75.5996 -79.2002 -162 -104.4 -259.199c-25.2002 -108 -36 -183.601 -36 -223.2
c0 -86.4004 25.2002 -129.601 79.2002 -129.601c97.2002 0 147.6 39.6006 187.2 97.2002c72 118.8 79.2002 115.2 93.5996 259.2c7.2002 64.7998 10.7998 111.6 14.4004 140.4zM943.2 608.4c0 93.5996 -36 165.6 -129.601 165.6c-50.3994 0 -86.3994 -18 -104.399 -50.4004
c-43.2002 -75.5996 -79.2002 -162 -104.4 -259.199c-25.2002 -108 -36 -183.601 -36 -223.2c0 -86.4004 25.2002 -129.601 79.2002 -129.601c97.2002 0 147.6 39.6006 187.2 97.2002c72 118.8 79.2002 115.2 93.5996 259.2c7.2002 64.7998 10.7998 111.6 14.4004 140.4z" />
    <glyph glyph-name="uniE529" unicode="&#xe529;" horiz-adv-x="4369" 
d="M4183.2 608.4c0 93.5996 -36 165.6 -129.601 165.6c-50.3994 0 -86.3994 -18 -104.399 -50.4004c-43.2002 -75.5996 -79.2002 -162 -104.4 -259.199c-25.2002 -108 -36 -183.601 -36 -223.2c0 -86.4004 25.2002 -129.601 79.2002 -129.601
c97.2002 0 147.6 39.6006 187.2 97.2002c72 118.8 79.2002 115.2 93.5996 259.2c7.2002 64.7998 10.7998 111.6 14.4004 140.4zM3960 3.59961c-79.2002 0 -180 64.8008 -219.6 122.4l-201.601 -568.8l-10.7998 -14.4004c10.7998 -25.2002 25.2002 -36 43.2002 -39.5996
h115.2v-104.4h-622.801v104.4h75.6006c14.3994 0 32.3994 7.2002 50.3994 18c14.4004 14.3994 25.2002 32.3994 32.4004 50.3994l428.4 1191.6v21.5996l-10.8008 36l-21.5996 10.7998c-82.7998 0 -136.8 -90 -172.8 -154.8l-39.6006 -61.2002
c-16.4443 -30.834 -31.7158 -62.8447 -47.1562 -95.3564c-4.08594 -150.57 -43.3799 -222.966 -114.844 -311.443c-82.7998 -104.399 -198 -205.2 -363.6 -205.2c-79.2002 0 -180 64.8008 -219.6 122.4l-201.601 -568.8l-10.7998 -14.4004
c10.7998 -25.2002 25.2002 -36 43.2002 -39.5996h115.2v-104.4h-622.801v104.4h75.6006c14.3994 0 32.3994 7.2002 50.3994 18c14.4004 14.3994 25.2002 32.3994 32.4004 50.3994l428.4 1191.6v21.5996l-10.8008 36l-21.5996 10.7998c-82.7998 0 -136.8 -90 -172.8 -154.8
l-39.6006 -61.2002c-16.4443 -30.834 -31.7158 -62.8447 -47.1562 -95.3564c-4.08594 -150.57 -43.3799 -222.966 -114.844 -311.443c-82.7998 -104.399 -198 -205.2 -363.6 -205.2c-79.2002 0 -180 64.8008 -219.6 122.4l-201.601 -568.8l-10.7998 -14.4004
c10.7998 -25.2002 25.2002 -36 43.2002 -39.5996h115.2v-104.4h-622.801v104.4h75.6006c14.3994 0 32.3994 7.2002 50.3994 18c14.4004 14.3994 25.2002 32.3994 32.4004 50.3994l428.4 1191.6v21.5996l-10.8008 36l-21.5996 10.7998c-82.7998 0 -136.8 -90 -172.8 -154.8
l-39.6006 -61.2002c-16.4443 -30.834 -31.7158 -62.8447 -47.1562 -95.3564c-4.08594 -150.57 -43.3799 -222.966 -114.844 -311.443c-82.7998 -104.399 -198 -205.2 -363.6 -205.2c-79.2002 0 -180 64.8008 -219.6 122.4l-201.601 -568.8l-10.7998 -14.4004
c10.7998 -25.2002 25.2002 -36 43.2002 -39.5996h115.2v-104.4h-622.801v104.4h75.6006c14.3994 0 32.3994 7.2002 50.3994 18c14.4004 14.3994 25.2002 32.3994 32.4004 50.3994l428.4 1191.6v21.5996l-10.8008 36l-21.5996 10.7998c-82.7998 0 -136.8 -90 -172.8 -154.8
l-39.6006 -61.2002c-28.7998 -54 -54 -111.6 -82.7998 -169.199h-82.7998c79.2002 154.8 154.8 273.6 223.2 363.6c68.3994 90 162 133.2 273.6 136.8c50.4004 0 100.8 -82.7998 100.8 -144l86.4004 50.4004l90 46.7998c43.2002 18 86.4004 25.2002 133.2 25.2002
c163.062 0 255.2 -121.576 282.798 -281.873c39.3691 64.1953 77.2812 119.405 113.202 166.673c68.3994 90 162 133.2 273.6 136.8c50.4004 0 100.8 -82.7998 100.8 -144l86.4004 50.4004l90 46.7998c43.2002 18 86.4004 25.2002 133.2 25.2002
c163.062 0 255.2 -121.576 282.798 -281.873c39.373 64.1953 77.2812 119.405 113.202 166.673c68.3994 90 162 133.2 273.6 136.8c50.4004 0 100.8 -82.7998 100.8 -144l86.4004 50.4004l90 46.7998c43.2002 18 86.4004 25.2002 133.2 25.2002
c163.062 0 255.2 -121.576 282.798 -281.873c39.373 64.1953 77.2812 119.405 113.202 166.673c68.3994 90 162 133.2 273.6 136.8c50.4004 0 100.8 -82.7998 100.8 -144l86.4004 50.4004l90 46.7998c43.2002 18 86.4004 25.2002 133.2 25.2002
c194.399 0 288 -172.8 291.6 -378c0 -169.2 -39.5996 -244.8 -115.2 -338.4c-82.7998 -104.399 -198 -205.2 -363.6 -205.2zM3103.2 608.4c0 93.5996 -36 165.6 -129.601 165.6c-50.3994 0 -86.3994 -18 -104.399 -50.4004c-43.2002 -75.5996 -79.2002 -162 -104.4 -259.199
c-25.2002 -108 -36 -183.601 -36 -223.2c0 -86.4004 25.2002 -129.601 79.2002 -129.601c97.2002 0 147.6 39.6006 187.2 97.2002c72 118.8 79.2002 115.2 93.5996 259.2c7.2002 64.7998 10.7998 111.6 14.4004 140.4zM2023.2 608.4c0 93.5996 -36 165.6 -129.601 165.6
c-50.3994 0 -86.3994 -18 -104.399 -50.4004c-43.2002 -75.5996 -79.2002 -162 -104.4 -259.199c-25.2002 -108 -36 -183.601 -36 -223.2c0 -86.4004 25.2002 -129.601 79.2002 -129.601c97.2002 0 147.6 39.6006 187.2 97.2002c72 118.8 79.2002 115.2 93.5996 259.2
c7.2002 64.7998 10.7998 111.6 14.4004 140.4zM943.2 608.4c0 93.5996 -36 165.6 -129.601 165.6c-50.3994 0 -86.3994 -18 -104.399 -50.4004c-43.2002 -75.5996 -79.2002 -162 -104.4 -259.199c-25.2002 -108 -36 -183.601 -36 -223.2
c0 -86.4004 25.2002 -129.601 79.2002 -129.601c97.2002 0 147.6 39.6006 187.2 97.2002c72 118.8 79.2002 115.2 93.5996 259.2c7.2002 64.7998 10.7998 111.6 14.4004 140.4z" />
    <glyph glyph-name="uniE52A" unicode="&#xe52a;" horiz-adv-x="3287" 
d="M943.2 608.4c0 93.5996 -36 165.6 -129.601 165.6c-50.3994 0 -86.3994 -18 -104.399 -50.4004c-43.2002 -75.5996 -79.2002 -162 -104.4 -259.199c-25.2002 -108 -36 -183.601 -36 -223.2c0 -86.4004 25.2002 -129.601 79.2002 -129.601
c97.2002 0 147.6 39.6006 187.2 97.2002c72 118.8 79.2002 115.2 93.5996 259.2c7.2002 64.7998 10.7998 111.6 14.4004 140.4zM720 3.59961c-79.2002 0 -180 64.8008 -219.6 122.4l-201.601 -568.8l-10.7998 -14.4004c10.7998 -25.2002 25.2002 -36 43.2002 -39.5996h115.2
v-104.4h-622.801v104.4h75.6006c14.3994 0 32.3994 7.2002 50.3994 18c14.4004 14.3994 25.2002 32.3994 32.4004 50.3994l428.4 1191.6v21.5996l-10.8008 36l-21.5996 10.7998c-82.7998 0 -136.8 -90 -172.8 -154.8l-39.6006 -61.2002
c-28.7998 -54 -54 -111.6 -82.7998 -169.199h-82.7998c79.2002 154.8 154.8 273.6 223.2 363.6c68.3994 90 162 133.2 273.6 136.8c50.4004 0 100.8 -82.7998 100.8 -144l86.4004 50.4004l90 46.7998c43.2002 18 86.4004 25.2002 133.2 25.2002
c163.062 0 255.2 -121.576 282.798 -281.873c39.3691 64.1953 77.2812 119.405 113.202 166.673c68.3994 90 162 133.2 273.6 136.8c50.4004 0 100.8 -82.7998 100.8 -144l86.4004 50.4004l90 46.7998c43.2002 18 86.4004 25.2002 133.2 25.2002
c163.062 0 255.2 -121.576 282.798 -281.873c39.373 64.1953 77.2812 119.405 113.202 166.673c68.3994 90 162 133.2 273.6 136.8c50.4004 0 100.8 -82.7998 100.8 -144l86.4004 50.4004l90 46.7998c43.2002 18 86.4004 25.2002 133.2 25.2002
c194.399 0 288 -172.8 291.6 -378c0 -169.2 -39.5996 -244.8 -115.2 -338.4c-82.7998 -104.399 -198 -205.2 -363.6 -205.2c-79.2002 0 -180 64.8008 -219.6 122.4l-201.601 -568.8l-10.7998 -14.4004c10.7998 -25.2002 25.2002 -36 43.2002 -39.5996h115.2v-104.4h-622.801
v104.4h75.6006c14.3994 0 32.3994 7.2002 50.3994 18c14.4004 14.3994 25.2002 32.3994 32.4004 50.3994l428.4 1191.6v21.5996l-10.8008 36l-21.5996 10.7998c-82.7998 0 -136.8 -90 -172.8 -154.8l-39.6006 -61.2002
c-16.4443 -30.834 -31.7158 -62.8447 -47.1562 -95.3564c-4.08594 -150.57 -43.3799 -222.966 -114.844 -311.443c-82.7998 -104.399 -198 -205.2 -363.6 -205.2c-79.2002 0 -180 64.8008 -219.6 122.4l-201.601 -568.8l-10.7998 -14.4004
c10.7998 -25.2002 25.2002 -36 43.2002 -39.5996h115.2v-104.4h-622.801v104.4h75.6006c14.3994 0 32.3994 7.2002 50.3994 18c14.4004 14.3994 25.2002 32.3994 32.4004 50.3994l428.4 1191.6v21.5996l-10.8008 36l-21.5996 10.7998c-82.7998 0 -136.8 -90 -172.8 -154.8
l-39.6006 -61.2002c-16.4443 -30.834 -31.7158 -62.8447 -47.1562 -95.3564c-4.08594 -150.57 -43.3799 -222.966 -114.844 -311.443c-82.7998 -104.399 -198 -205.2 -363.6 -205.2zM3088.8 468c7.2002 64.7998 10.7998 111.6 14.4004 140.4
c0 93.5996 -36 165.6 -129.601 165.6c-50.3994 0 -86.3994 -18 -104.399 -50.4004c-43.2002 -75.5996 -79.2002 -162 -104.4 -259.199c-25.2002 -108 -36 -183.601 -36 -223.2c0 -86.4004 25.2002 -129.601 79.2002 -129.601c97.2002 0 147.6 39.6006 187.2 97.2002
c72 118.8 79.2002 115.2 93.5996 259.2zM2008.8 468c7.2002 64.7998 10.7998 111.6 14.4004 140.4c0 93.5996 -36 165.6 -129.601 165.6c-50.3994 0 -86.3994 -18 -104.399 -50.4004c-43.2002 -75.5996 -79.2002 -162 -104.4 -259.199
c-25.2002 -108 -36 -183.601 -36 -223.2c0 -86.4004 25.2002 -129.601 79.2002 -129.601c97.2002 0 147.6 39.6006 187.2 97.2002c72 118.8 79.2002 115.2 93.5996 259.2z" />
    <glyph glyph-name="uniE52B" unicode="&#xe52b;" horiz-adv-x="2233" 
d="M1789.2 723.6c-43.2002 -74.4004 -78.001 -160.801 -104.4 -259.199c-24.001 -108 -36 -182.401 -36 -223.2c0 -86.4004 26.3994 -129.601 79.2002 -129.601c45.6016 0 82.7998 8.39941 111.6 25.2002c28.8008 16.8018 54 40.7988 75.6006 72
c36 60.001 55.1982 93.6006 57.5996 100.8c16.8018 40.7988 28.7998 93.6006 36 158.4s11.999 111.6 14.4004 140.4c0 26.3984 -2.40137 47.998 -7.2002 64.7998c-4.79883 16.8008 -11.999 33.6025 -21.5996 50.3994c-19.1992 33.5996 -52.8018 50.4004 -100.801 50.4004
c-50.3994 0 -85.2012 -16.8008 -104.399 -50.4004zM709.2 723.6c-43.2002 -74.4004 -78.001 -160.801 -104.4 -259.199c-24.001 -108 -36 -182.401 -36 -223.2c0 -86.4004 26.3994 -129.601 79.2002 -129.601c45.6016 0 82.7998 8.39941 111.6 25.2002
c28.8008 16.8018 54 40.7988 75.6006 72c36 60.001 55.1982 93.6006 57.5996 100.8c16.8018 40.7988 28.7998 93.6006 36 158.4c7.2002 64.7998 11.999 111.6 14.4004 140.4c0 26.3984 -2.40137 47.998 -7.2002 64.7998c-4.79883 16.8008 -11.999 33.6025 -21.5996 50.3994
c-19.1992 33.5996 -52.8018 50.4004 -100.801 50.4004c-50.3994 0 -85.2012 -16.8008 -104.399 -50.4004zM82.7998 446.4h-82.7998c79.2002 153.601 153.602 274.799 223.2 363.6c69.5986 88.8008 160.801 134.398 273.6 136.8c21.6006 0 43.2002 -15.5986 64.7998 -46.7998
c24.002 -24.001 36 -56.4014 36 -97.2002l86.4004 50.4004l90 46.7998c43.2002 16.8008 87.5986 25.2002 133.2 25.2002c86.3994 0 155.999 -33.5986 208.8 -100.8c37.2998 -47.4697 62.0205 -107.515 74.1709 -180.134c38.9883 64.0908 76.665 119.333 113.029 165.733
c69.5986 88.8008 160.801 134.398 273.6 136.8c21.6006 0 43.2002 -15.5986 64.7998 -46.7998c24.002 -24.001 36 -56.4014 36 -97.2002l86.4004 50.4004l90 46.7998c43.2002 16.8008 87.5986 25.2002 133.2 25.2002c86.3994 0 155.999 -33.5986 208.8 -100.8
s80.3984 -159.6 82.7998 -277.2c0 -50.4004 -3.59961 -96.001 -10.7998 -136.8s-19.1992 -75.6006 -36 -104.4s-39.5996 -61.2002 -68.4004 -97.2002c-50.3994 -64.7998 -106.801 -115.2 -169.199 -151.2c-62.3994 -36 -127.199 -54 -194.4 -54
c-31.2012 0 -70.8008 11.999 -118.8 36c-19.1992 11.999 -37.1992 24.002 -54 36c-16.8018 11.999 -32.4004 28.8008 -46.7998 50.4004l-201.601 -568.8l-10.7998 -14.4004c9.60156 -24.001 24.001 -37.1982 43.2002 -39.5996h115.2v-104.4h-622.801v104.4h75.6006
c14.3994 0 31.2012 6.00098 50.3994 18c14.4004 14.3994 25.2002 31.2012 32.4004 50.3994l428.4 1191.6v21.5996l-10.8008 36l-21.5996 10.7998c-31.2012 0 -61.2002 -14.3994 -90 -43.1992c-28.7998 -28.8008 -56.4014 -65.999 -82.7998 -111.601l-39.6006 -61.2002
l-36 -72l-11.1484 -23.1582c-1.06641 -39.9062 -4.54688 -76.5898 -10.4512 -110.041c-7.2002 -40.7988 -19.1992 -75.6006 -36 -104.4s-39.5996 -61.2002 -68.4004 -97.2002c-50.3994 -64.7998 -106.801 -115.2 -169.199 -151.2c-62.3994 -36 -127.199 -54 -194.4 -54
c-31.2012 0 -70.8008 11.999 -118.8 36c-19.1992 11.999 -37.1992 24.002 -54 36c-16.8018 11.999 -32.4004 28.8008 -46.7998 50.4004l-201.601 -568.8l-10.7998 -14.4004c9.60156 -24.001 24.001 -37.1982 43.2002 -39.5996h115.2v-104.4h-622.801v104.4h75.6006
c14.3994 0 31.2012 6.00098 50.3994 18c14.4004 14.3994 25.2002 31.2012 32.4004 50.3994l428.4 1191.6v21.5996l-10.8008 36l-21.5996 10.7998c-31.2012 0 -61.2002 -14.3994 -90 -43.1992c-28.7998 -28.8008 -56.4014 -65.999 -82.7998 -111.601l-39.6006 -61.2002
l-36 -72z" />
    <glyph glyph-name="uniE52C" unicode="&#xe52c;" horiz-adv-x="2661" 
d="M2178 3.59961c-78.916 0 -181.253 64.8789 -219.6 122.4l-201.601 -568.8l-10.7998 -14.4004c9.60156 -24.001 24.001 -37.1982 43.2002 -39.5996h115.2v-104.4h-622.801v104.4h75.6006c14.3994 0 31.2012 6.00098 50.3994 18
c14.4004 14.3994 25.2002 31.2012 32.4004 50.3994l428.4 1191.6v21.5996l-10.8008 36l-21.5996 10.7998c-81.2451 0 -136.257 -91.6768 -172.8 -154.8l-39.6006 -61.2002l-36 -72c-45.4639 -106.938 -89.0713 -215.728 -133.199 -324
c-31.6406 -77.7822 -111.601 -162 -158.4 -208.8s-104.4 -72 -165.6 -75.5996c-64.8008 0 -122.4 18 -176.4 50.3994l-57.5996 54c-10.8008 25.2002 -18 43.2002 -18 61.2002c72 226.8 158.399 446.4 234 669.601c0 25.1992 -18 43.1992 -54 46.7998
c-57.6006 0 -111.601 -54 -158.4 -162l-230.4 -655.2h-255.6l277.2 770.4c0 32.3994 -21.6006 46.7998 -61.2002 46.7998c-32.4004 0 -61.2002 -14.4004 -79.2002 -39.6006c-18 -25.1992 -43.2002 -68.3994 -72 -122.399l-230.399 -655.2h-248.4l277.2 756v14.4004
c0 36 -18 43.1992 -43.2002 57.5996c-90 0 -187.2 -169.2 -237.6 -262.8c-18 -32.4004 -43.2002 -82.7998 -75.6006 -151.2h-79.2002c68.4004 140.4 144 273.6 230.4 385.2c75.5996 97.2002 169.2 144 284.4 144c75.5996 0 111.6 -68.4004 122.399 -147.601
c68.4004 61.2002 122.4 97.2002 162 115.2c39.6006 21.6006 86.4004 32.4004 140.4 32.4004c75.5996 0 115.2 -68.4004 126 -147.601c79.2002 61.2002 176.399 147.601 306 147.601c75.5996 0 154.8 -50.4004 154.8 -126v-25.2002l-226.8 -658.8
c0 -46.7998 14.3994 -72 43.2002 -75.6006c28.7998 0 61.1992 18 93.5996 54s54 57.6006 57.5996 61.2002c14.4004 25.2002 67.0215 114.012 72 126l97.2002 234c79.2002 153.602 106.802 188.399 176.4 277.2s160.801 134.398 273.6 136.8
c50.0615 0 100.8 -83.1777 100.8 -144l86.4004 50.4004l90 46.7998c43.2002 16.8008 87.5986 25.2002 133.2 25.2002c194.954 0 287.409 -172.768 291.6 -378c0 -167.688 -40.2227 -244.681 -115.2 -338.4c-81.0176 -104.168 -199.642 -205.2 -363.6 -205.2zM2401.2 608.4
c0 94.4023 -36.335 165.6 -129.601 165.6c-50.3994 0 -85.2012 -16.8008 -104.399 -50.4004c-43.2002 -74.4004 -78.001 -160.801 -104.4 -259.199c-24.001 -108 -36 -182.401 -36 -223.2c0 -86.4004 26.3994 -129.601 79.2002 -129.601
c96.4727 0 146.348 38.1875 187.2 97.2002c70.2861 117.147 77.6123 115.314 93.5996 259.2c7.2002 64.7998 11.999 111.6 14.4004 140.4z" />
    <glyph glyph-name="uniE52D" unicode="&#xe52d;" horiz-adv-x="2301" 
d="M1119.6 -248.4c76.9902 0 126 -111.317 126 -183.6c0 -72.4072 -45.3701 -114.53 -75.5996 -162c-16.79 -26.3984 -29.9883 -43.2002 -39.5996 -50.4004c-19.876 -26.5068 -4.81738 -35.877 32.3994 -39.5996c126.273 0 195.199 196.2 241.2 320.4
c24.001 64.7998 42.001 127.198 54 187.199c74.542 317.858 139.19 645.61 208.8 968.4h-208.8v136.8h252c48.3447 136.249 82.6455 232.78 144 327.601c74.3975 108 152.398 190.8 234 248.399c81.6016 57.6006 171.602 86.4004 270 86.4004
c101.944 0 164.142 -49.2266 183.6 -136.8l14.4004 -57.6006c0 -119.3 -3.61035 -129.625 -46.7998 -216c-11.2969 -25.416 -62.5791 -90.1943 -111.601 -97.2002c-16.8008 -2.40039 -37.1982 -2.40039 -61.1992 0c-45.3818 10.084 -59.6377 63.4033 -68.4004 111.601
c0 98.208 40.7695 159.178 104.4 201.6l50.3994 36c0 31.2012 -21.5996 50.4004 -64.7998 57.6006c-47.999 4.78809 -88.8008 -4.81348 -122.4 -28.8008c-33.5986 -24.001 -68.3994 -75.5996 -104.399 -154.8c-24.8906 -64.001 -93.2402 -301.964 -111.601 -370.8h277.2
v-144h-306c-68.4502 -391.698 -216.22 -916.41 -370.8 -1213.2c-85.165 -166.075 -231.487 -381.6 -421.2 -381.6c-160.621 0 -255.6 132.059 -255.6 298.8c0 114.56 55.1191 255.6 176.399 255.6zM1213.2 943.2c75.5996 0 154.8 -50.4004 154.8 -126v-25.2002
l-226.8 -658.8c0 -46.7998 14.3994 -72 43.2002 -75.6006c28.7998 0 61.1992 18 93.5996 54s54 57.6006 57.5996 61.2002c14.4004 25.2002 67.0791 113.987 72 126l50.4004 147.601h82.7998l-86.3994 -226.801c-29.8945 -78.4688 -111.601 -162 -158.4 -208.8
s-104.4 -72 -165.6 -75.5996c-64.8008 0 -122.4 18 -176.4 50.3994l-57.5996 54c-10.8008 25.2002 -18 43.2002 -18 61.2002c72 226.8 158.399 446.4 234 669.601c0 25.1992 -18 43.1992 -54 46.7998c-57.6006 0 -111.601 -54 -158.4 -162l-230.4 -655.2h-255.6l277.2 770.4
c0 32.3994 -21.6006 46.7998 -61.2002 46.7998c-32.4004 0 -61.2002 -14.4004 -79.2002 -39.6006c-18 -25.1992 -43.2002 -68.3994 -72 -122.399l-230.399 -655.2h-248.4l277.2 756v14.4004c0 36 -18 43.1992 -43.2002 57.5996c-90 0 -187.2 -169.2 -237.6 -262.8
c-18 -32.4004 -43.2002 -82.7998 -75.6006 -151.2h-79.2002c68.4004 140.4 144 273.6 230.4 385.2c75.5996 97.2002 169.2 144 284.4 144c75.5996 0 111.6 -68.4004 122.399 -147.601c68.4004 61.2002 122.4 97.2002 162 115.2
c39.6006 21.6006 86.4004 32.4004 140.4 32.4004c75.5996 0 115.2 -68.4004 126 -147.601c79.2002 61.2002 176.399 147.601 306 147.601z" />
    <glyph glyph-name="uniE52E" unicode="&#xe52e;" horiz-adv-x="2039" 
d="M860.4 -248.4c76.9893 0 126 -111.317 126 -183.6c0 -72.4072 -45.3711 -114.53 -75.6006 -162c-16.79 -26.3984 -29.9883 -43.2002 -39.5996 -50.4004c-19.876 -26.5029 -4.81738 -35.877 32.3994 -39.5996c126.274 0 195.199 196.2 241.2 320.4
c24.001 64.7998 42.001 127.198 54 187.199c74.542 317.858 139.19 645.61 208.8 968.4h-208.8v136.8h252c48.3447 136.249 82.6455 232.776 144 327.601c74.3975 108 152.399 190.8 234 248.399c81.6016 57.6006 171.602 86.4004 270 86.4004
c101.945 0 164.143 -49.2266 183.601 -136.8l14.3994 -57.6006c0 -119.3 -3.61035 -129.625 -46.7998 -216c-11.2969 -25.416 -62.5791 -90.1943 -111.6 -97.2002c-16.8018 -2.40039 -37.1992 -2.40039 -61.2002 0c-45.3818 10.084 -59.6377 63.4033 -68.4004 111.601
c0 98.208 40.7705 159.178 104.4 201.6l50.3994 36c0 31.2012 -21.5996 50.4004 -64.7998 57.6006c-47.999 4.78809 -88.8008 -4.81348 -122.399 -28.8008c-33.5996 -24.001 -68.4004 -75.5996 -104.4 -154.8c-24.8906 -64.001 -93.2402 -301.964 -111.6 -370.8h277.199
v-144h-306c-68.4502 -391.698 -216.219 -916.41 -370.8 -1213.2c-85.165 -166.075 -231.487 -381.6 -421.2 -381.6c-160.621 0 -255.6 132.059 -255.6 298.8c0 114.56 55.1191 255.6 176.4 255.6zM720 3.59961c-78.916 0 -181.253 64.8789 -219.6 122.4l-201.601 -568.8
l-10.7998 -14.4004c9.60156 -24.001 24.001 -37.1982 43.2002 -39.5996h115.2v-104.4h-622.801v104.4h75.6006c14.3994 0 31.2012 6.00098 50.3994 18c14.4004 14.3994 25.2002 31.2012 32.4004 50.3994l428.4 1191.6v21.5996l-10.8008 36l-21.5996 10.7998
c-81.2471 0 -136.258 -91.6768 -172.8 -154.8l-39.6006 -61.2002c-28.2773 -55.7236 -55.5918 -112.406 -82.7998 -169.199h-82.7998c79.2002 153.601 153.602 274.799 223.2 363.6c69.5986 88.8008 160.801 134.398 273.6 136.8c50.0615 0 100.8 -83.1777 100.8 -144
l86.4004 50.4004l90 46.7998c43.2002 16.8008 87.5986 25.2002 133.2 25.2002c194.954 0 287.409 -172.771 291.6 -378c0 -167.688 -40.2227 -244.681 -115.2 -338.4c-81.0176 -104.168 -199.642 -205.2 -363.6 -205.2zM943.2 608.4
c0 94.4023 -36.3311 165.6 -129.601 165.6c-50.3994 0 -85.2012 -16.8008 -104.399 -50.4004c-43.2002 -74.4004 -78.001 -160.801 -104.4 -259.199c-24.001 -108 -36 -182.401 -36 -223.2c0 -86.4004 26.3994 -129.601 79.2002 -129.601
c96.4766 0 146.348 38.1875 187.2 97.2002c70.2861 117.148 77.6123 115.313 93.5996 259.2c7.2002 64.7998 11.999 111.6 14.4004 140.4z" />
    <glyph glyph-name="uniE52F" unicode="&#xe52f;" horiz-adv-x="1733" 
d="M1998 1353.6c0 -137.4 -68.3096 -245.678 -180 -273.6c-64.7998 0 -100.8 38.4014 -108 115.2c0 104.367 64.292 184.921 133.2 223.2c11.999 9.60059 18 16.8008 18 21.5996l-21.6006 32.4004c-16.8008 11.998 -37.1982 18 -61.1992 18
c-134.399 0 -240.002 -187.2 -316.801 -561.601h270v-136.8h-298.8c-52.4951 -335.152 -210.928 -899.027 -331.2 -1144.8c-55.1982 -112.799 -115.199 -208.8 -180 -288c-57.5996 -76.7988 -133.199 -128.397 -226.8 -154.8l-68.3994 -7.2002
c-155.794 0 -237.601 145.415 -237.601 313.2c0 139.876 66.1357 190.456 158.4 241.199c86.2344 0 136.8 -90.4551 136.8 -176.399c0 -52.8018 -38.4014 -130.799 -115.2 -234c0 -16.8018 10.7998 -25.2002 32.4004 -25.2002c122.399 0 220.799 166.799 295.2 500.4
c26.3838 104.415 48.5098 213.091 72 320.399c47.1348 218.066 94.1465 436.252 140.399 655.2h-579.6c-51.0049 -340.027 -200.562 -869.139 -338.4 -1144.8c-117.601 -259.2 -249.599 -406.8 -396 -442.8l-64.7998 -7.2002c-76.792 0 -135.591 31.2012 -176.4 93.5996
c-19.1982 21.6006 -37.1982 55.1992 -54 100.8c-5.61914 44.9316 -9.85645 68.8574 -14.3994 118.801c9.17285 77.9795 10.04 118.339 46.7998 165.6c24.001 31.2012 63.6016 56.4014 118.8 75.5996c82.5615 0 128.863 -95.1045 133.2 -176.399
c0 -41.001 -7.33398 -61.4668 -18 -82.7998l-50.4004 -82.8008l-54 -68.3994c0 -16.8018 11.999 -25.2002 36 -25.2002c97.4043 0 156.891 104.979 194.4 180l50.4004 129.6l54 190.801c51.1709 227.229 99.7617 457.038 147.6 687.6l61.2002 288h-205.2v136.8h252
c71.625 240.47 184.291 435.928 370.8 572.4c88.8018 60.001 188.399 90 298.8 90c118.116 0 176.4 -115.081 176.4 -237.601c0 -135.276 -65.5166 -254.718 -183.6 -273.6c-60.002 0 -93.6006 38.4014 -100.801 115.2c0 40.8057 11.999 85.2051 36 133.2
c24.002 40.8057 56.4014 70.8047 97.2002 90c11.999 9.60059 18 16.8008 18 21.5996c-24.7998 34.7256 -38.2861 50.4004 -90 50.4004c-79.2002 0 -144 -56.4014 -194.399 -169.2c-50.4004 -112.799 -90 -241.2 -118.801 -385.2h590.4
c80.8125 299.02 313.593 655.2 669.6 655.2c128.614 0 168.923 -110.542 176.4 -237.601z" />
    <glyph glyph-name="uniE530" unicode="&#xe530;" horiz-adv-x="2487" 
d="M1306.8 -248.4c82.7998 0 126 -82.7998 129.601 -169.199c0 -28.8008 -14.4004 -82.8008 -32.4004 -111.601l-36 -54c-25.2002 -36 -28.7998 -43.2002 -46.7998 -75.5996c0 -18 10.7998 -25.2002 36 -25.2002c68.3994 0 126 50.4004 172.8 151.2
c46.7998 115.2 82.7998 216 118.8 349.2c50.4004 223.199 97.2002 442.8 147.601 666l64.7998 309.6h-504c-50.4004 -320.4 -216 -921.6 -334.8 -1144.8c-54 -111.601 -108 -205.2 -169.2 -284.4c-61.2002 -79.2002 -136.8 -133.2 -234 -158.399l-64.7998 -7.2002
c-158.4 0 -241.2 144 -241.2 313.2c0 140.399 64.7998 190.8 162 241.199c21.5996 0 39.5996 -3.59961 50.3994 -14.3994c53.4463 -21.3789 82.8008 -90.1846 82.8008 -162c0 -54 -39.6006 -129.601 -115.2 -234c0 -18 10.7998 -25.2002 32.3994 -25.2002
c122.4 0 219.601 165.6 295.2 500.4c77.127 319.521 143.18 650.786 212.4 975.6h-507.601c-46.7998 -306 -223.199 -918 -334.8 -1144.8c-118.8 -259.2 -252 -406.8 -396 -442.8l-68.3994 -7.2002c-126 0 -183.601 86.3994 -226.801 194.399l-18 118.801
c18 140.399 46.8008 198 165.601 241.199c82.7998 0 136.8 -93.5996 136.8 -176.399c0 -28.7998 -7.2002 -57.6006 -21.5996 -82.7998l-50.4004 -82.8008l-50.4004 -68.3994c0 -18 10.8008 -25.2002 36 -25.2002c39.6006 0 75.6006 18 108 54
c64.8008 54 93.6006 165.6 133.2 255.6l54 190.801c61.2002 277.199 122.4 558 180 838.8c10.7998 46.7998 21.6006 93.5996 32.4004 136.8h-205.2v136.8h248.4c32.3994 118.8 82.7998 223.2 144 320.4c61.1992 100.8 136.8 183.6 226.8 252c90 61.2002 190.8 90 298.8 90
c118.8 0 176.4 -108 176.4 -237.601c0 -136.8 -68.4004 -252 -180 -273.6c-61.2002 0 -97.2002 39.5996 -104.4 115.2c0 97.2002 61.2002 190.8 133.2 223.2c10.7998 0 18 7.19922 18 21.5996l-21.6006 32.4004c-18 10.7998 -39.5996 18 -64.7998 18
c-82.7998 0 -147.6 -57.6006 -198 -172.801c-50.3994 -115.199 -90 -241.199 -115.2 -381.6h518.4c82.7998 302.4 306 655.2 666 655.2c129.6 0 169.2 -111.601 176.4 -237.601c0 -64.7998 -14.4004 -126 -46.8008 -183.6c-28.7998 -43.2002 -72 -72 -133.199 -90
c-64.8008 0 -100.801 39.5996 -108 115.2c0 104.399 64.7998 183.6 133.199 223.2c10.8008 0 18 7.19922 18 21.5996c-14.3994 36 -39.5996 50.4004 -82.7998 50.4004c-133.2 0 -241.2 -187.2 -316.8 -561.601h518.4c54 176.4 140.399 334.8 259.199 475.2
c111.601 129.6 248.4 194.4 410.4 194.4c122.4 0 176.4 -129.601 176.4 -252c0 -133.2 -68.4004 -244.801 -183.601 -266.4c-57.5996 0 -90 39.5996 -97.2002 115.2c0 93.5996 64.8008 187.2 126 223.2c14.4004 0 21.6006 7.19922 21.6006 21.5996
c-18 32.4004 -39.6006 50.4004 -86.4004 50.4004c-133.2 0 -241.2 -187.2 -316.8 -561.601h273.6v-136.8h-306c-25.1992 -158.4 -54 -302.4 -93.5996 -435.6c-64.7998 -270 -140.4 -507.601 -237.6 -709.2c-54 -100.8 -111.601 -198 -180 -284.4
c-57.6006 -75.5996 -129.601 -129.6 -219.601 -158.399l-64.7998 -7.2002c-126 0 -190.8 82.7998 -223.2 194.399c-14.3994 36 -21.5996 75.6006 -21.5996 118.801c14.3994 133.199 54 205.199 165.6 241.199z" />
    <glyph glyph-name="uniE531" unicode="&#xe531;" horiz-adv-x="3326" 
d="M475.2 -248.4c89.1465 0 133.2 -87.7461 133.2 -176.399c0 -54 -39.6006 -129.601 -115.2 -234c0 -18 10.7998 -25.2002 32.3994 -25.2002c122.4 0 219.601 165.6 295.2 500.4c77.127 319.521 143.18 650.786 212.4 975.6h-507.601
c-46.7998 -306 -223.199 -918 -334.8 -1144.8c-118.8 -259.2 -252 -406.8 -396 -442.8l-68.3994 -7.2002c-126 0 -183.601 86.3994 -226.801 194.399l-18 118.801c18 140.399 46.8008 198 165.601 241.199c82.7998 0 136.8 -93.5996 136.8 -176.399
c0 -28.7998 -7.2002 -57.6006 -21.5996 -82.7998l-50.4004 -82.8008l-50.4004 -68.3994c0 -18 10.8008 -25.2002 36 -25.2002c39.6006 0 75.6006 18 108 54c64.8008 54 93.6006 165.6 133.2 255.6l54 190.801c61.2002 277.199 122.4 558 180 838.8
c10.7998 46.7998 21.6006 93.5996 32.4004 136.8h-205.2v136.8h248.4c64.4307 236.247 198.598 441.525 370.8 572.4c90 61.2002 190.8 90 298.8 90c118.8 0 176.4 -108 176.4 -237.601c0 -136.8 -68.4004 -252 -180 -273.6c-61.2002 0 -97.2002 39.5996 -104.4 115.2
c0 97.2002 61.2002 190.8 133.2 223.2c10.7998 0 18 7.19922 18 21.5996l-21.6006 32.4004c-18 10.7998 -39.5996 18 -64.7998 18c-82.7998 0 -147.6 -57.6006 -198 -172.801c-50.3994 -115.199 -90 -241.199 -115.2 -381.6h518.4c82.7998 302.4 306 655.2 666 655.2
c129.6 0 169.2 -111.601 176.4 -237.601c0 -64.7998 -14.4004 -126 -46.8008 -183.6c-28.7998 -43.2002 -72 -72 -133.199 -90c-64.8008 0 -100.801 39.5996 -108 115.2c0 104.399 64.7998 183.6 133.199 223.2c10.8008 0 18 7.19922 18 21.5996
c-14.3994 36 -39.5996 50.4004 -82.7998 50.4004c-133.2 0 -241.2 -187.2 -316.8 -561.601h518.4c54 176.4 140.399 334.8 259.199 475.2c111.601 129.6 248.4 194.4 410.4 194.4c122.4 0 176.4 -129.601 176.4 -252c0 -133.2 -68.4004 -244.801 -183.601 -266.4
c-57.5996 0 -90 39.5996 -97.2002 115.2c0 93.5996 64.8008 187.2 126 223.2c14.4004 0 21.6006 7.19922 21.6006 21.5996c-18 32.4004 -39.6006 50.4004 -86.4004 50.4004c-133.2 0 -241.2 -187.2 -316.8 -561.601h525.6c48.3447 136.249 82.6455 232.78 144 327.601
c74.3984 108 152.399 190.8 234 248.399c81.6016 57.6006 171.602 86.4004 270 86.4004c101.945 0 164.16 -49.2266 183.601 -136.8l14.3994 -57.6006c0 -119.3 -3.59961 -129.625 -46.7998 -216c-11.2969 -25.416 -62.5781 -90.1943 -111.6 -97.2002
c-94.3525 -13.4854 -116.244 38.1348 -129.601 111.601c0 98.208 40.7705 159.178 104.4 201.6l50.4004 36c0 81.1943 -140.415 62.2012 -187.2 28.7998c-33.5986 -24.001 -68.4004 -75.5996 -104.4 -154.8c-24.8906 -64.001 -93.2402 -301.964 -111.6 -370.8h277.2v-144
h-306c-68.4512 -391.698 -216.22 -916.411 -370.801 -1213.2c-85.165 -166.075 -231.486 -381.6 -421.199 -381.6c-160.622 0 -255.601 132.059 -255.601 298.8c0 114.56 55.1162 255.6 176.4 255.6c76.9893 0 126 -111.318 126 -183.6
c0 -72.4072 -45.3672 -114.526 -75.6006 -162c-24.8398 -39.0566 -86.9004 -82.0293 -7.19922 -90c126.27 0 195.195 196.2 241.199 320.4c24.002 64.7998 42.002 127.198 54 187.199c74.542 317.858 139.19 645.61 208.801 968.4h-514.801
c-25.1992 -158.4 -54 -302.4 -93.5996 -435.6c-64.7998 -270 -140.4 -507.601 -237.6 -709.2c-54 -100.8 -111.601 -198 -180 -284.4c-57.6006 -75.5996 -129.601 -129.6 -219.601 -158.399l-64.7998 -7.2002c-126 0 -190.8 82.7998 -223.2 194.399
c-14.3994 36 -21.5996 75.6006 -21.5996 118.801c14.3994 133.199 54 205.199 165.6 241.199c82.7998 0 126 -82.7998 129.601 -169.199c0 -28.8008 -14.4004 -82.8008 -32.4004 -111.601l-36 -54c-25.2002 -36 -28.7998 -43.2002 -46.7998 -75.5996
c0 -18 10.7998 -25.2002 36 -25.2002c68.3994 0 126 50.4004 172.8 151.2c46.7998 115.2 82.7998 216 118.8 349.2c50.4004 223.199 97.2002 442.8 147.601 666l64.7998 309.6h-504c-50.4004 -320.4 -216 -921.6 -334.8 -1144.8c-54 -111.601 -108 -205.2 -169.2 -284.4
c-61.2002 -79.2002 -136.8 -133.2 -234 -158.399l-64.7998 -7.2002c-158.4 0 -241.2 144 -241.2 313.2c0 140.399 64.7998 190.8 162 241.199z" />
    <glyph glyph-name="uniE532" unicode="&#xe532;" horiz-adv-x="4169" 
d="M2815.2 -504c0 -166.727 94.9824 -298.8 255.6 -298.8c189.407 0 336.269 215.981 421.2 381.6c154.152 295.938 302.508 822.438 370.8 1213.2h306v144h-277.2c18.3242 68.623 86.832 307.148 111.601 370.8c36 79.2002 70.8115 130.799 104.399 154.8
c33.5889 23.9873 74.4121 33.5889 122.4 28.8008c43.2002 -7.2002 64.7998 -26.3994 64.7998 -57.6006c-25.2002 -18 -25.2002 -18 -50.3994 -36c-63.6846 -42.4512 -104.4 -103.331 -104.4 -201.6c13.3203 -73.4297 34.9561 -125.118 129.6 -111.601
c48.9961 6.99902 100.332 71.8564 111.601 97.2002c43.1641 86.3535 46.7998 96.6641 46.7998 216l-14.4004 57.6006c-10.7275 48.4561 -62.7119 113.303 -100.8 126c-21.5996 7.19922 -49.2119 10.7998 -82.7998 10.7998c-98.3877 0 -188.388 -28.7998 -270 -86.4004
c-123.624 -87.2383 -242.1 -232.239 -313.2 -406.8c-16.8115 -38.4014 -38.4121 -94.7988 -64.7998 -169.2h-532.8c18.3594 68.8359 86.709 313.999 111.6 378c36 79.2002 70.8018 130.799 104.4 154.8c46.9043 33.4873 187.2 52.4346 187.2 -28.7998l-50.4004 -36
c-63.6299 -42.4219 -104.4 -103.392 -104.4 -201.6c13.3457 -73.3936 34.9424 -125.129 129.601 -111.601c49.0215 7.00586 100.303 71.7842 111.6 97.2002c43.2002 86.375 46.7998 96.7002 46.7998 216l-14.3994 57.6006c-19.4404 87.5732 -81.6553 136.8 -183.601 136.8
c-98.3984 0 -188.398 -28.7998 -270 -86.4004c-81.6006 -57.5996 -159.602 -140.399 -234 -248.399c-61.3545 -94.8203 -95.6553 -191.352 -144 -327.601h-525.6c75.5996 374.4 183.6 561.601 316.8 561.601c46.7998 0 68.4004 -18 86.4004 -50.4004
c0 -14.4004 -7.2002 -21.5996 -21.6006 -21.5996c-61.1992 -36 -126 -129.601 -126 -223.2c7.2002 -75.6006 39.6006 -115.2 97.2002 -115.2c115.2 21.5996 183.601 133.2 183.601 266.4c0 122.399 -54 252 -176.4 252c-162 0 -298.8 -64.8008 -410.4 -194.4
c-118.8 -140.4 -205.199 -298.8 -259.199 -475.2h-518.4c75.5996 374.4 183.6 561.601 316.8 561.601c43.2002 0 68.4004 -14.4004 82.7998 -50.4004c0 -14.4004 -7.19922 -21.5996 -18 -21.5996c-68.3994 -39.6006 -133.199 -118.801 -133.199 -223.2
c7.19922 -75.6006 43.1992 -115.2 108 -115.2c61.1992 18 104.399 46.7998 133.199 90c32.4004 57.5996 46.8008 118.8 46.8008 183.6c-7.2002 126 -46.8008 237.601 -176.4 237.601c-360 0 -583.2 -352.8 -666 -655.2h-518.4c25.2002 140.4 64.8008 266.4 115.2 381.6
c50.4004 115.2 115.2 172.801 198 172.801c25.2002 0 46.7998 -7.2002 64.7998 -18l21.6006 -32.4004c0 -14.4004 -7.2002 -21.5996 -18 -21.5996c-72 -32.4004 -133.2 -126 -133.2 -223.2c7.2002 -75.6006 43.2002 -115.2 104.4 -115.2c111.6 21.5996 180 136.8 180 273.6
c0 129.601 -57.6006 237.601 -176.4 237.601c-108 0 -208.8 -28.7998 -298.8 -90c-172.249 -130.91 -306.373 -336.168 -370.8 -572.4h-248.4v-136.8h205.2c-10.7998 -43.2002 -21.6006 -90 -32.4004 -136.8c-57.5996 -280.8 -118.8 -561.601 -180 -838.8l-54 -190.801
c-39.5996 -90 -68.3994 -201.6 -133.2 -255.6c-32.3994 -36 -68.3994 -54 -108 -54c-25.1992 0 -36 7.2002 -36 25.2002l50.4004 68.3994l50.4004 82.8008c14.3994 25.1992 21.5996 54 21.5996 82.7998c0 82.7998 -54 176.399 -136.8 176.399
c-118.8 -43.1992 -147.601 -100.8 -165.601 -241.199l18 -118.801c43.2002 -108 100.801 -194.399 226.801 -194.399l68.3994 7.2002c144 36 277.2 183.6 396 442.8c111.601 226.8 288 838.8 334.8 1144.8h507.601c-69.2207 -324.813 -135.273 -656.079 -212.4 -975.6
c-75.5996 -334.801 -172.8 -500.4 -295.2 -500.4c-21.5996 0 -32.3994 7.2002 -32.3994 25.2002c75.5996 104.399 115.2 180 115.2 234c0 71.8174 -29.3545 140.621 -82.8008 162c-10.7998 10.7998 -28.7998 14.3994 -50.3994 14.3994
c-97.2002 -50.3994 -162 -100.8 -162 -241.199c0 -169.2 82.7998 -313.2 241.2 -313.2l64.7998 7.2002c97.2002 25.1992 172.8 79.1992 234 158.399c61.2002 79.2002 115.2 172.8 169.2 284.4c118.8 223.2 284.399 824.399 334.8 1144.8h504l-64.7998 -309.6
c-50.4004 -223.2 -97.2002 -442.801 -147.601 -666c-36 -133.2 -72 -234 -118.8 -349.2c-46.7998 -100.8 -104.4 -151.2 -172.8 -151.2c-25.2002 0 -36 7.2002 -36 25.2002c18 32.3994 21.5996 39.5996 46.7998 75.5996l36 54c18 28.7998 32.4004 82.7998 32.4004 111.601
c-3.60059 86.3994 -46.8008 169.199 -129.601 169.199c-111.6 -36 -151.2 -108 -165.6 -241.199c0 -43.2002 7.2002 -82.8008 21.5996 -118.801c32.4004 -111.6 97.2002 -194.399 223.2 -194.399l64.7998 7.2002c199.065 63.7012 306.188 268.43 399.601 442.8
c97.1992 201.6 172.8 439.2 237.6 709.2c39.5996 133.199 68.4004 277.199 93.5996 435.6h514.801c-69.6104 -322.79 -134.259 -650.542 -208.801 -968.4c-11.998 -60.001 -29.998 -122.399 -54 -187.199c-46.0039 -124.2 -114.93 -320.4 -241.199 -320.4
c-79.7119 7.97363 -17.5537 51.0801 7.19922 90c30.2334 47.4736 75.6006 89.5928 75.6006 162c0 72.2812 -49.0107 183.6 -126 183.6c-121.284 0 -176.4 -141.04 -176.4 -255.6c0 -166.741 94.9785 -298.8 255.601 -298.8c189.713 0 336.034 215.524 421.199 381.6
c154.581 296.789 302.35 821.502 370.801 1213.2h518.399l-158.399 -748.8l-50.4004 -219.601c-23.6885 -118.445 -80.0244 -263.455 -126 -360c-45.6016 -98.3984 -101.999 -147.6 -169.2 -147.6c-79.7178 7.97363 -17.5566 51.0732 7.2002 90
c30.2549 47.5059 75.5996 89.5605 75.5996 162c0 72.2852 -49.0244 183.6 -126 183.6c-121.244 0 -176.399 -141.059 -176.399 -255.6z" />
    <glyph glyph-name="uniE533" unicode="&#xe533;" horiz-adv-x="5009" 
d="M-338.4 -248.4c76.9893 0 126 -111.317 126 -183.6c0 -72.4072 -45.3691 -114.53 -75.5996 -162c-16.791 -26.3984 -29.9883 -43.2002 -39.5996 -50.4004c-19.876 -26.5029 -4.81543 -35.877 32.3994 -39.5996c126.272 0 195.197 196.2 241.2 320.4
c24.001 64.7998 42.001 127.198 54 187.199c74.542 317.858 139.189 645.61 208.8 968.4h-208.8v136.8h252c48.3438 136.249 82.6445 232.776 144 327.601c74.3975 108 152.398 190.8 234 248.399c81.6016 57.6006 171.602 86.4004 270 86.4004
c101.944 0 164.142 -49.2266 183.6 -136.8l14.4004 -57.6006c0 -119.3 -3.61035 -129.625 -46.7998 -216c-11.2969 -25.416 -62.5791 -90.1943 -111.601 -97.2002c-91.9434 -13.1396 -115.888 36.1729 -129.6 111.601c0 98.2041 40.7734 159.181 104.4 201.6l50.3994 36
c0 81.1914 -140.414 62.2012 -187.2 28.7998c-108.115 -77.2305 -173.102 -371.951 -216 -532.8l279 -1.7998l-16.1992 -135h-291.601c-68.4502 -391.698 -216.219 -916.41 -370.8 -1213.2c-85.165 -166.075 -231.488 -381.6 -421.2 -381.6
c-160.621 0 -255.6 132.059 -255.6 298.8c0 114.56 55.1191 255.6 176.399 255.6zM3650.4 -504c0 -166.727 94.9678 -298.8 255.6 -298.8c189.396 0 336.276 215.981 421.2 381.6c154.151 295.938 302.508 822.438 370.8 1213.2h306v144h-277.2
c18.3242 68.623 86.832 307.148 111.601 370.8c36 79.2002 70.8115 130.799 104.399 154.8c46.9082 33.4951 187.2 52.4268 187.2 -28.7998l-50.4004 -36c-63.6836 -42.4512 -104.399 -103.331 -104.399 -201.6c13.3193 -73.4297 34.9561 -125.118 129.6 -111.601
c48.9961 7.00195 100.332 71.8564 111.601 97.2002c43.1641 86.3535 46.7998 96.6641 46.7998 216l-14.4004 57.6006c-10.7275 48.4561 -62.7119 113.303 -100.8 126c-21.5996 7.19922 -49.2119 10.7998 -82.7998 10.7998c-98.3887 0 -188.389 -28.7998 -270 -86.4004
c-123.624 -87.2383 -242.101 -232.239 -313.2 -406.8c-16.8115 -38.4014 -38.4121 -94.7988 -64.7998 -169.2h-532.8c18.3594 68.8359 86.7236 313.999 111.6 378c36 79.2002 70.8115 130.799 104.4 154.8c46.9072 33.4873 187.199 52.4346 187.199 -28.7998l-50.3994 -36
c-63.6123 -42.4219 -104.4 -103.392 -104.4 -201.6c13.3564 -73.3936 34.9561 -125.129 129.601 -111.601c49.0312 7.00586 100.296 71.7842 111.6 97.2002c43.2002 86.375 46.7998 96.7002 46.7998 216l-14.3994 57.6006c-19.4404 87.5732 -81.6484 136.8 -183.601 136.8
c-98.3877 0 -188.388 -28.7998 -270 -86.4004c-81.6113 -57.5996 -159.588 -140.399 -234 -248.399c-61.3438 -94.8203 -95.6514 -191.352 -144 -327.601h-525.6c75.5996 374.4 183.6 561.601 316.8 561.601c46.7998 0 68.4004 -18 86.4004 -50.4004
c0 -14.4004 -7.2002 -21.5996 -21.6006 -21.5996c-61.2002 -36 -126 -129.601 -126 -223.2c7.2002 -75.6006 39.6006 -115.2 97.2002 -115.2c115.2 21.5996 183.6 133.2 183.6 266.4c0 122.399 -54 252 -176.399 252c-162 0 -298.8 -64.8008 -410.4 -194.4
c-118.8 -140.4 -205.2 -298.8 -259.2 -475.2h-518.399c75.5996 374.4 183.6 561.601 316.8 561.601c43.2002 0 68.4004 -14.4004 82.7998 -50.4004c0 -14.4004 -7.2002 -21.5996 -18 -21.5996c-68.3994 -39.6006 -133.2 -118.801 -133.2 -223.2
c7.2002 -75.6006 43.2002 -115.2 108 -115.2c61.2002 18 104.4 46.7998 133.2 90c32.4004 57.5996 46.7998 118.8 46.7998 183.6c-7.19922 126 -46.7998 237.601 -176.399 237.601c-360 0 -583.2 -352.8 -666 -655.2h-518.4c25.2002 140.4 64.7998 266.4 115.2 381.6
c50.4004 115.2 115.2 172.801 198 172.801c25.2002 0 46.7998 -7.2002 64.7998 -18l21.6006 -32.4004c0 -14.4004 -7.2002 -21.5996 -18 -21.5996c-72 -32.4004 -133.2 -126 -133.2 -223.2c7.2002 -75.6006 43.2002 -115.2 104.399 -115.2
c111.601 21.5996 180 136.8 180 273.6c0 129.601 -57.5996 237.601 -176.399 237.601c-108 0 -208.8 -28.7998 -298.8 -90c-90 -68.4004 -165.601 -151.2 -226.801 -252c-61.1992 -97.2002 -93.5996 -201.601 -126 -320.4h-288l9 -135l217.801 -1.7998
c-10.8008 -43.2002 -21.6006 -90 -32.4004 -136.8c-57.5996 -280.8 -118.8 -561.601 -180 -838.8l-54 -190.801c-39.5996 -90 -68.4004 -201.6 -133.2 -255.6c-32.3994 -36 -68.3994 -54 -108 -54c-25.2002 0 -36 7.2002 -36 25.2002l50.4004 68.3994l50.3994 82.8008
c14.4004 25.1992 21.6006 54 21.6006 82.7998c0 82.7998 -54 176.399 -136.8 176.399c-118.801 -43.1992 -147.601 -100.8 -165.601 -241.199l18 -118.801c43.2002 -108 100.8 -194.399 226.8 -194.399l68.4004 7.2002c144 36 277.2 183.6 396 442.8
c111.6 226.8 288 838.8 334.8 1144.8h507.601c-69.2207 -324.813 -135.274 -656.079 -212.4 -975.6c-75.5996 -334.801 -172.8 -500.4 -295.2 -500.4c-21.5996 0 -32.3994 7.2002 -32.3994 25.2002c75.5996 104.399 115.199 180 115.199 234
c0 71.8174 -29.3545 140.621 -82.7998 162c-10.7998 10.7998 -28.7998 14.3994 -50.3994 14.3994c-97.2002 -50.3994 -162 -100.8 -162 -241.199c0 -169.2 82.7998 -313.2 241.199 -313.2l64.8008 7.2002c97.1992 25.1992 172.8 79.1992 234 158.399
c61.1992 79.2002 115.199 172.8 169.199 284.4c118.801 223.2 284.4 824.399 334.801 1144.8h504l-64.8008 -309.6c-50.3994 -223.2 -97.1992 -442.801 -147.6 -666c-36 -133.2 -72 -234 -118.8 -349.2c-46.7998 -100.8 -104.4 -151.2 -172.8 -151.2
c-25.2002 0 -36 7.2002 -36 25.2002c18 32.3994 21.5996 39.5996 46.7998 75.5996l36 54c18 28.7998 32.3994 82.7998 32.3994 111.601c-3.59961 86.3994 -46.7998 169.199 -129.6 169.199c-111.6 -36 -151.2 -108 -165.6 -241.199
c0 -43.2002 7.19922 -82.8008 21.5996 -118.801c32.4004 -111.6 97.2002 -194.399 223.2 -194.399l64.7998 7.2002c199.065 63.7012 306.188 268.43 399.6 442.8c97.2002 201.6 172.801 439.2 237.601 709.2c39.5996 133.199 68.3994 277.199 93.5996 435.6h514.8
c-69.6094 -322.79 -134.258 -650.542 -208.8 -968.4c-11.999 -60.001 -29.999 -122.399 -54 -187.199c-46.0039 -124.2 -114.93 -320.4 -241.2 -320.4c-79.7109 7.97363 -17.5527 51.0801 7.2002 90c30.2334 47.4736 75.6006 89.5928 75.6006 162
c0 72.2812 -49.0107 183.6 -126 183.6c-121.284 0 -176.4 -141.04 -176.4 -255.6c0 -166.741 94.9785 -298.8 255.6 -298.8c189.713 0 336.035 215.524 421.2 381.6c154.584 296.789 302.364 821.502 370.8 1213.2h518.4l-158.4 -748.8l-50.3994 -219.601
c-23.6885 -118.445 -80.0283 -263.455 -126 -360c-45.6123 -98.3984 -101.988 -147.6 -169.2 -147.6c-79.7041 7.97363 -17.5684 51.0732 7.2002 90c30.2402 47.5059 75.5996 89.5605 75.5996 162c0 72.2852 -49.0322 183.6 -126 183.6
c-121.248 0 -176.399 -141.059 -176.399 -255.6z" />
    <glyph glyph-name="uniE534" unicode="&#xe534;" horiz-adv-x="2032" 
d="M1555.2 3.59961c-78.916 0 -181.253 64.8789 -219.601 122.4l-201.6 -568.8l-10.7998 -14.4004c9.60059 -24.001 24.001 -37.1982 43.2002 -39.5996h115.199v-104.4h-622.8v104.4h75.6006c14.3994 0 31.2012 6.00098 50.3994 18
c14.4004 14.3994 25.2002 31.2012 32.4004 50.3994l428.399 1191.6v21.5996l-10.7998 36l-21.5996 10.7998c-81.2451 0 -136.257 -91.6768 -172.8 -154.8l-39.6006 -61.2002c-28.2773 -55.7236 -55.5908 -112.406 -82.7998 -169.199h-82.7998
c79.2002 153.601 153.601 274.799 223.2 363.6c69.5986 88.8008 160.801 134.398 273.6 136.8c50.0615 0 100.8 -83.1777 100.8 -144l86.4004 50.4004l90 46.7998c43.2002 16.8008 87.5986 25.2002 133.2 25.2002c194.954 0 287.409 -172.768 291.6 -378
c0 -167.688 -40.2227 -244.681 -115.2 -338.4c-81.0176 -104.168 -199.642 -205.2 -363.6 -205.2zM1778.4 608.4c0 94.4023 -36.332 165.6 -129.601 165.6c-50.3994 0 -85.2012 -16.8008 -104.399 -50.4004c-43.2002 -74.4004 -78.002 -160.801 -104.4 -259.199
c-24.001 -108 -36 -182.401 -36 -223.2c0 -86.4004 26.3984 -129.601 79.2002 -129.601c96.4727 0 146.347 38.1875 187.2 97.2002c70.2861 117.147 77.6123 115.314 93.5996 259.2c7.2002 64.7998 11.999 111.6 14.4004 140.4zM-338.4 -248.4
c76.9893 0 126 -111.317 126 -183.6c0 -72.4072 -45.3691 -114.53 -75.5996 -162c-16.791 -26.3984 -29.9883 -43.2002 -39.5996 -50.4004c-19.876 -26.5029 -4.81543 -35.877 32.3994 -39.5996c126.272 0 195.197 196.2 241.2 320.4
c24.001 64.7998 42.001 127.198 54 187.199c74.542 317.858 139.189 645.61 208.8 968.4h-208.8v136.8h252c48.3438 136.249 82.6445 232.776 144 327.601c74.3975 108 152.398 190.8 234 248.399c81.6016 57.6006 171.602 86.4004 270 86.4004
c101.944 0 164.142 -49.2266 183.6 -136.8l14.4004 -57.6006c0 -119.3 -3.61035 -129.625 -46.7998 -216c-11.2969 -25.416 -62.5791 -90.1943 -111.601 -97.2002c-16.8008 -2.40039 -37.1982 -2.40039 -61.1992 0c-45.3857 10.084 -59.6377 63.4033 -68.4004 111.601
c0 98.2041 40.7734 159.181 104.4 201.6c25.1992 18 25.1992 18 50.3994 36c0 31.2012 -21.5996 50.4004 -64.7998 57.6006c-47.999 4.78809 -88.8008 -4.81348 -122.4 -28.8008c-33.5986 -24.001 -68.3994 -75.5996 -104.399 -154.8
c-24.8906 -64.0039 -93.2402 -301.961 -111.601 -370.8h277.2v-144h-306c-68.4502 -391.698 -216.219 -916.41 -370.8 -1213.2c-85.165 -166.075 -231.488 -381.6 -421.2 -381.6c-160.621 0 -255.6 132.059 -255.6 298.8c0 114.56 55.1191 255.6 176.399 255.6z" />
    <glyph glyph-name="uniE535" unicode="&#xe535;" horiz-adv-x="1774" 
d="M1458 414c75.5996 0 122.4 -82.7998 122.4 -172.8c0 -82.7998 -28.8008 -151.2 -86.4004 -208.8c-54 -61.2002 -140.4 -90 -262.8 -90c-43.2002 0 -75.6006 3.59961 -97.2002 14.3994l-43.2002 21.6006l-61.2002 36c-54 25.1992 -86.3994 36 -104.399 36
c-32.4004 0 -68.4004 -18 -108 -50.4004h-111.601v57.5996l752.4 637.2l-230.4 -3.59961c-82.7998 -10.7998 -115.199 -54 -158.399 -108h-86.4004l108 313.2h680.4v-115.2l-759.601 -586.8c46.8008 21.5996 93.6006 32.3994 140.4 32.3994
c50.4004 0 190.8 -64.7998 226.8 -72c32.4004 3.60059 50.4004 28.7998 50.4004 68.4004c-46.7998 0 -72 28.7998 -79.2002 82.7998c0 61.2002 46.7998 108 108 108zM-338.4 -248.4c76.9893 0 126 -111.317 126 -183.6c0 -72.4072 -45.3691 -114.53 -75.5996 -162
c-16.791 -26.3984 -29.9883 -43.2002 -39.5996 -50.4004c-19.876 -26.5029 -4.81543 -35.877 32.3994 -39.5996c126.272 0 195.197 196.2 241.2 320.4c24.001 64.7998 42.001 127.198 54 187.199c74.542 317.858 139.189 645.61 208.8 968.4h-208.8v136.8h252
c48.3438 136.249 82.6445 232.776 144 327.601c74.3975 108 152.398 190.8 234 248.399c81.6016 57.6006 171.602 86.4004 270 86.4004c101.944 0 164.142 -49.2266 183.6 -136.8l14.4004 -57.6006c0 -119.3 -3.61035 -129.625 -46.7998 -216
c-11.2969 -25.416 -62.5791 -90.1943 -111.601 -97.2002c-16.8008 -2.40039 -37.1982 -2.40039 -61.1992 0c-45.3857 10.084 -59.6377 63.4033 -68.4004 111.601c0 98.2041 40.7734 159.181 104.4 201.6c25.1992 18 25.1992 18 50.3994 36
c0 31.2012 -21.5996 50.4004 -64.7998 57.6006c-47.999 4.78809 -88.8008 -4.81348 -122.4 -28.8008c-33.5986 -24.001 -68.3994 -75.5996 -104.399 -154.8c-24.8906 -64.0039 -93.2402 -301.961 -111.601 -370.8h277.2v-144h-306
c-68.4502 -391.698 -216.219 -916.41 -370.8 -1213.2c-85.165 -166.075 -231.488 -381.6 -421.2 -381.6c-160.621 0 -255.6 132.059 -255.6 298.8c0 114.56 55.1191 255.6 176.399 255.6z" />
    <glyph glyph-name="uniE536" unicode="&#xe536;" horiz-adv-x="1540" 
d="M360 -248.4c76.9893 0 126 -111.317 126 -183.6c0 -72.4072 -45.3711 -114.53 -75.5996 -162c-16.791 -26.3984 -29.9883 -43.2002 -39.6006 -50.4004c-19.876 -26.5029 -4.81641 -35.877 32.4004 -39.5996c126.273 0 195.199 196.2 241.2 320.4
c24.001 64.7998 42.001 127.198 54 187.199c74.541 317.858 139.19 645.61 208.8 968.4h-208.8v136.8h252c48.3438 136.249 82.6445 232.776 144 327.601c74.3975 108 152.398 190.8 234 248.399c81.6006 57.6006 171.601 86.4004 270 86.4004
c101.944 0 164.142 -49.2266 183.6 -136.8l14.4004 -57.6006c0 -119.3 -3.61133 -129.625 -46.8008 -216c-11.2969 -25.416 -62.5781 -90.1943 -111.6 -97.2002c-91.9443 -13.1396 -115.888 36.1729 -129.6 111.601c0 98.208 40.7695 159.178 104.399 201.6l50.4004 36
c0 81.1914 -140.415 62.2012 -187.2 28.7998c-105.498 -75.3623 -174.049 -368.298 -216 -525.6h277.2v-144h-306c-68.4502 -391.698 -216.22 -916.41 -370.8 -1213.2c-85.166 -166.075 -231.487 -381.6 -421.2 -381.6c-160.62 0 -255.601 132.059 -255.601 298.8
c0 114.56 55.1182 255.6 176.4 255.6zM291.6 118.8c75.6006 0 136.801 54 144 122.4c0 65.9053 -43.5596 106.452 -97.1992 144c-79.2002 46.7998 -136.801 93.5996 -169.2 136.8c-32.4004 43.2002 -50.4004 93.5996 -54 154.8c0 180 144 295.2 313.2 295.2l100.8 -10.7998
c32.3994 -10.7998 61.2002 -25.2002 86.3994 -46.7998c54 -32.4004 82.8008 -86.4004 82.8008 -154.801l-3.60059 -36l-21.5996 -36c-10.7998 -18 -28.7998 -32.3994 -61.2002 -36c-61.2002 0 -93.5996 28.8008 -104.4 86.4004l14.4004 68.4004
c0 36 -50.4004 57.5996 -86.4004 64.7998c-68.3994 10.7998 -115.199 -57.6006 -126 -129.601c0 -25.1992 14.4004 -54 39.6006 -79.1992c32.3994 -25.2002 64.7998 -50.4004 93.5996 -75.6006c100.8 -82.7998 154.8 -133.2 158.4 -144
c28.7998 -36 43.2002 -82.7998 43.2002 -140.399v-36c0 -75.6006 -36 -140.4 -104.4 -194.4c-57.5996 -36 -136.8 -64.7998 -219.6 -72c-169.2 0 -320.4 93.5996 -320.4 241.2l3.59961 54l18 46.7998l36 32.4004l46.8008 14.3994c57.5996 0 86.3994 -36 86.3994 -111.6
c0 -46.7998 -18 -57.6006 -28.7998 -100.8c0 -28.8008 39.5996 -57.6006 82.7998 -57.6006h46.7998z" />
    </font>
</defs>
</svg>
