<svg xmlns="http://www.w3.org/2000/svg" xmlns:xlink="http://www.w3.org/1999/xlink" version="1.1" viewBox="64 0 10 8" width="9" height="7">
<g transform="translate(0,286) scale(1,-1) scale(.01800) translate(2100,27250)" stroke-linejoin="round" color="black" stroke="currentColor" fill="none" stroke-width="26.7067" fill-rule="evenodd">
<path d=" M1718 -11406 L1668 -11412 L1618 -11425 L1587 -11437 L1556 -11456 L1537 -11475 L1518 -11500 L1506 -11525 L1500 -11556 L1500 -11593 L1506 -11625 L1518 -11650 L1537 -11675 L1556 -11693 L1587 -11712 L1618 -11725 L1668 -11737 L1718 -11743 L1762 -11743 L1812 -11737 L1862 -11725 L1893 -11712 L1925 -11693 L1943 -11675 L1962 -11650 L1975 -11625 L1981 -11593 L1981 -11556 L1975 -11525 L1962 -11500 L1943 -11475 L1925 -11456 L1893 -11437 L1862 -11425 L1812 -11412 L1762 -11406 L1718 -11406 M1712 -11412 L1675 -11418 L1656 -11425 L1637 -11437 L1625 -11450 L1612 -11468 L1606 -11493 L1606 -11518 L1612 -11556 L1625 -11606 L1637 -11643 L1656 -11687 L1668 -11706 L1681 -11718 L1706 -11731 L1737 -11737 L1768 -11737 L1806 -11731 L1825 -11725 L1843 -11712 L1856 -11700 L1868 -11681 L1875 -11656 L1875 -11631 L1868 -11593 L1856 -11543 L1843 -11506 L1825 -11462 L1812 -11443 L1800 -11431 L1775 -11418 L1743 -11412 L1712 -11412 Z" fill="currentColor"/>
</g>
</svg>