<svg xmlns="http://www.w3.org/2000/svg" xmlns:xlink="http://www.w3.org/1999/xlink" version="1.1" viewBox="64 0 9 27" width="6" height="18">
<g transform="translate(0,305) scale(1,-1) scale(.01800) translate(2100,27250)" stroke-linejoin="round" color="black" stroke="currentColor" fill="none" stroke-width="26.7067" fill-rule="evenodd">
<path d=" M1531 -11706 L1556 -11725 L1568 -11731 L1587 -11737 L1625 -11743 L1662 -11743 L1700 -11737 L1737 -11725 L1756 -11718 L1806 -11693 L1850 -11662 L1868 -11643 L1875 -11637 L1900 -11606 L1918 -11568 L1925 -11531 L1925 -11506 L1918 -11481 L1912 -11468 L1893 -11443 L1868 -11425 L1856 -11418 L1837 -11412 L1800 -11406 L1762 -11406 L1725 -11412 L1687 -11425 L1668 -11431 L1618 -11456 L1575 -11487 L1550 -11512 L1525 -11543 L1506 -11581 L1500 -11618 L1500 -11643 L1506 -11668 L1512 -11681 L1531 -11706 M1543 -11706 L1562 -11718 L1587 -11725 L1600 -11725 L1631 -11712 L1868 -11568 L1893 -11550 L1906 -11537 L1912 -11518 L1912 -11500 L1906 -11481 L1900 -11468 L1881 -11443 L1862 -11431 L1837 -11425 L1825 -11425 L1793 -11437 L1556 -11581 L1531 -11600 L1518 -11612 L1512 -11631 L1512 -11650 L1518 -11668 L1525 -11681 L1543 -11706 Z" fill="currentColor"/>
<path d=" M1925 -11522 L1925 -10350 "/>
</g>
</svg>