<svg xmlns="http://www.w3.org/2000/svg" xmlns:xlink="http://www.w3.org/1999/xlink" version="1.1" viewBox="64 0 16 27" width="10" height="18">
<g transform="translate(0,305) scale(1,-1) scale(.01800) translate(2100,27250)" stroke-linejoin="round" color="black" stroke="currentColor" fill="none" stroke-width="26.7067" fill-rule="evenodd">
<path d=" M1618 -11743 L1662 -11743 L1700 -11737 L1756 -11718 L1806 -11693 L1850 -11662 L1868 -11643 L1900 -11606 L1918 -11568 L1925 -11531 L1925 -11506 L1918 -11481 L1912 -11468 L1893 -11443 L1868 -11425 L1856 -11418 L1837 -11412 L1806 -11406 L1762 -11406 L1725 -11412 L1687 -11425 L1668 -11431 L1618 -11456 L1575 -11487 L1556 -11506 L1525 -11543 L1506 -11581 L1500 -11618 L1500 -11643 L1506 -11668 L1512 -11681 L1531 -11706 L1556 -11725 L1568 -11731 L1587 -11737 L1618 -11743 Z" fill="currentColor"/>
<path d=" M1925 -11522 L1925 -10350 "/>
<path stroke-width="20.0300" d=" M2293 -11300 L2300 -11262 L2306 -11175 L2306 -11143 L2300 -11075 L2293 -11037 L2275 -10975 L2256 -10931 L2237 -10893 L2212 -10856 L2181 -10818 L2150 -10787 L2112 -10756 L2056 -10718 L1993 -10687 L1925 -10662 L1925 -10325 L1943 -10400 L1950 -10418 L1962 -10450 L1987 -10500 L2006 -10531 L2025 -10556 L2056 -10593 L2125 -10668 L2150 -10693 L2193 -10743 L2218 -10775 L2243 -10812 L2268 -10856 L2287 -10900 L2300 -10937 L2312 -10987 L2318 -11025 L2325 -11100 L2325 -11168 L2318 -11237 L2312 -11281 L2306 -11312 L2300 -11337 L2293 -11300 Z" fill="currentColor"/>
<path stroke-width="20.0300" d=" M2312 -11281 L2306 -11312 L2300 -11337 L2287 -11381 L2262 -11450 L2275 -11406 L2281 -11375 L2287 -11343 L2293 -11300 L2300 -11262 L2312 -11281 Z" fill="currentColor"/>
</g>
</svg>