<svg xmlns="http://www.w3.org/2000/svg" xmlns:xlink="http://www.w3.org/1999/xlink" version="1.1" viewBox="64 0 16 32" width="9" height="18">
<g transform="translate(0,310) scale(1,-1) scale(.01800) translate(2100,27250)" stroke-linejoin="round" color="black" stroke="currentColor" fill="none" stroke-width="26.7067" fill-rule="evenodd">
<path d=" M1618 -11743 L1662 -11743 L1700 -11737 L1756 -11718 L1806 -11693 L1850 -11662 L1868 -11643 L1900 -11606 L1918 -11568 L1925 -11531 L1925 -11506 L1918 -11481 L1912 -11468 L1893 -11443 L1868 -11425 L1856 -11418 L1837 -11412 L1806 -11406 L1762 -11406 L1725 -11412 L1687 -11425 L1668 -11431 L1618 -11456 L1575 -11487 L1556 -11506 L1525 -11543 L1506 -11581 L1500 -11618 L1500 -11643 L1506 -11668 L1512 -11681 L1531 -11706 L1556 -11725 L1568 -11731 L1587 -11737 L1618 -11743 Z" fill="currentColor"/>
<path d=" M1925 -11522 L1925 -10087 "/>
<path stroke-width="20.0300" d=" M2293 -11387 L2300 -11350 L2306 -11262 L2306 -11231 L2300 -11162 L2293 -11125 L2275 -11062 L2256 -11018 L2237 -10981 L2212 -10943 L2181 -10906 L2150 -10875 L2112 -10843 L2056 -10806 L1993 -10775 L1925 -10750 L1925 -10412 L1943 -10487 L1950 -10506 L1962 -10537 L1987 -10587 L2006 -10618 L2025 -10643 L2056 -10681 L2125 -10756 L2150 -10781 L2193 -10831 L2218 -10862 L2243 -10900 L2268 -10943 L2287 -10987 L2300 -11025 L2312 -11075 L2318 -11112 L2325 -11187 L2325 -11256 L2318 -11325 L2312 -11368 L2306 -11400 L2300 -11425 L2293 -11387 Z" fill="currentColor"/>
<path stroke-width="20.0300" d=" M2312 -11368 L2306 -11400 L2300 -11425 L2287 -11468 L2262 -11537 L2275 -11493 L2281 -11462 L2287 -11431 L2293 -11387 L2300 -11350 L2312 -11368 Z" fill="currentColor"/>
<path stroke-width="20.0300" d=" M2293 -11037 L2300 -11000 L2306 -10912 L2306 -10881 L2300 -10812 L2293 -10775 L2275 -10712 L2256 -10668 L2237 -10631 L2212 -10593 L2181 -10556 L2150 -10525 L2112 -10493 L2056 -10456 L1993 -10425 L1925 -10400 L1925 -10062 L1943 -10137 L1950 -10156 L1962 -10187 L1987 -10237 L2006 -10268 L2025 -10293 L2056 -10331 L2125 -10406 L2150 -10431 L2193 -10481 L2218 -10512 L2243 -10550 L2268 -10593 L2287 -10637 L2300 -10675 L2312 -10725 L2318 -10762 L2325 -10837 L2325 -10906 L2318 -10975 L2312 -11018 L2306 -11050 L2300 -11075 L2293 -11037 Z" fill="currentColor"/>
</g>
</svg>