<svg xmlns="http://www.w3.org/2000/svg" xmlns:xlink="http://www.w3.org/1999/xlink" version="1.1" viewBox="64 0 16 41" width="7" height="18">
<g transform="translate(0,318) scale(1,-1) scale(.01800) translate(2100,27250)" stroke-linejoin="round" color="black" stroke="currentColor" fill="none" stroke-width="26.7067" fill-rule="evenodd">
<path d=" M1618 -11743 L1662 -11743 L1700 -11737 L1756 -11718 L1806 -11693 L1850 -11662 L1868 -11643 L1900 -11606 L1918 -11568 L1925 -11531 L1925 -11506 L1918 -11481 L1912 -11468 L1893 -11443 L1868 -11425 L1856 -11418 L1837 -11412 L1806 -11406 L1762 -11406 L1725 -11412 L1687 -11425 L1668 -11431 L1618 -11456 L1575 -11487 L1556 -11506 L1525 -11543 L1506 -11581 L1500 -11618 L1500 -11643 L1506 -11668 L1512 -11681 L1531 -11706 L1556 -11725 L1568 -11731 L1587 -11737 L1618 -11743 Z" fill="currentColor"/>
<path d=" M1925 -11522 L1925 -9650 "/>
<path stroke-width="20.0300" d=" M2293 -11650 L2300 -11612 L2306 -11525 L2306 -11493 L2300 -11425 L2293 -11387 L2275 -11325 L2256 -11281 L2237 -11243 L2212 -11206 L2181 -11168 L2150 -11137 L2112 -11106 L2056 -11068 L1993 -11037 L1925 -11012 L1925 -10675 L1943 -10750 L1950 -10768 L1962 -10800 L1987 -10850 L2006 -10881 L2025 -10906 L2056 -10943 L2125 -11018 L2150 -11043 L2193 -11093 L2218 -11125 L2243 -11162 L2268 -11206 L2287 -11250 L2300 -11287 L2312 -11337 L2318 -11375 L2325 -11450 L2325 -11518 L2318 -11587 L2312 -11631 L2306 -11662 L2300 -11687 L2293 -11650 Z" fill="currentColor"/>
<path stroke-width="20.0300" d=" M2312 -11631 L2306 -11662 L2300 -11687 L2287 -11731 L2262 -11800 L2275 -11756 L2281 -11725 L2287 -11693 L2293 -11650 L2300 -11612 L2312 -11631 Z" fill="currentColor"/>
<path stroke-width="20.0300" d=" M2293 -11300 L2300 -11262 L2306 -11175 L2306 -11143 L2300 -11075 L2293 -11037 L2275 -10975 L2256 -10931 L2237 -10893 L2212 -10856 L2181 -10818 L2150 -10787 L2112 -10756 L2056 -10718 L1993 -10687 L1925 -10662 L1925 -10325 L1943 -10400 L1950 -10418 L1962 -10450 L1987 -10500 L2006 -10531 L2025 -10556 L2056 -10593 L2125 -10668 L2150 -10693 L2193 -10743 L2218 -10775 L2243 -10812 L2268 -10856 L2287 -10900 L2300 -10937 L2312 -10987 L2318 -11025 L2325 -11100 L2325 -11168 L2318 -11237 L2312 -11281 L2306 -11312 L2300 -11337 L2293 -11300 Z" fill="currentColor"/>
<path stroke-width="20.0300" d=" M2293 -10950 L2300 -10912 L2306 -10825 L2306 -10793 L2300 -10725 L2293 -10687 L2275 -10625 L2256 -10581 L2237 -10543 L2212 -10506 L2181 -10468 L2150 -10437 L2112 -10406 L2056 -10368 L1993 -10337 L1925 -10312 L1925 -9975 L1943 -10050 L1950 -10068 L1962 -10100 L1987 -10150 L2006 -10181 L2025 -10206 L2056 -10243 L2125 -10318 L2150 -10343 L2193 -10393 L2218 -10425 L2243 -10462 L2268 -10506 L2287 -10550 L2300 -10587 L2312 -10637 L2318 -10675 L2325 -10750 L2325 -10818 L2318 -10887 L2312 -10931 L2306 -10962 L2300 -10987 L2293 -10950 Z" fill="currentColor"/>
<path stroke-width="20.0300" d=" M2293 -10600 L2300 -10562 L2306 -10475 L2306 -10443 L2300 -10375 L2293 -10337 L2275 -10275 L2256 -10231 L2237 -10193 L2212 -10156 L2181 -10118 L2150 -10087 L2112 -10056 L2056 -10018 L1993 -9987 L1925 -9962 L1925 -9625 L1943 -9700 L1950 -9718 L1962 -9750 L1987 -9800 L2006 -9831 L2025 -9856 L2056 -9893 L2125 -9968 L2150 -9993 L2193 -10043 L2218 -10075 L2243 -10112 L2268 -10156 L2287 -10200 L2300 -10237 L2312 -10287 L2318 -10325 L2325 -10400 L2325 -10468 L2318 -10537 L2312 -10581 L2306 -10612 L2300 -10637 L2293 -10600 Z" fill="currentColor"/>
</g>
</svg>