<svg xmlns="http://www.w3.org/2000/svg" xmlns:xlink="http://www.w3.org/1999/xlink" version="1.1" viewBox="64 0 7 20" width="6" height="17">
<g transform="translate(0,82) scale(1,-1) scale(.01800) translate(2100,27250)" stroke-linejoin="round" color="black" stroke="currentColor" fill="none" stroke-width="26.7067" fill-rule="evenodd">
<path d=" M1525 -22756 L1756 -23068 M1500 -23193 L1787 -23550 "/>
<path d=" M1643 -22918 L1643 -22962 L1500 -23181 L1500 -23193 L1612 -23331 L1612 -23300 L1756 -23081 L1756 -23068 L1643 -22918 Z" fill="currentColor"/>
<path d=" M1787 -23550 L1731 -23512 L1693 -23500 L1656 -23500 L1625 -23512 L1600 -23537 L1587 -23562 L1581 -23581 L1581 -23612 L1593 -23650 L1643 -23743 L1537 -23606 L1512 -23568 L1500 -23531 L1500 -23506 L1506 -23481 L1518 -23456 L1537 -23437 L1568 -23418 L1593 -23412 L1625 -23412 L1650 -23418 L1675 -23431 L1712 -23462 L1787 -23550 Z" fill="currentColor"/>
</g>
</svg>