<?xml version="1.0" encoding="utf-8"?>
<!-- Generator: Adobe Illustrator 15.0.0, SVG Export Plug-In . SVG Version: 6.00 Build 0)  -->
<!DOCTYPE svg PUBLIC "-//W3C//DTD SVG 1.1//EN" "http://www.w3.org/Graphics/SVG/1.1/DTD/svg11.dtd">
<svg version="1.1" xmlns="http://www.w3.org/2000/svg" xmlns:xlink="http://www.w3.org/1999/xlink" x="0px" y="0px"
	 width="1079.638px" height="406px" viewBox="0 0 1079.638 406" enable-background="new 0 0 1079.638 406" xml:space="preserve">
<g id="Calque_1" display="none">
	
		<image display="inline" overflow="visible" width="1024" height="409" xlink:href="overview_20161009/overview_hybrid2.jpg"  transform="matrix(1 0 0 1 2.75 3.5928)">
	</image>
</g>
<g id="Calque_3">
	<linearGradient id="SVGID_1_" gradientUnits="userSpaceOnUse" x1="296.6802" y1="404.8203" x2="296.6801" y2="0.6958">
		<stop  offset="0" style="stop-color:#F2F3F7"/>
		<stop  offset="1" style="stop-color:#E0E2EA"/>
	</linearGradient>
	<rect x="1.055" y="0.695" fill="url(#SVGID_1_)" stroke="#000000" stroke-miterlimit="10" width="591.25" height="404.125"/>
</g>
<g id="Calque_2">
	<g>
		
			<ellipse fill="none" stroke="#000000" stroke-width="2.8347" stroke-miterlimit="10" stroke-dasharray="5.681,5.681" cx="293.901" cy="208.093" rx="95.951" ry="116.907"/>
	</g>
	<rect x="28" y="141.186" fill="#FFFFFF" stroke="#000000" stroke-miterlimit="10" width="101.5" height="131"/>
	<rect x="464" y="163.741" fill="#FFFFFF" stroke="#000000" stroke-miterlimit="10" width="101.5" height="89"/>
	<g>
		<g>
			<line fill="none" stroke="#000000" stroke-miterlimit="10" x1="142" y1="208.093" x2="180.965" y2="208.093"/>
			<g>
				<path d="M187,208.093c-2.84,1.054-6.363,2.852-8.547,4.756l1.72-4.756l-1.72-4.755C180.637,205.242,184.16,207.04,187,208.093z"
					/>
			</g>
		</g>
	</g>
	<g>
		<g>
			<line fill="none" stroke="#000000" stroke-miterlimit="10" x1="407" y1="208.093" x2="445.965" y2="208.093"/>
			<g>
				<path d="M452,208.093c-2.84,1.054-6.363,2.852-8.547,4.756l1.721-4.756l-1.721-4.755C445.637,205.242,449.16,207.04,452,208.093
					z"/>
			</g>
		</g>
	</g>
	<g>
		<g>
			<line fill="none" stroke="#000000" stroke-miterlimit="10" x1="341.513" y1="104.518" x2="367.072" y2="78.304"/>
			<g>
				<path d="M371.285,73.982c-1.228,2.769-2.4,6.547-2.562,9.44l-2.205-4.552l-4.605-2.087
					C364.801,76.549,368.548,75.281,371.285,73.982z"/>
			</g>
		</g>
	</g>
	<g>
		<g>
			<line fill="none" stroke="#000000" stroke-miterlimit="10" x1="383.17" y1="84.465" x2="357.612" y2="110.679"/>
			<g>
				<path d="M353.399,115c1.229-2.769,2.4-6.547,2.562-9.44l2.204,4.552l4.605,2.088C359.882,112.434,356.135,113.701,353.399,115z"
					/>
			</g>
		</g>
	</g>
	
		<rect x="354.063" y="54.088" transform="matrix(0.7071 -0.7071 0.7071 0.7071 55.3451 290.6148)" fill="#FFFFFF" stroke="#000000" stroke-miterlimit="10" width="48.825" height="48.825"/>
	<g>
		<circle fill="#AA2028" cx="293.901" cy="153.686" r="51"/>
		<text transform="matrix(1 0 0 1 269.353 146.3379)"><tspan x="0" y="0" fill="#FFFFFF" font-family="'SourceSansPro-Bold'" font-size="14">Python</tspan><tspan x="1.197" y="20" fill="#FFFFFF" font-family="'SourceSansPro-Bold'" font-size="14">toolkit</tspan></text>
	</g>
	<g>
		<circle fill="#AA2028" cx="293.901" cy="263.241" r="51"/>
		<text transform="matrix(1 0 0 1 259.7559 245.8936)"><tspan x="0" y="0" fill="#FFFFFF" font-family="'SourceSansPro-Bold'" font-size="14">Command</tspan><tspan x="19.586" y="20" fill="#FFFFFF" font-family="'SourceSansPro-Bold'" font-size="14">Line</tspan><tspan x="2.808" y="40" fill="#FFFFFF" font-family="'SourceSansPro-Bold'" font-size="14">Interface</tspan></text>
	</g>
	<text transform="matrix(1 0 0 1 501.7598 212.2412)" fill="#454545" font-family="'SourceSansPro-Semibold'" font-size="14">mei</text>
	<text transform="matrix(1 0 0 1 720.6738 136.6992)" font-family="'Helvetica-Bold'" font-size="14">html</text>
	<text transform="matrix(1 0 0 1 64.2163 180.6992)"><tspan x="0" y="0" fill="#454545" font-family="'SourceSansPro-Semibold'" font-size="14">mei /</tspan><tspan x="-20.188" y="20" fill="#454545" font-family="'SourceSansPro-Semibold'" font-size="14">humdrum /</tspan><tspan x="-16.275" y="40" fill="#454545" font-family="'SourceSansPro-Semibold'" font-size="14">plain and </tspan><tspan x="1.785" y="60" fill="#454545" font-family="'SourceSansPro-Semibold'" font-size="14">easy</tspan></text>
	<text transform="matrix(1 0 0 1 365.6177 83.5)" fill="#454545" font-family="'SourceSansPro-Semibold'" font-size="14">xslt</text>
	
		<text transform="matrix(1 0 0 1 19.7573 27.6387)" fill="#666766" font-family="'SourceSansPro-Regular'" font-size="20" letter-spacing="1">server side</text>
	<linearGradient id="SVGID_2_" gradientUnits="userSpaceOnUse" x1="844.9297" y1="404.6953" x2="844.9297" y2="4.882812e-04">
		<stop  offset="0" style="stop-color:#F2F3F7"/>
		<stop  offset="1" style="stop-color:#E0E2EA"/>
	</linearGradient>
	<rect x="611.221" fill="url(#SVGID_2_)" stroke="#000000" stroke-miterlimit="10" width="467.417" height="404.695"/>
	<rect x="703.313" y="115.073" fill="#FFFFFF" stroke="#000000" stroke-miterlimit="10" width="159" height="180"/>
	<g>
		<g>
			<line fill="none" stroke="#000000" stroke-miterlimit="10" x1="845.84" y1="172.44" x2="838.745" y2="189.035"/>
			<g>
				<path d="M836.372,194.584c0.148-3.025-0.12-6.972-1.012-9.729l3.696,3.452l5.048,0.288
					C841.495,189.854,838.457,192.387,836.372,194.584z"/>
			</g>
		</g>
	</g>
	<g>
		<g>
			<line fill="none" stroke="#000000" stroke-miterlimit="10" x1="959.706" y1="200.727" x2="915.108" y2="156.302"/>
			<g>
				<path d="M910.833,152.043c2.756,1.258,6.521,2.471,9.412,2.663l-4.575,2.156l-2.137,4.583
					C913.329,158.553,912.102,154.793,910.833,152.043z"/>
			</g>
		</g>
	</g>
	<g>
		<g>
			<line fill="none" stroke="#000000" stroke-miterlimit="10" x1="814.947" y1="154.979" x2="780.388" y2="190.105"/>
			<g>
				<path d="M776.155,194.407c1.24-2.763,2.43-6.536,2.604-9.428l2.184,4.562l4.596,2.108
					C782.649,191.871,778.897,193.121,776.155,194.407z"/>
			</g>
		</g>
	</g>
	<g>
		<circle fill="#D99A36" cx="862.313" cy="115.56" r="51"/>
		<text transform="matrix(1 0 0 1 826.3477 108.2124)"><tspan x="0" y="0" fill="#FFFFFF" font-family="'SourceSansPro-Bold'" font-size="14">Javascript</tspan><tspan x="18.571" y="20" fill="#FFFFFF" font-family="'SourceSansPro-Bold'" font-size="14">/ CSS</tspan></text>
	</g>
	
		<text transform="matrix(1 0 0 1 627.9727 27.6387)" fill="#666766" font-family="'SourceSansPro-Regular'" font-size="20" letter-spacing="1">client side</text>
	<g>
		<rect x="711.006" y="200.374" fill="#FFFFFF" stroke="#000000" stroke-miterlimit="10" width="86.614" height="86.773"/>
		<text transform="matrix(1 0 0 1 743.1406 246.4131)" fill="#454545" font-family="'SourceSansPro-Semibold'" font-size="14">svg</text>
	</g>
	<rect x="803.8" y="200.374" fill="#FFFFFF" stroke="#000000" stroke-miterlimit="10" width="50.75" height="86.773"/>
	<text transform="matrix(1 0 0 1 813.9033 246.4131)" fill="#454545" font-family="'SourceSansPro-Semibold'" font-size="14">midi</text>
	<text transform="matrix(1 0 0 1 767.5322 133.4736)" fill="#454545" font-family="'SourceSansPro-Semibold'" font-size="14">html</text>
	<polygon fill="#7888A2" points="945.72,226.846 969.054,296.179 1041.72,296.179 1063.054,226.846 1004.386,183.512 	"/>
	<text transform="matrix(1 0 0 1 989.2471 250.4219)" fill="#FFFFFF" font-family="'SourceSansPro-Semibold'" font-size="14">user</text>
	<g>
		<g>
			<line fill="none" stroke="#000000" stroke-miterlimit="10" x1="575.409" y1="207.993" x2="642.646" y2="144.483"/>
			<g>
				<path d="M647.033,140.339c-1.341,2.716-2.668,6.442-2.948,9.327l-2.015-4.639l-4.516-2.275
					C640.45,142.636,644.246,141.523,647.033,140.339z"/>
			</g>
		</g>
	</g>
	<g>
		<g>
			<line fill="none" stroke="#000000" stroke-miterlimit="10" x1="731.776" y1="170.875" x2="746.546" y2="187.328"/>
			<g>
				<path d="M750.578,191.818c-2.681-1.409-6.373-2.83-9.249-3.183l4.688-1.897l2.389-4.457
					C748.448,185.179,749.464,189.002,750.578,191.818z"/>
			</g>
		</g>
	</g>
	<g>
		<g>
			<line fill="none" stroke="#000000" stroke-miterlimit="10" x1="752.817" y1="153.236" x2="815.08" y2="189.384"/>
			<g>
				<path d="M820.3,192.414c-2.985-0.515-6.936-0.729-9.78-0.179l3.876-3.249l0.899-4.976
					C816.228,186.754,818.372,190.078,820.3,192.414z"/>
			</g>
		</g>
	</g>
	<g>
		<circle fill="#AA2028" cx="703.7" cy="114.262" r="51"/>
		<text transform="matrix(1 0 0 1 667.7344 106.9146)"><tspan x="0" y="0" fill="#FFFFFF" font-family="'SourceSansPro-Bold'" font-size="14">Javascript</tspan><tspan x="12.614" y="20" fill="#FFFFFF" font-family="'SourceSansPro-Bold'" font-size="14">toolkit</tspan></text>
	</g>
</g>
</svg>
