<?xml version="1.0" encoding="utf-8"?>
<!-- Generator: Adobe Illustrator 15.0.0, SVG Export Plug-In . SVG Version: 6.00 Build 0)  -->
<!DOCTYPE svg PUBLIC "-//W3C//DTD SVG 1.1//EN" "http://www.w3.org/Graphics/SVG/1.1/DTD/svg11.dtd">
<svg version="1.1" xmlns="http://www.w3.org/2000/svg" xmlns:xlink="http://www.w3.org/1999/xlink" x="0px" y="0px"
	 width="709.381px" height="406px" viewBox="0 0 709.381 406" enable-background="new 0 0 709.381 406" xml:space="preserve">
<g id="Calque_3">
	<linearGradient id="SVGID_1_" gradientUnits="userSpaceOnUse" x1="354.5972" y1="405.1123" x2="354.5971" y2="0.417">
		<stop  offset="0" style="stop-color:#F2F3F7"/>
		<stop  offset="1" style="stop-color:#E0E2EA"/>
	</linearGradient>
	<rect x="0.722" y="0.417" fill="url(#SVGID_1_)" stroke="#000000" stroke-miterlimit="10" width="707.75" height="404.696"/>
</g>
<g id="Calque_2">
	<rect x="279.013" y="126.699" fill="#FFFFFF" stroke="#000000" stroke-miterlimit="10" width="159" height="180"/>
	<rect x="51.492" y="179.186" fill="#FFFFFF" stroke="#000000" stroke-miterlimit="10" width="101.5" height="131"/>
	<g>
		<g>
			<line fill="none" stroke="#000000" stroke-miterlimit="10" x1="307.09" y1="183.799" x2="321.86" y2="200.251"/>
			<g>
				<path d="M325.892,204.742c-2.681-1.409-6.373-2.83-9.249-3.183l4.688-1.897l2.389-4.457
					C323.762,198.103,324.778,201.926,325.892,204.742z"/>
			</g>
		</g>
	</g>
	<g>
		<g>
			<line fill="none" stroke="#000000" stroke-miterlimit="10" x1="200.869" y1="136.926" x2="222.978" y2="137.083"/>
			<g>
				<path d="M229.013,137.126c-2.847,1.034-6.383,2.806-8.581,4.695l1.754-4.743l-1.686-4.767
					C222.67,134.23,226.181,136.054,229.013,137.126z"/>
			</g>
		</g>
	</g>
	<g>
		<g>
			<line fill="none" stroke="#000000" stroke-miterlimit="10" x1="231.68" y1="116.814" x2="184.988" y2="116.482"/>
			<g>
				<path d="M178.953,116.439c2.847-1.034,6.383-2.806,8.581-4.695l-1.754,4.743l1.686,4.767
					C185.295,119.335,181.785,117.512,178.953,116.439z"/>
			</g>
		</g>
	</g>
	<g>
		<g>
			<line fill="none" stroke="#000000" stroke-miterlimit="10" x1="421.54" y1="184.066" x2="414.445" y2="200.661"/>
			<g>
				<path d="M412.073,206.21c0.147-3.025-0.121-6.972-1.013-9.729l3.697,3.452l5.048,0.288
					C417.195,201.479,414.157,204.013,412.073,206.21z"/>
			</g>
		</g>
	</g>
	<g>
		<g>
			<line fill="none" stroke="#000000" stroke-miterlimit="10" x1="328.131" y1="166.16" x2="390.394" y2="202.308"/>
			<g>
				<path d="M395.613,205.338c-2.985-0.515-6.935-0.729-9.78-0.179l3.875-3.249l0.9-4.976
					C391.541,199.678,393.686,203.001,395.613,205.338z"/>
			</g>
		</g>
	</g>
	<g>
		<g>
			<line fill="none" stroke="#000000" stroke-miterlimit="10" x1="161.419" y1="238.741" x2="230.237" y2="169.776"/>
			<g>
				<path d="M234.5,165.504c-1.26,2.754-2.476,6.519-2.671,9.41l-2.151-4.577l-4.581-2.141
					C227.988,167.995,231.75,166.771,234.5,165.504z"/>
			</g>
		</g>
	</g>
	<g>
		<g>
			<line fill="none" stroke="#000000" stroke-miterlimit="10" x1="535.406" y1="212.353" x2="490.809" y2="167.928"/>
			<g>
				<path d="M486.533,163.669c2.756,1.258,6.521,2.471,9.412,2.663l-4.575,2.156l-2.137,4.583
					C489.029,170.179,487.802,166.419,486.533,163.669z"/>
			</g>
		</g>
	</g>
	<g>
		<g>
			<line fill="none" stroke="#000000" stroke-miterlimit="10" x1="390.647" y1="166.604" x2="356.088" y2="201.731"/>
			<g>
				<path d="M351.855,206.033c1.241-2.763,2.43-6.536,2.604-9.428l2.184,4.562l4.596,2.108
					C358.35,203.497,354.598,204.747,351.855,206.033z"/>
			</g>
		</g>
	</g>
	<g>
		<circle fill="#AA2028" cx="279.013" cy="127.186" r="51"/>
		<text transform="matrix(1 0 0 1 243.0479 119.8384)"><tspan x="0" y="0" fill="#FFFFFF" font-family="'SourceSansPro-Bold'" font-size="14">Javascript</tspan><tspan x="12.614" y="20" fill="#FFFFFF" font-family="'SourceSansPro-Bold'" font-size="14">toolkit</tspan></text>
	</g>
	<g>
		<circle fill="#D99A36" cx="438.013" cy="127.186" r="51"/>
		<text transform="matrix(1 0 0 1 402.0479 119.8384)"><tspan x="0" y="0" fill="#FFFFFF" font-family="'SourceSansPro-Bold'" font-size="14">Javascript</tspan><tspan x="18.571" y="20" fill="#FFFFFF" font-family="'SourceSansPro-Bold'" font-size="14">/ CSS</tspan></text>
	</g>
	<text transform="matrix(1 0 0 1 89.9014 248.0249)" fill="#454545" font-family="'SourceSansPro-Semibold'" font-size="14">mei</text>
	
		<text transform="matrix(1 0 0 1 16.7939 27.6387)" fill="#666766" font-family="'SourceSansPro-Regular'" font-size="20" letter-spacing="1">client side</text>
	<g>
		
			<rect x="151.892" y="102.287" transform="matrix(0.7071 -0.7071 0.7071 0.7071 -37.9514 161.7756)" fill="#FFFFFF" stroke="#000000" stroke-miterlimit="10" width="48.825" height="48.825"/>
		<text transform="matrix(1 0 0 1 163.4468 131.6992)" fill="#454545" font-family="'SourceSansPro-Semibold'" font-size="14">xslt</text>
	</g>
	<g>
		<rect x="286.706" y="212" fill="#FFFFFF" stroke="#000000" stroke-miterlimit="10" width="86.614" height="86.773"/>
		<text transform="matrix(1 0 0 1 318.8413 258.0391)" fill="#454545" font-family="'SourceSansPro-Semibold'" font-size="14">svg</text>
	</g>
	<rect x="379.5" y="212" fill="#FFFFFF" stroke="#000000" stroke-miterlimit="10" width="50.75" height="86.773"/>
	<text transform="matrix(1 0 0 1 389.6035 258.0391)" fill="#454545" font-family="'SourceSansPro-Semibold'" font-size="14">midi</text>
	<text transform="matrix(1 0 0 1 343.2324 145.0996)" fill="#454545" font-family="'SourceSansPro-Semibold'" font-size="14">html</text>
	<polygon fill="#7888A2" points="521.42,238.472 544.754,307.805 617.42,307.805 638.754,238.472 580.086,195.138 	"/>
	<text transform="matrix(1 0 0 1 565.9473 261.0479)" fill="#FFFFFF" font-family="'SourceSansPro-Semibold'" font-size="14">user</text>
</g>
</svg>
