<?xml version="1.0" encoding="utf-8"?>
<!-- Generator: Adobe Illustrator 15.0.0, SVG Export Plug-In . SVG Version: 6.00 Build 0)  -->
<!DOCTYPE svg PUBLIC "-//W3C//DTD SVG 1.1//EN" "http://www.w3.org/Graphics/SVG/1.1/DTD/svg11.dtd">
<svg version="1.1" xmlns="http://www.w3.org/2000/svg" xmlns:xlink="http://www.w3.org/1999/xlink" x="0px" y="0px" width="806px"
	 height="406px" viewBox="0 0 806 406" enable-background="new 0 0 806 406" xml:space="preserve">
<g id="Calque_3">
	<linearGradient id="SVGID_1_" gradientUnits="userSpaceOnUse" x1="402.8052" y1="404.4453" x2="402.8051" y2="1.0005">
		<stop  offset="0" style="stop-color:#F2F3F7"/>
		<stop  offset="1" style="stop-color:#E0E2EA"/>
	</linearGradient>
	<rect x="1.055" y="1" fill="url(#SVGID_1_)" stroke="#000000" stroke-miterlimit="10" width="803.5" height="403.445"/>
</g>
<g id="Calque_2">
	<g>
		
			<ellipse fill="none" stroke="#000000" stroke-width="2.8347" stroke-miterlimit="10" stroke-dasharray="5.681,5.681" cx="293.901" cy="208.093" rx="95.951" ry="116.907"/>
	</g>
	<rect x="28" y="141.186" fill="#FFFFFF" stroke="#000000" stroke-miterlimit="10" width="101.5" height="131"/>
	<rect x="464" y="163" fill="#FFFFFF" stroke="#000000" stroke-miterlimit="10" width="101.5" height="89"/>
	<rect x="464" y="31" fill="#FFFFFF" stroke="#000000" stroke-miterlimit="10" width="101.5" height="89"/>
	<rect x="464" y="303" fill="#FFFFFF" stroke="#000000" stroke-miterlimit="10" width="101.5" height="56.186"/>
	<rect x="616" y="114" fill="#FFFFFF" stroke="#000000" stroke-miterlimit="10" width="159" height="180"/>
	<g>
		<g>
			<line fill="none" stroke="#000000" stroke-miterlimit="10" x1="578.082" y1="207.686" x2="580.918" y2="207.686"/>
			
				<line fill="none" stroke="#000000" stroke-miterlimit="10" stroke-dasharray="5.9698,2.9849" x1="583.902" y1="207.686" x2="636.139" y2="207.686"/>
			<line fill="none" stroke="#000000" stroke-miterlimit="10" x1="637.631" y1="207.686" x2="640.465" y2="207.686"/>
			<g>
				<path d="M646.5,207.686c-2.84,1.054-6.363,2.852-8.547,4.756l1.721-4.756l-1.721-4.755
					C640.137,204.835,643.66,206.633,646.5,207.686z"/>
			</g>
		</g>
	</g>
	<g>
		<g>
			<line fill="none" stroke="#000000" stroke-miterlimit="10" x1="142" y1="208.093" x2="180.965" y2="208.093"/>
			<g>
				<path d="M187,208.093c-2.84,1.054-6.363,2.852-8.547,4.756l1.72-4.756l-1.72-4.755C180.637,205.242,184.16,207.04,187,208.093z"
					/>
			</g>
		</g>
	</g>
	<g>
		<g>
			
				<line fill="none" stroke="#000000" stroke-miterlimit="10" stroke-dasharray="5.6693,2.8347" x1="578.082" y1="325" x2="643.596" y2="263.376"/>
			<g>
				<path d="M647.992,259.241c-1.346,2.713-2.682,6.437-2.967,9.32l-2.006-4.643l-4.51-2.285
					C641.404,261.524,645.203,260.42,647.992,259.241z"/>
			</g>
		</g>
	</g>
	<g>
		<g>
			<line fill="none" stroke="#000000" stroke-miterlimit="10" x1="394.468" y1="273.399" x2="446.627" y2="326.301"/>
			<g>
				<path d="M450.865,330.599c-2.744-1.282-6.498-2.529-9.389-2.747l4.596-2.114l2.178-4.563
					C448.428,324.066,449.621,327.837,450.865,330.599z"/>
			</g>
		</g>
	</g>
	<g>
		<g>
			<line fill="none" stroke="#000000" stroke-miterlimit="10" x1="407" y1="208.093" x2="445.965" y2="208.093"/>
			<g>
				<path d="M452,208.093c-2.84,1.054-6.363,2.852-8.547,4.756l1.721-4.756l-1.721-4.755C445.637,205.242,449.16,207.04,452,208.093
					z"/>
			</g>
		</g>
	</g>
	<g>
		<g>
			<line fill="none" stroke="#000000" stroke-miterlimit="10" x1="396.469" y1="136.699" x2="448.627" y2="83.797"/>
			<g>
				<path d="M452.865,79.5c-1.244,2.762-2.438,6.533-2.615,9.425l-2.178-4.563l-4.594-2.114
					C446.367,82.03,450.121,80.783,452.865,79.5z"/>
			</g>
		</g>
	</g>
	<g>
		<g>
			<line fill="none" stroke="#000000" stroke-miterlimit="10" x1="341.513" y1="104.518" x2="367.072" y2="78.304"/>
			<g>
				<path d="M371.285,73.982c-1.228,2.769-2.4,6.547-2.562,9.44l-2.205-4.552l-4.605-2.087
					C364.801,76.549,368.548,75.281,371.285,73.982z"/>
			</g>
		</g>
	</g>
	<g>
		<g>
			<line fill="none" stroke="#000000" stroke-miterlimit="10" x1="383.17" y1="84.465" x2="357.612" y2="110.679"/>
			<g>
				<path d="M353.399,115c1.229-2.769,2.4-6.547,2.562-9.44l2.204,4.552l4.605,2.088C359.882,112.434,356.135,113.701,353.399,115z"
					/>
			</g>
		</g>
	</g>
	
		<rect x="354.063" y="54.088" transform="matrix(0.7071 -0.7071 0.7071 0.7071 55.3451 290.6148)" fill="#FFFFFF" stroke="#000000" stroke-miterlimit="10" width="48.825" height="48.825"/>
	<g>
		<circle fill="#AA2028" cx="293.901" cy="153.686" r="51"/>
		<text transform="matrix(1 0 0 1 269.353 146.3379)"><tspan x="0" y="0" fill="#FFFFFF" font-family="'SourceSansPro-Bold'" font-size="14">Python</tspan><tspan x="1.197" y="20" fill="#FFFFFF" font-family="'SourceSansPro-Bold'" font-size="14">toolkit</tspan></text>
	</g>
	<g>
		<circle fill="#AA2028" cx="293.901" cy="263.241" r="51"/>
		<text transform="matrix(1 0 0 1 259.7559 245.8936)"><tspan x="0" y="0" fill="#FFFFFF" font-family="'SourceSansPro-Bold'" font-size="14">Command</tspan><tspan x="19.586" y="20" fill="#FFFFFF" font-family="'SourceSansPro-Bold'" font-size="14">Line</tspan><tspan x="2.808" y="40" fill="#FFFFFF" font-family="'SourceSansPro-Bold'" font-size="14">Interface</tspan></text>
	</g>
	<text transform="matrix(1 0 0 1 502.9277 211.2412)" fill="#454545" font-family="'SourceSansPro-Semibold'" font-size="14">svg</text>
	<text transform="matrix(1 0 0 1 501.7598 79.5)" fill="#454545" font-family="'SourceSansPro-Semibold'" font-size="14">mei</text>
	<text transform="matrix(1 0 0 1 680.2188 136.6992)" fill="#454545" font-family="'SourceSansPro-Semibold'" font-size="14">html</text>
	<text transform="matrix(1 0 0 1 64.2163 180.6992)"><tspan x="0" y="0" fill="#454545" font-family="'SourceSansPro-Semibold'" font-size="14">mei /</tspan><tspan x="-20.188" y="20" fill="#454545" font-family="'SourceSansPro-Semibold'" font-size="14">humdrum /</tspan><tspan x="-16.275" y="40" fill="#454545" font-family="'SourceSansPro-Semibold'" font-size="14">plain and </tspan><tspan x="1.785" y="60" fill="#454545" font-family="'SourceSansPro-Semibold'" font-size="14">easy</tspan></text>
	<text transform="matrix(1 0 0 1 365.6177 83.5)" fill="#454545" font-family="'SourceSansPro-Semibold'" font-size="14">xslt</text>
	<text transform="matrix(1 0 0 1 500.1836 335.7598)" fill="#454545" font-family="'SourceSansPro-Semibold'" font-size="14">midi</text>
	
		<text transform="matrix(1 0 0 1 19.7573 27.6387)" fill="#666766" font-family="'SourceSansPro-Regular'" font-size="20" letter-spacing="1">server side</text>
</g>
</svg>
