<svg xmlns="http://www.w3.org/2000/svg" height="60" width="450" version="1.1">
    <g>
        <rect style="opacity:1;fill:#f5f5f5;fill-opacity:0;stroke:#555555;stroke-width:1;stroke-opacity:1" width="450" height="60"/>
        <path fill="#555555"
            d="m16.53,53.47c-1.22,-0.37,-1.94,-1.25,-2.05,-2.49l-0.07,-0.82l-1.33,0c-1.23,0,-1.33,-0.02,-1.33,-0.3c0,-0.28,0.1,-0.3,1.47,-0.3l1.47,0l0.49,-0.76c0.86,-1.33,2.81,-2.54,4.71,-2.94c1.29,-0.27,2.32,-0.16,3.21,0.33l0.64,0.35l-0.04,-2.43l-0.04,-2.43l-6.11,-0.04c-3.83,-0.02,-6.11,-0.09,-6.11,-0.19c0,-0.09,1.59,-0.16,4.16,-0.19l4.16,-0.04l0,-3.83l0,-3.83l-4.16,-0.04c-2.6,-0.02,-4.16,-0.1,-4.16,-0.19c0,-0.09,1.54,-0.15,4.2,-0.15l4.2,0l0,-3.83l0,-3.83l-4.2,0c-3.63,0,-4.2,-0.03,-4.2,-0.23c0,-0.19,0.57,-0.23,4.2,-0.23l4.2,0l0,-3.83l0,-3.83l-4.2,0c-2.65,0,-4.2,-0.05,-4.2,-0.15c0,-0.09,1.56,-0.16,4.16,-0.19l4.16,-0.04l0,-3.83l0,-3.83l-4.16,-0.04c-2.6,-0.02,-4.16,-0.1,-4.16,-0.19c0,-0.1,15.9,-0.15,45.91,-0.15c36.66,0,45.9,0.04,45.85,0.19c-0.05,0.14,-1.02,0.2,-4.06,0.23l-4,0.04l0,3.82l0,3.82l4.05,0c3.64,0,4.05,0.02,4.05,0.24c0,0.22,-0.39,0.24,-4.01,0.19l-4.01,-0.06l-0.04,3.79l-0.04,3.79l4,0.04c3.04,0.03,4.02,0.09,4.07,0.23c0.05,0.15,-0.82,0.19,-4,0.19l-4.06,0l0,3.83l0,3.83l4.05,0c3.5,0,4.05,0.03,4.05,0.23c0,0.19,-0.55,0.23,-4.05,0.23l-4.05,0l0.04,3.79l0.04,3.79l4.01,0.04c2.5,0.02,4.01,0.1,4.01,0.19c0,0.1,-10.07,0.15,-28.94,0.15c-17.08,0,-28.98,0.06,-29.02,0.14c-0.05,0.07,1.04,1.17,2.4,2.44l2.49,2.3l-1.4,1.32c-0.77,0.73,-1.96,1.83,-2.64,2.46l-1.24,1.14l-0.56,-0.52c-0.31,-0.29,-1.06,-0.99,-1.68,-1.57c-0.62,-0.58,-1.55,-1.45,-2.07,-1.94l-0.94,-0.89l2.48,-2.3c1.36,-1.27,2.44,-2.36,2.39,-2.44c-0.05,-0.08,-4.34,-0.13,-10.05,-0.13l-9.97,0l0,3.64c0,2,-0.04,3.79,-0.09,3.97c-0.09,0.32,-0.05,0.33,1.39,0.38c1.27,0.04,1.48,0.08,1.53,0.31c0.05,0.24,-0.11,0.26,-1.58,0.26l-1.63,0l-0.76,0.86c-1.68,1.9,-4.86,3.04,-6.83,2.44zm30.91,-4.85c0.5,-0.48,0.91,-0.9,0.91,-0.92c0,-0.13,-4.72,-4.28,-4.87,-4.28c-0.09,0,-0.59,0.43,-1.11,0.96l-0.95,0.96l0.65,0.6c2.36,2.16,4.12,3.64,4.28,3.61c0.1,-0.02,0.59,-0.43,1.09,-0.91zm-23.76,-11.2l0,-3.83l-0.86,-0.04l-0.86,-0.04l0,3.91l0,3.91l0.86,-0.04l0.86,-0.04l0,-3.83zm10.13,3.85c0,-0.08,-3.37,-7.36,-3.5,-7.56c-0.09,-0.14,-0.85,-0.19,-2.96,-0.19l-2.84,0l0,3.9l0,3.9l4.65,0c2.56,0,4.65,-0.02,4.65,-0.05zm10.65,-3.78l0,-3.83l-2.7,-0.03c-1.49,-0.01,-2.81,-0.03,-2.95,-0.04c-0.18,-0.01,-0.69,0.96,-1.94,3.74c-0.93,2.06,-1.7,3.8,-1.7,3.86c0,0.06,2.09,0.11,4.64,0.11l4.65,0l0,-3.83zm3,0l0,-3.83l-1.05,0l-1.05,0l0,3.83l0,3.83l1.05,0l1.05,0l0,-3.83zm10.8,0l0,-3.83l-2.84,0l-2.84,0l-0.04,3.76c-0.02,2.07,-0.01,3.79,0.02,3.83c0.03,0.03,1.33,0.06,2.89,0.06l2.83,0l0,-3.83zm30.45,3.64c0,-0.06,0,-1.77,0,-3.79l0,-3.67l-2.17,0l-2.17,0l0,1.65c0,0.91,-0.02,1.65,-0.05,1.65c-0.03,0,-0.44,-0.14,-0.92,-0.3c-1.13,-0.39,-2.49,-0.39,-3.35,0c-0.36,0.16,-0.71,0.3,-0.79,0.3c-0.07,0,-0.13,-0.74,-0.13,-1.65l0,-1.65l-2.33,0l-2.33,0l0,2.1c0,1.77,-0.04,2.1,-0.23,2.1c-0.19,0,-0.23,-0.33,-0.23,-2.1l0,-2.1l-3.52,0l-3.52,0l0,2.41c0,2.64,0.13,3.18,0.84,3.45c0.22,0.09,3.73,0.14,8.62,0.14c4.53,0,8.24,0.03,8.24,0.07c0,0.04,-0.06,0.22,-0.13,0.41c-0.07,0.19,-0.17,0.53,-0.23,0.76l-0.1,0.42l2.25,-0.04c1.24,-0.02,2.25,-0.09,2.25,-0.15zm-26.7,-4.16l0,-3.3l-1.13,0l-1.13,0l0,3.3l0,3.3l1.13,0l1.13,0l0,-3.3zm29.7,0l0,-3.3l-1.13,0l-1.13,0l0,3.3l0,3.3l1.13,0l1.13,0l0,-3.3zm-56.04,-1.73c0.38,-0.87,0.69,-1.61,0.69,-1.65c0,-0.1,-3.38,-0.09,-3.48,0.01c-0.05,0.05,0.14,0.55,0.42,1.12c0.28,0.57,0.61,1.28,0.73,1.57c0.17,0.4,0.31,0.53,0.59,0.53c0.32,0,0.45,-0.19,1.06,-1.58zm-11.91,-5.85l0,-3.83l-0.9,0l-0.9,0l0,3.83l0,3.83l0.9,0l0.9,0l0,-3.83zm6.3,3.75c0,-0.11,-0.88,-2.06,-2.56,-5.7l-0.83,-1.81l-1.08,-0.04l-1.08,-0.04l0,3.83l0,3.83l2.77,0c1.53,0,2.77,-0.03,2.77,-0.07zm6.15,-0.04c0,-0.06,-0.76,-1.78,-1.69,-3.82l-1.69,-3.72l-1.84,0c-1.01,0,-1.84,0.02,-1.84,0.06c0,0.1,0.69,1.63,2.25,4.97c0.35,0.74,0.76,1.64,0.91,1.99l0.28,0.64l1.81,0c0.99,0,1.81,-0.05,1.81,-0.11zm8.25,-3.72l0,-3.83l-1.13,0l-1.13,0l-0.6,1.31c-0.33,0.72,-0.66,1.45,-0.74,1.61c-0.54,1.16,-2.1,4.64,-2.1,4.68c0,0.03,1.28,0.05,2.85,0.05l2.85,0l0,-3.83zm3,0l0,-3.83l-1.05,0l-1.05,0l0,3.83l0,3.83l1.05,0l1.05,0l0,-3.83zm10.8,0l0,-3.83l-2.85,0l-2.85,0l0,3.83l0,3.83l2.85,0l2.85,0l0,-3.83zm3.75,0l0,-3.83l-1.13,0l-1.13,0l0,3.83l0,3.83l1.13,0l1.13,0l0,-3.83zm12,0.9l0,-2.92l0.85,-0.25c0.93,-0.27,2.81,-0.23,3.84,0.08l0.56,0.17l0,2.34l0,2.34l0.34,-0.11c0.69,-0.22,3.47,-0.26,4.09,-0.05c0.54,0.18,0.6,0.25,0.65,0.76l0.05,0.56l2.17,0l2.17,0l0,-3.83l0,-3.83l-10.88,0l-10.88,0l0,3.83l0,3.83l3.52,0l3.52,0l0,-2.92zm5.1,2.41c0,-0.44,-0.08,-0.54,-0.55,-0.77c-0.82,-0.39,-2.23,-0.46,-3.25,-0.16c-0.85,0.25,-0.85,0.25,-0.85,0.84l0,0.6l2.33,0l2.33,0l0,-0.51zm12.6,-3.32l0,-3.83l-1.13,0l-1.13,0l0,3.83l0,3.83l1.13,0l1.13,0l0,-3.83zm-51.91,-3.64c0.01,-0.13,-0.26,-0.19,-0.88,-0.19l-0.89,0l0.47,1.07l0.47,1.07l0.41,-0.88c0.22,-0.49,0.41,-0.97,0.42,-1.07zm-16.04,-1.76c0,-1.1,0.01,-1.13,0.38,-1.13c0.37,0,0.38,0.03,0.38,1.13l0,1.13l0.96,0l0.96,0l-1.75,-3.83l-1.75,-3.83l-0.49,0l-0.49,0l0,3.83l0,3.83l0.9,0l0.9,0l0,-1.13zm8.12,-0.49c-0.39,-0.89,-1.18,-2.61,-1.74,-3.83l-1.02,-2.21l-1.86,0c-1.02,0,-1.86,0.02,-1.86,0.05c0,0.03,0.72,1.6,1.59,3.49c0.87,1.89,1.65,3.59,1.72,3.77c0.13,0.32,0.2,0.34,2,0.34l1.87,0l-0.72,-1.61zm9.89,-2.21c0.9,-2.06,1.64,-3.77,1.64,-3.79c0,-0.02,-2.03,-0.04,-4.51,-0.04c-3.91,0,-4.5,0.03,-4.46,0.22c0.03,0.12,0.79,1.84,1.7,3.83l1.65,3.6l1.17,-0.04l1.17,-0.04l1.64,-3.75zm2.73,1.83l0.04,-1.99l0.38,0l0.38,0l0.04,1.99l0.04,1.99l1.05,0l1.05,0l0,-3.67c0,-2.02,0,-3.73,0,-3.79c0,-0.06,-0.37,-0.11,-0.83,-0.11l-0.83,0l-1.43,3.15c-0.78,1.73,-1.55,3.44,-1.71,3.79l-0.28,0.64l1.04,0l1.04,0l0.04,-1.99zm13.77,-1.84l0,-3.83l-2.85,0.04c-1.57,0.02,-2.85,0.09,-2.85,0.15c0,0.06,0,1.77,0,3.79l0,3.67l2.85,0l2.85,0l0,-3.83zm3.72,0.04l-0.04,-3.79l-1.09,-0.04l-1.09,-0.04l0,3.83l0,3.83l1.13,0l1.13,0l-0.04,-3.79zm26.77,0.02c0.02,-2.07,0.01,-3.79,-0.02,-3.83c-0.03,-0.03,-4.95,-0.06,-10.91,-0.06l-10.85,0l0,3.08l0,3.08l7.05,0l7.05,0l0,0.75l0,0.75l3.82,0l3.82,0l0.04,-3.76zm2.93,-0.02l-0.04,-3.79l-1.09,-0.04l-1.09,-0.04l0,3.83l0,3.83l1.13,0l1.13,0l-0.04,-3.79zm-68.97,-4.28c-0.01,-0.06,-0.17,-0.45,-0.36,-0.86l-0.35,-0.75l-0.01,0.86c-0.01,0.82,0.01,0.86,0.36,0.86c0.21,0,0.37,-0.05,0.37,-0.11zm6.16,-0.03c0,-0.13,-0.87,-2.09,-2.21,-5l-0.54,-1.16l-1.85,0c-1.02,0,-1.85,0.04,-1.85,0.1c0,0.1,0.89,2.06,2.11,4.67l0.72,1.54l1.81,0c1.04,0,1.81,-0.06,1.81,-0.14zm16.3,-3.53c0.86,-1.98,1.61,-3.72,1.65,-3.86c0.08,-0.25,-0.38,-0.26,-8.04,-0.26c-4.46,0,-8.12,0.06,-8.12,0.12c0,0.07,0.71,1.67,1.59,3.56c0.87,1.89,1.65,3.59,1.72,3.78l0.13,0.34l4.75,-0.04l4.75,-0.04l1.57,-3.6zm2.34,2.06c0.01,-0.85,-0.01,-1.54,-0.06,-1.54c-0.1,0,-1.34,2.76,-1.34,3c0,0.11,0.25,0.15,0.69,0.13l0.69,-0.05l0.03,-1.54zm10.75,-2.29l0,-3.9l-2.85,0l-2.85,0l-0.04,3.84c-0.02,2.11,-0.01,3.87,0.02,3.9c0.03,0.03,1.33,0.06,2.89,0.06l2.83,0l0,-3.9zm3.72,0.41l0.04,-3.41l-1.13,0l-1.13,0l0,3.46l0,3.46l1.09,-0.04l1.09,-0.04l0.04,-3.41zm26.75,3.43c0.03,-0.03,0.04,-1.76,0.02,-3.83l-0.04,-3.76l-2.71,0c-2.41,0,-2.7,0.03,-2.62,0.24c0.05,0.13,0.13,0.5,0.19,0.83l0.09,0.59l-7.6,0c-8.31,0,-8.13,-0.02,-8.77,0.88c-0.28,0.4,-0.31,0.65,-0.31,2.78l0,2.34l10.85,0c5.97,0,10.88,-0.03,10.91,-0.06zm2.99,-3.39l0,-3.45l-1.13,0l-1.13,0l0,3.45l0,3.45l1.13,0l1.13,0l0,-3.45z"/>
        <path fill="#555555" 
            d="m346.3,8.7c-3.1,0.5,-4.9,4.4,-2.7,6.8c1.2,1.4,2.7,2.4,4.1,3.5c-2.4,5.3,-7.7,8.3,-11.9,12.1c-3.7,2.8,-7,6.2,-9.7,9.9c-2.2,-0.8,-0.3,-6.8,-0.6,-9.5c0.1,-3.1,0.7,-6.4,2.9,-8.7c1.3,-1.9,3,-3.5,4.5,-5.2c1.2,-3.4,-3.2,-4.9,-5.8,-4.6c-7.3,-0.5,-14.6,2,-20,6.8c-5,4.6,-10,10.1,-11.5,17c-0.9,3.5,-0.2,7.5,2.8,9.9c2.5,2.8,7.4,2.9,9.8,-0.2c1.7,-2.3,3.2,-4.8,3.8,-7.6c-0.1,-2.6,-4.4,-2.3,-4.3,0.2c1.2,2.4,-0.9,4.7,-2.7,6.2c-1.7,0.9,-4.7,0.7,-4.8,-1.7c-1,-5.8,2.1,-11.3,5.2,-16.1c4,-5.8,9.8,-11.2,17.2,-11.8c1.6,0,8.1,-1.2,6.8,1.4c-2.8,2.8,-5.6,6.1,-6,10.3c-1.6,7.7,0.1,15.7,-2.3,23.2c-1.1,3.9,2,2.6,2.5,0.2c3.3,-7.4,8.9,-13.4,15.1,-18.5c4.2,-3.9,9.5,-7.1,11.9,-12.6c1.3,-3.6,1.2,-9,-2.7,-10.9c-0.6,-0.2,-1.2,-0.3,-1.8,-0.3zm66,14.5c-2,0.8,-1.8,4.9,0.8,4.4c3.4,0.4,2.9,-6.2,-0.8,-4.4zm0.6,7.3c-1.3,0.5,-7.6,0.5,-5.4,2.2c4,-0.3,0.7,4.5,0.6,6.7c-0.4,2.9,-2.4,5.9,-1.2,8.8c2.7,1.7,5.6,-0.8,6.8,-3.2c1.6,-1.4,-0.5,-3,-1.2,-0.9c-0.4,0.8,-2.4,3.5,-2.6,1.8c1.1,-5,2.7,-9.9,3.9,-14.9l-0.1,-0.5l-0.9,0zm-65.1,0.2c-6.5,1.6,-10.5,9.5,-8.2,15.7c2.1,3.4,7.4,2.9,10.1,0.4c2,-0.2,3.6,-5.3,1,-3.4c-1.4,2,-4,4.2,-6.5,2.8c-2.2,-1.9,-1.9,-5.7,1.7,-5.3c3.1,-0.9,6.9,-2.1,8.1,-5.5c0.9,-2.7,-1.6,-5.2,-4.3,-4.8l-1.1,0l-0.7,0zm13.6,0c-2.2,0,-8.5,1.8,-2.9,2.3c0.9,1.9,-1,4.9,-1.1,7.2c-0.5,2.9,-1.4,5.7,-1.7,8.7c3.7,0.7,3.8,-2.6,4.4,-5.3c0.9,-3.3,1.6,-7,4.1,-9.5c2.4,1.6,6.8,-0.7,3.7,-3.4c-2.9,-0.5,-4.8,2.4,-6.2,4.3c0,-1.2,2.4,-5,-0.2,-4.3zm15.8,0c-6.4,1.3,-9.6,9.1,-7.7,14.9c1.9,4,7.7,3.9,11,1.7c4.1,-3,6,-8.9,4.4,-13.7c-1.3,-3,-4.8,-3.2,-7.6,-3zm17,0c-2.3,0,-8.8,1.9,-3,2.4c0.4,2.5,-1,5.7,-1.4,8.4c-0.7,2.4,-1.8,7.5,2.1,7.2c3.8,-0.1,6.5,-3.5,8.5,-6.3c2,-3.2,4.5,-7,3.3,-10.9c-3.7,-3,-3.6,2.6,-3.1,5.1c-0.7,3.8,-2.7,7.9,-6.2,9.8c-3.6,0.6,-1,-4.3,-0.8,-6.1c0.6,-3.2,1.6,-6.3,1.9,-9.5c-0.4,0,-0.8,0,-1.1,0zm30.6,0c-6.3,1.2,-9.5,8.9,-7.8,14.7c1.5,4,7.2,4.2,10.5,2.4c4.6,-2.8,6.6,-9.3,4.8,-14.3c-1.4,-2.8,-4.8,-3,-7.5,-2.8zm-75.4,1.7c2.1,1.5,0.2,4.7,-1.6,5.7c-1.1,0.4,-5.5,3.4,-4.6,0.7c0.8,-2.7,2.2,-6.2,5.3,-6.6l0.9,0.1zm30.8,0c2.6,1.5,1.3,5.2,0.8,7.6c-0.8,2.7,-1.9,5.9,-4.7,7.1c-5.1,0.8,-4,-5.8,-2.8,-8.8c1,-2.8,3,-6.8,6.7,-5.8zm47.1,-0.1c2.9,0.7,2,4.7,1.5,6.8c-0.7,3,-1.8,6.7,-5,8c-4.7,0.8,-4,-5.1,-3,-7.9c0.9,-3,2.7,-7.3,6.5,-6.8zm-88.1,5.9c-0.3,1.3,0.9,-0.6,0,0zm-1.1,2.4c-0.2,0.5,0.5,-0.1,0,0zm-1.3,4.5c-0.3,1.3,0.8,-0.2,0,0z"/>
        <text y="41" x="112" fill="#555555" style="font-style:italic;font-weight:normal;font-size:30px;line-height:125%;font-family:Times;" xml:space="preserve">engraved with</text>
    </g>
</svg>
