<svg height="60" width="450" version="1.1" xmlns="http://www.w3.org/2000/svg">
   <g>
      <path fill="#00000" d="M 17.11278,49.26451 V 10.367554 h 12.696511 c 3.288815,7.336676 6.71267,14.610456 10.127281,21.888976 3.419998,-7.484684 6.255515,-14.204887 9.58887,-21.909915 2.436207,0.103726 4.316952,0.08453 6.484294,-0.05808 V 49.264423 H 50.274275 C 50.145222,38.35639 50.016136,27.448368 49.887066,16.540329 45.003488,27.315459 39.967448,38.433564 35.083854,49.208695 34.678996,49.343717 34.426583,49.135619 34.021726,49.270644 29.46588,39.330716 24.910049,29.390805 20.354201,19.450876 20.224341,29.388756 20.09461,39.326619 19.964815,49.264497 H 17.11278 Z M 36.754144,39.324695 C 32.721221,30.512695 28.6883,21.700679 24.655394,12.888662 22.530527,12.750737 22.656775,12.71031 20.714356,12.813974 v 0.966497 c 4.612938,9.99784 9.609439,20.748709 13.87298,30.081745 0.722248,-1.512523 1.444528,-3.025014 2.166808,-4.537521 z m 25.738417,9.939815 c 0,-12.965651 0,-25.931305 0,-38.896956 10.084388,0 20.168791,0 30.253178,0 0,0.960416 0,1.920849 0,2.881265 -6.482825,0 -12.965652,0 -19.448478,0 0,4.802097 0,9.604178 0,14.406277 5.52241,0 11.044819,0 16.567229,0 0,0.960415 0,1.920832 0,2.881248 -5.52241,0 -11.044819,0 -16.567229,0 0,5.282306 0,10.564611 0,15.846917 6.963035,0 13.926068,0 20.889103,0 0,0.960416 0,1.920832 0,2.881249 -10.564597,0 -21.129207,0 -31.693803,0 z m 4.321874,-2.160937 c 0,-11.765131 0,-23.530263 0,-35.295394 -0.720312,0 -1.440625,0 -2.160937,0 0,11.765131 0,23.530263 0,35.295394 0.720312,0 1.440625,0 2.160937,0 z m 32.41413,2.160937 c 0,-12.965651 0,-25.931305 0,-38.896956 2.401045,0 4.802095,0 7.203135,0 0,12.965651 0,25.931305 0,38.896956 -2.40104,0 -4.80209,0 -7.203135,0 z m 2.881265,-2.160937 c 0,-11.765131 0,-23.530263 0,-35.295394 -0.72031,0 -1.44064,0 -2.160953,0 0,11.765131 0,23.530263 0,35.295394 0.720313,0 1.440643,0 2.160953,0 z"/>
      <path fill="#00000" d="m 346.3,6.7 c -3.1,0.5 -4.9,4.4 -2.7,6.8 1.2,1.4 2.7,2.4 4.1,3.5 -2.4,5.3 -7.7,8.3 -11.9,12.1 -3.7,2.8 -7,6.2 -9.7,9.9 -2.2,-0.8 -0.91472,-7.718806 -0.62677,-9.5 0.28796,-1.781194 0.72677,-6.4 2.92677,-8.7 1.3,-1.9 3,-3.5 4.5,-5.2 1.2,-3.4 -3.2,-4.9 -5.8,-4.6 -7.3,-0.5 -14.6,2 -20,6.8 -5,4.6 -10,10.1 -11.5,17 -0.9,3.5 -0.2,7.5 2.8,9.9 2.5,2.8 7.4,2.9 9.8,-0.2 1.7,-2.3 3.2,-4.8 3.8,-7.6 -0.1,-2.6 -4.4,-2.3 -4.3,0.2 1.2,2.4 -0.9,4.7 -2.7,6.2 -1.7,0.9 -4.7,0.7 -4.8,-1.7 -1,-5.8 2.1,-11.3 5.2,-16.1 4,-5.8 9.8,-11.2 17.2,-11.8 1.6,0 8.1,-1.2 6.8,1.4 -2.8,2.8 -5.6,6.1 -6,10.3 -1.6,7.7 0.1,15.7 -2.3,23.2 -1.1,3.9 2,2.6 2.5,0.2 3.3,-7.4 8.9,-13.4 15.1,-18.5 4.2,-3.9 9.5,-7.1 11.9,-12.6 1.3,-3.6 1.2,-9 -2.7,-10.9 -0.50431,-0.1767056 -1.06965,-0.1654404 -1.6,-0.1 z m 66,14.5 c -2,0.8 -1.8,4.9 0.8,4.4 3.4,0.4 2.9,-6.2 -0.8,-4.4 z m 0.6,7.3 c -1.3,0.5 -7.6,0.5 -5.4,2.2 4,-0.3 0.7,4.5 0.6,6.7 -0.4,2.9 -2.4,5.9 -1.2,8.8 2.7,1.7 5.6,-0.8 6.8,-3.2 1.6,-1.4 -0.5,-3 -1.2,-0.9 -0.4,0.8 -2.4,3.5 -2.6,1.8 1.1,-5 2.7,-9.9 3.9,-14.9 l -0.1,-0.5 h -0.9 z m -65.1,0.2 c -6.5,1.6 -10.5,9.5 -8.2,15.7 2.1,3.4 7.4,2.9 10.1,0.4 2,-0.2 3.6,-5.3 1,-3.4 -1.4,2 -4,4.2 -6.5,2.8 -2.2,-1.9 -1.9,-5.7 1.7,-5.3 3.1,-0.9 6.9,-2.1 8.1,-5.5 0.9,-2.7 -1.6,-5.2 -4.3,-4.8 h -1.1 -0.7 z m 13.6,0 c -2.2,0 -8.5,1.8 -2.9,2.3 0.9,1.9 -1,4.9 -1.1,7.2 -0.5,2.9 -1.4,5.7 -1.7,8.7 3.7,0.7 3.8,-2.6 4.4,-5.3 0.9,-3.3 1.6,-7 4.1,-9.5 2.4,1.6 6.8,-0.7 3.7,-3.4 -2.9,-0.5 -4.8,2.4 -6.2,4.3 0,-1.2 2.4,-5 -0.2,-4.3 z m 15.8,0 c -6.4,1.3 -9.6,9.1 -7.7,14.9 1.9,4 7.7,3.9 11,1.7 4.1,-3 6,-8.9 4.4,-13.7 -1.3,-3 -4.8,-3.2 -7.6,-3 z m 17,0 c -2.3,0 -8.8,1.9 -3,2.4 0.4,2.5 -1,5.7 -1.4,8.4 -0.7,2.4 -1.8,7.5 2.1,7.2 3.8,-0.1 6.5,-3.5 8.5,-6.3 2,-3.2 4.5,-7 3.3,-10.9 -3.7,-3 -3.6,2.6 -3.1,5.1 -0.7,3.8 -2.7,7.9 -6.2,9.8 -3.6,0.6 -1,-4.3 -0.8,-6.1 0.6,-3.2 1.6,-6.3 1.9,-9.5 h -1.1 z m 30.6,0 c -6.3,1.2 -9.5,8.9 -7.8,14.7 1.5,4 7.2,4.2 10.5,2.4 4.6,-2.8 6.6,-9.3 4.8,-14.3 -1.4,-2.8 -4.8,-3 -7.5,-2.8 z m -75.4,1.7 c 2.1,1.5 0.2,4.7 -1.6,5.7 -1.1,0.4 -5.5,3.4 -4.6,0.7 0.8,-2.7 2.2,-6.2 5.3,-6.6 l 0.9,0.1 z m 30.8,0 c 2.6,1.5 1.3,5.2 0.8,7.6 -0.8,2.7 -1.9,5.9 -4.7,7.1 -5.1,0.8 -4,-5.8 -2.8,-8.8 1,-2.8 3,-6.8 6.7,-5.8 z m 47.1,-0.1 c 2.9,0.7 2,4.7 1.5,6.8 -0.7,3 -1.8,6.7 -5,8 -4.7,0.8 -4,-5.1 -3,-7.9 0.9,-3 2.7,-7.3 6.5,-6.8 z" />
      <g>
         <path
            d="m 123.71484,29.354492 q 0,-0.512695 -0.19043,-0.864258 -0.19043,-0.366211 -0.68847,-0.366211 -1.05469,0 -2.08008,1.699219 -1.01074,1.699219 -1.80176,4.760742 2.59278,-0.585937 3.67676,-2.255859 1.08398,-1.669922 1.08398,-2.973633 z m -9.02343,7.41211 q 0,-3.398438 2.60742,-6.459961 2.69531,-3.164063 5.91797,-3.164063 1.3916,0 2.2998,0.688477 0.92285,0.688476 0.92285,1.948242 0,1.904297 -2.13867,3.603515 -2.13867,1.699219 -5.55176,2.167969 -0.0879,0.454102 -0.13183,0.84961 -0.0439,0.395507 -0.0439,0.644531 0,0.922851 0.26367,1.450195 0.46875,0.981445 1.80176,0.981445 1.08399,0 2.15332,-1.113281 0.57129,-0.585937 1.23047,-1.625976 L 124.90137,37.25 q -1.12793,1.889648 -2.12403,2.768555 -1.58203,1.40625 -3.70605,1.40625 -1.58203,0 -2.98828,-1.142578 -1.3916,-1.157227 -1.3916,-3.515625 z" />
         <path
            d="m 127.94824,41 2.68067,-9.580078 q 0.16113,-0.585938 0.23437,-0.922852 0.14649,-0.629883 0.14649,-0.878906 0,-0.541992 -0.33692,-0.673828 -0.33691,-0.131836 -1.30371,-0.161133 v -0.791016 q 1.875,-0.117187 2.91504,-0.263671 1.04004,-0.146485 3.10547,-0.541993 l -1.81641,5.551758 0.0732,0.04395 q -0.0732,0.07324 0.87891,-1.333008 0.95215,-1.420899 1.81641,-2.299805 0.84961,-0.893555 1.77246,-1.420898 0.9375,-0.541993 1.96289,-0.541993 0.95215,0 1.61133,0.541993 0.67382,0.541992 0.67382,1.772461 0,1.142578 -1.31835,5.039062 -1.33301,3.881836 -1.33301,4.160156 0,0.263672 0.16113,0.410157 0.16113,0.131835 0.32227,0.131835 0.3955,0 1.17187,-0.996093 0.41016,-0.527344 0.89356,-1.303711 l 0.65918,0.424804 q -1.11329,1.801758 -1.88965,2.592774 -1.34766,1.362305 -2.85645,1.362305 -0.80566,0 -1.45019,-0.46875 -0.62989,-0.46875 -0.62989,-1.479493 0,-0.644531 0.30762,-1.875 0.30762,-1.230468 0.74707,-2.534179 l 1.49414,-4.482422 q 0.0439,-0.161133 0.0732,-0.27832 0.0293,-0.117188 0.0293,-0.234375 0,-0.336915 -0.23437,-0.46875 -0.21973,-0.131836 -0.4834,-0.131836 -0.92285,0 -2.05078,1.435546 -1.12793,1.420899 -1.84571,2.841797 -0.77636,1.538086 -1.30371,3.120118 Q 132.29883,38.348633 131.56641,41 Z"/>
         <path
            d="m 150.55078,35.477539 q 1.27442,0 2.18262,-1.904297 0.92285,-1.918945 0.92285,-3.662109 0,-0.791016 -0.32227,-1.303711 -0.32226,-0.512695 -1.05468,-0.512695 -1.3916,0 -2.24121,2.050781 -0.83497,2.050781 -0.83497,3.662109 0,0.820313 0.38086,1.245117 0.38086,0.424805 0.9668,0.424805 z m 2.12402,8.540039 q 0,-0.717773 -0.43945,-1.12793 -0.4248,-0.410156 -1.17187,-0.717773 -0.5127,-0.205078 -1.65528,-0.585938 -1.12793,-0.36621 -1.34765,-0.36621 0,-0.219727 -1.17188,0.629882 -1.17187,0.84961 -1.17187,1.977539 0,0.703125 0.54199,1.289063 0.89355,0.996094 2.95898,0.996094 1.62598,0 2.53418,-0.585938 0.92285,-0.585937 0.92285,-1.508789 z m -5.66894,-3.222656 q -0.73242,-0.263672 -1.08399,-0.571289 -0.67382,-0.556641 -0.67382,-1.479492 0,-0.747071 0.61523,-1.347657 0.61524,-0.615234 2.25586,-1.49414 -1.21582,-0.439453 -1.80176,-1.333008 -0.58593,-0.893555 -0.58593,-2.15332 0,-1.889649 1.77246,-3.574219 1.77246,-1.68457 4.67285,-1.68457 1.50879,0 2.63672,0.483398 1.14257,0.483398 0.8789,0.483398 h 3.33985 v 1.699219 h -2.02149 q 0.0879,0.38086 0.13184,0.65918 0.0439,0.27832 0.0439,0.629883 0,2.167968 -1.71386,3.720703 -1.69922,1.538086 -4.79004,1.538086 -0.67383,0 -1.61133,-0.161133 -0.23438,0 -0.49805,0.366211 -0.24902,0.366211 -0.24902,0.629883 0,0.483398 0.71777,0.864257 0.33692,0.19043 0.82031,0.336915 l 1.59668,0.454101 q 2.09473,0.600586 2.97364,1.171875 1.50879,0.966797 1.50879,2.666016 0,1.904297 -2.00684,3.164062 -2.00684,1.259766 -4.98047,1.259766 -1.94824,0 -3.38379,-0.46875 -2.47558,-0.791016 -2.47558,-2.783203 0,-1.289063 1.31836,-2.094727 0.73242,-0.439453 2.59277,-0.981445 z" />
         <path
            d="m 159.19336,41 q 1.31836,-4.291992 2.15332,-7.382813 0.9082,-3.325195 0.9082,-3.955078 0,-0.55664 -0.36621,-0.717773 -0.36621,-0.161133 -1.25976,-0.161133 v -0.791016 q 1.875,-0.117187 3.16406,-0.307617 0.83496,-0.117187 2.8418,-0.498047 l -1.66993,5.317383 0.13184,0.0293 q 1.28906,-2.490234 2.06543,-3.530273 1.3623,-1.816407 2.62207,-1.816407 0.87891,0 1.28906,0.585938 0.42481,0.585937 0.42481,1.303711 0,0.864258 -0.46875,1.552734 -0.4541,0.688477 -1.27442,0.688477 -0.36621,0 -0.68847,-0.146485 -0.30762,-0.146484 -0.52735,-0.439453 l -0.27832,-0.351562 q -0.0732,-0.08789 -0.16113,-0.146485 -0.0732,-0.05859 -0.20508,-0.05859 -0.57129,0 -1.49414,1.552734 -0.92285,1.552734 -1.55273,3.164063 -0.43946,1.113281 -1.08399,3.164062 Q 163.11914,40.106445 162.81152,41 Z"/>
         <path
            d="m 180.58008,30.042969 q 0,-0.585938 -0.14649,-0.952149 -0.27832,-0.673828 -1.04004,-0.673828 -1.62597,0 -3.33984,3.852539 -1.50879,3.413086 -1.50879,5.229492 0,0.717774 0.35156,1.245118 0.36622,0.527343 0.95215,0.527343 1.49414,0.01465 3.38379,-3.955078 1.34766,-3.325195 1.34766,-5.273437 z m -9.72656,7.456054 q 0,-3.310546 2.63671,-6.782226 2.72461,-3.55957 5.53711,-3.55957 1.14258,0 1.68457,0.673828 0.32227,0.410156 0.57129,1.376953 l 0.5127,-1.59668 3.33984,-0.219726 -2.12402,7.016601 q -0.4541,1.494141 -0.64453,2.285156 -0.39551,1.508789 -0.39551,2.153321 0,0.263672 0.11719,0.366211 0.11718,0.102539 0.26367,0.102539 0.26367,0 0.51269,-0.19043 0.24903,-0.205078 0.55664,-0.571289 0.14649,-0.161133 0.49805,-0.600586 0.35156,-0.454102 0.58594,-0.761719 l 0.62988,0.454102 q -1.21582,1.787109 -2.3291,2.797851 -1.09863,1.010743 -2.22656,1.010743 -0.68848,0 -1.33301,-0.512696 -0.64453,-0.512695 -0.64453,-1.508789 0,-0.380859 0.38086,-1.860351 0.0586,-0.05859 -0.11719,0.205078 -0.16113,0.263672 -0.51269,0.776367 -0.79102,1.201172 -1.875,2.036133 -1.06934,0.834961 -2.3877,0.834961 -1.18652,0 -2.21191,-0.893555 -1.02539,-0.893555 -1.02539,-3.032227 z" />
         <path
            d="m 189.95508,41.424805 h -0.76172 l 0.10254,-4.101563 q 0.0439,-1.816406 -0.0293,-3.325195 -0.0586,-1.523438 -0.27832,-2.958985 -0.24902,-1.582031 -0.60058,-1.918945 -0.33692,-0.336914 -1.27442,-0.336914 v -0.791016 l 0.9668,-0.146484 q 1.06933,-0.175781 1.74316,-0.292969 0.68848,-0.131836 1.97754,-0.395507 0.5127,1.611328 0.73242,5.200195 0.11719,1.801758 0.16114,4.790039 1.12793,-1.186524 2.12402,-2.475586 1.66992,-2.15332 1.66992,-3.076172 0,-0.527344 -0.65918,-1.245117 -0.65918,-0.717774 -0.65918,-1.450195 0,-0.776368 0.4834,-1.245118 0.49805,-0.46875 1.17188,-0.46875 0.73242,0 1.28906,0.556641 0.55664,0.541992 0.55664,1.582031 0,1.933594 -2.54883,5.405274 -1.99219,2.709961 -4.49707,5.097656 z" />
         <path
            d="m 208.67578,29.354492 q 0,-0.512695 -0.19043,-0.864258 -0.19043,-0.366211 -0.68848,-0.366211 -1.05468,0 -2.08007,1.699219 -1.01075,1.699219 -1.80176,4.760742 2.59277,-0.585937 3.67676,-2.255859 1.08398,-1.669922 1.08398,-2.973633 z m -9.02344,7.41211 q 0,-3.398438 2.60743,-6.459961 2.69531,-3.164063 5.91796,-3.164063 1.39161,0 2.29981,0.688477 0.92285,0.688476 0.92285,1.948242 0,1.904297 -2.13867,3.603515 -2.13867,1.699219 -5.55176,2.167969 -0.0879,0.454102 -0.13184,0.84961 -0.0439,0.395507 -0.0439,0.644531 0,0.922851 0.26367,1.450195 0.46875,0.981445 1.80176,0.981445 1.08398,0 2.15332,-1.113281 0.57129,-0.585937 1.23047,-1.625976 L 209.8623,37.25 q -1.12793,1.889648 -2.12402,2.768555 -1.58203,1.40625 -3.70605,1.40625 -1.58203,0 -2.98828,-1.142578 -1.39161,-1.157227 -1.39161,-3.515625 z" />
         <path
            d="m 216.17578,37.469727 q 0,0.791015 0.33692,1.289062 0.35156,0.483398 0.9375,0.483398 1.77246,0 3.44238,-4.174804 1.40625,-3.47168 1.40625,-5.097656 0,-0.57129 -0.14649,-0.922852 -0.27832,-0.644531 -1.02539,-0.644531 -1.66992,0 -3.39843,3.720703 -1.55274,3.325195 -1.55274,5.34668 z m 4.40918,-10.3125 q 0.82031,0 1.4209,0.336914 0.35156,0.205078 0.76172,0.629882 l 1.33301,-4.936523 q 0.0439,-0.146484 0.0586,-0.292969 0.0147,-0.146484 0.0147,-0.27832 0,-0.527344 -0.32227,-0.717774 -0.32226,-0.190429 -0.9082,-0.190429 h -0.61524 v -0.805664 l 1.28907,-0.117188 q 1.50879,-0.131836 2.3291,-0.263672 0.82031,-0.131836 2.66601,-0.483398 l -3.33984,12.143555 q -0.39551,1.420898 -1.05469,3.911132 -0.65918,2.475586 -0.65918,2.72461 0,0.219726 0.10254,0.322265 0.11719,0.102539 0.27832,0.102539 0.33692,0 0.92285,-0.717773 0.60059,-0.732422 1.04004,-1.435547 l 0.65918,0.483399 q -1.18652,1.757812 -1.93359,2.504882 -1.30371,1.31836 -2.53418,1.31836 -0.64453,0 -1.09863,-0.322266 -0.71778,-0.483398 -0.71778,-1.640625 0,-0.19043 0.0733,-0.65918 0.0879,-0.483398 0.23437,-1.201171 -1.08398,1.757812 -1.875,2.519531 -1.37695,1.333008 -3.04687,1.333008 -1.31836,0 -2.27051,-1.010743 -0.9375,-1.02539 -0.9375,-3.061523 0,-3.208008 2.66601,-6.665039 2.72461,-3.530273 5.46387,-3.530273 z" />
         <path
            d="m 238.57324,41.424805 0.0732,-2.563477 -0.0732,-2.373047 q -0.0586,-1.845703 -0.11719,-2.607422 -0.10253,-1.552734 -0.33691,-2.885742 -0.26367,-1.567383 -0.60059,-1.889648 -0.32226,-0.322266 -1.30371,-0.322266 v -0.791016 l 0.9668,-0.146484 q 1.40625,-0.219726 2.54883,-0.454101 1.15723,-0.234375 0.9668,-0.205079 l 0.16113,-0.0293 q 0.33691,0.849609 0.58594,2.62207 0.26367,1.772461 0.29296,2.651367 l 0.13184,2.885742 2.3291,-4.130859 q 0.55664,-0.981445 1.18653,-2.06543 0.64453,-1.083984 1.14257,-1.933594 h 0.83496 l 0.9375,9.931641 q 1.56739,-1.845703 2.31446,-2.871094 1.25976,-1.757812 1.25976,-2.504883 0,-0.454101 -0.61523,-1.362304 -0.61524,-0.922852 -0.61524,-1.523438 0,-0.688476 0.5127,-1.171875 0.5127,-0.498047 1.17187,-0.498047 0.70313,0 1.27442,0.512696 0.57129,0.498047 0.57129,1.420898 0,2.226563 -3.23731,6.533203 -1.80175,2.387696 -4.93652,5.771485 h -0.83496 q -0.0439,-0.644532 -0.11719,-1.904297 -0.0439,-0.805664 -0.14648,-1.918946 -0.0586,-0.717773 -0.17578,-1.948242 l -0.24903,-2.695312 q -1.45019,2.563476 -1.94824,3.413086 -1.14258,2.021484 -1.4209,2.446289 l -1.69922,2.607422 z" />
         <path
            d="m 255.52148,39.271484 q 0,-0.366211 0.17579,-1.157226 0.10253,-0.454102 0.30761,-1.201172 l 1.80176,-6.738281 q 0.0293,-0.117188 0.0439,-0.234375 0.0293,-0.117188 0.0293,-0.219727 0,-0.600586 -0.38086,-0.74707 -0.38086,-0.146485 -1.3916,-0.19043 v -0.791016 q 0.84961,-0.05859 2.46094,-0.234375 1.62598,-0.190429 2.2998,-0.322265 l 1.28907,-0.249024 -2.32911,8.540039 q -0.29296,1.098633 -0.3955,1.523438 -0.26367,1.083984 -0.26367,1.40625 0,0.322266 0.14648,0.424805 0.14648,0.08789 0.32227,0.08789 0.4541,0 1.12792,-0.776367 0.67383,-0.776367 1.18653,-1.625976 l 0.65918,0.424804 q -1.46485,2.153321 -2.24121,2.900391 -1.27442,1.230469 -2.72461,1.230469 -0.82031,0 -1.47949,-0.498047 -0.64454,-0.512696 -0.64454,-1.552735 z m 5.80079,-18.779297 q 0.83496,0 1.42089,0.585938 0.58594,0.585937 0.58594,1.420898 0,0.834961 -0.58594,1.435547 -0.58593,0.585938 -1.42089,0.585938 -0.83497,0 -1.43555,-0.585938 -0.58594,-0.600586 -0.58594,-1.435547 0,-0.834961 0.58594,-1.420898 0.60058,-0.585938 1.43555,-0.585938 z" />
         <path
            d="m 263.53418,39.271484 q 0,-0.307617 0.0879,-0.805664 0.10254,-0.498047 0.39551,-1.552734 l 2.25586,-8.129883 H 264.75 v -1.040039 q 1.47949,-0.600586 2.49023,-1.318359 1.78711,-1.259766 2.98829,-3.237305 h 1.08398 l -1.18652,4.350586 h 2.15332 v 1.245117 h -2.50489 l -1.93359,6.943359 q -0.26367,0.922852 -0.41016,1.538086 -0.24902,1.054688 -0.24902,1.450196 0,0.27832 0.16113,0.366211 0.17578,0.08789 0.29297,0.08789 0.42481,0 1.08399,-0.732422 0.67382,-0.732421 1.23047,-1.669921 l 0.65917,0.424804 q -1.333,2.021485 -2.13867,2.8125 -1.3623,1.31836 -2.88574,1.31836 -0.87891,0 -1.46484,-0.571289 -0.58594,-0.585938 -0.58594,-1.479493 z" />
         <path
            d="m 271.70801,41 4.61426,-17.006836 q 0.0732,-0.27832 0.16113,-0.673828 0.0879,-0.395508 0.0879,-0.644531 0,-0.673828 -0.42481,-0.820313 -0.4248,-0.146484 -1.45019,-0.117187 v -0.805664 q 2.18262,-0.219727 2.95898,-0.322266 0.79102,-0.117188 3.2959,-0.571289 l -3.19336,12.290039 0.0586,0.0293 q -0.14649,0.146484 0.14648,-0.263672 0.30762,-0.410156 0.9082,-1.186523 1.34766,-1.757813 2.54883,-2.739258 1.21582,-0.981446 2.60742,-0.981446 1.05469,0 1.66993,0.585938 0.62988,0.585937 0.62988,1.757812 0,0.483399 -0.10254,0.952149 -0.10254,0.46875 -0.52734,1.772461 l -2.00684,6.210937 q -0.0439,0.19043 -0.0439,0.263672 0,0.234375 0.14649,0.38086 0.14648,0.131835 0.33691,0.131835 0.39551,0 1.18653,-0.966796 0.3955,-0.512696 1.08398,-1.538086 l 0.65918,0.454101 q -1.3623,2.06543 -2.15332,2.841797 -1.31836,1.289063 -2.8125,1.289063 -0.82031,0 -1.43555,-0.46875 -0.60058,-0.483399 -0.60058,-1.508789 0,-0.65918 0.29297,-1.801758 0.29296,-1.157227 0.77636,-2.578125 l 1.52344,-4.482422 q 0.0293,-0.102539 0.0439,-0.205078 0.0293,-0.117188 0.0293,-0.219727 0,-0.424805 -0.23437,-0.55664 -0.23438,-0.131836 -0.4834,-0.131836 -0.89356,0 -2.09473,1.450195 -1.20117,1.450195 -1.91894,2.797851 -0.73242,1.362305 -1.4502,3.47168 -0.39551,1.21582 -1.18652,3.911133 z" />
      </g>
   </g>
</svg>
