<?xml version="1.0" encoding="UTF-8" standalone="no"?>
<svg width="1000px" height="600px" version="1.1" xmlns="http://www.w3.org/2000/svg" xmlns:xlink="http://www.w3.org/1999/xlink" overflow="visible">
	<desc>Engraved by Verovio 1.1.4-26a3ad8-dirty</desc>
	<defs>
		<symbol id="E003" viewBox="0 0 1000 1000" overflow="inherit">
			<path transform="scale(1,-1)" d="M0 -0c49 0 97.5 -2.26367 135.5 4.73633c206 95 258.5 264.264 263.5 271.264c0 1 -14 7 -15 6c-88 -154 -251 -167 -321 -170c-1 0 -63 -1 -63 -1v-111z" />
		</symbol>
		<symbol id="E004" viewBox="0 0 1000 1000" overflow="inherit">
			<path transform="scale(1,-1)" d="M0 0c49 0 97.5 2.26367 135.5 -4.73633c206 -95 258.5 -264.264 263.5 -271.264c0 -1 -14 -7 -15 -6c-88 154 -251 167 -321 170c-1 0 -63 1 -63 1v111z" />
		</symbol>
		<symbol id="E906" viewBox="0 0 1000 1000" overflow="inherit">
			<path transform="scale(1,-1)" d="M181 -131c0 -20.6667 -3.33333 -36 -10 -46c-11.3333 -16.6667 -32.6667 -25 -64 -25c-46.6667 0 -77 9.33333 -91 28c-11.3333 15.3333 -17 46.6667 -17 94v43c0 13.3333 0.333333 25.6667 1 37v41c0 13.3333 -0.333333 26.3333 -1 39c0 48 5.33333 79.3333 16 94 c14 18.6667 44.6667 28 92 28c32 0 53.3333 -8 64 -24c6.66667 -10 10 -25.6667 10 -47c0 -28 -8.66667 -47.3333 -26 -58c-13.3333 -8 -32.6667 -12 -58 -12h-23c-7.33333 0 -14.3333 0.333333 -21 1c-17.3333 0 -26 -3.66667 -26 -11v-51v-51c0 -8 8 -12 24 -12 c4 0 11.3333 0.333333 22 1c10.6667 0.666667 19 1 25 1c25.3333 0 44 -3.66667 56 -11c18 -10.6667 27 -30.3333 27 -59z" />
		</symbol>
		<symbol id="E990" viewBox="0 0 1000 1000" overflow="inherit">
			<path transform="scale(1,-1)" d="M160 48v-145q0 -4 -2 -4q-1 0 -5 4q-20 20 -68 20h-5q-40 -1 -72 -20q-2 -4 -6 -4q-2 0 -2 4v147q0 25 22 38.5t54 13.5q33 0 58.5 -14.5t25.5 -39.5z" />
		</symbol>
	</defs>
	<style type="text/css">g.page-margin{font-family:Times;} g.tempo{font-weight:bold;} g.dir, g.dynam {font-style:italic;}</style>
	<svg class="definition-scale" viewBox="0 0 7200 4320">
		<g class="page-margin" transform="translate(0, 0)">
			<g class="system" id="system-0000000921928281">
				<path d="M15 360 L15 900" stroke="#000000" stroke-width="30" />
				<use xlink:href="#E003" x="-165" y="360" height="720px" width="720px" />
				<use xlink:href="#E004" x="-165" y="900" height="720px" width="720px" />
				<rect x="-165" y="340" height="580" width="90" />
				<g class="staff" id="staff-0000001246530624">
					<path d="M0 360 L7199 360" stroke="#000000" stroke-width="20" />
					<path d="M0 540 L7199 540" stroke="#000000" stroke-width="20" />
					<path d="M0 720 L7199 720" stroke="#000000" stroke-width="20" />
					<path d="M0 900 L7199 900" stroke="#000000" stroke-width="20" />
					<g class="layer" id="layer-0000001737221083">
						<g class="clef" id="clef-0000000287077369">
							<use xlink:href="#E906" x="360" y="720" height="720px" width="720px" />
						</g>
						<g class="syllable" id="syllable-0000001661069621">
							<g class="neume" id="neume-0000001928756948">
								<g class="nc" id="nc-0000000352373571">
									<use xlink:href="#E990" x="720" y="540" height="720px" width="720px" />
								</g>
								<g class="nc" id="nc-0000001730193018">
									<use xlink:href="#E990" x="1080" y="630" height="720px" width="720px" />
								</g>
								<g class="nc" id="nc-0000000277989499">
									<use xlink:href="#E990" x="1440" y="540" height="720px" width="720px" />
								</g>
							</g>
						</g>
						<g class="syllable" id="syllable-0000001392577468">
							<g class="neume" id="neume-0000000836839102">
								<g class="nc" id="nc-0000000884383111">
									<use xlink:href="#E990" x="1800" y="360" height="720px" width="720px" />
								</g>
								<g class="nc" id="nc-0000001092625690">
									<use xlink:href="#E990" x="2160" y="540" height="720px" width="720px" />
								</g>
							</g>
							<g class="neume" id="neume-0000000627306333">
								<g class="nc" id="nc-0000001140315608">
									<use xlink:href="#E990" x="2520" y="630" height="720px" width="720px" />
								</g>
								<g class="nc" id="nc-0000001140357828">
									<use xlink:href="#E990" x="2880" y="540" height="720px" width="720px" />
								</g>
							</g>
						</g>
						<g class="syllable" id="syllable-0000001849949368">
							<g class="neume" id="neume-0000000541462428">
								<g class="nc" id="nc-0000001470815057">
									<use xlink:href="#E990" x="3240" y="450" height="720px" width="720px" />
								</g>
								<g class="nc" id="nc-0000000304402382">
									<use xlink:href="#E990" x="3600" y="630" height="720px" width="720px" />
								</g>
								<g class="nc" id="nc-0000000784787120">
									<use xlink:href="#E990" x="3960" y="720" height="720px" width="720px" />
								</g>
							</g>
						</g>
						<g class="syllable" id="syllable-0000000072565966">
							<g class="neume" id="neume-0000000257319708">
								<g class="nc" id="nc-0000001887750945">
									<use xlink:href="#E990" x="4680" y="900" height="720px" width="720px" />
								</g>
								<g class="nc" id="nc-0000000506731837">
									<use xlink:href="#E990" x="5040" y="810" height="720px" width="720px" />
								</g>
								<g class="nc" id="nc-0000001869324104">
									<use xlink:href="#E990" x="5400" y="720" height="720px" width="720px" />
								</g>
							</g>
						</g>
						<g class="syllable" id="syllable-0000000044460318">
							<g class="neume" id="neume-0000001948376770">
								<g class="nc" id="nc-0000001537723934">
									<use xlink:href="#E990" x="5760" y="810" height="720px" width="720px" />
								</g>
								<g class="nc" id="nc-0000001707950740">
									<use xlink:href="#E990" x="6120" y="900" height="720px" width="720px" />
								</g>
							</g>
						</g>
					</g>
				</g>
				<g class="staff" id="staff-0000000114177731">
					<path d="M0 1800 L7199 1800" stroke="#000000" stroke-width="20" />
					<path d="M0 1980 L7199 1980" stroke="#000000" stroke-width="20" />
					<path d="M0 2160 L7199 2160" stroke="#000000" stroke-width="20" />
					<path d="M0 2340 L7199 2340" stroke="#000000" stroke-width="20" />
					<g class="layer" id="layer-0000001282228146">
						<g class="clef" id="clef-0000000410052177">
							<use xlink:href="#E906" x="720" y="2160" height="720px" width="720px" />
						</g>
						<g class="syllable" id="syllable-0000000471915616">
							<g class="neume" id="neume-0000000684746192">
								<g class="nc" id="nc-0000000164384671">
									<use xlink:href="#E990" x="1152" y="1980" height="720px" width="720px" />
								</g>
								<g class="nc" id="nc-0000001149195455">
									<use xlink:href="#E990" x="1296" y="1890" height="720px" width="720px" />
								</g>
								<g class="nc" id="nc-0000000060091067">
									<use xlink:href="#E990" x="1440" y="1980" height="720px" width="720px" />
								</g>
							</g>
						</g>
						<g class="syllable" id="syllable-0000000633248979">
							<g class="neume" id="neume-0000001732956661">
								<g class="nc" id="nc-0000001629380813">
									<use xlink:href="#E990" x="1800" y="1800" height="720px" width="720px" />
								</g>
								<g class="nc" id="nc-0000000291857547">
									<use xlink:href="#E990" x="2160" y="1980" height="720px" width="720px" />
								</g>
							</g>
							<g class="neume" id="neume-0000000397142681">
								<g class="nc" id="nc-0000000397864691">
									<use xlink:href="#E990" x="2520" y="2070" height="720px" width="720px" />
								</g>
								<g class="nc" id="nc-0000001795268526">
									<use xlink:href="#E990" x="2880" y="1980" height="720px" width="720px" />
								</g>
							</g>
						</g>
						<g class="syllable" id="syllable-0000000932876132">
							<g class="neume" id="neume-0000000618295646">
								<g class="nc" id="nc-0000000021554489">
									<use xlink:href="#E990" x="3240" y="1890" height="720px" width="720px" />
								</g>
								<g class="nc" id="nc-0000001489043927">
									<use xlink:href="#E990" x="3600" y="2070" height="720px" width="720px" />
								</g>
								<g class="nc" id="nc-0000001734342598">
									<use xlink:href="#E990" x="3960" y="2160" height="720px" width="720px" />
								</g>
							</g>
						</g>
						<g class="syllable" id="syllable-0000001300503855">
							<g class="neume" id="neume-0000000801350217">
								<g class="nc" id="nc-0000001423146782">
									<use xlink:href="#E990" x="4680" y="2340" height="720px" width="720px" />
								</g>
								<g class="nc" id="nc-0000000155104788">
									<use xlink:href="#E990" x="5040" y="2250" height="720px" width="720px" />
								</g>
								<g class="nc" id="nc-0000001948508105">
									<use xlink:href="#E990" x="5400" y="2160" height="720px" width="720px" />
								</g>
							</g>
						</g>
						<g class="syllable" id="syllable-0000001597587632">
							<g class="neume" id="neume-0000000885107237">
								<g class="nc" id="nc-0000000378109490">
									<use xlink:href="#E990" x="5760" y="2250" height="720px" width="720px" />
								</g>
								<g class="nc" id="nc-0000000482086957">
									<use xlink:href="#E990" x="6120" y="2340" height="720px" width="720px" />
								</g>
							</g>
						</g>
					</g>
				</g>
				<g class="barLineAttr" id="bline-0000002054155628" />
			</g>
		</g>
	</svg>
</svg>
