<?xml version="1.0" encoding="UTF-8" standalone="no"?>
<svg width="2100px" height="2970px" version="1.1" xmlns="http://www.w3.org/2000/svg" xmlns:xlink="http://www.w3.org/1999/xlink" overflow="visible">
	<desc>Engraved by Verovio 1.1.4-267690e-dirty</desc>
	<defs>
		<symbol id="E05C" viewBox="0 0 1000 1000" overflow="inherit">
			<path transform="scale(1,-1)" d="M0 502h118v-502h-118v502zM175 0v-502h43v456c13 -7 25 -18 37 -29c10 -12 20 -24 27 -38c6 -14 10 -31 14 -49c3 -20 5 -41 5 -62c7 35 32 54 73 60c78 -19 99 -68 100 -165c0 -44 -9 -77 -31 -100c-18 -23 -41 -35 -69 -35c-43 0 -65 37 -66 84c7 -15 19 -18 39 -24 c6 0 10 2 16 4l17 10l10 14l7 18c-4 32 -23 48 -56 48c-56 0 -77 -39 -77 -98c10 -36 22 -65 53 -78c3 -3 22 -9 27 -11l34 -3l35 -2c120 0 190 61 190 178l3 33c0 52 -20 97 -60 134c-20 17 -45 29 -74 39c-31 9 -64 13 -101 13l-93 88v34v0l93 88c37 0 70 4 101 13 c29 10 54 22 74 39c40 37 60 82 60 134l-3 33c0 117 -70 178 -190 178l-35 -2l-34 -3c-5 -2 -24 -8 -27 -11c-9 -4 -16 -10 -23 -17c-17 -17 -22 -33 -30 -61c0 -59 21 -98 77 -98c33 0 52 16 56 48l-7 18l-10 14l-17 10c-6 2 -10 4 -16 4c-20 -6 -32 -9 -39 -24 c1 47 23 84 66 84c28 0 51 -12 69 -35c22 -23 31 -56 31 -100c-1 -97 -22 -146 -100 -165c-41 6 -66 25 -73 60c0 -21 -2 -42 -5 -62c-4 -18 -8 -35 -14 -49c-7 -14 -17 -26 -27 -38c-12 -11 -24 -22 -37 -29v456h-43v-502zM0 -502v502h118v-502h-118z" />
		</symbol>
	</defs>
	<style type="text/css">g.page-margin{font-family:Times;} g.tempo{font-weight:bold;} g.dir, g.dynam {font-style:italic;}</style>
	<svg class="definition-scale" viewBox="0 0 21000 29700">
		<g class="page-margin" transform="translate(500, 500)">
			<g class="system" id="system-0000000457829501">
				<g class="section boundaryStart" id="m-b855105d-515c-42ed-993c-a992675c4a27" />
				<g class="pb" id="m-61b96c6f-7b06-412e-90ae-823e7a4fb293" />
				<g class="staff" id="m-bf71f561-cbf0-44e8-acee-1a97c25f415d">
					<g class="layer" id="m-6ac64bea-ff79-4312-80a8-71c569860458">
						<g class="custos" id="m-0be9149c-3f12-42f2-acdf-91068002ae68" />
						<g class="clef" id="m-3152c714-bf21-47a7-b702-d1276f777809">
							<use xlink:href="#E05C" x="930" y="1040" height="514px" width="514px" />
						</g>
						<g class="clef" id="m-e835185f-0bc7-44f8-a6ee-0eb46c30d91e">
							<use xlink:href="#E05C" x="930" y="1040" height="514px" width="514px" />
						</g>
						<g class="clef" id="m-233f1399-80ab-4b75-9cd5-33791cf86b61">
							<use xlink:href="#E05C" x="930" y="1040" height="514px" width="514px" />
						</g>
						<g class="custos" id="m-bd908f61-7a5f-414b-afbd-bdf0190bf81c" />
						<g class="clef" id="m-47debedb-6a1a-4c01-b0de-e8bc27f2c3c8">
							<use xlink:href="#E05C" x="930" y="1040" height="514px" width="514px" />
						</g>
						<g class="custos" id="m-15ebff6d-a1b3-4fff-b083-58828ee11bcd" />
						<g class="custos" id="m-5b685ef7-604a-4165-a011-0735a9526449" />
						<g class="clef" id="m-7a4b8720-ddcb-4f64-888a-81adc521a727">
							<use xlink:href="#E05C" x="930" y="1040" height="514px" width="514px" />
						</g>
						<g class="clef" id="m-6c2df42e-3743-42cc-8a79-4502fad23453">
							<use xlink:href="#E05C" x="930" y="860" height="514px" width="514px" />
						</g>
						<g class="custos" id="m-1111a308-a521-4290-be4d-ae7ec7f45fc5" />
						<g class="clef" id="m-6b355d66-d042-444a-a7ea-0c830c6e2d1b">
							<use xlink:href="#E05C" x="930" y="1040" height="514px" width="514px" />
						</g>
						<g class="custos" id="m-da66f1eb-9cb3-426b-8216-ec9ef378201b" />
						<g class="clef" id="m-31895d6c-1761-4550-8da0-82b38643dd2f">
							<use xlink:href="#E05C" x="930" y="1040" height="514px" width="514px" />
						</g>
						<g class="custos" id="m-ad450fff-383c-454e-8dc8-d0a9d43347f4" />
						<g class="clef" id="m-40f5adcc-ffa7-4fbb-969c-1f6eecc0a678">
							<use xlink:href="#E05C" x="930" y="1040" height="514px" width="514px" />
						</g>
						<g class="custos" id="m-b242ac5d-ba84-4d31-bc17-a07d4425245f" />
						<g class="clef" id="m-4d56bff3-0465-4316-993c-f63d0e0bc656">
							<use xlink:href="#E05C" x="930" y="860" height="514px" width="514px" />
						</g>
						<g class="custos" id="m-a70df3b7-cf5a-4b7a-a827-b92f33d54dfe" />
						<g class="clef" id="m-0bac0a27-c58d-40ac-819f-fc9b46dc1d92">
							<use xlink:href="#E05C" x="930" y="860" height="514px" width="514px" />
						</g>
						<g class="custos" id="m-2222de06-f619-40ac-9af5-aaa09cdcc9e8" />
						<g class="custos" id="m-6a9ea2df-52cc-4d1e-addc-c474d5c9e28a" />
					</g>
				</g>
				<g class="barLineAttr" id="bline-0000000511227958" />
				<g class="boundaryEnd m-b855105d-515c-42ed-993c-a992675c4a27" id="bdend-0000000635852953" />
			</g>
		</g>
	</svg>
</svg>
